<?xml version="1.0" encoding="utf-8"?>
<!-- Generator: Adobe Illustrator 16.0.0, SVG Export Plug-In . SVG Version: 6.00 Build 0)  -->
<!DOCTYPE svg PUBLIC "-//W3C//DTD SVG 1.1//EN" "http://www.w3.org/Graphics/SVG/1.1/DTD/svg11.dtd">
<svg version="1.1" id="Layer_1" xmlns="http://www.w3.org/2000/svg" xmlns:xlink="http://www.w3.org/1999/xlink" x="0px" y="0px"
	 width="800px" height="800px" viewBox="0 0 800 800" enable-background="new 0 0 800 800" xml:space="preserve">
<g>
	<path fill="#9C824A" stroke="#9C824A" stroke-width="0.793" stroke-miterlimit="282" d="M400,23.245
		c-76.417,0-217.323,19.771-289.081,61.498C16.442,419.695,144.93,647.472,400,776.755
		c255.072-129.283,383.558-358.187,289.079-692.01C617.25,43.016,476.415,23.245,400,23.245L400,23.245z"/>
	<path fill="#023474" stroke="#023474" stroke-width="0.793" stroke-miterlimit="282" d="M400,44.781
		c-75.075,0-159.605,9.603-270.313,54.79C47.274,391.95,142.883,626.292,400,754.019
		c257.116-127.727,352.653-362.07,270.241-654.447C559.532,54.384,475.073,44.781,400,44.781L400,44.781z"/>
	<path fill="#FFFFFF" stroke="#FFFFFF" stroke-width="0.793" stroke-miterlimit="282" d="M399.648,44.499
		c-74.723,0-154.949,11.083-227.344,38.48c-75.074,299.369-19.684,517.964,227.768,670.827L399.648,44.499L399.648,44.499z
		 M400.072,753.807C647.521,600.943,702.84,382.349,627.764,82.979c-72.394-27.397-152.549-38.48-227.269-38.48L400.072,753.807
		L400.072,753.807z"/>
	<path fill="#EF0107" stroke="#EF0107" stroke-width="0.793" stroke-miterlimit="282" d="M400.072,44.429
		c-75.147,0-151.209,11.367-213.019,32.901c-77.757,313.772-15.313,525.66,213.087,670.471L400.072,44.429L400.072,44.429z"/>
	<path fill="#DB0007" stroke="#DB0007" stroke-width="0.793" stroke-miterlimit="282" d="M400.211,44.429
		c75.146,0,151.211,11.367,213.088,32.901c77.759,313.772,15.313,525.66-213.156,670.471L400.211,44.429L400.211,44.429z"/>
	<path fill="#FFFFFF" d="M302.982,517.91c-33.163,22.739-59.551,30.928-90.174,39.048l-18.487-28.735
		c28.154-14.264,57.294-34.104,86.647-62.839C283.438,493.271,296.419,513.039,302.982,517.91L302.982,517.91z"/>
	<path fill="#9C824A" d="M298.466,516.711c-31.469,21.604-75.288,36.646-125.454,43.986l-10.232-15.532
		c42.97-16.1,84.459-40.104,116.635-73.851C284.284,492.916,291.692,507.25,298.466,516.711L298.466,516.711z"/>
	<path fill="#FFFFFF" d="M214.643,384.749c0,12.073-9.736,21.817-21.803,21.817c-12.065,0-21.873-9.744-21.873-21.817l0,0
		c0-12.074,9.808-21.816,21.873-21.816C204.907,362.933,214.643,372.675,214.643,384.749L214.643,384.749z"/>
	<path fill="#FFFFFF" d="M212.313,341.749v82.328h64.843c4.233-27.608,19.898-56.91,55.389-82.328H212.313"/>
	<path fill="#FFFFFF" d="M214.925,424.077c-14.466,0.211-26.389-17.937-26.601-40.67c-0.142-22.737,11.432-41.375,25.967-41.658
		c0.142,0,0.283,0,0.496,0"/>
	<path fill="#9C824A" d="M205.47,384.749c0,9.319-6.774,16.806-15.1,16.806c-8.327,0-15.1-7.483-15.1-16.806l0,0
		c0-9.321,6.773-16.805,15.1-16.805C198.696,367.942,205.47,375.428,205.47,384.749L205.47,384.749z"/>
	<path fill="#9C824A" d="M214.078,346.058v73.992h64.351c5.079-24.569,17.569-50.693,48.755-73.992H214.078"/>
	<path fill="#9C824A" d="M216.477,420.05c-13.619,0.286-24.767-16.096-24.978-36.502c-0.141-20.404,10.796-37.21,24.413-37.49
		c0.141,0,0.282,0,0.423,0"/>
	<path fill="#FFFFFF" d="M523.123,443.351c0,68.704-55.597,124.339-124.252,124.339c-68.583,0-124.253-55.635-124.253-124.339l0,0
		c0-68.698,55.669-124.337,124.253-124.337C467.526,319.015,523.123,374.652,523.123,443.351L523.123,443.351L523.123,443.351z"/>
	<path fill="#9C824A" d="M516.637,443.351c0,65.1-52.71,117.841-117.765,117.841c-64.984,0-117.692-52.741-117.692-117.841l0,0
		c0-65.025,52.708-117.839,117.692-117.839C463.927,325.51,516.637,378.253,516.637,443.351L516.637,443.351L516.637,443.351z"/>
	<path fill="#FFFFFF" d="M497.09,443.351c0,54.298-43.96,98.286-98.219,98.286c-54.189,0-98.147-43.988-98.147-98.286l0,0
		c0-54.296,43.958-98.283,98.147-98.283C453.13,345.067,497.09,389.055,497.09,443.351L497.09,443.351L497.09,443.351z"/>
	<path fill="#9C824A" d="M490.601,443.351c0,50.694-41.068,91.718-91.729,91.718c-50.59,0-91.656-41.023-91.656-91.718l0,0
		c0-50.693,41.066-91.715,91.656-91.715C449.532,351.634,490.601,392.657,490.601,443.351L490.601,443.351L490.601,443.351z"/>
	<path fill="#FFFFFF" d="M437.111,443.351c0.073,21.113-17.072,38.271-38.172,38.34c-21.165,0-38.313-17.155-38.313-38.268v-0.072
		c0-21.109,17.076-38.268,38.243-38.268c21.096-0.068,38.242,17.089,38.242,38.198C437.111,443.351,437.111,443.351,437.111,443.351
		L437.111,443.351z"/>
	<path fill="#9C824A" d="M432.601,443.351c0,18.646-15.033,33.752-33.658,33.752c-18.628,0-33.728-15.038-33.799-33.677v-0.071
		c0-18.642,15.101-33.752,33.728-33.752s33.729,15.042,33.729,33.679V443.351L432.601,443.351z"/>
	<path fill="#FFFFFF" d="M416.23,443.351c0,9.533-7.763,17.299-17.358,17.368c-9.525,0-17.287-7.764-17.287-17.368l0,0
		c0-9.601,7.762-17.296,17.287-17.364C408.466,425.981,416.23,433.75,416.23,443.351L416.23,443.351L416.23,443.351z"/>
	<path fill="#9C824A" d="M411.431,443.351c0,6.918-5.573,12.569-12.559,12.569c-6.915,0-12.559-5.58-12.559-12.569l0,0
		c0-6.915,5.644-12.565,12.559-12.565C405.785,430.785,411.431,436.362,411.431,443.351L411.431,443.351L411.431,443.351z"/>
	<rect x="385.677" y="349.516" fill="#FFFFFF" width="26.106" height="60.932"/>
	<rect x="389.769" y="340.761" fill="#9C824A" width="17.989" height="77.455"/>
	<polygon fill="#FFFFFF" points="471.616,383.9 485.871,405.788 434.785,438.977 420.604,417.085 	"/>
	<polygon fill="#9C824A" points="481.145,382.56 490.952,397.67 426.036,439.893 416.23,424.713 	"/>
	<polygon fill="#FFFFFF" points="362.25,448.296 376.222,470.323 324.785,502.944 310.813,480.843 	"/>
	<polygon fill="#9C824A" points="371,447.022 380.667,462.275 315.331,503.721 305.663,488.468 	"/>
	<rect x="385.677" y="478.302" fill="#FFFFFF" width="26.106" height="60.93"/>
	<rect x="389.769" y="469.62" fill="#9C824A" width="17.989" height="77.382"/>
	<path fill="#EF0107" stroke="#EF0107" stroke-width="0.3115" stroke-miterlimit="282" d="M373.4,471.805
		c3.529,2.967,7.408,5.649,12.277,7.697l-0.141,54.366c-24.625-3.178-43.252-15.321-57.364-32.618l45.3-29.445"/>
	<path fill="#DB0007" stroke="#DB0007" stroke-width="0.3115" stroke-miterlimit="282" d="M424.271,472.02
		c-3.599,2.895-7.409,5.646-12.276,7.624l0.069,54.367c24.627-3.178,43.255-15.322,57.367-32.619l-45.229-29.372"/>
	<path fill="#DB0007" d="M436.621,449.211l53.904-6.497c0.425,13.485-2.823,25.349-7.408,36.717l-46.643-30.22"/>
	<path fill="#FFFFFF" stroke="#FFFFFF" stroke-width="0.3115" stroke-miterlimit="282" d="M436.69,449
		c0.21-0.847,0.142-1.623,0.496-4.093l53.204-6.92c0.21,2.472,0.068,3.389,0,4.516L436.69,449L436.69,449z"/>
	<path fill="#FFFFFF" d="M515.435,404.167h69.785c-2.188,8.258-4.307,16.661-14.326,20.404
		c-16.018,6.003-49.249,11.791-49.249,11.791C521.008,427.255,518.963,414.896,515.435,404.167L515.435,404.167z"/>
	<path fill="#FFFFFF" d="M466.821,340.55l182.323,0.211l-6.421,66.65l-124.537,6.498
		C511.482,384.111,488.834,355.659,466.821,340.55L466.821,340.55z"/>
	<path fill="#9C824A" d="M473.31,345.28l232.776,0.211l-8.893,54.298l-180.63,8.897C509.436,381.713,493.138,362.015,473.31,345.28
		L473.31,345.28z"/>
	<path fill="#9C824A" d="M515.435,404.167h64.279c-2.116,7.341-3.6,14.049-13.054,17.366c-15.026,5.367-45.299,9.604-45.299,9.604
		C520.092,422.313,518.255,413.344,515.435,404.167L515.435,404.167z"/>
	<path fill="#9C824A" d="M444.877,243.749c0,2.966-0.636,11.086-0.986,13.345h36.128c-2.193-9.604-3.182-22.946-3.462-33.257
		c0,0.706-0.632-20.688-0.632-20.688c0-1.484,0.632-3.741,1.548-4.448c1.272-1.482,2.546-1.482,4.099-1.482
		c1.548-0.706,4.373-0.706,4.726,5.155l0.915,22.169c0.354,10.379,0.354,24.431-0.915,32.551h34.783
		c-0.284-2.966-1.269-10.381-1.552-12.569c4.376,9.604,13.83,14.756,26.391,14.756c7.478,0,13.192-2.896,17.568-5.861
		c0,0.706,1.834,3.675,1.834,3.675h64.634c-2.824-9.604-4.659-22.946-5.646-33.257l-9.103-72.441l-33.234-5.931
		c2.825,9.603,4.73,23.653,5.928,33.256l5.079,46.601c0.919,8.119,1.554,17.017,1.554,26.618v0.704l-1.27-2.965
		c-2.542-5.932-3.742-13.274-4.73-24.36l-1.198-14.827c-1.904-23.652-14.748-33.963-43.041-33.963
		c-4.658,0-16.582,0.706-23.848,2.966l1.902,26.548l7.552-4.379c6.283-3.74,10.938-5.225,16.581-5.225
		c4.446,0,7.268,1.486,8.539,4.45c-5.361,0.774-11.291,2.259-17.922,5.153c-10.02,4.447-16.303,11.154-19.123,18.497v-0.705
		l-0.989-24.43c-0.561-15.533-10.65-25.842-26.034-25.842c-6.845,0-13.127,2.188-18.769,5.929c-0.353-0.776-0.635-1.484-0.989-2.259
		l-1.269-2.968l-28.86-1.482c1.271,5.225,3.176,19.983,3.459,25.138c-1.554-7.344-5.646-15.463-13.197-21.394
		c-5.925-3.742-13.477-5.932-21.307-5.932c-10.657,0-21.664,4.448-28.861,11.862c-7.549,7.343-11.29,17.722-11.642,29.515
		c-2.822-2.968-6.561-5.862-10.938-7.343l-13.195-6.709h-0.634c-3.104-1.484-3.458-2.19-3.458-2.896
		c0.354-1.484,3.458-2.968,7.551-2.968c5.645,0,13.478,2.968,19.756,6.639l0.634-23.652c-4.728-2.261-11.289-3.672-20.744-3.672
		c-5.011,0-14.395,0.705-22.581,5.152c-2.189,1.483-4.093,2.966-5.927,4.45l0.283-6.711c-7.549-1.41-15.665-1.41-25.685,8.192
		c-0.352-0.778-0.988-4.45-1.622-5.932l-31.044,1.483c2.186,8.827,2.539,21.396,1.904,32.48l-0.634,11.861v1.483
		c-0.354,5.931-0.634,12.567-1.271,18.498c-2.541-8.191-5.293-19.275-7.552-28.102l-15.38-69.476l-43.888,6.638
		c0.282,0.705,0.916,2.966,1.27,5.152c0.285,2.966,0.285,8.896-3.809,21.464c-7.198,19.913-17.219,50.272-26.954,71.665
		c-1.271,2.966-3.809,7.414-3.809,7.414h34.22c0.636-5.155,2.823-14.05,5.009-20.688c4.729,0,16.936,0,22.578-0.778
		c1.271,5.225,2.541,11.861,2.896,16.31l0.564,5.155h68.441c-1.553-11.086-0.917-25.844-0.352-34.034
		c0.634-9.602,2.54-16.238,6.632-19.91c3.104-3.742,6.561-4.447,9.103-4.447c-0.352,13.272,8.115,19.205,15.664,22.876l13.476,6.704
		c4.728,2.968,4.728,3.673,4.728,5.156c-0.283,2.188-4.093,2.967-7.549,2.967c-7.197,0-16.935-4.45-27.59-16.239l-0.634,30.994
		c8.469,4.448,19.122,6.637,28.578,6.637c15.665,0,32.316-7.344,36.691-21.395c7.833,14.756,23.213,21.395,38.313,21.395
		C426.036,257.799,436.054,253.419,444.877,243.749L444.877,243.749z M209.209,213.458c1.905-5.154,3.456-9.604,6.279-17.722
		c1.904,8.118,2.821,13.273,3.739,17.016C215.488,213.458,213.583,213.458,209.209,213.458L209.209,213.458z M401.27,205.338
		c0-10.309,3.741-14.756,7.482-14.756c1.271,0,4.092-0.777,5.36,4.447c0.634,2.189,0.915,3.672,0.915,4.379
		c0,2.966-1.55,3.741-3.454,3.741v0.705c0,0-5.294,1.483-10.304,3.742C401.27,206.821,401.27,206.115,401.27,205.338L401.27,205.338
		z M437.042,226.803c-6.635,5.86-11.36,9.602-19.191,9.602c-6.277-0.776-10.02-4.448-12.208-9.602
		c6.564-2.26,31.966-11.861,39.23-14.829c0,5.932,0.286,12.567,0.286,12.567v12.569L437.042,226.803L437.042,226.803z
		 M554.029,237.113c-5.924,0-7.197-4.45-7.479-7.346c0.281-2.965,1.199-7.413,10.651-10.377c0.283,3.672,0.637,6.637,0.637,6.637
		v2.964c0.284,2.259,0.284,4.447,0.563,6.637C557.204,236.404,555.654,236.404,554.029,237.113"/>
	<path fill="#FFFFFF" d="M363.873,178.721c-3.104-0.706-7.831-2.188-15.379-2.188c-5.927,0-13.761,1.482-19.759,4.449
		c-6.915,4.446-11.925,10.308-12.208,17.016c-0.634,10.309,4.729,14.757,12.56,18.429c5.292,2.967,10.372,5.932,13.478,7.413
		c4.092,2.189,7.831,4.448,7.549,9.604c-0.352,5.155-5.079,8.897-12.911,8.897c-6.563,0-15.947-4.447-22.579-10.38l-0.283,15.533
		c5.644,2.967,14.746,4.446,23.213,4.446c14.395,0,32.315-6.636,32.598-22.946c0.351-12.567-8.466-17.017-13.759-19.911
		c-5.362-2.259-10.725-5.223-13.193-5.931c-2.54-1.484-7.55-2.965-7.197-8.897c0.565-5.153,6.563-7.413,12.841-7.413
		c5.293,0,10.655,1.482,14.747,3.741"/>
	<path fill="#FFFFFF" d="M234.961,151.396l-33.304,4.447c0.637,4.449-0.634,13.275-4.092,23.653
		c-6.842,19.912-18.133,53.165-26.954,72.44h20.746c1.199-6.706,2.751-12.566,5.927-20.687l30.765-0.777
		c1.199,5.93,3.458,15.533,3.74,21.464h27.941c-3.457-8.189-7.832-25.137-10.652-36.997L234.961,151.396L234.961,151.396z
		 M201.658,218.612l15.1-43.563l9.105,42.858"/>
	<path fill="#FFFFFF" d="M314.625,178.721l-0.634,14.827c-5.011-0.775-11.29,0.706-16.3,5.861
		c-4.376,4.447-7.196,11.086-7.83,22.948c-0.637,9.603-0.92,20.688-0.354,29.582h-23.498c1.553-8.895,2.189-19.205,2.47-28.875
		l0.634-11.792c0.634-9.603,0.634-19.205-0.917-28.1l20.745-0.707c0.917,2.967,1.552,8.12,1.2,13.273
		C299.243,181.686,308.063,178.721,314.625,178.721"/>
	<path fill="#FFFFFF" d="M610.55,155.843l-21.381-3.741c2.189,9.675,2.821,16.311,4.095,25.911l5.009,46.53
		c0.987,9.604,1.906,18.5,1.622,27.396h23.216c-2.26-8.896-3.176-17.792-4.094-27.396"/>
	<path fill="#FFFFFF" d="M514.803,251.939c-1.202-8.896-1.839-17.792-2.193-27.396l-0.916-24.357
		c-0.632-13.345-8.183-20.688-20.743-20.688c-6.843,0-15.03,2.189-21.944,11.084c-0.281-2.259-1.269-8.12-2.537-11.084
		l-18.771-0.777c1.553,8.897,2.188,17.722,2.469,27.324l0.353,18.498c0.283,9.604,0,18.5-0.633,27.396h23.496
		c-1.201-8.896-1.836-17.792-2.188-27.396l-0.636-20.687c-0.282-7.414,5.361-12.568,11.008-12.568
		c6.563,0,9.735,4.448,10.021,11.086l0.987,22.169c0.283,9.604,0.283,18.5-0.353,27.396"/>
	<path fill="#FFFFFF" d="M588.252,251.939c-2.821-7.415-4.374-16.31-5.011-25.912l-1.272-14.758
		c-1.271-17.723-8.744-29.584-37.675-29.584c-5.013,0-12.21,0.776-18.135,2.188l0.916,13.345c5.926-3.672,11.927-6.637,19.476-6.637
		c7.83,0,14.393,3.672,15.028,14.756c-7.55,0.777-14.466,2.189-22.296,5.932c-8.746,3.672-17.851,11.085-16.935,22.876
		c0.917,13.344,11.004,19.273,23.567,19.273c9.735,0,16.3-4.447,20.04-8.895c0.634,2.965,1.622,5.154,2.538,7.415H588.252
		L588.252,251.939L588.252,251.939z M554.029,242.336c-6.916,0-12.557-3.742-12.841-11.861c0-8.12,5.009-14.756,21.027-17.017
		l0.916,12.569c0.353,4.447,0.353,7.413,0.99,11.086C561.863,240.076,558.123,241.561,554.029,242.336"/>
	<path fill="#FFFFFF" d="M428.223,180.979c-5.357-3.742-11.641-5.225-18.2-5.225c-15.382,0-35.775,11.086-35.141,39.187
		c0.283,28.808,22.297,37.702,37.68,37.702c13.475,0,21.662-5.154,28.223-11.791l-4.73-6.707c-3.453,2.965-9.099,7.413-18.203,7.413
		c-9.737-0.706-15.944-7.413-19.403-17.722l42.618-15.533C439.795,194.254,434.785,186.134,428.223,180.979L428.223,180.979z
		 M413.478,208.304l-16.935,6.638c-0.351-2.965-0.634-5.932-0.634-9.604c0-17.017,9.385-19.98,12.558-19.98
		c5.012-0.706,9.385,2.259,11.006,8.189C421.309,200.186,420.677,206.115,413.478,208.304"/>
	<polygon fill="#FFFFFF" points="313.072,400.777 327.395,378.959 378.338,412.286 364.015,434.172 	"/>
	<polygon fill="#9C824A" points="308.344,393.292 318.224,378.182 382.926,420.615 373.047,435.727 	"/>
	<polygon fill="#FFFFFF" points="421.803,470.252 436.127,448.364 487.068,481.76 472.747,503.651 	"/>
	<polygon fill="#9C824A" points="417.072,462.768 426.955,447.659 491.659,490.094 481.777,505.133 	"/>
</g>
</svg>
