<?xml version="1.0" encoding="utf-8"?>
<!-- Generator: Adobe Illustrator 16.0.0, SVG Export Plug-In . SVG Version: 6.00 Build 0)  -->
<!DOCTYPE svg PUBLIC "-//W3C//DTD SVG 1.1//EN" "http://www.w3.org/Graphics/SVG/1.1/DTD/svg11.dtd">
<svg version="1.1" id="Layer_1" xmlns="http://www.w3.org/2000/svg" xmlns:xlink="http://www.w3.org/1999/xlink" x="0px" y="0px"
	 viewBox="0 0 3000 3000" enable-background="new 0 0 3000 3000" xml:space="preserve">
<g>
	<path fill="#8C2E42" d="M2535.959,29.445H464.031v2224.059c0,173.708,105.605,310.474,316.817,411.33
		c70.23,33.785,163.686,68.638,280.913,104.016l261.358,79.734l36.949,16.9c27.452,12.667,47,23.225,58.093,31.673
		c26.927,19.017,53.334,43.295,79.208,73.397c24.808-25.871,44.882-44.888,59.654-57.025c29.049-23.766,66.01-44.362,111.939-61.775
		c32.734-12.663,119.334-40.128,259.773-82.895c120.922-36.965,215.986-71.275,284.096-102.968
		c215.412-99.798,323.137-237.09,323.137-412.385L2535.959,29.445L2535.959,29.445z"/>
	<path fill="#B6D1E6" d="M1424.492,2810.029c24.282,16.368,48.567,36.968,73.392,62.833c22.71-22.173,41.175-38.545,54.894-49.093
		c25.875-20.064,60.221-38.022,104.035-53.333c30.09-11.09,110.9-34.844,241.297-71.817
		c112.482-32.209,200.648-61.767,264.563-89.228c200.107-86.064,299.902-205.397,299.902-356.942V104.41H537.424v2148.017
		c0,150.497,98.219,268.778,294.104,355.891c65.486,29.036,152.599,59.125,261.365,90.282l242.891,69.18L1424.492,2810.029
		L1424.492,2810.029z"/>
	<path fill="#FFFFFF" d="M941.969,833.959l-71.82-10.559l-32.737-66.009L805.719,823.4l-72.326,10.559l52.269,51.75l-12.669,73.394
		c21.65-11.618,43.298-23.228,64.419-34.843l64.939,34.843l-12.673-73.394L941.969,833.959L941.969,833.959z"/>
	<path fill="#FDDD1C" d="M1188.633,1175.955c-0.452,17.779,2.147,31.487,10.82,42.139c-12.632,10.048-10.112,25.906-4.266,40.019
		c6.336,15.337,28.031,39.645,54.836,50.9c4.564-7.926-8.105-29.07-3.548-43.611c16.392,12.576,31.955,22.438,42.603,21.461
		c-7.202-14.558-7.968-24.343-5.308-28.215c28.798-23.955,62.948-54.218,83.346-60.903c16.52-5.414,33.814,6.076,36.625,26.878
		c3.218,23.792-5.974,43.814-21.669,60.558c-27.863,29.737-65.283,44.052-94.164,76.077
		c-46.055,51.077-55.68,107.51-111.545,110.438c30.865-20.775,48.43-38.57,66.077-72.291
		c-110.222,16.795-177.199-42.612-244.994-77.353c-29.698-15.228-59.41-18.417-76.256-22.062
		c-26.901-27.804-40.651-50.618-46.987-87.938c-7.17-42.298,3.545-79.814-35.23-84.385c-22.231-30.763-50.514-51.597-92.029-24.385
		c22.211,3.85,38.343,9.112,49.305,41.952c-3.202,4.814-10.66,12.035-10.855,20.465c-14.029,0.785-18.398,1.983-27.619,10.817
		c-36.878-14.907-71.618-8.757-89.237,27.817c25.654-6.859,45.494-6.017,63.122,11.259c1.904,11.834,3.138,20.484,9.855,29.08
		c-15.25,9.308-24.548,27.847-25.141,40.174c-29.782,7.093-47.789,25.688-49.385,53.974c21.308-14.897,43.362-16.73,54.266-13.798
		c6.945,7.112,13.139,20.945,27.417,24.933c16.177,4.522,47.52-2.237,65.618,3.093c7.097,12.517,9.722,19.045,9.084,27.017
		c-2.52,31.266-53.388,10.686-48.754,57.471c-17.653,5.062-28.358-1.122-43.788-12.183c10.385,46.298,37.437,67.404,73.427,45.612
		c30.528,6.65,49.413-24.958,76.913-40.029c26.484-14.509,65.103,4.135,86.948,19.603c33.523,23.722,69.125,53.747,87.584,125.272
		c11.978-12.33,20.086-30.381,22.096-48.016l86.959,80.52l-187.507,145.41c-12.795,9.913-27.23,19.01-40.695,13.676
		c-11.522-4.57-18.096-17.291-28.15-26.801c-14.705-13.888-34.475-23.105-55.618-11.525c-33.52-1.135-64.616,6.788-70.946,57.108
		c11.083-10.003,21.279-18.885,42.083-12.625c0.097,12.625,3.299,23.647,11.424,33.055c-10.42,6.423-17.237,16.455-18.035,22.871
		c-30.937,1.786-53.49,19.299-56.52,55.911c17.548-17.577,32.186-25.324,52.913-16.84c6.128,37.554,23.392,42.228,43.289,39.68
		c-5.612,16.038-6.837,27.458,0.378,40.884c-10.795,23.965,0.936,54.865,16.449,65.16c-2.01-14.839,0.4-32.496,8.82-40.291
		c17.635,4.346,30.733-2.705,48.378-25.702c4.202,19.333,17.753,30.048,34.792,28.497c2.301,20.153,11.442,36.391,23.368,46.891
		c-3.41-16.433-5.337-34.666-2.323-51.103c31.961-25.256,25.51-52.763,30.801-84.167c5.891-34.945,23.51-50.506,51.68-68.993
		c54.689-35.907,119.208-63.141,221.215-71.689c31.868,38.472,63.596,80.112,103.888,115.567
		c-61.642,49.715-103.423,28.844-153.413,34.696c-22.517,2.638-52.312,13.166-68.439,29.849
		c-14.202,14.696-21.449,33.385-37.26,41.33c-12.298,6.18-28.747,7.869-47.843-7.938c-0.933,44.961,17.263,59.865,63.188,57.263
		c-16.227,19.18-33.262,26.458-68.146,13.673c14.785,35.775,38.936,48.972,76.413,45.003c8.865,61.324,87.468,95.33,73.468,143.734
		c-18.945,65.548-163.885,83.535-216.529,49.615c-37.012-23.855-53.554-63.641-97.045-50.532
		c-23.977-21.808-68.253-28.958-86.512,23.365c31.589-17.647,46.006-8.01,39.195,12.75c-56.773,0.754-78.177,28.955-70.27,67.449
		c11.01-20.186,22.689-24.859,37.08-22.09c-4.763,10.91-7.834,25.195-7.215,46.895c-28.045,16.951-29.122,48.058-16.397,74.118
		c7.388-21.257,11.058-40.667,28.423-41.653c10.392,14.063,24.82,24.076,43.285,30.07c-6.483,33.301-4.871,63.573,4.809,88.785
		c6.396-22.311,12.795-36.522,21.211-46.699c29.237,20.267,60.154,20.67,90.382,12.529c61.718-16.65,99.641-64.77,147.558-65.503
		c26.645-0.407,38.808,20.528,20.926,44.987c38.237-2.327,58.837-11.286,77.404-22.01c28.968-16.722,47.243-37.722,75.34-44.433
		c46.68-11.164,112.513,42.336,143.791-17.401c-36.769,6.205-57.91-10.461-64.358-27.853c46.33,8.074,76.433,6.705,101.295-32.016
		c-67.613,11.365-97.699-47.587-101.857-79.955c-3.891-30.41,5.911-87.372,69.106-106.545c20.355-42.27,31.102-64.42,53.198-99.34
		l7.334-34.022c4.475,15.795,7.889,30.862,2.941,47.975c-7.211,25.025-24.666,52.285-35.226,80.965
		c-8.687,23.58-11.314,49.513-10.035,69.111c1.608,24.604,10.102,47.125,25.666,65.661c25.949,30.875,63.834,55.84,37.266,117.676
		c28.459-2.823,44.795-16.41,73.248-48.871c21.641,16.509,37.547,38.756,29.535,68.74c35.959-11.035,58.625-39.218,71.326-80.228
		c51.488,1.49,80.334,11.737,85.324,31.538c8.309,33.004-74.066,155.472-177.576,159.647c-16.445-4.407-29.43-21.538-42.264-27.635
		c-11.619-5.519-27.576-4.33-41.377,15.225c-32.41-8.785-70.555-0.385-80.539,35.837c-19.241,8.554-36.354,37.099-33.555,62.253
		c6.894-5.978,29-20.75,37.403-21.897c2.333,7.493,15.298,15.388,22.715,17.538c-43.805,38.395-45.17,69.888-41.34,84.875
		c18.493-29.91,40.17-35.487,50.7-34.683c7.436,18.705,22.211,26.475,43.846,28.91l1.025,51.984l37.01-40.978
		c45.305,22.163,92.955,8.225,126.59-17.022c62.061-46.567,87.941-137.622,134.027-131.621c9.645,1.263,18.572,10.871,13.953,24.701
		c11.42,2.76,22.271-1.798,30.516-11.621c18.121-21.6,29.379-64.622,63.211-115.234c21.629-32.353,73.545-67.397,88.369-99.484
		c-24.135,15.917-52.324,10.895-56.221-3.144c42.477-22.222,80.73-48.154,96.602-109.177c-23.256,10.75-44.477,18.792-67.732,16.077
		c19.426-41.147,26.006-83.65,7.545-111.257c-59.125,86.639-129.873,72.202-158.484,52.1c-22.293-15.689-43.545-39.33-45.273-94.48
		c-0.451-14.452,3.061-37.449,9.275-58.962c6.213-21.525,13.104-38.535,13.354-58.198c87.404,50.336,155.975,65.519,205.291,63.333
		c92.385-4.08,152.258-77.391,149.008-171.125c-1.584-45.875-20.992-90.221-55.289-133.997
		c-38.795-49.513-93.699-97.32-129.979-146.862c-19.021-25.951-31.73-55.144-37.064-81.695c-8.576-42.74-2.121-91.93,43.395-133.201
		c48.938,28.294,95.02,39.653,138.859,36.323c44.885-3.407,80.488-30.228,115.061-58.686c15.594-12.84,31.945-26.25,65.078-22.58
		c-10.91-12.684-30.918-26.376-61.045-24.914c70.723-85.795,99.176-193.028,60.027-267.975
		c-6.402,43.174-20.795,53.619-33.771,62.532c-17.234,11.83-31.066,14.02-56.023,27.129c12.873-25.145,11.572-43.737,3.219-72.427
		c-30.566,79.077-70.23,60.135-126.07,117.987c6.561-26.462,7.406-47.859-2.549-72.295c-3.441,24.093-17.695,42.423-31.83,52.846
		c-50.486,37.25-113.607,45.965-101.355,166.279c-64.717,51.353-88.316,112.221-83.732,172.984
		c3.807,50.403,24.156,96.593,56.857,139.974c34.813,46.18,82.973,89.202,117.133,130.757
		c37.41,45.483,72.59,125.462,31.775,182.561c-26.607,37.205-103.223,58.695-264.805-42.638
		c-8.42-86.5-74.74-175.474-88.799-254.638c-5.279-29.715-2.637-55.343,2.754-82.353c4.77-23.814,12.137-48.728,11.73-78.468
		c27.676,23.051,59.4,28.573,83.029,19.618c-18.809-7.183-34.73-30.493-34.295-59.894c0.641-45.875,26.75-92.481,1.922-144.25
		c20.809,14.913,43.639,23.769,69.494,12.403c-58.1-38.522-5.01-88.15-32.785-151.933c20.42,10.077,49.941,10.038,71.379-2.125
		c-68.863-15.692-33.633-104.145-92.395-161.272c25.396,1.087,46.236-10.975,58.492-30.112
		c-61.846,10.263-93.416-73.333-145.992-118.186c-49.375-42.141-110.115-57.302-181.096-43.855
		c-0.885-10.424,16.051-25.901,36.707-36.312c-64.547-27.525-130.987-6.987-187.445,43.663c2.475-21.686-1.119-43.358-16.837-64.028
		c-7.98,45.25-76.99,73.25-101.17,110.195c-10.99,16.789-17.538,35.222-16.913,56.231c-61.516,43.605-78.564,40.708-96.622,93.413
		c-30.788,25.653-68.157,52.317-90.868,77.971c0.73,7.875,3.965,17.289,5.695,26.177l17.952-17.67
		c-6.375,16.542-5.34,32.73,2.323,45.955c14.625,25.237,43.85,38.853,60.744,49.647c-10.459-31.622-7.462-39.997,4.791-48
		c26.869-17.555,89.4-11.423,94.942-2.833c7.526,11.676-1.881,66.208-35.968,80.561
		C1222.781,1202.247,1206.403,1194.695,1188.633,1175.955L1188.633,1175.955z M1297.495,964.772
		c-14.496,14.49-13.756,36.763-29.313,45.49c-11.25,6.314-24.077,4.312-29.529-1.5c-7.804-8.346-10.496-21.384-0.298-32.836
		C1250.476,962.308,1275.928,964.414,1297.495,964.772z"/>
	<g>
		<path fill="#8C2E42" d="M871.951,493.68c11.308,0,19.115,0.445,23.41,1.32c4.522,1.647,7.118,5.26,8.022,10.525l17.635,56.581
			c8.365,24.676,12.551,39.58,12.551,44.733c0,1.869-0.91,3.945-2.603,6.035c-2.15,2.192-7.125,3.945-15.028,5.154l-21.264,3.288
			c-2.938,3.183-4.183,7.125-3.84,11.847c0,4.933,1.809,8.766,5.205,11.291c28.375-1.311,58.004-1.968,88.869-1.968
			c35.058,0,68.746,0.657,101.09,1.968c3.051-2.525,4.635-6.795,4.635-12.49c-0.455-5.157-1.805-8.77-3.955-10.638l-25.1-3.837
			c-11.311-2.188-19.558-7.676-24.65-16.448c-3.282-4.937-6.113-10.85-8.715-17.647c-2.937-6.692-6.559-14.805-10.629-24.452
			L928.376,300.73c-15.372-43.971-25.32-73.897-29.85-90.013c-2.035-8.551-7.125-12.83-15.032-12.83
			c-0.791,0.875-6.326,6.359-16.394,16.34c-10.859,10.083-24.42,17.872-40.708,23.132c0.451,16.558-8.139,44.403-25.67,83.545
			l-59.026,160.305c-16.733,45.605-30.301,80.801-40.811,105.361c-5.314,12.282-11.198,20.619-17.635,25.109
			c-6.555,4.279-14.135,6.792-22.388,7.67l-17.75,1.978c-2.154,3.18-3.055,7.125-2.603,11.847c0,4.933,1.58,8.766,4.632,11.291
			c26.683-0.881,49.298-1.535,67.611-1.971c28.042,0.436,53.709,1.09,77.004,1.971c3.048-2.195,4.52-6.141,4.52-11.952
			c0-5.156-1.02-8.888-3.16-11.183l-19.904-3.288c-9.266-2.074-15.272-4.058-18.314-5.699c-3.621-1.317-5.423-3.176-5.423-5.487
			c-0.458-3.836,1.135-11.73,4.743-23.461l24.42-76.529c1.693-6.253,4.074-10.198,7.125-11.843
			c2.035-0.878,6.895-1.317,14.359-1.317h73.837v-0.025H871.951z M811.348,459.039c-7.917,0.436-13-0.99-15.145-4.167
			c-2.721-2.192-2.263-7.455,1.353-15.795l16.282-49.225c10.51-32.128,19.445-56.358,27.022-72.698l0,0
			c6.214,15.906,14.134,38.923,23.747,69.189l16.961,53.391c3.728,8.336,4.407,13.596,2.032,15.785
			c-2.26,2.301-7.237,3.513-15.151,3.513h-57.102V459.039z"/>
		<path fill="#8C2E42" d="M1401.101,365.73c22.503-52.733,40.708-89.679,54.615-110.625c7.013-12.936,19.103-20.615,36.189-23.138
			l17.073-3.288c2.6-2.52,3.953-6.472,3.953-11.847c-0.9-5.365-2.723-8.881-5.313-10.631c-18.768,1.311-39.125,1.968-60.941,1.968
			c-24.199,0-51.112-0.657-80.85-1.968c-4.07,1.753-6.103,5.042-6.103,9.978c-0.337,5.378,0.683,9.545,3.272,12.5l19.221,4.49
			c7.917,1.32,12.889,2.965,15.042,4.824c1.698,1.756,2.605,3.945,2.605,6.471c0,3.4-2.153,11.403-6.445,23.795
			c-12.775,36.397-30.077,82.333-51.9,137.6l-24.417,61.728c-8.365,20.827-15.275,37.058-20.808,48.903l0,0
			c-4.513-10.525-11.42-27.406-20.573-50.871l-57.773-148.132c-7.916-20.17-14.253-36.618-19.227-49.225
			c-4.635-12.827-7.007-20.618-7.007-23.138c-0.452-5.814,4.975-9.975,16.392-12.609l19.795-3.833
			c2.146-3.403,3.281-7.567,3.281-12.5c0-4.278-1.359-7.68-3.846-9.978c-37.879,1.311-70.785,1.968-98.824,1.968
			c-30.183,0-59.926-0.657-89.218-1.968c-2.59,1.753-4.403,4.824-5.532,9.311c-0.904,4.715,0.109,9.103,3.052,13.161l18.208,4.49
			c14.58,2.195,24.875,6.795,30.869,13.817c5.762,6.688,14.471,25.983,26.23,57.884l106.51,267.854
			c10.07,27.195,19.227,52.192,27.59,74.891c3.846,3.622,9.724,5.487,17.631,5.487c10.067,0,17.753-1.865,23.064-5.487
			c13.118-34.423,35.288-90.452,66.483-168.08L1401.101,365.73z"/>
		<path fill="#8C2E42" d="M1694.838,265.413c-0.445-12.938,0.619-20.9,3.514-23.903c2.076-2.15,8.131-3.18,18.082-3.18h57.955
			c16.734,0,30.25,1.597,40.379,5.157c10.455,3.673,17.943,9.423,23.174,16.448c5.955,7.994,12.541,25.106,19.098,51.526
			c4.184,2.522,9.123,3.013,14.928,2.522c4.617-0.388,7.91-1.645,9.832-5.157c-1.121-50.869-1.57-85.077-1.57-102.619
			c-13.115,1.314-42.75,1.969-88.875,1.969h-145.576c-15.826,0-31.674-0.437-47.609-0.654c-15.6-0.215-30.75-0.439-45.334-1.314
			c-3.516,1.754-5.205,5.264-5.205,10.632c0,5.811,1.254,9.984,3.959,12.503l13.105,1.978c15.045,1.202,24.43,6.026,28.385,14.359
			c3.398,8.442,5.084,27.52,5.084,57.237v244.827c0,28.833-1.686,47.478-5.084,55.916c-3.955,7.892-13.34,12.715-28.385,14.356
			l-21.811,3.291c-2.596,2.302-3.949,6.029-3.949,11.18c0,5.372,1.359,9.427,3.949,11.952c39.576-1.311,74.176-1.968,103.68-1.968
			c30.531,0,65.689,0.657,105.721,1.968c2.605-2.522,3.961-6.58,3.961-11.952c0-5.15-1.357-8.888-3.961-11.18l-24.201-3.291
			c-13.898-1.645-22.949-6.468-27.244-14.472c-4.42-8.333-6.455-26.971-5.99-55.805v-88.701c0-9.205,1.115-15.045,3.506-17.43
			c1.67-1.66,6.674-2.522,14.916-2.522h56.824c16.844,0,28.744,2.02,35.168,6.692c6.24,4.528,9.922,14.913,13.002,30.26
			l3.166,15.795c2.943,2.525,7.225,3.403,12.885,3.183c5.645-0.215,9.609-1.327,11.654-3.84c-1.256-20.616-1.807-43.41-1.807-68.41
			c0-25.552,0.57-49.017,1.807-70.385c-2.045-3.407-5.996-5.157-11.654-5.157c-5.652,0-9.941,1.535-12.885,4.497l-3.166,15.788
			c-3.08,15.346-6.869,25.475-13.002,30.15c-6.523,4.965-18.318,6.792-35.168,6.792h-56.824c-8.242,0-13.213-0.99-14.916-4.167
			c-2.375-2.195-3.506-7.458-3.506-15.785V265.413H1694.838z"/>
		<path fill="#8C2E42" d="M2205.412,197.872c-70.756,0-130.729,19.52-180.07,58.438c-11.436,9.212-21.754,19.737-30.838,31.462
			c-9.531,11.85-17.945,24.997-25.115,39.59c-6.941,14.583-12.438,30.365-16.48,47.471c-4.262,16.994-6.395,35.632-6.395,55.917
			c0,40.344,8.078,74.445,24.234,102.52c15.02,28.07,34.529,51.311,58.414,69.728c49.451,33.878,107.857,50.548,175.246,50.105
			c25.574-0.442,49.674-3.509,72.096-9.32c22.313-5.15,42.27-10.083,60.088-15.022c10.439-17.538,18.627-52.08,24.455-103.497
			c-2.033-3.833-5.945-6.468-11.436-7.679c-5.723-0.437-10.09,0.66-13.018,3.179c-8.291,23.792-22.76,46.157-43.277,67.209
			c-10.424,9.978-22.98,18.195-37.563,24.343c-14.906,7.125-32.287,10.625-52.258,10.625c-40.578,0-75.789-17.317-105.725-52.07
			c-30.719-34.215-46.639-84.094-47.434-149.445c0.795-65.782,16.82-114.68,48.115-146.809
			c30.385-31.028,64.359-46.596,101.914-46.596c63.914,0.438,104.727,31.801,122.551,94.186c3.355,2.52,7.955,3.392,13.676,2.52
			c5.504-0.875,9.084-3.289,10.764-7.347c-5.504-47.355-7.951-81.458-7.619-102.506c-9.977-1.202-26.461-4.388-49.672-9.314
			C2267.197,200.83,2238.941,198.308,2205.412,197.872z"/>
	</g>
</g>
</svg>
