<svg id="Layer_1" data-name="Layer 1" xmlns="http://www.w3.org/2000/svg" xmlns:xlink="http://www.w3.org/1999/xlink" width="149.74" height="197" viewBox="0 0 149.74 197"><defs><style>.cls-1{fill:#a8996e;}.cls-2{fill:url(#linear-gradient);}.cls-3{fill:#b20d11;}.cls-4{fill:url(#linear-gradient-2);}.cls-5{fill:#fff;}</style><linearGradient id="linear-gradient" x1="49.97" y1="187.53" x2="150.13" y2="187.53" gradientTransform="matrix(1, 0, 0, -1, 0, 202)" gradientUnits="userSpaceOnUse"><stop offset="0" stop-color="#a8996e"/><stop offset="0.5" stop-color="#fce3c4"/><stop offset="1" stop-color="#a8996e"/></linearGradient><linearGradient id="linear-gradient-2" x1="100" y1="43.09" x2="100" y2="175" gradientTransform="matrix(1, 0, 0, -1, 0, 202)" gradientUnits="userSpaceOnUse"><stop offset="0" stop-color="#970608"/><stop offset="1" stop-color="#db181e"/></linearGradient></defs><title>afc-bournemouth-logo-freelogovectors.net_</title><path d="M93.42,1.57c-1.23,0-2.83.09-3.56.12L87,1.82,83.39,2l-3.73.26-3.32.28c-.9.07-2.42.22-3.36.32l-3.7.4c-1.08.12-3.16.39-4.62.59s-3.53.48-4.62.65-3.11.49-4.49.72-3.61.63-4.93.87l-3.24.62-2.4.5L41.39,8c-1.13.26-3.17.73-4.53,1.07s-3.24.79-4.18,1l-3.11.82-2.86.81a14.73,14.73,0,0,0-1.54.48s0,11.58,0,25.66c0,15.34,0,26.54.05,27.93s.07,2.9.1,3.59.09,1.83.13,2.55.12,1.92.18,2.68.14,1.92.19,2.58.16,1.73.23,2.36L26.28,82c.08.71.24,2,.35,2.78s.28,2.07.4,2.8.31,1.92.43,2.65.35,2,.5,2.84.42,2.2.59,3,.48,2.28.68,3.16.51,2.23.7,3,.53,2.12.77,3,.6,2.25.82,3l.88,3c.27.87.71,2.27,1,3.11s.77,2.31,1.11,3.28.93,2.59,1.31,3.6.9,2.37,1.15,3,.64,1.6.88,2.17.67,1.59.95,2.24.72,1.62,1,2.18.77,1.64,1.13,2.43,1.18,2.44,1.82,3.67,1.49,2.92,1.93,3.72,1.1,2,1.48,2.68,1,1.69,1.3,2.25l1.43,2.38c.46.74,1.14,1.84,1.53,2.43s1,1.58,1.44,2.21,1.13,1.67,1.59,2.35,1.24,1.77,1.73,2.43,1.28,1.75,1.78,2.41,1.36,1.78,1.92,2.5,1.46,1.82,2,2.45,1.4,1.69,1.95,2.34,1.44,1.67,2,2.27S66.31,171.2,67,172s2.1,2.23,3.07,3.2,2.31,2.34,3,3S75,180,75.64,180.58L78.29,183c.77.68,2,1.7,2.65,2.28s1.84,1.53,2.55,2.11,1.91,1.53,2.65,2.1,2,1.55,2.87,2.17,2.21,1.62,3,2.22,2.14,1.51,2.91,2l2.7,1.78,1.3.84h2c2-1.25,3-1.91,3.55-2.28s1.56-1.05,2.27-1.54,1.81-1.28,2.44-1.74,1.7-1.23,2.36-1.72l2.17-1.65,2-1.56,2.24-1.83c.68-.56,1.75-1.47,2.38-2s1.53-1.34,2-1.8,1.55-1.4,2.32-2.11,2.15-2,3.05-2.91,2.15-2.13,2.75-2.75,1.46-1.51,1.89-2,1.24-1.34,1.78-1.93,1.29-1.44,1.67-1.88l1.48-1.7c.42-.5,1.19-1.41,1.69-2s1.32-1.62,1.8-2.23l1.53-1.95,1.45-1.93,1.6-2.21c.44-.62,1.08-1.53,1.42-2s1.16-1.7,1.8-2.67,1.45-2.24,1.8-2.78l1.27-2.09c.36-.59.91-1.52,1.22-2.05s.82-1.4,1.1-1.9.85-1.53,1.26-2.26,1.13-2.12,1.63-3.11,1.16-2.28,1.46-2.91.8-1.65,1.1-2.3.91-2,1.36-3,1.06-2.47,1.39-3.24.76-1.86,1-2.43.62-1.55.86-2.2.64-1.71.88-2.35.66-1.87.94-2.71.74-2.21,1-3,.66-2.1.87-2.79.5-1.7.66-2.26.43-1.56.62-2.24.53-2,.76-2.94.62-2.53.86-3.58.5-2.28.6-2.73.27-1.26.38-1.8l.44-2.34c.14-.74.37-2.09.52-3s.35-2.1.43-2.65.24-1.77.37-2.71.31-2.39.4-3.23.24-2.23.33-3.08.21-2.3.27-3.21.16-2.26.2-3,.11-1.85.14-2.47c0-.84.06-8.53.08-29.29l0-28.16c-2.78-.8-4.08-1.16-4.68-1.32s-1.87-.5-2.83-.75-2.83-.73-4.18-1-3.4-.81-4.53-1.07l-3-.65c-.52-.12-1.61-.33-2.4-.5s-2.58-.51-4-.77-3.6-.66-4.92-.87-3.3-.55-4.39-.71-3.1-.45-4.42-.62-3-.4-3.7-.48-2-.23-2.88-.32l-3.41-.36c-1-.1-2.95-.26-4.33-.37s-3.43-.26-4.57-.33l-3.61-.2-2.78-.13-3.94-.12c-1.68-.05-4.25-.08-6.69-.07C97.46,1.5,94.67,1.53,93.42,1.57Z" transform="translate(-25.13 -1.5)"/><path class="cls-1" d="M93.23,1.58a1.92,1.92,0,0,0,.34,0c.12,0,.05,0-.15,0S93.15,1.57,93.23,1.58Zm13.19,0a1.92,1.92,0,0,0,.34,0c.11,0,0,0-.15,0S106.33,1.57,106.42,1.58ZM94.3,9l-1,.1c-.44,0-.88.09-1,.12a2.12,2.12,0,0,0-.36.13.7.7,0,0,0-.2.18c0,.09-.07,1.2-.08,4.94,0,4.82,0,4.84.09,5l.11.14c2-.06,2-.06,2.13-.18s.11-.12.11-1.92v-1.8h1.13c1.47,2.76,1.94,3.62,2,3.68l.1.13c2.34-.08,2.39-.09,2.41-.19a23.41,23.41,0,0,0-1.07-2.1c-.6-1.1-1.06-2-1-2L98,15a5.93,5.93,0,0,0,.54-.42,3.82,3.82,0,0,0,.43-.53,3,3,0,0,0,.3-.65,3,3,0,0,0,.11-1.07,7,7,0,0,0-.06-1,5.3,5.3,0,0,0-.24-.64,2.92,2.92,0,0,0-.48-.68,3.07,3.07,0,0,0-.74-.52,4.51,4.51,0,0,0-.8-.31,8.36,8.36,0,0,0-.87-.14A7.25,7.25,0,0,0,95.11,9Zm7.09.2a.7.7,0,0,0-.16.37c0,.13,0,2.36,0,5,0,4.48,0,4.75.1,4.84s.2.09,1,.1.93,0,1-.06l.12-.08c0-4.85,0-5.89.07-5.9a3.75,3.75,0,0,1,.53.83l1.67,2.89c.65,1.13,1.22,2.09,1.27,2.15a1.25,1.25,0,0,0,.22.16,3.91,3.91,0,0,0,1,.11,2.82,2.82,0,0,0,1,0,.53.53,0,0,0,.23-.21,48.89,48.89,0,0,0,.07-5c0-3.07,0-4.93,0-5s-.16-.1-.28-.12l-1,0a2.24,2.24,0,0,0-.81.06,23.69,23.69,0,0,0-.08,3.13,24.46,24.46,0,0,1-.07,3.06s-.82-1.33-1.75-3-1.73-3-1.79-3.1a.65.65,0,0,0-.23-.21,3.37,3.37,0,0,0-1-.07h-.89ZM88,9.35c-.39,0-.48.05-.54.13A23,23,0,0,0,87.36,13a28.19,28.19,0,0,1-.08,3.76,2.73,2.73,0,0,1-.18.55,2.11,2.11,0,0,1-.31.36,1.79,1.79,0,0,1-.61.24,2.49,2.49,0,0,1-.76.06,1.92,1.92,0,0,1-.58-.11,1.23,1.23,0,0,1-.32-.19,1.79,1.79,0,0,1-.2-.26,2.28,2.28,0,0,1-.14-.42,33.19,33.19,0,0,1-.1-3.79A20.81,20.81,0,0,0,84,9.61c-.06-.07-.19-.07-1.06,0a2.82,2.82,0,0,0-1.1.16l-.13.09c0,5.43,0,6.76,0,7.08a5.68,5.68,0,0,0,.14.77,4,4,0,0,0,.25.67,3.26,3.26,0,0,0,.46.68,3,3,0,0,0,.64.49,5.45,5.45,0,0,0,.74.3,4.36,4.36,0,0,0,1.42.11,9.1,9.1,0,0,0,1.33-.06l.67-.18a5.87,5.87,0,0,0,.67-.29c.15-.09.37-.25.49-.34a3,3,0,0,0,.81-1,4,4,0,0,0,.27-.75,7.58,7.58,0,0,0,.16-1c0-.35,0-2,0-3.67a23.12,23.12,0,0,0-.06-3.15c-.06-.13-.07-.13-.68-.13C88.72,9.32,88.22,9.33,88,9.35Zm25.36.08a2.86,2.86,0,0,0-.67.24,2.43,2.43,0,0,0-.58.41,3,3,0,0,0-.36.5,4,4,0,0,0-.22.59,16,16,0,0,0-.09,3.3,20.26,20.26,0,0,0,.08,3.35,3.62,3.62,0,0,0,.26.7,2.48,2.48,0,0,0,.4.58,3,3,0,0,0,.6.44,4.81,4.81,0,0,0,.75.28,7.5,7.5,0,0,0,1,.16c.33,0,1.16.05,1.83,0,1.06,0,1.24,0,1.36-.1l.13-.09c0-1.46,0-1.51-.1-1.62s-.17-.12-1.26-.18l-1.66-.1a2.7,2.7,0,0,1-.65-.11.66.66,0,0,1-.25-.27,2.91,2.91,0,0,1-.1-1.14l0-.94c.64,0,1.29.08,1.85.1l1.45.09c.39,0,.43,0,.53-.08s.12-.15.12-.84,0-.73-.12-.85l-.11-.12-3.68-.2a4.79,4.79,0,0,1,0-.84,2.81,2.81,0,0,1,.09-1,.57.57,0,0,1,.28-.25,1.9,1.9,0,0,1,.89-.05l1.62.1c.91.06.94.06,1,0s.09-.16.09-.86,0-.76-.08-.83a1.52,1.52,0,0,0-.47-.16c-.2-.05-.62-.12-.92-.16s-1-.09-1.62-.1A6.74,6.74,0,0,0,113.33,9.43Zm6.38.49-.13.13c0,9,0,10,.06,10.07a3.46,3.46,0,0,0,.8.11l1,.08c.2,0,.29,0,.34,0a22.24,22.24,0,0,0,.06-3.09c0-1.65,0-3,0-3s.08,0,.12.07.36.61.7,1.26a11.64,11.64,0,0,0,.73,1.3c.11.12.18.14.81.19a4.63,4.63,0,0,0,.8,0,.31.31,0,0,0,.19-.13c0-.06.36-.59.71-1.2s.66-1.11.69-1.12a19.76,19.76,0,0,1,.06,3c0,2.83,0,3,.09,3.12s.19.12,1,.2l1.05.09a.27.27,0,0,0,.16-.07s0-2.27,0-4.95a49.67,49.67,0,0,0-.07-5,.57.57,0,0,0-.16-.25c-.06-.07-.27-.12-.69-.16s-.74-.07-.92-.07a.53.53,0,0,0-.46.12c-.08.08-.65,1-1.26,2.12a20.49,20.49,0,0,1-1.18,2,19.54,19.54,0,0,1-1.22-2.2c-.62-1.22-1.2-2.27-1.27-2.35a.66.66,0,0,0-.43-.18c-.17,0-.59-.05-.94-.07l-.63,0Zm-44,.09a6.75,6.75,0,0,0-.76.15,5.08,5.08,0,0,0-.78.27,5.39,5.39,0,0,0-.6.33c-.14.1-.37.29-.52.42a4.57,4.57,0,0,0-.43.49,3,3,0,0,0-.33.57,6.29,6.29,0,0,0-.29.68,7.67,7.67,0,0,0-.18.78,12.58,12.58,0,0,0-.08,2,13.42,13.42,0,0,0,.08,2,5.78,5.78,0,0,0,.25.89,6,6,0,0,0,.33.71,3.93,3.93,0,0,0,.48.55,3.18,3.18,0,0,0,.67.46,4.14,4.14,0,0,0,.67.26,5.79,5.79,0,0,0,.75.11,6.36,6.36,0,0,0,1,0,8.89,8.89,0,0,0,.93-.16,5.92,5.92,0,0,0,.92-.36,3.67,3.67,0,0,0,.87-.59,5.85,5.85,0,0,0,.55-.62,7,7,0,0,0,.36-.66,6.56,6.56,0,0,0,.26-.75,7.17,7.17,0,0,0,.16-.83c0-.23,0-.93,0-1.55s0-1.37-.06-1.68a7.27,7.27,0,0,0-.17-1c-.07-.23-.2-.56-.27-.73a4.79,4.79,0,0,0-.37-.58,4.72,4.72,0,0,0-.5-.5,5.15,5.15,0,0,0-.48-.31,2.8,2.8,0,0,0-.53-.19,5.35,5.35,0,0,0-.76-.16c-.24,0-.53,0-.63,0Zm-9.5,1-.88.12c-.38.05-1,.16-1.38.24a5.26,5.26,0,0,0-.86.27,1.24,1.24,0,0,0-.32.28l-.12.18c0,7.59,0,9.28.06,9.38a.36.36,0,0,0,.21.24,1.86,1.86,0,0,0,.54.11,10,10,0,0,0,1.14,0c.44,0,1-.08,1.38-.12A8.88,8.88,0,0,0,67,21.49a7.47,7.47,0,0,0,.89-.26,5.72,5.72,0,0,0,.65-.26,3,3,0,0,0,.5-.31,3.64,3.64,0,0,0,.55-.48,3.91,3.91,0,0,0,.4-.6,3.7,3.7,0,0,0,.26-.67,3.57,3.57,0,0,0,.06-1,2.24,2.24,0,0,0-.13-.92,1.65,1.65,0,0,0-.35-.55,2.12,2.12,0,0,0-.47-.41l-.23-.13a3.33,3.33,0,0,0,.85-1,3.52,3.52,0,0,0,.24-.68,4.31,4.31,0,0,0,0-.68,4.54,4.54,0,0,0-.07-.75,3.44,3.44,0,0,0-.19-.57,3.24,3.24,0,0,0-.34-.47,1.85,1.85,0,0,0-.58-.42,3.69,3.69,0,0,0-.65-.24,5.16,5.16,0,0,0-1.19-.1A10.36,10.36,0,0,0,66.19,11Zm67.24.14a4.11,4.11,0,0,0-.65.17,3.06,3.06,0,0,0-.54.28,3.64,3.64,0,0,0-.55.47,3.22,3.22,0,0,0-.48.72,4.79,4.79,0,0,0-.31.81,8.21,8.21,0,0,0-.13,2.14,13.18,13.18,0,0,0,.07,2.22,5.42,5.42,0,0,0,.21.9,5.63,5.63,0,0,0,.36.8,5.18,5.18,0,0,0,.5.7,4.53,4.53,0,0,0,.57.51,5.63,5.63,0,0,0,.62.37c.19.09.48.22.68.29a5.23,5.23,0,0,0,.8.19,8,8,0,0,0,1,.08,4.18,4.18,0,0,0,1-.09,5.37,5.37,0,0,0,.68-.25,2.74,2.74,0,0,0,.7-.54,3.3,3.3,0,0,0,.54-.7,5.5,5.5,0,0,0,.23-.55,6.76,6.76,0,0,0,.17-.75,11.69,11.69,0,0,0,.06-2.14,10.76,10.76,0,0,0-.12-2.08,6,6,0,0,0-.25-.85,4.42,4.42,0,0,0-.37-.72,5.74,5.74,0,0,0-.38-.55,5.43,5.43,0,0,0-.53-.49,4.88,4.88,0,0,0-.8-.49,6.15,6.15,0,0,0-.85-.33,5.62,5.62,0,0,0-.82-.14,7.42,7.42,0,0,0-.75,0A4,4,0,0,0,133.43,11.14Zm7.26,1c0,.08-.05.93,0,3.64a21.3,21.3,0,0,0,.13,4,5.08,5.08,0,0,0,.23.8,3.06,3.06,0,0,0,.24.53c.06.1.2.3.31.45a4.91,4.91,0,0,0,.56.54,4.43,4.43,0,0,0,.79.5,6.08,6.08,0,0,0,.93.34c.26.07.7.15,1,.2a8,8,0,0,0,.91.08,5.29,5.29,0,0,0,.79-.08,4.12,4.12,0,0,0,.7-.22,2.79,2.79,0,0,0,.57-.4,2.38,2.38,0,0,0,.42-.54,3.1,3.1,0,0,0,.24-.54,4.94,4.94,0,0,0,.16-.68,38.48,38.48,0,0,0,.07-3.89V13.42a2.9,2.9,0,0,0-1.22-.34c-.79-.13-1-.15-1.06-.1a16,16,0,0,0-.07,3.22c0,1.73,0,3.38-.05,3.65a2.35,2.35,0,0,1-.18.77.71.71,0,0,1-.36.4,1,1,0,0,1-.66.13,3.62,3.62,0,0,1-.72-.09,2.18,2.18,0,0,1-.54-.22,1.09,1.09,0,0,1-.41-.39,2.33,2.33,0,0,1-.26-.55,23.63,23.63,0,0,1-.11-3.86c0-3.5,0-3.57-.13-3.64a5.32,5.32,0,0,0-1-.2c-.48-.08-.95-.14-1-.14A.25.25,0,0,0,140.69,12.17Zm-84.92.28-.53.06c-.2,0-.53.1-.71.15a5.25,5.25,0,0,0-.73.25,3.84,3.84,0,0,0-.7.36,5.7,5.7,0,0,0-.59.45,3.41,3.41,0,0,0-.54.58,4.25,4.25,0,0,0-.43.7,4.19,4.19,0,0,0-.3.75,5.76,5.76,0,0,0-.19.77,14.92,14.92,0,0,0-.07,2,10.26,10.26,0,0,0,.11,2.16,4.45,4.45,0,0,0,.33.95,2.67,2.67,0,0,0,.51.74,3.63,3.63,0,0,0,.6.47,3.79,3.79,0,0,0,.7.27,3.36,3.36,0,0,0,1,.1,7.84,7.84,0,0,0,1-.08c.24,0,.7-.14,1-.23a5.48,5.48,0,0,0,.85-.29.86.86,0,0,0,.33-.26,2.74,2.74,0,0,0,.06-.78,5.18,5.18,0,0,0,0-.78.3.3,0,0,0-.11-.15,4.19,4.19,0,0,0-.8.14c-.39.1-1,.21-1.27.25a1.7,1.7,0,0,1-.84,0,.87.87,0,0,1-.5-.24,2.34,2.34,0,0,1-.29-.37,2.89,2.89,0,0,1-.17-.5,11.61,11.61,0,0,1-.07-1.87,8.22,8.22,0,0,1,.09-1.93,3.8,3.8,0,0,1,.2-.58,3.62,3.62,0,0,1,.27-.41,2.43,2.43,0,0,1,.42-.32,2.69,2.69,0,0,1,.59-.22c.2,0,.8-.12,1.35-.17a3,3,0,0,0,1.07-.17c.06-.06.08-.25.1-.75a7.82,7.82,0,0,0,0-.82.34.34,0,0,0-.14-.23,3.19,3.19,0,0,0-.76-.06C56.21,12.43,55.86,12.44,55.77,12.45ZM150,13.71a3.28,3.28,0,0,0,0,.87c0,.65,0,.75.12.84a3.87,3.87,0,0,0,1.27.32l1.16.2c0,7.23,0,8.18.06,8.28a.35.35,0,0,0,.18.16c.07,0,.5.12,1,.21s.89.16,1,.16a.26.26,0,0,0,.18-.09c.05-.08.06-1,.06-4.17,0-3.84,0-4.06.09-4.06s.56.09,1.13.21a7.1,7.1,0,0,0,1.16.19c.08,0,.09-.09.1-.9s0-.87-.07-.95a2.86,2.86,0,0,0-.86-.25L153,14.06c-1.46-.26-2.72-.49-2.81-.49S150,13.6,150,13.71Zm-101.4.07c-.3,0-.86.08-1.25.14l-1.2.22a7.82,7.82,0,0,0-.89.28,3.4,3.4,0,0,0-1.1.66,2.92,2.92,0,0,0-.42.47,3.35,3.35,0,0,0-.32.57l-.18.55A36.79,36.79,0,0,0,43.13,21c0,3.84,0,4,.07,4.11s.13.09,1.06-.1a3.25,3.25,0,0,0,1.09-.28c.11-.11.11-.11.11-2.2,0-1.15,0-2.1,0-2.11s.78-.15,1.69-.32L49,19.73a.48.48,0,0,0,.26-.16,2.3,2.3,0,0,0,.07-.86c0-.58,0-.75-.07-.81a.29.29,0,0,0-.11-.08l-1.39.25L46,18.42c-.44.1-.47.1-.5,0a6.15,6.15,0,0,1,0-.85,2.73,2.73,0,0,1,.11-.93,1.22,1.22,0,0,1,.23-.29,1,1,0,0,1,.34-.18l1.64-.32c1.18-.2,1.47-.27,1.56-.36s.11-.14.11-.86a5,5,0,0,0,0-.81.35.35,0,0,0-.15-.07A3.35,3.35,0,0,0,48.58,13.78ZM158.75,15.3s0,2.32,0,5.1c0,4.79,0,5.07.1,5.15a4.5,4.5,0,0,0,1,.29l1,.2A.3.3,0,0,0,161,26c.07-.07.08-.32.08-2.13V21.78l1.78.41,1.59.34s0,.95,0,2.1v2.09a2.45,2.45,0,0,0,1.13.41c.49.12.93.22,1,.22a.26.26,0,0,0,.17-.07c0-.05.06-1.2.06-5.07,0-5,0-5-.1-5.12a1.24,1.24,0,0,0-.59-.22l-1-.23a1.4,1.4,0,0,0-.6-.07c-.07.05-.08.2-.08,1.95a8.24,8.24,0,0,1-.06,1.91s-.79-.16-1.69-.37l-1.62-.36c0-3.57-.06-3.89-.12-3.95a6.4,6.4,0,0,0-1-.28c-.49-.11-1-.2-1-.2A.41.41,0,0,0,158.75,15.3ZM38.1,15.8a4.32,4.32,0,0,0-.5.1,6.3,6.3,0,0,0-.67.2,4.06,4.06,0,0,0-.59.3,2.27,2.27,0,0,0-.44.38,2.55,2.55,0,0,0-.37.57c-.12.29-.35,1.23-1.21,5-.58,2.6-1,4.76-1,4.83s0,.14.07.15.52-.09,1.08-.22a8,8,0,0,0,1.11-.3.64.64,0,0,0,.14-.23c0-.09.15-.66.28-1.28s.23-1.13.23-1.14l1.41-.33c.77-.18,1.4-.31,1.41-.31l.27,1.13a8.43,8.43,0,0,0,.31,1.19c.05.06.24,0,1.13-.15a9,9,0,0,0,1.14-.26.28.28,0,0,0,.08-.2c0-.09-.47-2-1-4.28-.71-2.85-1.07-4.24-1.18-4.46a1.85,1.85,0,0,0-.31-.45,1.62,1.62,0,0,0-.39-.21,3.34,3.34,0,0,0-.49-.08A2.59,2.59,0,0,0,38.1,15.8Z" transform="translate(-25.13 -1.5)"/><path class="cls-2" d="M93.23,1.58a1.92,1.92,0,0,0,.34,0c.12,0,.05,0-.15,0S93.15,1.57,93.23,1.58Zm13.19,0a1.92,1.92,0,0,0,.34,0c.11,0,0,0-.15,0S106.33,1.57,106.42,1.58ZM94.3,9l-1,.1c-.44,0-.88.09-1,.12a2.12,2.12,0,0,0-.36.13.7.7,0,0,0-.2.18c0,.09-.07,1.2-.08,4.94,0,4.82,0,4.84.09,5l.11.14c2-.06,2-.06,2.13-.18s.11-.12.11-1.92v-1.8h1.13c1.47,2.76,1.94,3.62,2,3.68l.1.13c2.34-.08,2.39-.09,2.41-.19a23.41,23.41,0,0,0-1.07-2.1c-.6-1.1-1.06-2-1-2L98,15a5.93,5.93,0,0,0,.54-.42,3.82,3.82,0,0,0,.43-.53,3,3,0,0,0,.3-.65,3,3,0,0,0,.11-1.07,7,7,0,0,0-.06-1,5.3,5.3,0,0,0-.24-.64,2.92,2.92,0,0,0-.48-.68,3.07,3.07,0,0,0-.74-.52,4.51,4.51,0,0,0-.8-.31,8.36,8.36,0,0,0-.87-.14A7.25,7.25,0,0,0,95.11,9Zm7.09.2a.7.7,0,0,0-.16.37c0,.13,0,2.36,0,5,0,4.48,0,4.75.1,4.84s.2.09,1,.1.93,0,1-.06l.12-.08c0-4.85,0-5.89.07-5.9a3.75,3.75,0,0,1,.53.83l1.67,2.89c.65,1.13,1.22,2.09,1.27,2.15a1.25,1.25,0,0,0,.22.16,3.91,3.91,0,0,0,1,.11,2.82,2.82,0,0,0,1,0,.53.53,0,0,0,.23-.21,48.89,48.89,0,0,0,.07-5c0-3.07,0-4.93,0-5s-.16-.1-.28-.12l-1,0a2.24,2.24,0,0,0-.81.06,23.69,23.69,0,0,0-.08,3.13,24.46,24.46,0,0,1-.07,3.06s-.82-1.33-1.75-3-1.73-3-1.79-3.1a.65.65,0,0,0-.23-.21,3.37,3.37,0,0,0-1-.07h-.89ZM88,9.35c-.39,0-.48.05-.54.13A23,23,0,0,0,87.36,13a28.19,28.19,0,0,1-.08,3.76,2.73,2.73,0,0,1-.18.55,2.11,2.11,0,0,1-.31.36,1.79,1.79,0,0,1-.61.24,2.49,2.49,0,0,1-.76.06,1.92,1.92,0,0,1-.58-.11,1.23,1.23,0,0,1-.32-.19,1.79,1.79,0,0,1-.2-.26,2.28,2.28,0,0,1-.14-.42,33.19,33.19,0,0,1-.1-3.79A20.81,20.81,0,0,0,84,9.61c-.06-.07-.19-.07-1.06,0a2.82,2.82,0,0,0-1.1.16l-.13.09c0,5.43,0,6.76,0,7.08a5.68,5.68,0,0,0,.14.77,4,4,0,0,0,.25.67,3.26,3.26,0,0,0,.46.68,3,3,0,0,0,.64.49,5.45,5.45,0,0,0,.74.3,4.36,4.36,0,0,0,1.42.11,9.1,9.1,0,0,0,1.33-.06l.67-.18a5.87,5.87,0,0,0,.67-.29c.15-.09.37-.25.49-.34a3,3,0,0,0,.81-1,4,4,0,0,0,.27-.75,7.58,7.58,0,0,0,.16-1c0-.35,0-2,0-3.67a23.12,23.12,0,0,0-.06-3.15c-.06-.13-.07-.13-.68-.13C88.72,9.32,88.22,9.33,88,9.35Zm25.36.08a2.86,2.86,0,0,0-.67.24,2.43,2.43,0,0,0-.58.41,3,3,0,0,0-.36.5,4,4,0,0,0-.22.59,16,16,0,0,0-.09,3.3,20.26,20.26,0,0,0,.08,3.35,3.62,3.62,0,0,0,.26.7,2.48,2.48,0,0,0,.4.58,3,3,0,0,0,.6.44,4.81,4.81,0,0,0,.75.28,7.5,7.5,0,0,0,1,.16c.33,0,1.16.05,1.83,0,1.06,0,1.24,0,1.36-.1l.13-.09c0-1.46,0-1.51-.1-1.62s-.17-.12-1.26-.18l-1.66-.1a2.7,2.7,0,0,1-.65-.11.66.66,0,0,1-.25-.27,2.91,2.91,0,0,1-.1-1.14l0-.94c.64,0,1.29.08,1.85.1l1.45.09c.39,0,.43,0,.53-.08s.12-.15.12-.84,0-.73-.12-.85l-.11-.12-3.68-.2a4.79,4.79,0,0,1,0-.84,2.81,2.81,0,0,1,.09-1,.57.57,0,0,1,.28-.25,1.9,1.9,0,0,1,.89-.05l1.62.1c.91.06.94.06,1,0s.09-.16.09-.86,0-.76-.08-.83a1.52,1.52,0,0,0-.47-.16c-.2-.05-.62-.12-.92-.16s-1-.09-1.62-.1A6.74,6.74,0,0,0,113.33,9.43Zm6.38.49-.13.13c0,9,0,10,.06,10.07a3.46,3.46,0,0,0,.8.11l1,.08c.2,0,.29,0,.34,0a22.24,22.24,0,0,0,.06-3.09c0-1.65,0-3,0-3s.08,0,.12.07.36.61.7,1.26a11.64,11.64,0,0,0,.73,1.3c.11.12.18.14.81.19a4.63,4.63,0,0,0,.8,0,.31.31,0,0,0,.19-.13c0-.06.36-.59.71-1.2s.66-1.11.69-1.12a19.76,19.76,0,0,1,.06,3c0,2.83,0,3,.09,3.12s.19.12,1,.2l1.05.09a.27.27,0,0,0,.16-.07s0-2.27,0-4.95a49.67,49.67,0,0,0-.07-5,.57.57,0,0,0-.16-.25c-.06-.07-.27-.12-.69-.16s-.74-.07-.92-.07a.53.53,0,0,0-.46.12c-.08.08-.65,1-1.26,2.12a20.49,20.49,0,0,1-1.18,2,19.54,19.54,0,0,1-1.22-2.2c-.62-1.22-1.2-2.27-1.27-2.35a.66.66,0,0,0-.43-.18c-.17,0-.59-.05-.94-.07l-.63,0Zm-44,.09a6.75,6.75,0,0,0-.76.15,5.08,5.08,0,0,0-.78.27,5.39,5.39,0,0,0-.6.33c-.14.1-.37.29-.52.42a4.57,4.57,0,0,0-.43.49,3,3,0,0,0-.33.57,6.29,6.29,0,0,0-.29.68,7.67,7.67,0,0,0-.18.78,12.58,12.58,0,0,0-.08,2,13.42,13.42,0,0,0,.08,2,5.78,5.78,0,0,0,.25.89,6,6,0,0,0,.33.71,3.93,3.93,0,0,0,.48.55,3.18,3.18,0,0,0,.67.46,4.14,4.14,0,0,0,.67.26,5.79,5.79,0,0,0,.75.11,6.36,6.36,0,0,0,1,0,8.89,8.89,0,0,0,.93-.16,5.92,5.92,0,0,0,.92-.36,3.67,3.67,0,0,0,.87-.59,5.85,5.85,0,0,0,.55-.62,7,7,0,0,0,.36-.66,6.56,6.56,0,0,0,.26-.75,7.17,7.17,0,0,0,.16-.83c0-.23,0-.93,0-1.55s0-1.37-.06-1.68a7.27,7.27,0,0,0-.17-1c-.07-.23-.2-.56-.27-.73a4.79,4.79,0,0,0-.37-.58,4.72,4.72,0,0,0-.5-.5,5.15,5.15,0,0,0-.48-.31,2.8,2.8,0,0,0-.53-.19,5.35,5.35,0,0,0-.76-.16c-.24,0-.53,0-.63,0Zm-9.5,1-.88.12c-.38.05-1,.16-1.38.24a5.26,5.26,0,0,0-.86.27,1.24,1.24,0,0,0-.32.28l-.12.18c0,7.59,0,9.28.06,9.38a.36.36,0,0,0,.21.24,1.86,1.86,0,0,0,.54.11,10,10,0,0,0,1.14,0c.44,0,1-.08,1.38-.12A8.88,8.88,0,0,0,67,21.49a7.47,7.47,0,0,0,.89-.26,5.72,5.72,0,0,0,.65-.26,3,3,0,0,0,.5-.31,3.64,3.64,0,0,0,.55-.48,3.91,3.91,0,0,0,.4-.6,3.7,3.7,0,0,0,.26-.67,3.57,3.57,0,0,0,.06-1,2.24,2.24,0,0,0-.13-.92,1.65,1.65,0,0,0-.35-.55,2.12,2.12,0,0,0-.47-.41l-.23-.13a3.33,3.33,0,0,0,.85-1,3.52,3.52,0,0,0,.24-.68,4.31,4.31,0,0,0,0-.68,4.54,4.54,0,0,0-.07-.75,3.44,3.44,0,0,0-.19-.57,3.24,3.24,0,0,0-.34-.47,1.85,1.85,0,0,0-.58-.42,3.69,3.69,0,0,0-.65-.24,5.16,5.16,0,0,0-1.19-.1A10.36,10.36,0,0,0,66.19,11Zm67.24.14a4.11,4.11,0,0,0-.65.17,3.06,3.06,0,0,0-.54.28,3.64,3.64,0,0,0-.55.47,3.22,3.22,0,0,0-.48.72,4.79,4.79,0,0,0-.31.81,8.21,8.21,0,0,0-.13,2.14,13.18,13.18,0,0,0,.07,2.22,5.42,5.42,0,0,0,.21.9,5.63,5.63,0,0,0,.36.8,5.18,5.18,0,0,0,.5.7,4.53,4.53,0,0,0,.57.51,5.63,5.63,0,0,0,.62.37c.19.09.48.22.68.29a5.23,5.23,0,0,0,.8.19,8,8,0,0,0,1,.08,4.18,4.18,0,0,0,1-.09,5.37,5.37,0,0,0,.68-.25,2.74,2.74,0,0,0,.7-.54,3.3,3.3,0,0,0,.54-.7,5.5,5.5,0,0,0,.23-.55,6.76,6.76,0,0,0,.17-.75,11.69,11.69,0,0,0,.06-2.14,10.76,10.76,0,0,0-.12-2.08,6,6,0,0,0-.25-.85,4.42,4.42,0,0,0-.37-.72,5.74,5.74,0,0,0-.38-.55,5.43,5.43,0,0,0-.53-.49,4.88,4.88,0,0,0-.8-.49,6.15,6.15,0,0,0-.85-.33,5.62,5.62,0,0,0-.82-.14,7.42,7.42,0,0,0-.75,0A4,4,0,0,0,133.43,11.14Zm7.26,1c0,.08-.05.93,0,3.64a21.3,21.3,0,0,0,.13,4,5.08,5.08,0,0,0,.23.8,3.06,3.06,0,0,0,.24.53c.06.1.2.3.31.45a4.91,4.91,0,0,0,.56.54,4.43,4.43,0,0,0,.79.5,6.08,6.08,0,0,0,.93.34c.26.07.7.15,1,.2a8,8,0,0,0,.91.08,5.29,5.29,0,0,0,.79-.08,4.12,4.12,0,0,0,.7-.22,2.79,2.79,0,0,0,.57-.4,2.38,2.38,0,0,0,.42-.54,3.1,3.1,0,0,0,.24-.54,4.94,4.94,0,0,0,.16-.68,38.48,38.48,0,0,0,.07-3.89V13.42a2.9,2.9,0,0,0-1.22-.34c-.79-.13-1-.15-1.06-.1a16,16,0,0,0-.07,3.22c0,1.73,0,3.38-.05,3.65a2.35,2.35,0,0,1-.18.77.71.71,0,0,1-.36.4,1,1,0,0,1-.66.13,3.62,3.62,0,0,1-.72-.09,2.18,2.18,0,0,1-.54-.22,1.09,1.09,0,0,1-.41-.39,2.33,2.33,0,0,1-.26-.55,23.63,23.63,0,0,1-.11-3.86c0-3.5,0-3.57-.13-3.64a5.32,5.32,0,0,0-1-.2c-.48-.08-.95-.14-1-.14A.25.25,0,0,0,140.69,12.17Zm-84.92.28-.53.06c-.2,0-.53.1-.71.15a5.25,5.25,0,0,0-.73.25,3.84,3.84,0,0,0-.7.36,5.7,5.7,0,0,0-.59.45,3.41,3.41,0,0,0-.54.58,4.25,4.25,0,0,0-.43.7,4.19,4.19,0,0,0-.3.75,5.76,5.76,0,0,0-.19.77,14.92,14.92,0,0,0-.07,2,10.26,10.26,0,0,0,.11,2.16,4.45,4.45,0,0,0,.33.95,2.67,2.67,0,0,0,.51.74,3.63,3.63,0,0,0,.6.47,3.79,3.79,0,0,0,.7.27,3.36,3.36,0,0,0,1,.1,7.84,7.84,0,0,0,1-.08c.24,0,.7-.14,1-.23a5.48,5.48,0,0,0,.85-.29.86.86,0,0,0,.33-.26,2.74,2.74,0,0,0,.06-.78,5.18,5.18,0,0,0,0-.78.3.3,0,0,0-.11-.15,4.19,4.19,0,0,0-.8.14c-.39.1-1,.21-1.27.25a1.7,1.7,0,0,1-.84,0,.87.87,0,0,1-.5-.24,2.34,2.34,0,0,1-.29-.37,2.89,2.89,0,0,1-.17-.5,11.61,11.61,0,0,1-.07-1.87,8.22,8.22,0,0,1,.09-1.93,3.8,3.8,0,0,1,.2-.58,3.62,3.62,0,0,1,.27-.41,2.43,2.43,0,0,1,.42-.32,2.69,2.69,0,0,1,.59-.22c.2,0,.8-.12,1.35-.17a3,3,0,0,0,1.07-.17c.06-.06.08-.25.1-.75a7.82,7.82,0,0,0,0-.82.34.34,0,0,0-.14-.23,3.19,3.19,0,0,0-.76-.06C56.21,12.43,55.86,12.44,55.77,12.45ZM150,13.71a3.28,3.28,0,0,0,0,.87c0,.65,0,.75.12.84a3.87,3.87,0,0,0,1.27.32l1.16.2c0,7.23,0,8.18.06,8.28a.35.35,0,0,0,.18.16c.07,0,.5.12,1,.21s.89.16,1,.16a.26.26,0,0,0,.18-.09c.05-.08.06-1,.06-4.17,0-3.84,0-4.06.09-4.06s.56.09,1.13.21a7.1,7.1,0,0,0,1.16.19c.08,0,.09-.09.1-.9s0-.87-.07-.95a2.86,2.86,0,0,0-.86-.25L153,14.06c-1.46-.26-2.72-.49-2.81-.49S150,13.6,150,13.71Zm-101.4.07c-.3,0-.86.08-1.25.14l-1.2.22a7.82,7.82,0,0,0-.89.28,3.4,3.4,0,0,0-1.1.66,2.92,2.92,0,0,0-.42.47,3.35,3.35,0,0,0-.32.57l-.18.55A36.79,36.79,0,0,0,43.13,21c0,3.84,0,4,.07,4.11s.13.09,1.06-.1a3.25,3.25,0,0,0,1.09-.28c.11-.11.11-.11.11-2.2,0-1.15,0-2.1,0-2.11s.78-.15,1.69-.32L49,19.73a.48.48,0,0,0,.26-.16,2.3,2.3,0,0,0,.07-.86c0-.58,0-.75-.07-.81a.29.29,0,0,0-.11-.08l-1.39.25L46,18.42c-.44.1-.47.1-.5,0a6.15,6.15,0,0,1,0-.85,2.73,2.73,0,0,1,.11-.93,1.22,1.22,0,0,1,.23-.29,1,1,0,0,1,.34-.18l1.64-.32c1.18-.2,1.47-.27,1.56-.36s.11-.14.11-.86a5,5,0,0,0,0-.81.35.35,0,0,0-.15-.07A3.35,3.35,0,0,0,48.58,13.78ZM158.75,15.3s0,2.32,0,5.1c0,4.79,0,5.07.1,5.15a4.5,4.5,0,0,0,1,.29l1,.2A.3.3,0,0,0,161,26c.07-.07.08-.32.08-2.13V21.78l1.78.41,1.59.34s0,.95,0,2.1v2.09a2.45,2.45,0,0,0,1.13.41c.49.12.93.22,1,.22a.26.26,0,0,0,.17-.07c0-.05.06-1.2.06-5.07,0-5,0-5-.1-5.12a1.24,1.24,0,0,0-.59-.22l-1-.23a1.4,1.4,0,0,0-.6-.07c-.07.05-.08.2-.08,1.95a8.24,8.24,0,0,1-.06,1.91s-.79-.16-1.69-.37l-1.62-.36c0-3.57-.06-3.89-.12-3.95a6.4,6.4,0,0,0-1-.28c-.49-.11-1-.2-1-.2A.41.41,0,0,0,158.75,15.3ZM38.1,15.8a4.32,4.32,0,0,0-.5.1,6.3,6.3,0,0,0-.67.2,4.06,4.06,0,0,0-.59.3,2.27,2.27,0,0,0-.44.38,2.55,2.55,0,0,0-.37.57c-.12.29-.35,1.23-1.21,5-.58,2.6-1,4.76-1,4.83s0,.14.07.15.52-.09,1.08-.22a8,8,0,0,0,1.11-.3.64.64,0,0,0,.14-.23c0-.09.15-.66.28-1.28s.23-1.13.23-1.14l1.41-.33c.77-.18,1.4-.31,1.41-.31l.27,1.13a8.43,8.43,0,0,0,.31,1.19c.05.06.24,0,1.13-.15a9,9,0,0,0,1.14-.26.28.28,0,0,0,.08-.2c0-.09-.47-2-1-4.28-.71-2.85-1.07-4.24-1.18-4.46a1.85,1.85,0,0,0-.31-.45,1.62,1.62,0,0,0-.39-.21,3.34,3.34,0,0,0-.49-.08A2.59,2.59,0,0,0,38.1,15.8Z" transform="translate(-25.13 -1.5)"/><path d="M65.81,17.09l-.8.11,0,2.6a16.32,16.32,0,0,0,1.62-.2,3,3,0,0,0,.65-.2,1.52,1.52,0,0,0,.44-.31,1.14,1.14,0,0,0,.26-.44,1.91,1.91,0,0,0,.07-.43,2.91,2.91,0,0,0-.06-.46,1.2,1.2,0,0,0-.19-.41,1,1,0,0,0-.32-.24,1.83,1.83,0,0,0-.52-.11A8.46,8.46,0,0,0,65.81,17.09ZM37.49,18a.31.31,0,0,0-.07.12s-.19.95-.43,2.06-.41,2-.4,2l1-.22,1-.24s-.19-.86-.44-1.91a8,8,0,0,0-.51-1.92A.21.21,0,0,0,37.49,18Z" transform="translate(-25.13 -1.5)"/><path d="M66.24,12.94l-.53.08-.59.08-.13,0a10.54,10.54,0,0,0,.06,2.4l.86-.1a8.22,8.22,0,0,0,1.14-.2,1.18,1.18,0,0,0,.58-.34.82.82,0,0,0,.3-.53,1.93,1.93,0,0,0,0-.58,1.39,1.39,0,0,0-.12-.43.84.84,0,0,0-.33-.27,1.53,1.53,0,0,0-.73-.13Zm67.79.35a1.29,1.29,0,0,0-.38.26,2,2,0,0,0-.28.47,3.47,3.47,0,0,0-.16.67,11.82,11.82,0,0,0,0,1.8,8,8,0,0,0,.11,1.71,3.27,3.27,0,0,0,.19.53,1.94,1.94,0,0,0,.34.46,1.28,1.28,0,0,0,.61.35,2.37,2.37,0,0,0,.76.12,1.17,1.17,0,0,0,1-.46,2.58,2.58,0,0,0,.26-.55,6.23,6.23,0,0,0,.11-2,9.15,9.15,0,0,0-.09-2,3.3,3.3,0,0,0-.23-.59,1.87,1.87,0,0,0-.36-.45,1.52,1.52,0,0,0-.5-.3,2.69,2.69,0,0,0-.72-.12A1.6,1.6,0,0,0,134,13.29Z" transform="translate(-25.13 -1.5)"/><path d="M94.31,11.1l-.21,0v2.72c1.22-.05,1.7-.09,1.85-.12a3,3,0,0,0,.46-.16,1.09,1.09,0,0,0,.31-.23,1.19,1.19,0,0,0,.2-.39,2,2,0,0,0,.08-.55,3.09,3.09,0,0,0,0-.49,1.29,1.29,0,0,0-.24-.39,1.14,1.14,0,0,0-.46-.31,2.83,2.83,0,0,0-1-.11C94.85,11.08,94.43,11.09,94.31,11.1Z" transform="translate(-25.13 -1.5)"/><path d="M75.34,12.22a1.26,1.26,0,0,0-.58.35,1.5,1.5,0,0,0-.38.58,4.11,4.11,0,0,0-.17.57,12.87,12.87,0,0,0,0,1.78,8.69,8.69,0,0,0,.08,1.84,2.81,2.81,0,0,0,.18.52,1.56,1.56,0,0,0,.29.37,1.14,1.14,0,0,0,.36.23l.41.09a1.86,1.86,0,0,0,.59-.05,2.25,2.25,0,0,0,.62-.21,1.7,1.7,0,0,0,.37-.29,3,3,0,0,0,.24-.37,4.2,4.2,0,0,0,.2-.6,9.39,9.39,0,0,0,.06-2c0-1.59,0-1.64-.14-1.95a2.38,2.38,0,0,0-.28-.53,1.36,1.36,0,0,0-.37-.29,1.54,1.54,0,0,0-.67-.12A1.91,1.91,0,0,0,75.34,12.22Z" transform="translate(-25.13 -1.5)"/><path class="cls-3" d="M97.1,27l-3.63.07c-1.29,0-3.35.1-4.59.16l-3.62.17-2.59.16-2.31.14-2.64.2-3.15.28-3.24.32-2.78.31-2.67.32c-.86.11-2.3.3-3.19.43l-3,.42c-.75.12-2,.3-2.77.43l-2.75.46c-.74.11-2.43.42-3.77.67s-3.15.6-4,.77l-2.9.6-2.92.65-3.12.73c-.81.2-2,.5-2.67.65l-1.39.36-.19,0c0,29.73,0,32.62.08,34.05,0,.94.11,2.27.15,3s.12,1.82.17,2.53.17,2,.25,2.8.23,2.12.31,2.85.24,2.1.37,3,.35,2.49.5,3.45.42,2.57.59,3.56.46,2.47.62,3.28.5,2.37.73,3.46.69,3,1,4.23.68,2.67.82,3.18.39,1.4.56,2,.39,1.39.52,1.81.47,1.51.77,2.45.81,2.48,1.14,3.44.72,2.07.87,2.48.47,1.27.71,1.9.67,1.72.95,2.43.71,1.71.93,2.23l.87,2.06c.26.6.83,1.86,1.25,2.8s1.39,2.93,2.14,4.44,1.68,3.29,2.05,4L53,139.33c.41.73,1,1.76,1.33,2.3s.92,1.53,1.32,2.21,1.1,1.76,1.53,2.42,1.11,1.72,1.52,2.34,1.15,1.69,1.63,2.37,1.21,1.73,1.61,2.29l1.61,2.15c.46.62,1.27,1.67,1.79,2.32s1,1.18,1,1.18a.68.68,0,0,0,0-.22c0-.1-.07-.94-.1-1.85s-.09-2.31-.13-3.11-.12-2.16-.18-3-.14-2.14-.19-2.81-.15-1.7-.21-2.26-.16-1.52-.23-2.12-.17-1.52-.24-2-.21-1.37-.31-1.95-.25-1.43-.34-1.89-.27-1.15-.39-1.55-.3-1-.44-1.38-.48-1.1-.76-1.65-.7-1.33-.92-1.73-.7-1.2-1-1.77-1-1.6-1.37-2.26S58,125.2,57.3,124.07s-1.85-2.85-2.5-3.81-1.56-2.33-2-3-1.48-2.14-2.22-3.21-1.46-2.12-1.59-2.37a5.42,5.42,0,0,1-.36-.82,8,8,0,0,1-.23-.78c0-.22-.12-.63-.15-.89s-.06-.7-.06-1a9,9,0,0,1,.08-1c0-.29.11-.69.15-.9s.16-.56.24-.78a6.08,6.08,0,0,1,.35-.8,5.47,5.47,0,0,1,.49-.76,4.85,4.85,0,0,1,.6-.6l.56-.37a7.39,7.39,0,0,1,.8-.36,11.24,11.24,0,0,1,1.16-.38,11.61,11.61,0,0,1,1.2-.26l1.19-.17c.33,0,.8-.09,1-.1l.44,0a8.89,8.89,0,0,1,.08-1.38,3.85,3.85,0,0,1,.2-.78A3.35,3.35,0,0,1,57,99a2.67,2.67,0,0,1,.38-.44,2.61,2.61,0,0,1,.45-.29A4.39,4.39,0,0,1,58.6,98l1.18-.2c.34,0,1-.08,1.41-.08H62a3.63,3.63,0,0,1,.07-.71c0-.21.13-.51.19-.69s.18-.47.26-.65a3.13,3.13,0,0,1,.4-.6,2.42,2.42,0,0,1,.44-.42,3.58,3.58,0,0,1,.48-.24,3.79,3.79,0,0,1,1-.16c.39,0,1.52,0,2.48,0l1.76,0s.07-1.37.15-3,.15-3,.16-3l7,.18,7.65.2h.62A16,16,0,0,1,86,87.1c.38-.39.93-.89,1.22-1.13s.76-.57,1-.76l.52-.34c-.8-1-1.24-1.56-1.48-1.91s-.63-.89-.85-1.23-.59-.92-.83-1.33-.6-1-.79-1.42-.54-1-.73-1.45-.47-1-.59-1.31-.34-.82-.46-1.16-.36-1-.52-1.47-.38-1.2-.49-1.6-.29-1.11-.4-1.58-.26-1.26-.35-1.76S81.07,67.4,81,67s-.12-1.14-.16-1.58-.06-1.59-.06-2.84a28.21,28.21,0,0,1,.09-2.92c0-.5.13-1.3.2-1.78s.22-1.33.33-1.88.26-1.28.35-1.6.24-.91.35-1.28.32-1.05.47-1.51.39-1.09.52-1.42l.58-1.36c.18-.41.49-1.05.67-1.42s.54-1,.79-1.45.63-1.08.86-1.43.61-.93.84-1.25.63-.86.85-1.15.66-.84,1-1.19,1-1.07,1.49-1.62,1.29-1.26,1.66-1.58,1-.81,1.29-1.08,1-.75,1.4-1,1-.71,1.4-.92,1-.58,1.38-.81,1.08-.58,1.49-.78l1.37-.63,1.43-.56c.43-.16,1.21-.41,1.72-.56l1.52-.42,1.25-.28c.36-.07,1-.18,1.53-.25s1.26-.16,1.74-.21,1.35-.09,2.46-.09c.91,0,1.84,0,2.21.07s1,.11,1.33.15l1.32.22,1.45.31,1.53.38,1.54.45c.46.14,1.24.41,1.75.58l1.48.55c.31.11.59.21.62.21s0-.84,0-2.44V28.12l-4-.33-3.19-.21-3.42-.21-2.69-.12-2.85-.11-4.57-.1c-1.6,0-3.6,0-4.45,0Zm39.3,8.34v6c.8.94,1.24,1.5,1.51,1.85s.67.91.9,1.25.61.92.82,1.28.57,1,.78,1.35.48.92.61,1.18.39.81.56,1.22.46,1.11.61,1.53.4,1.1.52,1.51.32,1,.43,1.46.28,1.07.37,1.49.23,1.09.3,1.46.18,1,.23,1.4.13,1,.17,1.4.12,1.19.16,1.81a31.83,31.83,0,0,1,.06,3.2c0,1.55-.06,2.36-.13,3.16-.06.59-.15,1.4-.2,1.81s-.15,1-.21,1.3-.17.88-.25,1.28-.24,1-.35,1.47-.32,1.14-.46,1.58-.41,1.25-.62,1.8-.51,1.3-.68,1.66-.5,1.06-.76,1.57-.61,1.16-.78,1.43-.59.93-1,1.46-.91,1.3-1.26,1.72-.79,1-1,1.21l-.39.42v36c8.38,9.4,10.83,12.13,10.86,12.13s0-23.3,0-51.78V31.18l-5.55-.95-3.6-.58-1.69-.25S136.4,32.09,136.4,35.36Zm21.92,38.37c0,22.27,0,40.46,0,40.44s.21-.55.42-1.2.68-2,1-3.1.8-2.65,1-3.54.67-2.41.94-3.4.64-2.52.84-3.39.55-2.34.74-3.28.51-2.41.67-3.28.42-2.23.55-3,.37-2.16.51-3,.32-2.15.42-2.87.25-1.88.33-2.58.22-1.9.3-2.66.2-2,.27-2.88.15-2,.2-2.66.11-1.79.15-2.58c.07-1.22.08-3.78.08-18.36,0-9.31,0-16.94,0-17s-1.31-.36-2.86-.74-3.45-.85-4.22-1l-1.39-.31Z" transform="translate(-25.13 -1.5)"/><path class="cls-4" d="M97.1,27l-3.63.07c-1.29,0-3.35.1-4.59.16l-3.62.17-2.59.16-2.31.14-2.64.2-3.15.28-3.24.32-2.78.31-2.67.32c-.86.11-2.3.3-3.19.43l-3,.42c-.75.12-2,.3-2.77.43l-2.75.46c-.74.11-2.43.42-3.77.67s-3.15.6-4,.77l-2.9.6-2.92.65-3.12.73c-.81.2-2,.5-2.67.65l-1.39.36-.19,0c0,29.73,0,32.62.08,34.05,0,.94.11,2.27.15,3s.12,1.82.17,2.53.17,2,.25,2.8.23,2.12.31,2.85.24,2.1.37,3,.35,2.49.5,3.45.42,2.57.59,3.56.46,2.47.62,3.28.5,2.37.73,3.46.69,3,1,4.23.68,2.67.82,3.18.39,1.4.56,2,.39,1.39.52,1.81.47,1.51.77,2.45.81,2.48,1.14,3.44.72,2.07.87,2.48.47,1.27.71,1.9.67,1.72.95,2.43.71,1.71.93,2.23l.87,2.06c.26.6.83,1.86,1.25,2.8s1.39,2.93,2.14,4.44,1.68,3.29,2.05,4L53,139.33c.41.73,1,1.76,1.33,2.3s.92,1.53,1.32,2.21,1.1,1.76,1.53,2.42,1.11,1.72,1.52,2.34,1.15,1.69,1.63,2.37,1.21,1.73,1.61,2.29l1.61,2.15c.46.62,1.27,1.67,1.79,2.32s1,1.18,1,1.18a.68.68,0,0,0,0-.22c0-.1-.07-.94-.1-1.85s-.09-2.31-.13-3.11-.12-2.16-.18-3-.14-2.14-.19-2.81-.15-1.7-.21-2.26-.16-1.52-.23-2.12-.17-1.52-.24-2-.21-1.37-.31-1.95-.25-1.43-.34-1.89-.27-1.15-.39-1.55-.3-1-.44-1.38-.48-1.1-.76-1.65-.7-1.33-.92-1.73-.7-1.2-1-1.77-1-1.6-1.37-2.26S58,125.2,57.3,124.07s-1.85-2.85-2.5-3.81-1.56-2.33-2-3-1.48-2.14-2.22-3.21-1.46-2.12-1.59-2.37a5.42,5.42,0,0,1-.36-.82,8,8,0,0,1-.23-.78c0-.22-.12-.63-.15-.89s-.06-.7-.06-1a9,9,0,0,1,.08-1c0-.29.11-.69.15-.9s.16-.56.24-.78a6.08,6.08,0,0,1,.35-.8,5.47,5.47,0,0,1,.49-.76,4.85,4.85,0,0,1,.6-.6l.56-.37a7.39,7.39,0,0,1,.8-.36,11.24,11.24,0,0,1,1.16-.38,11.61,11.61,0,0,1,1.2-.26l1.19-.17c.33,0,.8-.09,1-.1l.44,0a8.89,8.89,0,0,1,.08-1.38,3.85,3.85,0,0,1,.2-.78A3.35,3.35,0,0,1,57,99a2.67,2.67,0,0,1,.38-.44,2.61,2.61,0,0,1,.45-.29A4.39,4.39,0,0,1,58.6,98l1.18-.2c.34,0,1-.08,1.41-.08H62a3.63,3.63,0,0,1,.07-.71c0-.21.13-.51.19-.69s.18-.47.26-.65a3.13,3.13,0,0,1,.4-.6,2.42,2.42,0,0,1,.44-.42,3.58,3.58,0,0,1,.48-.24,3.79,3.79,0,0,1,1-.16c.39,0,1.52,0,2.48,0l1.76,0s.07-1.37.15-3,.15-3,.16-3l7,.18,7.65.2h.62A16,16,0,0,1,86,87.1c.38-.39.93-.89,1.22-1.13s.76-.57,1-.76l.52-.34c-.8-1-1.24-1.56-1.48-1.91s-.63-.89-.85-1.23-.59-.92-.83-1.33-.6-1-.79-1.42-.54-1-.73-1.45-.47-1-.59-1.31-.34-.82-.46-1.16-.36-1-.52-1.47-.38-1.2-.49-1.6-.29-1.11-.4-1.58-.26-1.26-.35-1.76S81.07,67.4,81,67s-.12-1.14-.16-1.58-.06-1.59-.06-2.84a28.21,28.21,0,0,1,.09-2.92c0-.5.13-1.3.2-1.78s.22-1.33.33-1.88.26-1.28.35-1.6.24-.91.35-1.28.32-1.05.47-1.51.39-1.09.52-1.42l.58-1.36c.18-.41.49-1.05.67-1.42s.54-1,.79-1.45.63-1.08.86-1.43.61-.93.84-1.25.63-.86.85-1.15.66-.84,1-1.19,1-1.07,1.49-1.62,1.29-1.26,1.66-1.58,1-.81,1.29-1.08,1-.75,1.4-1,1-.71,1.4-.92,1-.58,1.38-.81,1.08-.58,1.49-.78l1.37-.63,1.43-.56c.43-.16,1.21-.41,1.72-.56l1.52-.42,1.25-.28c.36-.07,1-.18,1.53-.25s1.26-.16,1.74-.21,1.35-.09,2.46-.09c.91,0,1.84,0,2.21.07s1,.11,1.33.15l1.32.22,1.45.31,1.53.38,1.54.45c.46.14,1.24.41,1.75.58l1.48.55c.31.11.59.21.62.21s0-.84,0-2.44V28.12l-4-.33-3.19-.21-3.42-.21-2.69-.12-2.85-.11-4.57-.1c-1.6,0-3.6,0-4.45,0Zm39.3,8.34v6c.8.94,1.24,1.5,1.51,1.85s.67.91.9,1.25.61.92.82,1.28.57,1,.78,1.35.48.92.61,1.18.39.81.56,1.22.46,1.11.61,1.53.4,1.1.52,1.51.32,1,.43,1.46.28,1.07.37,1.49.23,1.09.3,1.46.18,1,.23,1.4.13,1,.17,1.4.12,1.19.16,1.81a31.83,31.83,0,0,1,.06,3.2c0,1.55-.06,2.36-.13,3.16-.06.59-.15,1.4-.2,1.81s-.15,1-.21,1.3-.17.88-.25,1.28-.24,1-.35,1.47-.32,1.14-.46,1.58-.41,1.25-.62,1.8-.51,1.3-.68,1.66-.5,1.06-.76,1.57-.61,1.16-.78,1.43-.59.93-1,1.46-.91,1.3-1.26,1.72-.79,1-1,1.21l-.39.42v36c8.38,9.4,10.83,12.13,10.86,12.13s0-23.3,0-51.78V31.18l-5.55-.95-3.6-.58-1.69-.25S136.4,32.09,136.4,35.36Zm21.92,38.37c0,22.27,0,40.46,0,40.44s.21-.55.42-1.2.68-2,1-3.1.8-2.65,1-3.54.67-2.41.94-3.4.64-2.52.84-3.39.55-2.34.74-3.28.51-2.41.67-3.28.42-2.23.55-3,.37-2.16.51-3,.32-2.15.42-2.87.25-1.88.33-2.58.22-1.9.3-2.66.2-2,.27-2.88.15-2,.2-2.66.11-1.79.15-2.58c.07-1.22.08-3.78.08-18.36,0-9.31,0-16.94,0-17s-1.31-.36-2.86-.74-3.45-.85-4.22-1l-1.39-.31Z" transform="translate(-25.13 -1.5)"/><path class="cls-5" d="M100.34,36.63l-1.45.73c-.42.23-1.06.6-1.42.82l-1.15.75-1.12.83c-.35.27-.93.74-1.3,1.05s-1,.93-1.43,1.34-1,1-1.21,1.28L90.8,44c0,.54.19,3,.36,5.91s.3,5.44.32,5.73l0,.53c-1.57,2.07-2.93,3.86-4,5.31s-2.3,3-2.65,3.5l-.65.86c.09.85.19,1.51.27,2s.23,1.25.33,1.66.26,1.11.39,1.55.34,1.16.5,1.6.4,1.12.54,1.48.42,1,.59,1.36.45,1,.64,1.3.44.82.58,1.06l.25.44c.54.14,1.52.43,2.52.72l2.61.75,3.31,1c1.4.4,2.66.78,2.8.82l.25.07,4.35,6.61c1.35,2,2.5,3.74,2.55,3.76l.74.17,1.4.25c.41.06,1.16.17,1.68.22s1.42.12,2,.13,1.5,0,2.1,0,1.27-.09,1.65-.14,1-.13,1.4-.2l1.17-.21a1.74,1.74,0,0,0,.47-.15s1.3-2.06,2.87-4.52,3-4.72,3.18-5l.33-.53,2.57-.72,2.39-.68,3.72-1c1.43-.42,2.66-.76,2.74-.77a.56.56,0,0,0,.25-.16c0-.07.38-.71.74-1.43s.77-1.65.94-2.08.42-1.1.55-1.5.35-1.09.48-1.53.28-1.1.36-1.48.21-1,.28-1.4.15-1,.19-1.35.1-.8.12-1l0-.4-3.53-4.53-2.63-3.36c-.68-.9-1.28-1.65-1.31-1.68s0-2.57.12-6.23l.17-6.2c-.18-.23-.48-.57-.79-.91s-.93-1-1.39-1.38-1.11-1-1.46-1.31-.9-.73-1.21-1-.93-.67-1.41-1-1.26-.79-1.71-1.05-1.17-.63-1.59-.83l-.77-.37-5.2,2-2.64,1-1.93.73-.75.28c-.47.18-.59.21-.7.17l-1.24-.5L109,39.4l-2.07-.8c-.62-.25-1.26-.49-1.43-.55l-1.87-.73-2.07-.81-.53-.2Z" transform="translate(-25.13 -1.5)"/><path d="M112.46,51l-2,1.53c-1,.78-2.74,2.06-3.78,2.82l-3.74,2.8-2.08,1.56c-.13.1-.21.2-.21.25s1.09,3.42,2.43,7.48l2.43,7.38c7.48,0,10.87.07,12.36.09l2.72,0c1.35-4.46,2-6.58,2.31-7.61s.9-3,1.34-4.43.78-2.65.78-2.73-.13-.25-1.64-1.37l-4.84-3.59L114,51.87c-.72-.53-1.33-1-1.35-1A.8.8,0,0,0,112.46,51Z" transform="translate(-25.13 -1.5)"/><path class="cls-5" d="M88.15,85.27c-.28.2-.73.53-1,.74s-.79.7-1.17,1.09-.84.88-1,1.09l-.29.38c-1,0-4.41-.09-8.27-.2l-7-.18s-.08,1.37-.16,3-.15,3-.15,3l-1.76,0c-1,0-2.09,0-2.48,0a3.79,3.79,0,0,0-1,.16,3.58,3.58,0,0,0-.48.24,2.42,2.42,0,0,0-.44.42,3.13,3.13,0,0,0-.4.6c-.08.18-.2.47-.26.65s-.14.48-.19.69a3.68,3.68,0,0,0-.07.53v.18a20.41,20.41,0,0,0-2.21.08L58.6,98a4.39,4.39,0,0,0-.76.22,2.61,2.61,0,0,0-.45.29A2.67,2.67,0,0,0,57,99a3.35,3.35,0,0,0-.28.57,3.85,3.85,0,0,0-.2.78,7,7,0,0,0-.08.92v.46c-.68,0-1.15.09-1.48.13l-1.19.17a11.61,11.61,0,0,0-1.2.26,11.24,11.24,0,0,0-1.16.38,7.39,7.39,0,0,0-.8.36l-.56.37a4.85,4.85,0,0,0-.6.6,5.47,5.47,0,0,0-.49.76,6.08,6.08,0,0,0-.35.8c-.08.22-.19.57-.24.78s-.11.61-.15.9a9,9,0,0,0-.08,1c0,.26,0,.68.06,1s.1.67.15.89a8,8,0,0,0,.23.78,5.42,5.42,0,0,0,.36.82c.13.25.84,1.32,1.59,2.37s1.74,2.5,2.22,3.21,1.4,2.07,2,3,1.77,2.68,2.5,3.81,1.67,2.6,2.08,3.26,1,1.68,1.37,2.26.81,1.38,1,1.77.64,1.18.92,1.73.62,1.29.76,1.65.33,1,.44,1.38.29,1.1.39,1.55.24,1.3.34,1.89.24,1.45.31,1.95.17,1.39.24,2,.18,1.55.23,2.12.15,1.58.21,2.26.13,1.93.19,2.81.13,2.22.18,3,.1,2.19.12,3.08.09,1.76.12,1.9.14.38.9,1.31c.47.57,1.26,1.51,1.78,2.1l1.67,1.93c.42.48,1.15,1.29,1.65,1.84s1.57,1.68,2.4,2.55,2.25,2.3,3.15,3.18,2.08,2,2.62,2.51l1.94,1.77c.54.49,1.47,1.31,2.08,1.84s1.64,1.39,2.3,1.95L89,181.52c.56.45,1.56,1.24,2.22,1.75s1.76,1.34,2.45,1.85,1.78,1.32,2.44,1.8,1.82,1.28,2.58,1.8l1.37.94c1.43-1,2.47-1.69,3.23-2.23s1.87-1.34,2.49-1.8l2.07-1.55,2.12-1.66c.64-.51,1.64-1.31,2.21-1.78l1-.86c-.22-.22-5.9-6.8-12.76-14.75L87.88,150.5c-.06-.06,0-.17.74-.77l.82-.7c2.51.07,3.6.09,4,.09a13.31,13.31,0,0,0,1.4-.1,11.4,11.4,0,0,0,1.13-.21,7.6,7.6,0,0,0,.92-.24l.88-.33c.25-.1.72-.3,1-.46a7.5,7.5,0,0,0,.85-.47,6.17,6.17,0,0,0,.55-.43,4.09,4.09,0,0,0,.53-.6,5,5,0,0,0,.49-.74,6.13,6.13,0,0,0,.35-.82,9.67,9.67,0,0,0,.27-1,5.54,5.54,0,0,0,.1-1.48,5.77,5.77,0,0,0-.13-1.55,6,6,0,0,0-.26-.9c-.07-.18-.2-.45-.28-.6a5.88,5.88,0,0,0-.52-.63A5.94,5.94,0,0,0,100,138a8.08,8.08,0,0,0-.85-.47,10,10,0,0,0-.93-.39c-.27-.1-.71-.22-1-.29s-.73-.17-1-.22l-1.31-.22-.73-.12c-3.54-4-4.61-5.17-4.66-5.23l-.09-.11a24.32,24.32,0,0,1,2.3-1.91l1.89,2.11,2,2.22c.12.12.21.15.78.24.36.06.89.15,1.18.22l.86.23a1.05,1.05,0,0,0,.33.07s-.45-.56-1-1.21L95,129.66c-1-1.12-1.74-2-1.72-2.06l1.14-1,1.09-.95c.2.22,7.75,9,16.91,19.59L129,164.54l.71-.82.46-.51c-2.18-2.54-9.67-11.2-18-20.9l-15.3-17.73c-.06-.08,0-.17,1.08-1.06a10.44,10.44,0,0,1,1.16-.94l16.4,19c9,10.44,16.44,19,16.53,19.13l.16.16,1.11-1.33c-25.5-29.53-32.9-38.12-32.9-38.14a3.1,3.1,0,0,1,.37-.36l.39-.33c.63.14,1,.21,1.31.25l1.06.12.57,0c21.46,24.85,28.44,32.94,29.38,34s1.7,2,1.72,2a5.85,5.85,0,0,0,.57-.68l.52-.67L118.8,135.47c-6.8-7.86-12.36-14.33-12.37-14.35a2.32,2.32,0,0,1,.71-.14c.39,0,1-.15,1.3-.22s.74-.17.94-.23l.38-.08c.28.28,6.65,7.65,14.33,16.54s14,16.21,14,16.23a3.22,3.22,0,0,0,.51-.62c.26-.37.49-.7.51-.75s-3.2-3.81-10.1-11.8l-13.8-16-3.67-4.25a8.86,8.86,0,0,0,1-.64,6.06,6.06,0,0,0,.6-.56,5,5,0,0,0,.46-.55c.09-.13.18-.23.21-.23s6.13,7.08,13.59,15.7,13.55,15.69,13.57,15.7a8,8,0,0,0,.52-.73c.4-.61.47-.75.42-.82l-7.28-8.44L121,123.44,114.54,116c.1-.38.17-.71.22-1a10.14,10.14,0,0,0,.09-1.86v-1.39l14.53,16.82c7.82,9.05,14.23,16.47,14.25,16.47a4.29,4.29,0,0,0,.5-.75c.39-.65.45-.77.4-.83l-7.78-9c-4.25-4.91-11.25-13-15.58-18l-7.85-9.1c0-3.47,0-4.48.05-4.48s7.36,8.48,16.32,18.86,16.35,18.91,16.41,19l.12.15c.79-1.4,1-1.82,1-1.84s-2.52-3-5.63-6.59L123.4,111.25l-12.64-14.7a3.25,3.25,0,0,0-.86-.16c-.43,0-1.14-.15-1.56-.23s-1.1-.18-1.5-.27l-1.48-.36c-.41-.1-1.07-.3-1.47-.43s-1-.34-1.45-.49-1.06-.42-1.47-.59-1.1-.5-1.53-.71l-1.32-.69L97,92c-.3-.19-.84-.52-1.19-.76s-.93-.62-1.25-.87-.88-.67-1.22-.94-.84-.7-1.11-.93l-1.47-1.41c-.54-.54-1.21-1.24-1.47-1.56a4.13,4.13,0,0,0-.56-.59A3.39,3.39,0,0,0,88.15,85.27Z" transform="translate(-25.13 -1.5)"/><path class="cls-3" d="M124.77,94.26c-.1,0-.61.23-1.15.41l-2.07.65c-.61.17-1.41.4-1.78.49s-.94.23-1.28.3l-1.19.23c-.33.06-.91.13-1.3.18s-1,.07-1.34.07a1.85,1.85,0,0,0-.62,0s2.25,2.64,5,5.82,5.2,6,5.47,6.29.52.52.53.52,0-3.39,0-7.55c0-6,0-7.54,0-7.54A1.08,1.08,0,0,0,124.77,94.26Zm33.46,20.32a.81.81,0,0,0,0,.18s0,0,.07,0,.08-.06.08-.18a.41.41,0,0,0,0-.17S158.26,114.5,158.23,114.58Z" transform="translate(-25.13 -1.5)"/><path class="cls-5" d="M105,141.78a11.89,11.89,0,0,1,0,1.32l-.06.74c1,1.1,1.43,1.67,1.69,2s1.36,1.57,2.43,2.8l3.22,3.73,3.21,3.72c1.06,1.24,2.81,3.25,3.87,4.49l2.58,3,1,1.1c.16.19.6.7,1,1.14s1,1.09,1.28,1.47.63.72.66.74.28-.19.66-.6l.59-.64c-.32-.35-1-1.18-1.79-2.06S123,162.16,122,161l-3.74-4.33c-1.07-1.25-3-3.43-4.2-4.86S111,148.2,109.9,147L106.52,143,105,141.28C104.94,141.22,104.94,141.28,105,141.78Zm-1.48,5.8c-.15.24-.38.57-.51.73l-.24.29c.22.24,1.15,1.33,2.2,2.55s2.28,2.65,2.72,3.16l1.76,2,1.92,2.23,1.57,1.82c.33.38,1.36,1.56,2.26,2.63s2,2.3,2.4,2.78,1,1.13,1.28,1.47l1.92,2.24c.76.88,1.44,1.67,1.53,1.76l.14.17,1.26-1.25-2.65-3.06-1.3-1.51-1.47-1.7L116,161.32c-.68-.77-1.45-1.68-1.72-2L112,156.69,109,153.13l-3.21-3.73c-1.06-1.23-1.93-2.24-2-2.24A2,2,0,0,0,103.49,147.58Zm-3.59,3c-.21.1-.56.26-.79.35a3.45,3.45,0,0,0-.42.2s.93,1.1,2.06,2.4,2.31,2.68,2.61,3,1.38,1.6,2.39,2.75,2.23,2.61,2.76,3.22l2.37,2.74,3.53,4.09,2.26,2.63,1.24,1.44L119,174.7c.28-.23.58-.5.83-.74l.47-.44-5-5.83-3.35-3.88c-.68-.81-1.74-2-2.34-2.73s-2-2.38-3.2-3.72l-3.52-4.08L100.9,151a5.82,5.82,0,0,0-.58-.62A2.11,2.11,0,0,0,99.9,150.6ZM95.05,152a8.31,8.31,0,0,1-.88.07l-.85.08s.63.77,1.41,1.69L98.25,158l4.82,5.58c1.51,1.74,3.77,4.36,5,5.81s2.63,3,3.08,3.56l2.54,2.94c.94,1.11,1.74,2,1.76,2a3.26,3.26,0,0,0,.53-.43l.65-.56.15-.13c-.85-1-1.43-1.64-1.84-2.13l-1.12-1.3c-.21-.23-1.3-1.49-2.42-2.8l-3.33-3.87-4.31-5c-1.68-1.94-3.62-4.2-4.33-5l-2.62-3.05L95.47,152A1.75,1.75,0,0,0,95.05,152Z" transform="translate(-25.13 -1.5)"/><path class="cls-1" d="M130.16,175l-.33.34.68-.67h0S130.33,174.8,130.16,175Zm-59.51.81c.5.5.92.9.93.9s-.38-.4-.86-.9-.91-.9-.93-.9S70.16,175.3,70.65,175.8Zm57.64,1.07-.51.51,1-1h0A6.84,6.84,0,0,0,128.29,176.87Z" transform="translate(-25.13 -1.5)"/></svg>