<svg id="Layer_1" data-name="Layer 1" xmlns="http://www.w3.org/2000/svg" width="189.09" height="189.09" viewBox="0 0 189.09 189.09"><defs><style>.cls-1{fill:#fff;stroke:#000;stroke-width:1.09px;}.cls-2{fill:#e30613;}.cls-3{fill:#140e0c;}.cls-4{fill:#e8e4d9;}.cls-5{fill:#fbb800;}</style></defs><title>brentford-fc-logo-freelogovectors.net_</title><path id="big-circle" class="cls-1" d="M194,100a94,94,0,1,0-94,94,94.11,94.11,0,0,0,94-94" transform="translate(-5.46 -5.46)"/><path id="red-circle" class="cls-2" d="M161.81,147.06l-1.12,1.2,2,1.89,1.07-1.14a1.53,1.53,0,0,0,.12-2.25c-.66-.61-1.47-.36-2.09.3m-117.6,5.75a3.33,3.33,0,1,0,4.87-.1,3.33,3.33,0,0,0-4.87.1m116.21-8.72a1.17,1.17,0,0,0-1.73.18l-1.06,1.13,1.76,1.64,1-1.1a1.26,1.26,0,0,0,0-1.85M183.31,100a3.78,3.78,0,0,0,.61-1.88,3.39,3.39,0,1,0-3.53,3.27,2,2,0,0,0,.43,0L178.69,105h1.73l2.89-5Zm-8.53,1.87a3,3,0,0,0-1.53-2.65A2.41,2.41,0,0,0,174,97.4a2.64,2.64,0,0,0-5.28,0,2.33,2.33,0,0,0,.74,1.76,3,3,0,0,0-1.53,2.66,3.43,3.43,0,0,0,6.85,0m-9.42,43.4a2.46,2.46,0,0,0-3.21-.16,2.45,2.45,0,0,0-.57-2.82c-1-1-2.62-.92-4.1.66l-2.62,2.8,7.74,7.24,2.71-2.9a3.32,3.32,0,0,0,.05-4.82m-9.14,9.56-4.49-5.14-1.6,1.4,4.34,5a2,2,0,0,1-.13,3.11,2,2,0,0,1-3.1-.29l-4.34-5-1.6,1.4,4.49,5.15a4.28,4.28,0,0,0,6.43-5.62M148.54,166l-1-1.51L144,166.86l-4.88-7.3-1.76,1.18,5.88,8.81,5.29-3.53Zm-11.11,3.4-2-.14a3.25,3.25,0,0,1-1.93,3.32c-1.65.73-3.47.08-4.39-2a3.18,3.18,0,0,1,1.61-4.55,3.11,3.11,0,0,1,3.07.17l.79-1.92a5.26,5.26,0,0,0-4.62-.1,5.39,5.39,0,0,0-2.76,7.37,5.19,5.19,0,0,0,7,2.9,5.24,5.24,0,0,0,3.17-5.05m-17.57,10.22-.36-1.79-4.15.83-1.72-8.6-2.09.41,2.08,10.4,6.24-1.25Zm-11.13,2.09-.1-1.82-4.23.24-.5-8.76-2.12.12.6,10.58,6.35-.36ZM161.31,100a60,60,0,0,0-.95-10.76c-.18-1-.54-2.22-.54-2.22l3.5-12.15c.75-2.61,1.05-3.33.63-4-.16-.26-.46-.7-1.67-1l-10.52-2.63-.32-.58a61.36,61.36,0,0,0-103.19.21l-.21.4L37.52,69.87c-1.21.33-1.51.76-1.67,1-.41.67-.12,1.39.63,4L40,87.05s-.31,1.07-.49,2.09a62.75,62.75,0,0,0-1,10.86,61.4,61.4,0,1,0,122.79,0m-63.8,82.22-3-11-2-.2-5.19,10.13,2.29.23,1.13-2.3,3.89.4.64,2.47,2.29.24ZM82.7,169.46l-3.7-1-2.84,10.2L80,179.71a3.33,3.33,0,0,0,4.3-2.18,2.48,2.48,0,0,0-1.34-2.93,2.46,2.46,0,0,0,2.24-1.8c.37-1.34-.4-2.76-2.48-3.34M75,167.22l-8-3.64-.76,1.66,3,1.38-3.64,8,1.93.89,3.65-8,3,1.38.76-1.66Zm-14.65-8A5.55,5.55,0,1,0,62,166.79a5.39,5.39,0,0,0-1.63-7.61m-10.07-.07a5.46,5.46,0,1,0-7.77-.07,5.39,5.39,0,0,0,7.77.07M38.83,144.86l2.08-1.53,2.55,3.46,1.47-1.08-3.82-5.17-8.53,6.29,1.27,1.71,3.52-2.6,2,2.76,1.46-1.08-2-2.76Zm-9-43a3,3,0,0,0-1.53-2.65,2.38,2.38,0,0,0,.75-1.78,2.64,2.64,0,0,0-5.27,0,2.32,2.32,0,0,0,.73,1.76A3,3,0,0,0,23,101.85a3.28,3.28,0,0,0,3.42,3.24,3.28,3.28,0,0,0,3.43-3.24m-10.17-7-1.56,1V105h1.56V94.8ZM33.69,51l10.79,9,3.39-4a4.42,4.42,0,0,0-.28-6.4,3.31,3.31,0,0,0-4.29,0,3.24,3.24,0,0,0-.94-3.7c-1.41-1.18-3.56-1-5.4,1.18L33.69,51ZM45.74,38.1l8.84,11,2.2-1.77L53.28,43l1-.82,5.89,2.39,2.66-2.15L56.18,39.8a4.13,4.13,0,0,0-.36-4.61c-1.41-1.75-3.82-2.14-6-.37L45.74,38.1ZM60.8,27.59l6.08,12.7,7.85-3.77-1-2.17-5.31,2.54-1.47-3.07,4.11-2-1-2.18-4.11,2-1.48-3.09,5.15-2.47-1-2.18-7.7,3.69Zm15.59-6.42L79.53,34.9l2.76-.63-2-8.64,8.43,7.16,2.6-.6L88.2,18.47l-2.75.63,2,8.7L79,20.57l-2.61.6Zm17.86-1,4.4,0-.06,11.66,2.83,0,.06-11.66,4.41,0V17.82l-11.64-.06v2.42Zm15.49,12.3,2.78.53,1.1-5.71,4.47.86.46-2.38-4.47-.86.64-3.36,5.61,1.08.46-2.37-8.39-1.62-2.66,13.83Zm16.92,5.45a7.17,7.17,0,0,0,9.54-4,7.25,7.25,0,1,0-13.38-5.6,7.16,7.16,0,0,0,3.84,9.59m18.27-6.64-8.48,11.23,2.25,1.71,3.35-4.44,1,.78-.9,6.3,2.73,2.06.89-7.1a4.13,4.13,0,0,0,4.38-1.47c1.35-1.79,1.16-4.22-1.1-5.93l-4.17-3.14Zm13.6,11.22-10,9.89,3.27,3.32a7.09,7.09,0,0,0,10.35.26,6.79,6.79,0,0,0-.09-9.92l-3.5-3.55ZM190.59,100A90.58,90.58,0,1,1,100,9.42,90.68,90.68,0,0,1,190.59,100M127.68,35.5a4.42,4.42,0,0,0,5.9-2.66,4.42,4.42,0,1,0-8.13-3.4,4.42,4.42,0,0,0,2.23,6.07m20.16,3.26a1.78,1.78,0,0,0-.47-2.61l-1.64-1.24-2.21,2.94L145.07,39a1.89,1.89,0,0,0,2.77-.26m32.71,57.45a1.77,1.77,0,0,0-1.82,1.84,1.82,1.82,0,1,0,1.82-1.84M171.36,100a1.81,1.81,0,1,0,1.86,1.82,1.77,1.77,0,0,0-1.86-1.82m0-1.43a1.18,1.18,0,1,0-1.13-1.17,1.11,1.11,0,0,0,1.13,1.17M160,54.06c1.75-1.73,2.29-4.27.29-6.29l-1.52-1.54-6.59,6.49,1.46,1.47c2.05,2.08,4.59,1.61,6.36-.13M53.7,37.1a1.78,1.78,0,0,0-2.64-.17l-1.6,1.29,2.31,2.86,1.51-1.22a1.9,1.9,0,0,0,.42-2.76M26.43,100a1.81,1.81,0,1,0,1.85,1.81A1.77,1.77,0,0,0,26.43,100M81,175.23l-1.58-.44-.75,2.67,1.51.42a1.54,1.54,0,0,0,2-.94c.24-.87-.36-1.47-1.23-1.71M59.34,160.84a3.58,3.58,0,1,0,.88,4.8,3.34,3.34,0,0,0-.88-4.8M26.42,98.6a1.18,1.18,0,0,0,0-2.35,1.18,1.18,0,0,0,0,2.35M38.67,48.88l-1.32,1.57,2.44,2L41.07,51a1.67,1.67,0,0,0-.13-2.45,1.54,1.54,0,0,0-2.27.36M82.05,171.17l-1.49-.41-.65,2.3,1.44.41a1.26,1.26,0,0,0,1.64-.85,1.16,1.16,0,0,0-.94-1.45m9.57,6,2.43.25-.88-3.41-1.55,3.16ZM45.77,54.8l-1.33,1.59L41.61,54,43,52.35c.77-.92,1.83-1.32,2.75-.55a2,2,0,0,1,0,3" transform="translate(-5.46 -5.46)"/><path id="middle-black-border" class="cls-3" d="M53,68.14a56.76,56.76,0,0,1,94.23.32l2.16-.9a59,59,0,0,0-98.53-.29l2.14.87ZM41.89,89.33A59.08,59.08,0,1,0,159.07,100a60,60,0,0,0-1-10.7h-2.29a57.91,57.91,0,0,1,1,10.69A56.8,56.8,0,1,1,44.2,89.34Z" transform="translate(-5.46 -5.46)"/><path id="grey-lines" class="cls-4" d="M57.77,102.87v30l1-.18V102.94l-1-.07Zm1-32.24V63.71l-1,1v5.57l1,.39ZM91.28,59.41v7.48l1-.54V61l-1-1.61Zm0,79.54v15.54l1,.16V139.82l-1-.87Zm1-84.23V45.4l-1,.22v8.53l1,.57ZM75.59,102V99.78l-1,.66v3.64l1-2.12Zm0-24.46V73l-1-1.22V77l1,.46Zm-1,44.69v26.38l1,.59V120.5l-1,1.69Zm1-57.26V50.26l-1,.58V63.92l1,1Zm66.14,38V132.7l1,.18v-30l-1,.07Zm1.11-32.7V64.67l-1-1v6.91l1-.39ZM108.22,61v5.33l1,.54V59.41l-1,1.61Zm0,78.8v14.83l1-.16V139l-1,.87Zm1-85.67V45.62l-1-.22v9.32l1-.57ZM126,104.08v-3.64l-1-.66V102l1,2.11Zm0-27V71.79L125,73V77.5l1-.46Zm-1,43.46v28.65l1-.59V122.2l-1-1.69Zm0-55.58V50.26l1,.59V63.92l-1,1Z" transform="translate(-5.46 -5.46)"/><g id="bee"><path id="path350-7" class="cls-3" d="M116.52,82.63,150.6,68.82l-5.9,9.44-28.17,6.52V82.63Zm0,3.7v1.49h41.12l-13.29-7.25-27.82,5.76ZM38.62,74.27l3.25,11.34,11.57-6.13s-6.12-10.1-6.13-10l-7.06,1.84c-1.36.37-1.77.57-2,.86s-.08.66.33,2.12m17,6.3L42.33,87.81H83.46V86.33L55.62,80.57ZM50,92.19c0,.36.34.69.88,1.26l7.67,7.61,6.18-5.94L53.11,90.25,50.83,91.4c-.6.34-.81.55-.83.79m33.58-9.56L49.5,68.82l5.9,9.44,28.17,6.52V82.63ZM55.81,89.37l10.67,4.27,17.11-2.8,0-1.47Zm11.61,6.11c.17-.06-6.85,6.32-6.85,6.32l5.05.29a10.94,10.94,0,0,0,2.53-.13,18.37,18.37,0,0,0,2.55-1.22s12.9-6.92,12.9-7l0-1.51s-16.32,3.3-16.15,3.23m49.11-3.23,0,1.51c0,.06,12.9,7,12.9,7A16.78,16.78,0,0,0,132,102a10.94,10.94,0,0,0,2.53.13l5.06-.29s-7-6.38-6.86-6.32-16.15-3.23-16.15-3.23m32.72-.85L147,90.25l-11.62,4.87,6.18,5.94,7.68-7.61c.53-.57.89-.9.87-1.26s-.23-.45-.83-.79m-19.09,28.05c-.21-.29-6.14-16-6.14-16-1-2.51-1.87-2.94-3.66-4l-4.08-2.6-.19.25,4.67,6.37v9.26L136,132.08c2.08,2.59,2.15,3.45,5.17,3.45l1.86-.86-3.52-.58s-9.11-14.36-9.33-14.64m-60.16,0c-.21.28-9.33,14.64-9.33,14.64l-3.52.58,1.87.86c3,0,3.09-.86,5.17-3.45l15.18-19.31,0-9.26,4.67-6.37-.2-.25-4.07,2.6c-1.79,1-2.66,1.44-3.66,4,0,0-5.93,15.72-6.15,16m91.62-47.33c-.19-.29-.6-.49-2-.86l-7.06-1.83c0-.08-6.13,10-6.13,10L158,85.59l3.26-11.34c.4-1.47.53-1.8.32-2.13m-45.1,17.23,0,1.46,17.11,2.8,10.67-4.26Zm-.43-9.11L127,68.45l7-8.51.38-2.31-.7-.65-.86,2.64L114.53,76.2c0,.16,1.56,4,1.56,4m-43-11.79L84,80.24s1.51-3.88,1.56-4L67.31,59.62,66.45,57l-.7.65.38,2.31,7,8.51ZM84.43,52.67l1.64,1.92,5.09,2.8,5.13,7.42-1.45,2s-2.93,1-3.54,1.74c-.75,1-.91,4.68-.91,4.68l-2.26,1.3-2.7,8V95.1l1.92,1.28-5.69,8v19.24L88,134.35,96.7,141l3.35,4.2,3.33-4.2,8.69-6.61,6.36-10.76V104.35l-5.58-8,1.81-1.21V82.5l-2.7-8-2.26-1.3s-.15-3.72-.91-4.68c-.61-.77-3.54-1.74-3.54-1.74l-1.37-1.89,5.21-7.54,5.09-2.8,1.64-1.92-2.51.79-5.38,3-5.2,7.35-2.57-.67-2.66.64-5.17-7.32-5.39-3-2.51-.79ZM94.84,67.53l.78,3.6-3.51,1.36,2.73-5Zm10.41,0,2.73,5-3.47-1.4.74-3.56ZM100,81.75l10.54,4.59-3.51,7.9V88.07l-7-3.6-10,1.12L90,85.27l10-3.52ZM87.4,117.54,94.17,120h11.75l6.78-2.41.07.2-6.15,4.69H93.47l-6.15-4.69.08-.2Z" transform="translate(-5.46 -5.46)"/><path id="path4656" class="cls-5" d="M114.64,126.42l-8.58,3h-12l-8.47-3,3,5.22,7.05,2.55-5-.12,6.74,5.13h5.25l6.74-5.13-5,.12,7.06-2.55ZM87.32,82.28l7.18-3.8h11.13l7.18,3.8L112,80.05l-5.17-4.3,4.6,1.58-.51-1.58s-5-2.44-5-2.66H94.21c-.07.22-5,2.66-5,2.66l-.51,1.58,4.6-1.58-5.17,4.3-.79,2.23Zm29,22.67h0l-10.1,1.23,7.68-4.24-3-4.24-4.37,2.91H93.64l-4.25-2.84-3,4.17,7.56,4.24-10.11-1.23h0v5.41l6.53,2.44H109.8l6.53-2.44V105Z" transform="translate(-5.46 -5.46)"/></g></svg>