<?xml version="1.0" encoding="utf-8"?>
<!-- Generator: Adobe Illustrator 16.0.0, SVG Export Plug-In . SVG Version: 6.00 Build 0)  -->
<!DOCTYPE svg PUBLIC "-//W3C//DTD SVG 1.0//EN" "http://www.w3.org/TR/2001/REC-SVG-20010904/DTD/svg10.dtd">
<svg version="1.0" id="Layer_1" xmlns="http://www.w3.org/2000/svg" xmlns:xlink="http://www.w3.org/1999/xlink" x="0px" y="0px"
	 width="800px" height="800px" viewBox="0 0 800 800" enable-background="new 0 0 800 800" xml:space="preserve">
<g>
	<path fill="#FFFFFF" d="M745.729,401.547c0,191.476-156.155,346.723-348.72,346.723c-192.594,0-348.719-155.247-348.719-346.723
		c0-191.482,156.125-346.731,348.719-346.731C589.574,54.816,745.729,210.064,745.729,401.547"/>
	<rect x="30.787" y="25.991" fill-rule="evenodd" clip-rule="evenodd" fill="none" width="738.426" height="748.018"/>
	<path fill="#005DAA" d="M707.645,366.861c-16.146,0.033-90.358-19.116-100.908-19.159c-16.469,0.107-53.55,20.346-72.804,32.776
		c-5.596,3.64-11.31,6.93-16.886,9.824c1.412,0.086,2.863,0.204,4.231,0.386c11.714,1.387,22.106,5.894,30.5,12.014
		c10.816,8.02,22.01,17.845,28.727,19.159c0.32,0.021,0.695,0.053,1.069,0.106h0.032c9.567,0.887,36.94,7.625,36.084,23.731
		c0,0-19.063-5.726-41.916-1.839c-9.003,1.914-22.127,3.119-42.001,9.409c-18.819,5.897-67.912,24.402-106.295,24.413
		c-29.208-0.03-88.213-16.732-122.27-19.606c-2.03-0.158-4.048-0.266-6.056-0.266c-25.929-0.034-48.186,13.521-59.325,13.658
		c-10.039,0-27.649-1.698-44.886-14.409c-13.113-9.749-22.8-23.996-22.939-34.546c-0.022-3.526,1.239-6.804,4.004-8.962
		c1.956-1.484,4.699-1.783,8.309-1.814c13.36,0.011,39.813,5.777,71.191,5.756c18.667,0,38.979-2.019,59.132-8.469
		c4.677-1.496,18.753-4.764,27.82-7.027c2.392,1.624,4.923,3.375,7.753,5.318c0.267,0.192,0.566,0.289,0.854,0.289
		c0.513,0,0.983-0.246,1.303-0.652c0.502-0.725,0.3-1.688-0.374-2.178c-17.45-12.08-25.737-18.796-54.925-18.71
		c-18.604,0-45.804,2.562-89.846,7.817c-28.589,3.396-50.664,4.721-67.677,4.721c-28.365,0.01-42.729-3.684-49.756-7.347
		c-4.336-2.276-5.937-4.412-6.503-5.692c10.21-0.63,61.172-4.176,106.197-14.087c51.09-11.299,131.113-43.082,168.383-43.016
		c13.885-0.096,37.966,14.15,61.826,30.126c24.007,15.923,47.973,33.458,63.256,39.834c0.799,0.309,1.707-0.043,2.018-0.822
		c0.341-0.79-0.033-1.699-0.823-2.04c-8.757-3.643-20.922-11.396-34.42-20.45c18.518-8.716,82.755-47.055,128.743-47.035
		c21.859-0.041,86.545,18.273,106.004,26.422c9.27,3.877,15.751,6.824,19.863,9.034c2.039,1.089,3.534,1.986,4.399,2.67
		c0.277,0.192,0.503,0.406,0.643,0.556C708.97,366.818,708.393,366.861,707.645,366.861 M705.414,361.489
		c-4.23-2.254-10.732-5.244-20.045-9.131c-9.601-3.983-29.423-10.273-49.972-15.72C606.746,232.374,510.907,155.76,397.01,155.76
		c-127.599,0-232.567,96.125-245.746,219.495c-12.581,1.859-24.585,3.312-35.008,4.4c-20.643,2.136-34.964,2.896-34.996,2.905
		c-0.77,0.043-1.367,0.63-1.474,1.377c-0.01,0.063-0.01,0.139-0.01,0.267c-0.053,1.121,0.748,5.831,8.564,9.782
		c7.807,4.037,22.577,7.69,51.209,7.721c3.226,0,6.664-0.096,10.263-0.17c0,135.727,110.661,245.77,247.199,245.77
		c136.506,0,247.188-110.043,247.188-245.77c0-15.421-1.516-30.522-4.238-45.163c25.417,5.584,57.392,12.803,67.696,12.836
		c1.092-0.033,1.966-0.064,2.714-0.321c0.672-0.139,1.666-0.706,1.698-1.859C711.661,364.811,709.59,363.924,705.414,361.489
		 M539.06,422.971c3.533,0,6.363-4.058,6.363-4.058s-2.84-4.036-6.363-4.036c-3.515,0-6.354,4.036-6.354,4.036
		S535.545,422.971,539.06,422.971 M281.254,161.974l-7.25-16.007l12.772-5.715l7.283,16.009l0.225-0.097l7.806-3.513l-17.546-38.639
		l-8.052,3.6l7.123,15.603l-12.783,5.747l-7.113-15.625l-8.02,3.61l17.558,38.649L281.254,161.974z M224.622,171.116
		c2.53,3.823,4.688,6.61,6.417,8.32c1.763,1.72,3.93,2.86,6.525,3.396c1.08,0.213,2.157,0.31,3.204,0.31
		c3.183,0,6.259-0.962,9.132-2.863c4.057-2.68,6.503-6.279,7.347-10.743c0.191-0.833,0.267-1.656,0.267-2.467
		c0-1.25-0.193-2.489-0.577-3.696c-0.619-2.02-1.826-4.304-3.546-6.92l-3.491-5.159l-13.649,9.014l4.09,6.079l6.3-4.167l0.716,1.037
		c0.597,0.887,1.025,1.837,1.356,2.819c0.181,0.651,0.288,1.304,0.288,1.933c0,0.288-0.041,0.597-0.084,0.865
		c-0.321,2.061-1.42,3.683-3.333,4.944c-1.314,0.866-2.617,1.282-3.897,1.282c-0.523,0-1.059-0.053-1.583-0.183
		c-0.607-0.16-1.13-0.384-1.623-0.671c-0.448-0.279-1.004-0.749-1.591-1.367c-0.62-0.642-1.292-1.432-2.017-2.436
		c-0.78-1.014-1.731-2.403-2.906-4.176c-1.196-1.74-2.104-3.214-2.776-4.282c-0.673-1.079-1.133-2.008-1.453-2.778
		c-0.31-0.747-0.523-1.42-0.607-2.007c-0.043-0.267-0.065-0.566-0.065-0.823c0-0.287,0.032-0.577,0.065-0.864
		c0.277-1.922,1.291-3.45,3.097-4.656c1.293-0.833,2.477-1.293,3.62-1.41c0.247-0.053,0.566-0.053,0.897-0.053
		c0.972,0,2.157,0.127,3.524,0.417l0.213,0.02l1.731-8.18l-0.225-0.043c-1.613-0.32-3.097-0.49-4.497-0.49
		c-0.97,0-1.943,0.086-2.807,0.257c-2.094,0.406-4.379,1.41-6.803,3.011c-3.856,2.542-6.236,6.002-7.124,10.338
		c-0.213,0.907-0.299,1.836-0.299,2.723c0,1.57,0.299,3.087,0.896,4.539C220.295,164.239,222.005,167.293,224.622,171.116
		 M312.962,112.603l9.27,33.364l8.479-2.286l-9.25-33.385l10.776-2.958l-2.104-7.466l-30.009,8.213l2.05,7.486L312.962,112.603z
		 M220.242,202.065l6.516-5.542l-27.726-32.209l-6.706,5.692l27.735,32.23L220.242,202.065z M154.927,251.468l4.667-7.08
		c0.93-1.463,2.041-2.307,3.3-2.563h0.02c0.3-0.053,0.63-0.106,0.963-0.106c0.917,0,1.857,0.299,2.754,0.896
		c1.219,0.77,1.933,1.795,2.232,3.076c0.086,0.289,0.107,0.62,0.107,0.907c0,0.993-0.342,2.052-1.089,3.152l-4.646,7.091
		L154.927,251.468z M152.684,240.565l-4.336,6.61l-7.732-5.007l4.315-6.633c0.939-1.43,2.018-2.264,3.213-2.553
		c0.353-0.107,0.673-0.148,1.016-0.148c0.833,0,1.687,0.267,2.51,0.811c1.194,0.78,1.878,1.763,2.07,2.97
		c0.054,0.203,0.076,0.437,0.076,0.683C153.827,238.301,153.453,239.391,152.684,240.565 M174.854,253.305
		c1.773-2.711,2.67-5.371,2.67-8.041c0-0.609-0.031-1.187-0.127-1.784c-0.503-3.226-2.382-5.885-5.629-8.01
		c-1.964-1.26-3.823-1.9-5.637-1.9c-0.214,0-0.374,0-0.556,0.031c-1.783,0.129-3.386,0.599-4.817,1.399
		c0.023-0.183,0.023-0.373,0.023-0.566c0-1.196-0.29-2.52-0.823-3.866c-0.673-1.784-1.923-3.278-3.78-4.464
		c-2.19-1.463-4.433-2.167-6.686-2.167c-0.844,0-1.75,0.117-2.638,0.341c-3.129,0.8-5.822,2.99-8.128,6.473l-9.504,14.491
		l35.733,23.185L174.854,253.305z M178.507,210.172l-7.903-7.177l5.169-5.597c1.174-1.271,2.478-1.943,3.93-2.104
		c0.16,0,0.331-0.012,0.47-0.012c1.271,0,2.393,0.459,3.471,1.453c1.186,1.069,1.763,2.296,1.763,3.75
		c0,1.451-0.577,2.819-1.763,4.1L178.507,210.172z M196.31,226.404l-12.388-11.299l3.78-4.123l18.027,5.159l0.106-0.119l6.793-7.347
		l-19.972-5.253c0.577-1.463,0.866-2.97,0.866-4.539c0-0.705-0.063-1.42-0.183-2.137c-0.394-2.413-1.677-4.603-3.78-6.503
		c-1.313-1.196-2.808-2.136-4.39-2.723c-1.366-0.534-2.83-0.78-4.324-0.78c-0.226,0-0.417,0-0.652,0.01
		c-1.708,0.096-3.428,0.566-5.147,1.389c-1.666,0.844-3.226,2.073-4.699,3.643l-11.459,12.462l31.473,28.62L196.31,226.404z
		 M351.622,109.238c0.063-0.843,0.17-1.517,0.353-2.071c0.181-0.545,0.447-1.059,0.78-1.517c0.47-0.736,1.174-1.367,2.018-1.837
		c0.843-0.502,1.826-0.812,2.926-0.94c0.343-0.032,0.706-0.065,1.08-0.065c1.687,0,3.097,0.503,4.292,1.559
		c0.491,0.417,0.887,0.866,1.185,1.357c0.333,0.502,0.62,1.11,0.876,1.89c0.236,0.759,0.481,1.773,0.684,3.043
		c0.236,1.283,0.48,2.949,0.748,4.999c0.256,2.03,0.406,3.694,0.513,5.008c0.085,0.813,0.106,1.56,0.106,2.19
		c0,0.353,0,0.684-0.021,0.972c-0.076,0.811-0.193,1.463-0.363,2.041c-0.183,0.554-0.46,1.077-0.823,1.569
		c-1.1,1.591-2.69,2.521-4.87,2.787c-0.353,0.032-0.737,0.063-1.057,0.063c-0.704,0-1.367-0.096-1.997-0.267
		c-0.95-0.277-1.741-0.704-2.414-1.313c-0.493-0.384-0.855-0.823-1.143-1.293c-0.277-0.47-0.566-1.11-0.833-1.921
		c-0.277-0.802-0.513-1.827-0.727-3.065c-0.224-1.228-0.448-2.904-0.727-4.987c-0.277-2.125-0.437-3.802-0.533-5.073
		c-0.074-0.79-0.107-1.506-0.107-2.147C351.579,109.869,351.589,109.528,351.622,109.238 M345.502,128.794
		c0.791,2.316,2.232,4.281,4.326,5.937c1.74,1.346,3.63,2.263,5.66,2.81c1.314,0.351,2.67,0.523,4.144,0.523
		c0.78,0,1.59-0.065,2.423-0.139c2.414-0.3,4.465-0.94,6.302-1.954c1.804-1.003,3.385-2.382,4.751-4.112
		c1.677-2.125,2.628-4.421,2.81-6.846c0.033-0.544,0.063-1.121,0.063-1.771c0-2.232-0.245-5.116-0.65-8.672
		c-0.599-4.592-1.27-8.01-1.997-10.316c-0.77-2.329-2.233-4.273-4.412-5.917c-1.751-1.346-3.652-2.274-5.627-2.83
		c-1.314-0.342-2.691-0.523-4.123-0.523c-0.811,0-1.624,0.064-2.457,0.17c-2.414,0.29-4.474,0.93-6.311,1.956
		c-1.806,1.004-3.417,2.371-4.785,4.111c-1.634,2.03-2.531,4.314-2.723,6.76c-0.074,0.609-0.084,1.26-0.084,1.986
		c0,2.221,0.224,5.052,0.673,8.543C344.039,123.068,344.722,126.475,345.502,128.794 M600.017,228.038l0.171-0.074l41.275-17.249
		l-6.065-6.867l-25.779,11.427l14.621-23.996l-6.046-6.824l-22.512,38.659L600.017,228.038z M540.865,156.517l11.927,7.326
		l-9.227,14.93l0.182,0.128l7.305,4.464l22.331-36.076l-7.485-4.582l-9.048,14.568l-11.95-7.305l9.068-14.589l-7.519-4.602
		l-22.331,36.063l7.508,4.625L540.865,156.517z M573.341,188.439c0-0.513,0.052-1.003,0.202-1.453
		c0.148-0.534,0.417-1.164,0.854-1.922c0.406-0.715,1.015-1.581,1.773-2.563c0.811-1.003,1.88-2.284,3.247-3.897
		c1.377-1.604,2.52-2.906,3.373-3.803c0.887-0.927,1.634-1.644,2.317-2.146c0.63-0.523,1.219-0.907,1.763-1.143
		c0.555-0.234,1.088-0.394,1.655-0.458c0.256-0.053,0.565-0.076,0.844-0.076c0.598,0,1.24,0.097,1.891,0.299
		c0.93,0.31,1.804,0.811,2.637,1.506c1.666,1.431,2.51,3.075,2.53,4.977v0.288c0,0.523-0.063,1.025-0.189,1.506
		c-0.161,0.555-0.43,1.196-0.834,1.9c-0.384,0.706-0.993,1.56-1.784,2.574c-0.8,1.016-1.869,2.329-3.226,3.909
		c-1.334,1.527-2.456,2.81-3.353,3.737c-0.907,0.973-1.655,1.689-2.284,2.19c-0.652,0.503-1.261,0.856-1.784,1.112
		c-0.523,0.245-1.092,0.384-1.731,0.48c-0.299,0.031-0.64,0.042-0.93,0.042c-1.547,0-3.021-0.554-4.42-1.751
		c-0.844-0.716-1.464-1.506-1.922-2.37c-0.406-0.886-0.63-1.752-0.63-2.639V188.439z M566.421,181.326
		c-1.026,1.816-1.539,3.866-1.539,6.066c0,0.34,0.01,0.714,0.063,1.109c0.171,2.19,0.738,4.218,1.709,6.056
		c0.951,1.837,2.36,3.545,4.187,5.062c1.824,1.569,3.674,2.659,5.671,3.31c1.56,0.502,3.226,0.78,4.954,0.78
		c0.451,0,0.865-0.021,1.315-0.053c2.723-0.191,5.071-1.035,6.963-2.531c1.9-1.527,4.336-3.994,7.348-7.497
		c3.043-3.523,5.148-6.355,6.333-8.426c0.971-1.753,1.483-3.696,1.483-5.82c0-0.439-0.042-0.92-0.097-1.39
		c-0.181-2.189-0.768-4.218-1.707-6.034c-0.931-1.857-2.34-3.546-4.134-5.073c-1.836-1.547-3.716-2.647-5.692-3.299
		c-1.602-0.556-3.277-0.801-5.062-0.801c-0.416,0-0.812,0.01-1.25,0.064c-2.626,0.16-4.913,1.037-6.867,2.542
		c-1.922,1.504-4.389,4.024-7.398,7.517C569.698,176.413,567.605,179.21,566.421,181.326 M613.154,243.981l15.633,23.635
		l6.537-4.262l-10.914-16.5l8.157-5.328l9.282,14.043l6.524-4.263l-9.281-14.043l7.872-5.136l10.895,16.489l6.522-4.272
		l-15.729-23.827l-35.616,23.262L613.154,243.981z M397.138,110.392l16.598,25.183h7.817V93.199h-8.822v25.106l-16.597-25.106
		h-7.807v42.375h8.811V110.392z M469.064,131.911c0.417-1.26,1.09-2.231,2.018-2.873c0.889-0.641,2.158-1.207,3.76-1.677
		l4.861,11.588c-1.133,0.47-2.179,0.694-3.174,0.758h-0.596c-0.846-0.021-1.743-0.181-2.682-0.491
		c-1.698-0.546-2.948-1.506-3.739-2.883c-0.512-0.876-0.769-1.773-0.725-2.746C468.798,133.043,468.895,132.487,469.064,131.911
		 M478.837,114.237c0.298-0.919,0.811-1.57,1.559-1.933c0.385-0.226,0.833-0.311,1.346-0.3c0.386,0,0.802,0.074,1.239,0.224
		c0.971,0.332,1.634,0.833,2.007,1.613c0.236,0.46,0.343,0.93,0.321,1.41c0,0.331-0.064,0.683-0.182,1.026
		c-0.214,0.598-0.566,1.057-1.143,1.463c-0.566,0.416-1.293,0.737-2.137,0.96c-0.267,0.117-0.564,0.213-1.003,0.31
		c-0.32,0.107-0.598,0.16-0.854,0.213c-0.566-1.293-0.939-2.296-1.153-3.013c-0.118-0.416-0.149-0.8-0.149-1.141
		C478.697,114.771,478.751,114.481,478.837,114.237 M471.01,146.275c1.891,0.642,3.577,0.962,5.051,1.005
		c0.458,0.01,0.864,0,1.301-0.043c1.732-0.183,3.483-0.609,5.267-1.229l0.063-0.042l1.742,4.271l10.07,3.343l-4.656-11.096
		c1.815-1.09,3.375-2.521,4.732-4.261c1.355-1.816,2.53-4.049,3.566-6.707l0.097-0.226l-7.434-2.434l-0.097,0.213
		c-1.036,2.809-2.423,4.816-4.059,6.023l-4.004-9.654c0.49-0.14,1.067-0.299,1.687-0.513c0.717-0.225,1.271-0.407,1.677-0.534
		c1.677-0.545,3.054-1.26,4.166-2.159c1.131-0.874,1.921-2.081,2.434-3.577c0.341-1.057,0.544-2.136,0.555-3.14
		c0.022-1.634-0.331-3.213-1.185-4.72c-1.336-2.446-3.643-4.176-6.823-5.223c-1.603-0.513-3.088-0.8-4.529-0.811
		c-1.569-0.063-3.065,0.204-4.453,0.811c-2.53,1.1-4.324,3.076-5.233,5.896c-0.33,0.983-0.479,1.964-0.523,2.916
		c-0.01,0.694,0.044,1.377,0.193,2.061c0.31,1.483,0.833,3.054,1.515,4.688c-2.541,0.684-4.751,1.667-6.642,2.896
		c-1.945,1.303-3.299,3.15-4.123,5.489c-0.511,1.611-0.8,3.118-0.833,4.548c-0.032,2.063,0.396,3.931,1.347,5.683
		C463.491,142.655,466.545,144.844,471.01,146.275 M397.01,730.69c-182.854,0-331.066-147.365-331.066-329.164
		c0-181.788,148.212-329.164,331.066-329.164c182.855,0,331.055,147.376,331.055,329.164
		C728.064,583.325,579.865,730.69,397.01,730.69 M397.01,59.227c-190.16,0-344.307,153.262-344.307,342.311
		c0,189.049,154.147,342.333,344.307,342.333c190.139,0,344.287-153.284,344.287-342.333
		C741.297,212.478,587.138,59.227,397.01,59.227 M381.653,680.243c-0.107,1.419-0.642,2.496-1.635,3.298
		c-0.854,0.661-1.934,1.016-3.341,1.016c-0.246,0-0.47-0.01-0.706-0.034l-7.987-0.641l0.737-9.375l8.01,0.609
		c1.707,0.158,2.968,0.682,3.833,1.602c0.747,0.823,1.121,1.794,1.121,3.033C381.685,679.898,381.685,680.071,381.653,680.243
		 M380.851,697.971c-0.138,1.483-0.683,2.626-1.676,3.512c-0.854,0.735-1.975,1.133-3.45,1.133c-0.214,0-0.427,0-0.671-0.011
		l-8.545-0.705l0.823-10.017l8.534,0.662c1.783,0.138,3.043,0.716,3.886,1.707c0.759,0.889,1.123,1.945,1.123,3.205
		C380.874,697.605,380.863,697.798,380.851,697.971 M377.979,667.288l-17.494-1.422l-3.48,43.272l18.272,1.432
		c0.554,0.046,1.078,0.066,1.59,0.066h0.033c3.267,0,6.086-0.868,8.351-2.606c2.649-2.008,4.122-5.021,4.433-8.941
		c0.032-0.457,0.053-0.844,0.053-1.246c0-2.041-0.437-3.77-1.357-5.232c-0.95-1.509-2.167-2.714-3.577-3.602
		c1.281-0.575,2.457-1.525,3.577-2.871c1.283-1.509,1.997-3.354,2.157-5.554c0.023-0.461,0.043-0.888,0.043-1.335
		c0-3.12-0.939-5.778-2.893-7.901C385.477,668.965,382.23,667.598,377.979,667.288 M405.724,667.822l2.083,43.338l0.246-0.011
		l8.65-0.44l-2.104-43.304L405.724,667.822z M456.144,692.244c0,0.823-0.076,1.509-0.258,2.094
		c-0.147,0.578-0.372,1.144-0.727,1.656c-1.014,1.688-2.594,2.702-4.761,3.109c-0.514,0.062-0.983,0.116-1.464,0.116
		c-0.556,0-1.079-0.055-1.603-0.173c-0.982-0.223-1.826-0.619-2.498-1.204c-0.523-0.386-0.919-0.813-1.239-1.283
		c-0.343-0.459-0.65-1.131-0.961-1.922c-0.288-0.833-0.599-1.858-0.878-3.099c-0.275-1.25-0.617-2.938-0.98-5.071
		c-0.363-2.147-0.673-3.855-0.844-5.146c-0.149-1.229-0.224-2.221-0.224-3.034v-0.172c0.03-0.832,0.106-1.57,0.254-2.145
		c0.162-0.544,0.386-1.102,0.696-1.55c0.458-0.822,1.11-1.474,1.943-2.027c0.821-0.547,1.761-0.888,2.851-1.112
		c0.535-0.065,1.015-0.128,1.507-0.128c1.516,0.021,2.86,0.479,4.025,1.409c0.512,0.385,0.94,0.844,1.314,1.335
		c0.33,0.493,0.64,1.099,0.919,1.86c0.33,0.777,0.64,1.804,0.928,3.095c0.276,1.28,0.598,2.992,0.973,5.075
		c0.373,2.068,0.65,3.759,0.822,5.115c0.171,1.194,0.234,2.211,0.234,3.009v0.192H456.144z M461.312,671.933
		c-0.919-2.317-2.489-4.272-4.786-5.788c-1.824-1.315-3.79-2.159-5.817-2.626c-1.069-0.249-2.137-0.354-3.303-0.354
		c-1.077,0-2.188,0.105-3.342,0.322c-2.392,0.403-4.442,1.175-6.235,2.308c-1.763,1.118-3.333,2.593-4.603,4.431
		c-1.54,2.18-2.329,4.537-2.383,7.068v0.461c0,2.445,0.363,5.884,1.174,10.253c0.802,4.645,1.667,8.104,2.586,10.421
		c0.886,2.317,2.479,4.283,4.656,5.843c1.837,1.291,3.823,2.159,5.885,2.628c1.058,0.213,2.146,0.33,3.278,0.33
		c1.077,0,2.21-0.107,3.354-0.311c2.393-0.427,4.453-1.185,6.226-2.307c1.741-1.108,3.3-2.616,4.561-4.42
		c1.601-2.276,2.456-4.679,2.499-7.154c-0.021-0.117,0-0.214,0-0.354c0-2.413-0.437-5.863-1.209-10.295
		C463.031,677.71,462.188,674.238,461.312,671.933 M289.606,676.271l-9.334-3.805l10.327-11.609L289.606,676.271z M261.167,681.031
		l8.597,3.491l5.307-6.066l13.862,5.664l-0.523,7.987l0.17,0.076l8.459,3.445l1.773-46.189l-6.387-2.582L261.167,681.031z
		 M494.631,649.856l8.736,24.199l-24.487-18.611l-7.422,2.648l14.662,40.848l8.404-2.988l-8.724-24.274l24.466,18.698l0.14-0.072
		l7.315-2.606l-14.686-40.829L494.631,649.856z M330.989,659.79l-8.639-2.084l-10.157,42.217l0.246,0.064l27.479,6.524l1.858-7.743
		l-19.053-4.506L330.989,659.79z"/>
	<rect x="30.787" y="25.991" fill-rule="evenodd" clip-rule="evenodd" fill="none" width="738.426" height="748.018"/>
	<path fill="#FDB913" d="M575.774,443.859c22.844-3.887,41.916,1.839,41.916,1.839c0.899-16.787-28.833-23.389-37.186-23.838
		c0,0,4.316,8.906-18.923,10.669c0,0-10.85-0.255-15.282,3.708c0,0,21.369-1.625,28.888,6.683L575.774,443.859z"/>
	<rect x="30.787" y="25.991" fill-rule="evenodd" clip-rule="evenodd" fill="none" width="738.426" height="748.018"/>
</g>
</svg>
