<?xml version="1.0" encoding="utf-8"?>
<!-- Generator: Adobe Illustrator 16.0.0, SVG Export Plug-In . SVG Version: 6.00 Build 0)  -->
<!DOCTYPE svg PUBLIC "-//W3C//DTD SVG 1.0//EN" "http://www.w3.org/TR/2001/REC-SVG-20010904/DTD/svg10.dtd">
<svg version="1.0" id="Layer_1" xmlns="http://www.w3.org/2000/svg" xmlns:xlink="http://www.w3.org/1999/xlink" x="0px" y="0px"
	 width="800px" height="800px" viewBox="0 0 800 800" enable-background="new 0 0 800 800" xml:space="preserve">
<g>
	<path fill="#DBA111" d="M763.467,398.745c0,200.657-162.729,363.384-363.386,363.384c-200.819,0-363.548-162.728-363.548-363.384
		c0-200.656,162.729-363.386,363.548-363.386C600.737,35.358,763.467,198.088,763.467,398.745z"/>
	<path fill="#034694" d="M751.311,398.745c0,194.009-157.219,351.228-351.229,351.228c-194.173,0-351.392-157.219-351.392-351.228
		c0-194.011,157.219-351.392,351.392-351.392C594.092,47.353,751.311,204.734,751.311,398.745z"/>
	<path fill="#DBA111" d="M650.335,398.745c0,138.254-112.001,250.251-250.254,250.251c-138.417,0-250.416-111.997-250.416-250.251
		c0-138.255,111.999-250.416,250.416-250.416C538.334,148.329,650.335,260.489,650.335,398.745z"/>
	<path fill="#FFFFFF" d="M642.717,398.745c0,134.041-108.596,242.797-242.636,242.797c-134.204,0-242.798-108.757-242.798-242.797
		c0-134.041,108.594-242.797,242.798-242.797C534.121,155.947,642.717,264.704,642.717,398.745z"/>
	<path fill="#DBA111" d="M191.969,608.152c2.755,2.593,9.238,8.913,9.238,8.913l6.483-6.646l-18.963-18.152l-2.432,2.594
		l-25.446,26.581l9.725,9.238c0,0,8.104-8.59,11.021-11.668c2.593,2.43,8.59,8.104,8.59,8.104l6.321-6.646
		c0,0-5.997-5.673-8.428-8.104C189.538,610.745,190.348,609.774,191.969,608.152z"/>
	<path fill="#DBA111" d="M237.513,638.463c-0.81-5.025-3.728-9.563-7.942-12.645c-4.375-3.078-9.563-4.212-14.587-3.402
		c-5.511,0.974-10.536,4.213-13.939,9.077c-3.566,4.862-4.862,10.533-3.89,16.045c0.81,5.025,3.566,9.563,7.942,12.645
		c4.376,3.078,9.563,4.373,14.587,3.403c5.511-0.811,10.535-4.053,13.938-8.915c2.756-3.892,4.214-8.429,4.214-12.805
		C237.837,640.731,237.676,639.598,237.513,638.463z M210.445,652.725c-4.375-3.242-0.81-9.724,1.784-13.291
		c2.593-3.564,7.617-9.237,11.994-6.159c4.538,3.405,0.324,10.535-1.783,13.293C220.333,649.482,214.984,655.966,210.445,652.725z"
		/>
	<path fill="#DBA111" d="M267.336,648.672c-10.211-5.186-22.043-0.971-27.392,9.728c-2.755,5.347-3.241,11.182-1.458,16.532
		c1.62,4.861,5.023,8.913,9.724,11.344c4.863,2.271,10.05,2.756,15.074,1.134c5.186-1.781,9.725-5.673,12.318-11.02
		C281.113,665.69,277.385,653.697,267.336,648.672z M255.99,678.335c-1.134,0.484-2.269,0.323-3.565-0.325
		c-2.107-0.974-2.755-2.917-2.755-4.861c0-2.918,1.296-6.321,2.593-8.593c1.945-3.889,5.998-10.209,10.859-7.78
		c1.296,0.649,2.107,1.624,2.432,2.758c0.811,2.429,0,6.481-2.27,10.697C261.177,674.606,258.421,677.524,255.99,678.335z"/>
	<path fill="#DBA111" d="M288.244,663.421l-1.782,5.351c0,0,4.7,1.619,6.159,2.107c-1.784,5.187-10.211,29.335-10.211,29.335
		l12.48,4.377c0,0,8.428-23.988,10.211-29.338c1.458,0.488,6.321,2.271,6.321,2.271l3.079-8.753l-25.122-8.753L288.244,663.421z"/>
	<path fill="#DBA111" d="M340.272,674.932l-16.856-3.567l-0.811,3.403l-7.456,35.982l17.181,3.729
		c5.511,1.134,9.076-0.164,11.183-1.62c2.594-1.622,4.539-4.541,5.187-7.782c0.161-0.971,0.324-1.78,0.324-2.755
		c0-2.431-0.811-4.537-2.27-6.483c1.946-1.459,3.405-3.729,4.052-6.481c0-0.649,0.162-1.459,0.162-2.27
		C350.97,682.547,348.376,676.713,340.272,674.932z M335.572,702.483c-0.162,0.813-0.486,1.783-1.134,2.271
		c-0.486,0.321-1.621,0.484-3.08,0.161c0,0-0.649-0.161-1.297-0.325c0.486-2.594,0.811-4.377,1.297-6.97
		c0.811,0.163,1.783,0.324,1.783,0.324c2.269,0.485,2.593,2.108,2.593,3.403C335.734,701.837,335.734,702.158,335.572,702.483z
		 M334.438,683.196c1.458,0.325,2.593,0.81,3.079,1.459c0.162,0.324,0.325,0.81,0.325,1.295c0,0.164-0.163,0.488-0.163,0.973
		c-0.324,1.136-0.486,2.595-3.403,1.945c0,0-0.486-0.161-0.973-0.161C333.79,686.438,333.952,685.305,334.438,683.196z"/>
	<path fill="#DBA111" d="M371.554,680.764l-18.315,37.766l10.535,0.811c0,0,2.755-5.996,3.89-8.429
		c2.269,0.164,4.538,0.325,6.646,0.488c0.811,2.593,2.917,8.914,2.917,8.914l13.94,1.135l-15.56-48.464L371.554,680.764z"/>
	<path fill="#DBA111" d="M413.046,710.911c-0.161-5.511-1.295-30.633-1.295-30.633l-13.291,0.649l1.783,40.195l26.581-1.135
		l-0.488-9.563C426.336,710.426,416.938,710.75,413.046,710.911z"/>
	<path fill="#DBA111" d="M449.514,707.022c-0.809-5.349-4.697-30.147-4.697-30.147l-3.567,0.485l-9.563,1.459l6.16,39.871
		l26.256-4.212l-1.459-9.402C462.644,705.076,453.242,706.534,449.514,707.022z"/>
	<path fill="#DBA111" d="M525.692,680.278c-0.161,3.403-2.107,6.484-5.348,7.619c-1.782,0.81-3.405,0.81-5.025,0
		c-2.593-0.975-5.025-3.892-6.483-7.456c-1.62-4.215-1.945-7.781-0.971-10.375c0.811-1.78,2.269-3.079,4.537-4.052
		c2.594-0.971,4.862,0,8.104,1.947l2.919,1.619l4.861-7.619l-2.755-1.943c-5.349-3.566-11.995-4.214-17.83-1.944
		c-5.187,2.108-9.398,5.996-11.507,11.183c-2.27,5.025-2.27,11.021,0,16.532c4.216,10.537,16.208,15.724,26.581,11.671
		c7.618-3.081,11.832-8.753,12.479-16.696l0.164-3.403l-9.563-0.81L525.692,680.278z"/>
	<path fill="#DBA111" d="M556.649,669.257c-2.593-4.862-14.909-26.742-14.909-26.742l-3.082,1.781l-8.589,4.7l19.775,35.174
		l23.178-12.969l-4.701-8.426C568.321,662.775,560.053,667.474,556.649,669.257z"/>
	<path fill="#DBA111" d="M582.585,615.122l-2.918,2.108l-5.025,3.565l16.369,22.205c0.812,1.134,0.812,1.783,0.648,2.107
		c-0.16,1.134-1.295,2.43-2.43,3.24c-0.487,0.323-1.622,0.812-2.756,0.647c-0.811-0.161-1.46-0.647-2.107-1.458l-16.209-22.044
		l-10.697,7.943l16.047,21.88c2.433,3.243,5.348,5.187,8.753,5.674c3.89,0.647,8.266-0.647,12.481-3.728
		c8.425-6.159,8.265-14.263,4.537-19.288L582.585,615.122z"/>
	<path fill="#DBA111" d="M631.53,607.019c-2.593-2.594-5.508-3.729-8.75-3.564c-0.163-2.433-1.135-4.864-3.08-6.809
		c-3.403-3.567-10.859-6.161-17.829,0.484l-12.48,11.995l28.04,29.014l12.645-12.32c4.052-3.888,5.022-7.615,5.022-10.208
		C635.098,612.528,633.802,609.449,631.53,607.019z M610.3,606.047c0.485,0.485,0.971,0.972,0.971,1.619
		c0,0.649-0.321,1.296-1.296,2.27c0,0-0.323,0.324-0.647,0.648c-1.62-1.622-2.27-2.432-3.89-4.052
		C608.191,603.938,609.327,605.073,610.3,606.047z M616.945,615.932c2.269-2.104,4.377-0.161,5.025,0.488
		c0.646,0.485,1.295,1.458,1.295,2.105l0,0c0,0.812-0.485,1.622-1.62,2.756c0,0-0.488,0.486-0.973,0.975
		c-1.944-1.948-3.079-3.243-5.025-5.025C616.297,616.581,616.945,615.932,616.945,615.932z"/>
	<path fill="#FFFFFF" d="M191.969,604.425c0.972,1.134,9.238,8.914,9.238,8.914l2.593-2.919l-15.073-14.424l-0.487,0.649
		l-23.502,24.797l5.673,5.511c0,0,10.049-10.533,11.183-11.668c1.135,0.971,8.429,8.104,8.429,8.104l2.755-2.919
		c0,0-7.456-6.969-8.591-8.104C185.324,611.395,190.996,605.398,191.969,604.425z"/>
	<path fill="#FFFFFF" d="M227.95,627.927c-3.728-2.593-8.266-3.728-12.642-2.917c-4.701,0.809-9.076,3.566-12.157,7.942
		c-3.079,4.374-4.214,9.399-3.403,14.1c0.648,4.377,3.08,8.266,6.807,11.022c3.89,2.593,8.267,3.727,12.805,2.917
		c4.7-0.809,9.077-3.566,12.156-7.942c2.432-3.403,3.728-7.294,3.728-11.183c0-0.974-0.162-1.944-0.324-2.918
		C234.272,634.572,231.679,630.681,227.95,627.927z M224.547,648.188c-2.431,3.566-9.077,11.346-15.722,6.645
		c-6.483-4.7-1.296-13.454,1.297-17.018c2.431-3.567,9.076-11.186,15.56-6.646C232.327,635.869,227.14,644.62,224.547,648.188z"/>
	<path fill="#FFFFFF" d="M266.04,650.941c-8.752-4.374-18.963-0.646-23.826,8.753c-2.269,4.7-2.755,9.726-1.296,14.425
		c1.459,4.216,4.376,7.617,8.59,9.726c4.052,2.105,8.753,2.431,12.966,1.135c4.539-1.623,8.429-5.026,10.86-9.727
		C278.034,665.854,274.955,655.48,266.04,650.941z M251.29,680.278c-7.293-3.565-3.403-12.966-1.458-16.857
		c1.945-3.888,7.293-12.642,14.426-8.913c1.944,0.973,3.241,2.268,3.727,4.216c1.459,4.213-0.811,9.724-2.269,12.803
		c-1.458,2.756-4.539,7.942-8.915,9.401C255.018,681.576,253.073,681.252,251.29,680.278z"/>
	<path fill="#FFFFFF" d="M290.837,664.233l-1.134,2.915c0,0,5.025,1.623,6.321,2.108c-0.648,1.622-10.374,29.337-10.374,29.337
		l7.618,2.594c0,0,9.725-27.715,10.211-29.338c1.297,0.488,6.32,2.27,6.32,2.27l1.297-3.729L291,663.421L290.837,664.233z"/>
	<path fill="#FFFFFF" d="M339.786,677.524l-14.425-2.918l-0.163,0.81l-6.969,33.39l14.587,3.079c3.728,0.81,6.808,0.324,9.239-1.135
		c2.106-1.458,3.565-3.566,4.052-6.32c0.162-0.649,0.162-1.459,0.162-2.108c0-2.917-1.297-5.35-3.89-7.13
		c2.918-0.813,5.025-3.082,5.835-6.323c0-0.486,0.162-1.135,0.162-1.781C348.376,683.682,346.594,678.983,339.786,677.524z
		 M334.762,680.441c2.431,0.647,4.052,1.457,4.862,2.755c0.486,0.81,0.811,1.62,0.811,2.754c0,0.488,0,0.973-0.163,1.459
		c-0.972,4.539-4.538,4.376-6.645,4.053c0,0-2.107-0.486-3.404-0.811c0.325-1.295,1.945-9.238,2.269-10.698
		C333.303,680.278,334.762,680.441,334.762,680.441z M333.627,695.352c4.052,0.975,4.7,4.214,4.7,6.161
		c0,0.809-0.163,1.295-0.163,1.458c-0.323,1.945-1.134,3.24-2.269,4.052c-1.134,0.647-2.917,0.811-5.024,0.485
		c0,0-2.593-0.648-4.052-0.974c0.325-1.295,2.27-10.533,2.593-11.991C330.548,694.704,333.627,695.352,333.627,695.352z"/>
	<path fill="#FFFFFF" d="M373.985,682.062l-16.694,34.2l4.862,0.324c0,0,3.404-7.458,3.89-8.429c0.973,0.16,9.239,0.648,10.211,0.81
		c0.324,0.975,2.917,8.914,2.917,8.914l8.266,0.648l-12.48-38.411L373.985,682.062z M372.203,695.677
		c0.811,2.594,2.27,7.619,2.755,9.239c-1.621-0.161-5.348-0.486-6.97-0.486C368.637,702.808,370.906,698.105,372.203,695.677z"/>
	<path fill="#FFFFFF" d="M410.616,713.668c-0.164-1.622-1.298-30.633-1.298-30.633l-0.971,0.161l-7.133,0.16l1.458,35.01
		l21.395-0.81l-0.16-4.377C423.907,713.18,412.075,713.668,410.616,713.668z"/>
	<path fill="#FFFFFF" d="M447.245,710.102c-0.16-1.619-4.7-30.309-4.7-30.309l-0.811,0.16l-7.13,1.136l5.511,34.523l21.069-3.242
		l-0.648-4.376C460.536,707.994,448.868,709.777,447.245,710.102z"/>
	<path fill="#FFFFFF" d="M528.286,680.278c0,4.701-2.755,8.429-6.97,10.212c-2.429,0.972-4.698,0.811-7.131-0.164
		c-3.242-1.295-5.996-4.537-7.779-8.913c-1.944-4.862-2.27-9.075-0.974-12.317c1.135-2.432,3.082-4.215,5.997-5.51
		c3.89-1.46,7.458,0.323,10.375,2.104l0.81,0.324l2.107-3.239l-0.648-0.488c-4.701-3.079-10.372-3.727-15.397-1.783
		c-4.539,1.946-8.266,5.35-10.049,9.727c-1.946,4.537-1.946,9.723,0,14.586c3.727,9.238,14.1,13.777,23.178,10.051
		c6.646-2.594,10.209-7.458,10.696-14.265l0.161-0.81l-4.212-0.324L528.286,680.278z"/>
	<path fill="#FFFFFF" d="M555.679,672.823c-0.813-1.297-14.912-26.744-14.912-26.744l-0.81,0.488l-6.16,3.564l17.018,30.471
		l18.641-10.372l-2.107-3.891C567.348,666.34,556.975,672.174,555.679,672.823z"/>
	<path fill="#FFFFFF" d="M581.936,618.688l-0.648,0.649l-2.918,2.105l14.75,20.1c0.973,1.295,1.458,2.593,1.134,3.888
		c-0.324,2.433-2.431,4.377-3.403,5.025c-0.974,0.811-2.917,1.459-4.861,1.135c-1.459-0.324-2.758-1.135-3.729-2.43l-14.588-19.938
		l-6.481,4.864l14.425,19.611c1.944,2.755,4.377,4.214,7.131,4.702c4.212,0.646,8.265-1.784,10.373-3.242
		c6.969-5.187,7.132-11.508,4.051-15.724L581.936,618.688z"/>
	<path fill="#FFFFFF" d="M629.587,608.801c-2.755-2.754-6.16-3.402-9.725-2.107c0.161-0.811,0.485-1.62,0.485-2.431
		c0-2.106-0.973-4.215-2.593-5.834c-2.269-2.27-8.104-5.187-14.101,0.647l-10.535,10.21l24.475,25.125l10.698-10.537
		c2.754-2.593,4.213-5.349,4.213-8.264C632.505,613.178,631.53,610.745,629.587,608.801z M613.866,607.666
		c0,1.783-1.137,3.242-2.107,4.213c0,0-1.623,1.46-2.432,2.433c-0.971-0.973-6.646-6.807-7.616-7.779
		c0.646-0.649,1.62-1.622,1.62-1.622c3.242-3.239,6.159-3.403,8.913-0.811C613.378,605.398,613.866,606.693,613.866,607.666z
		 M620.512,625.982c-0.973-0.973-7.458-7.779-8.592-8.917c0.974-0.81,3.241-2.915,3.241-2.915c4.214-4.215,8.59,0.161,8.754,0.322
		c1.295,1.459,2.107,2.758,2.107,4.053c0,0,0,0,0,0.162c-0.163,1.297-0.974,2.919-2.433,4.538
		C623.59,623.226,621.482,625.17,620.512,625.982z"/>
	<path fill="#DBA111" d="M238.486,159.351l-14.588,3.89l1.621,5.348c2.107,6.322,0.162,12.967-4.7,17.344
		c-2.756,2.431-5.997,3.565-9.563,3.241c-5.348-0.324-11.345-3.728-16.208-9.239c-5.511-6.321-8.267-12.643-7.942-17.829
		c0.163-3.89,2.107-7.131,5.673-10.373c3.89-3.404,8.914-3.241,15.722-1.945l5.025,0.973l3.241-13.939l-5.025-1.297
		c-11.021-2.755-22.366,0-30.47,6.97c-15.722,13.938-17.019,36.63-2.918,52.838c13.128,14.911,35.982,16.532,50.731,3.565
		c10.697-9.239,14.424-21.232,10.859-34.523L238.486,159.351z"/>
	<path fill="#DBA111" d="M278.357,85.604l-14.911,7.131c0,0,8.428,17.667,11.184,23.826c-4.214,1.945-8.428,4.052-12.643,5.997
		c-2.917-6.159-11.345-23.826-11.345-23.826l-19.612,9.239l29.985,63.86l19.774-9.239c0,0-9.238-19.774-12.319-26.257
		c4.377-1.944,8.429-3.89,12.805-5.997c2.917,6.483,12.318,26.257,12.318,26.257l19.774-9.401l-30.146-63.86L278.357,85.604z"/>
	<path fill="#DBA111" d="M345.297,125.152c-0.973-4.701-1.945-9.563-2.918-14.264c6.16-1.296,22.367-4.538,22.367-4.538
		l-2.755-14.264c0,0-16.371,3.404-22.367,4.539c-0.973-4.376-1.621-7.941-2.593-12.318c6.321-1.296,23.826-4.7,23.826-4.7
		l-2.917-14.263l-5.187,1.135l-40.035,7.941l14.101,69.209l45.383-9.076l-2.755-14.263
		C369.447,120.29,351.78,123.854,345.297,125.152z"/>
	<path fill="#DBA111" d="M409.807,63.723l-21.882-0.486v5.349l-1.458,65.318l45.87,0.811l0.485-15.235
		c0,0-17.667-0.325-24.151-0.487C408.833,110.402,409.807,63.723,409.807,63.723z"/>
	<path fill="#DBA111" d="M480.796,99.381c-5.671-4.214-7.455-5.835-6.807-8.104c0.325-1.297,1.62-5.025,5.673-4.052
		c2.433,0.648,4.861,1.945,5.996,7.293l1.137,5.835l14.425-4.863l-0.81-4.538c-1.783-8.915-9.402-16.533-18.965-18.963
		c-6.646-1.621-13.452-0.811-19.126,2.593c-5.186,3.08-8.753,7.941-10.212,13.614c-3.563,14.426,6.16,21.395,12.645,26.096
		c6.645,4.7,8.265,6.483,7.294,10.535c-0.324,1.134-1.137,2.107-2.271,2.917c-1.295,0.81-2.917,0.973-4.214,0.648
		c-3.566-0.811-5.024-2.432-6.483-6.97l-1.783-5.349l-14.425,5.835l1.298,4.7c2.754,8.914,9.238,14.588,19.936,17.181
		c11.832,2.918,26.256-2.432,29.983-16.856C497.814,111.861,487.604,104.243,480.796,99.381z"/>
	<path fill="#DBA111" d="M532.987,136.984c5.51,2.755,20.26,10.211,20.26,10.211l6.484-12.804c0,0-14.749-7.456-20.26-10.374
		c1.944-3.89,3.728-7.293,5.672-11.183c5.671,2.917,21.555,10.859,21.555,10.859l6.485-12.805l-41.007-20.746l-2.432,4.7
		l-29.498,58.187l41.493,20.909l6.48-12.804c0,0-16.044-8.267-21.879-11.184C528.45,145.736,530.718,141.359,532.987,136.984z"/>
	<path fill="#DBA111" d="M614.677,143.629l-65.807,34.038l12.643,10.859c0,0,10.86-5.673,14.749-7.78
		c2.917,2.593,7.294,6.321,10.212,8.752c-1.46,4.214-5.511,16.046-5.511,16.046l17.342,15.074l28.204-82.985L614.677,143.629z"/>
	<path fill="#FFFFFF" d="M236.054,163.565l-7.779,2.107l0.648,1.783c2.431,7.78,0.163,15.884-5.834,21.232
		c-3.566,2.918-7.618,4.376-11.994,4.052c-6.483-0.324-13.129-4.213-18.639-10.373c-6.16-7.293-9.239-14.264-8.915-20.422
		c0.325-4.863,2.593-9.077,6.808-12.805c5.673-4.862,12.642-3.89,18.801-2.755l1.621,0.325l1.783-7.294l-1.783-0.486
		c-9.725-2.431-19.936,0-27.067,6.322c-14.425,12.48-15.56,33.064-2.755,47.651c11.832,13.615,32.416,15.074,45.869,3.404
		c9.725-8.59,12.967-18.963,9.725-30.958L236.054,163.565z"/>
	<path fill="#FFFFFF" d="M279.978,88.846l-11.831,5.511c0,0,9.887,21.071,11.183,23.826c-2.431,1.297-16.532,7.942-19.125,9.076
		c-1.296-2.755-11.184-23.825-11.184-23.825l-13.453,6.321l27.229,57.376l13.291-6.321c0,0-11.021-23.34-12.318-26.095
		c2.594-1.134,16.533-7.779,19.126-9.076c1.296,2.917,12.318,26.257,12.318,26.257l13.453-6.322L281.6,88.035L279.978,88.846z"/>
	<path fill="#FFFFFF" d="M342.542,129.366c-0.486-2.755-3.728-18.478-4.214-21.232c2.918-0.649,22.206-4.539,22.206-4.539
		l-1.459-7.293c0,0-19.288,3.89-22.205,4.539c-0.648-2.755-3.404-16.533-3.89-19.288c2.917-0.648,23.664-4.7,23.664-4.7
		l-1.459-7.293l-38.251,7.618l12.643,62.401l38.575-7.78l-1.458-7.294C366.692,124.503,345.621,128.718,342.542,129.366z"/>
	<path fill="#FFFFFF" d="M406.24,67.126l-14.75-0.324l-0.162,1.783l-1.297,61.753l38.898,0.81l0.163-8.266
		c0,0-21.069-0.325-23.987-0.486C405.105,119.154,406.24,67.126,406.24,67.126z"/>
	<path fill="#FFFFFF" d="M480.472,83.821c4.701,1.296,7.458,4.375,8.592,9.887l0.324,1.945l7.779-2.593l-0.323-1.459
		c-1.46-7.617-7.944-14.101-16.209-16.208c-5.835-1.459-11.671-0.648-16.532,2.107c-4.213,2.593-7.294,6.807-8.429,11.67
		c-3.078,11.994,4.862,17.667,11.184,22.205c6.322,4.701,10.212,7.78,8.592,14.264c-0.649,2.755-2.433,4.213-3.728,5.024
		c-2.108,1.297-4.701,1.783-7.134,1.135c-4.537-1.135-6.97-3.729-8.914-9.239l-0.485-1.783l-8.104,3.242l0.485,1.458
		c2.269,7.78,7.943,12.642,17.343,14.912c10.212,2.593,22.691-2.107,25.771-14.263c3.078-12.805-5.347-18.963-11.992-23.988
		c-5.836-4.214-9.402-7.132-8.104-11.833C471.558,86.09,475.125,82.524,480.472,83.821z"/>
	<path fill="#FFFFFF" d="M543.523,108.134c2.754,1.296,21.555,10.858,21.555,10.858l3.403-6.645l-34.845-17.505l-0.811,1.459
		l-27.719,55.27l35.01,17.667l3.406-6.646c0,0-19.126-9.725-21.882-11.021c1.297-2.593,8.428-16.856,9.726-19.288
		c2.593,1.297,20.261,10.211,20.261,10.211l3.403-6.646c0,0-17.668-8.914-20.261-10.211
		C535.904,123.207,542.387,110.564,543.523,108.134z"/>
	<path fill="#FFFFFF" d="M616.297,146.709l-61.105,31.605l6.809,5.997c0,0,12.967-6.808,14.75-7.78
		c1.619,1.297,12.316,10.535,13.775,11.832c-0.649,1.945-5.347,16.046-5.347,16.046l11.506,10.049l23.663-69.695L616.297,146.709z
		 M583.88,172.803c2.917-1.458,10.212-5.348,14.749-7.618c-1.62,4.7-4.376,12.643-5.51,15.722
		C590.85,178.8,586.149,174.911,583.88,172.803z"/>
	<path fill="#D1D3D4" d="M573.668,389.181c-5.023-13.29-22.365-19.125-38.736-12.966c-6.807,2.593-12.317,6.97-16.209,11.994
		c10.861-30.795,54.784-37.278,54.784-65.967c0-47.976-68.234-34.523-58.188,0c0-15.722,24.961-18.64,24.961,0
		c0,18.477-43.6,30.795-43.6,62.077c0,34.521,34.523,37.764,31.12,69.37c-0.649,5.512-6.484,12.642-14.913,12.642
		c-52.998,0-34.036-65.157-52.676-85.092l0.973-13.291c10.698,6.483,39.063-8.915,20.422-32.254
		c0,11.508-23.988,10.859-23.988-10.859c0-29.499,27.555-14.101,28.853-7.618c-1.298-10.697-1.783-17.505,0-23.664
		c-14.913,4.7-16.208-3.89-14.425-7.131c2.269-3.891,5.023-8.429,10.858-8.429c3.078,0,5.025,0.486,6.159,1.296
		c1.783,1.297,3.243-1.621,2.918,0.973c1.62-2.432,0.971,0.648,2.43-1.783c1.622-2.431,3.728-5.187,7.455-8.752l-0.161-5.349
		l4.213,1.459l4.216-6.646c-4.538-9.238-10.536-4.862-15.073-16.37c-3.729-0.972-62.079,5.349-60.296-17.828
		c-4.861,0-16.044,2.593-9.074,11.994c-5.511,0.648-9.402-5.511-17.507,11.183c10.212-1.945,4.862,9.563,4.862,12.804
		c0,21.071-28.039,20.747-28.039,10.86c-6.807,6.483-2.917,20.908,7.293,24.475c0,0-3.89,15.397-13.453,25.122
		c-14.263-0.486-37.116-3.08-50.245-15.56c-5.834-5.349-10.21-8.267-14.101-9.725v-6.97c5.673-2.754,11.833-7.618,18.153-15.722
		c5.024-6.159,7.78-13.939,6.97-22.205c0-0.973-0.162-1.945-0.324-2.918c-0.162-0.324-0.162-0.648-0.325-0.972
		c0-0.648-0.162-1.297-0.486-1.945c0-0.324-0.162-0.648-0.162-0.972c-0.324-0.648-0.486-1.296-0.811-1.945
		c0-0.324-0.162-0.486-0.324-0.811c-0.324-0.81-0.648-1.621-1.135-2.431c-0.162-0.324-0.324-0.648-0.487-0.972
		c-0.323-0.487-0.648-0.973-0.972-1.459c-0.162-0.324-0.487-0.648-0.811-1.134c-0.162-0.325-0.487-0.648-0.811-0.973
		c-0.324-0.486-0.648-0.811-0.973-1.134c-0.162-0.324-0.486-0.486-0.648-0.811c-0.81-0.811-1.783-1.783-2.756-2.593l-0.162-0.163
		c-0.486-0.486-1.135-0.972-1.621-1.296c-0.162-0.162-0.323-0.162-0.486-0.325c-0.648-0.486-1.135-0.809-1.783-1.296h-0.162
		c-5.997-3.727-13.291-5.672-20.909-5.024c-18.315,1.458-32.092,16.856-30.471,34.361c1.135,13.777,11.183,24.636,24.313,28.04
		c-4.539,2.593-8.429,4.052-9.401,4.052c0.162,0.162,0.323,0.162,0.648,0.324c0,0,0,0.162,0.162,0.162
		c0.163,0.162,0.325,0.162,0.487,0.324c0.162,0,0.162,0,0.162,0.163c0.324,0,0.649,0.162,0.972,0.324
		c0.163,0.162,0.163,0.162,0.163,0.162c0.323,0.162,0.648,0.325,0.972,0.325c0.162,0.162,0.162,0.162,0.324,0.162
		c0.811,0.324,1.621,0.648,2.755,0.972c0,0,0.163,0,0.324,0c0.486,0.163,0.811,0.325,1.296,0.325c0,0,0.162,0.162,0.325,0.162
		c0.648,0,1.134,0.163,1.621,0.163c0.161,0,0.161,0.162,0.161,0.162v3.89c-0.161,0-0.324,0-0.486,0.163
		c-5.997,0.972-9.887,2.755-11.67,8.104c-1.783,5.349,0,7.293,2.756,11.022c-2.269,4.213-8.59,5.835-0.486,15.235
		c-0.486,3.566,0.162,9.077,5.349,10.86c1.783,0.486,3.079,0.811,4.538,1.134v70.182c-5.024,2.756-7.617,5.995-9.076,9.237
		c0,0-4.053-9.074-3.729,8.915c4.539-3.564,2.755,4.215,2.755,4.215c-6.32,8.266,1.784,7.779,1.784,7.779
		c5.51-5.35,4.375,2.594,4.375,2.594c0,9.724,3.89,13.451,3.89,13.451v53.489h-4.7l0.162,14.749h8.104
		c-4.538,1.943-7.618,6.481-7.131,11.507c0.486,6.16,6.32,10.858,12.966,10.372c6.646-0.484,11.507-5.996,11.021-12.316
		c-0.486-4.376-3.241-7.942-7.293-9.563h7.618v-14.749h-4.539v-47.49c0.973,0.485,1.945,0.97,3.08,1.134
		c0.324,0.161,0.811,0.161,1.297,0.161c0.162,0,0.323,0,0.486,0c-1.135-6.157,2.593-10.372,2.593-10.372
		c1.945-2.755,4.7-5.026,7.78-6.646c9.4-4.701,22.205-3.566,26.095,4.216c24.312-6.485,45.22-30.96,45.22-30.96l11.993,20.423
		c-25.445,8.429-80.715,56.564-42.302,73.261c0,4.862-0.648,40.846-23.664,37.927c-33.227-4.051-41.492,9.563-35.172,25.122
		c-3.079,12.966,6.97,17.505,6.97,17.505c-1.459-7.456,2.107-13.776,15.884-13.613c0,13.613,8.752,16.208,8.752,16.208
		c0.162-11.834,8.266-16.208,15.56-16.208c0,9.724,11.184,13.452,11.184,13.452s-2.918-11.183,9.887-13.452
		c32.256-5.511,1.945-38.739,50.893-47.814c0,0-24.312-3.728-24.312-17.018c0-12.155,22.043-20.424,29.662-20.424
		c15.559,29.822,32.576,29.983,36.953,30.309c6.81,7.618,4.538,33.714-5.348,33.064c-36.468-1.944-35.172,20.261-31.12,24.798
		c-0.485,8.592,6.32,13.615,6.32,13.615c0-9.239,8.753-11.832,19.936-11.183c-0.485,11.183,6.646,12.966,6.646,12.966
		c0.164-11.346,8.592-13.29,14.588-12.966c-0.484,7.943,7.456,10.212,7.456,10.212s-0.811-10.052,9.887-10.052
		c20.1,0-9.238-43.273,30.148-85.902c-34.525,15.885-53.002-23.987-53.002-31.768c17.829,20.91,75.369,24.963,75.369-10.535
		c0-33.875-37.281-46.517-19.774-59.482c10.212-7.618,30.147,7.618,18.64,23.339C569.455,418.355,578.693,402.473,573.668,389.181z
		 M352.591,390.316c-12.966,7.618-21.719,17.343-33.551,21.555c-1.783,0.649-3.242,0.813-4.539,0.649v-66.128
		c3.08,0.324,11.346,1.297,20.909,5.349c9.4,5.186,9.4,15.884-2.593,18.315c7.618,14.425,33.712,7.456,39.386-4.376
		c2.918-0.162,5.349,4.7,7.618,9.401C376.255,377.025,368.637,380.753,352.591,390.316z M498.464,280.426
		c-1.297,1.944-2.755,3.89-4.053,5.51c3.403,5.511,9.563,8.915,16.371,8.429c9.4-0.973,16.369-9.401,15.56-18.801
		c-0.163-0.325-0.163-0.648-0.163-0.973c-1.136,4.862-6.807,9.077-14.101,9.725C506.567,284.802,501.544,283.18,498.464,280.426z"/>
	<path fill="#034694" d="M287.921,240.553v0.162c0.162-0.486,0.323-0.81,0.486-1.134
		C288.244,239.905,288.083,240.229,287.921,240.553z M288.569,518.361L288.569,518.361z M288.083,212.351L288.083,212.351z
		 M283.221,516.739h8.104c-0.973,0.485-1.945,0.974-2.756,1.622c0.811-0.325,1.621-0.488,2.593-0.488
		c4.052,0,7.456,3.242,7.456,7.455c0,4.052-3.404,7.294-7.456,7.294c-3.241,0-5.997-2.104-6.97-5.187v0.649
		c0.486,6.32,6.322,11.022,12.967,10.536c6.646-0.488,11.508-5.999,11.022-12.319c-0.487-4.376-3.404-7.94-7.294-9.563h7.618
		l-0.163-14.75h-4.375v-47.49c-4.376-2.269-6.97-7.13-5.997-12.316c2.756,0,5.349,0.81,6.969,1.944
		c-2.593,5.672,3.891,11.671,3.891,11.671c-1.135-6.16,2.593-10.373,2.593-10.373c1.782-2.757,4.7-5.025,7.779-6.647
		c9.401-4.699,22.205-3.564,26.096,4.215c24.313-6.484,45.22-30.957,45.22-30.957l11.994,20.421
		c28.041,0,18.313-21.07,16.533-22.854c6.482,0,15.56,4.701,15.56,15.237c0,25.933-75.206,29.499-75.206,60.942
		c0,13.129,12.966,18.152,12.966,18.152c0,28.688-19.611,45.706-33.064,45.706c-21.557,0-37.927-4.374-37.927,19.125h7.456
		c-7.132,7.135-0.487,17.507-0.487,17.507c-1.458-7.455,2.107-13.779,15.884-13.615h8.59c-5.511,5.348-2.269,13.615,0.162,16.209
		c0.163-11.832,8.267-16.209,15.56-16.209c2.593,0,6.159,0,6.159,0c-1.622,1.783,1.134,9.398,5.024,13.451
		c0,0-2.917-11.183,9.888-13.451c32.253-5.511,1.944-38.736,50.894-47.814c0,0-24.314-3.728-24.314-17.019
		c0-12.155,22.042-20.424,29.661-20.424c5.997-0.81,11.671-0.646,16.533,0.325c1.944,19.289,23.987,18.315,28.85,18.315
		c18.641,18.802-4.698,48.788-4.698,48.788c-28.853,0-40.199,4.053-40.199,20.746h5.512c-3.079,3.079-1.459,11.507,0.648,13.614
		c0-9.238,8.914-11.832,20.1-11.185h5.996c-2.918,2.917-2.433,9.887,0.648,12.968c0.161-11.346,8.59-13.29,14.586-12.968h4.865
		c-1.783,1.783,0,7.782,2.593,10.212c0,0-0.813-10.049,9.885-10.049c20.1,0-9.239-43.276,30.147-85.902
		c-34.521,15.884-53.001-23.988-53.001-31.77c17.83,20.908,75.529,24.961,75.529-10.534c0-28.688-26.58-42.143-24.473-53.486
		c0.811-8.591,8.104-15.398,16.857-15.398c9.398,0,17.018,7.618,17.018,17.019c0,7.131-4.377,13.13-10.697,15.723l0,0
		c16.369-5.999,25.607-21.882,20.585-35.172c-5.025-13.291-22.368-19.126-38.737-12.966c-6.809,2.593-12.319,6.808-16.208,11.995
		c10.858-30.796,54.782-37.279,54.782-65.968c0-47.976-68.236-34.523-58.188,0c0-0.486,0-1.134,0-1.62
		c1.783-19.451,36.632-23.502,36.632,1.945c0,21.88-44.735,33.875-44.735,63.211c0,29.984,33.064,37.604,33.064,69.209
		c0,3.728-1.944,19.937-23.827,19.937c-21.23,0-31.442-11.832-37.278-27.23c-10.697-20.909-6.806-53.486-18.962-66.453l0.971-13.291
		c10.697,6.483,39.062-8.915,20.424-32.254c0,11.507-23.987,10.859-23.987-10.86c0-29.498,27.554-14.101,28.85-7.617
		c-1.296-10.698-1.784-17.505,0-23.664c-14.911,4.7-16.208-3.891-14.425-7.132c2.268-3.89,5.025-8.428,10.857-8.428
		c8.429,0,7.783,3.08,7.458,7.457c3.079-4.863,4.053-8.429,11.507-15.723l-0.163-5.511l4.215,1.621l4.214-6.646
		c-4.537-9.401-10.534-4.862-15.074-16.37c-3.728-0.973-52.676-5.511-51.054-28.85c-4.377,0-16.208,15.073-8.104,23.015
		c0,0-6.321,0-10.212,0c-5.511,0.647-18.154-3.08-26.257,13.453c19.936-19.936,33.066,27.877-3.89,27.877
		c-5.51,0-10.211-2.269-10.535-6.159c-3.566,16.208,19.611,21.233,19.611,21.233c0,4.863-11.67,30.795-17.343,36.468
		c3.89,3.89,5.025,26.906-12.642,26.906c6.322-17.181-12.318-31.768-30.633-41.493c0.162,0,0.162,0,0.162,0
		c-3.404-1.297-6.483-2.755-9.401-4.539c-11.184-5.187-20.26-8.104-20.26-8.104v-13.453c5.673-2.755,11.831-7.617,18.153-15.721
		c5.025-6.16,7.78-13.939,6.97-22.206c0-1.134-0.163-1.945-0.325-2.917c-0.163-0.324-0.163-0.648-0.324-0.973
		c0-0.648-0.162-1.296-0.486-1.944c0-0.324-0.162-0.649-0.162-0.973c-0.324-0.648-0.487-1.297-0.81-1.945
		c0-0.324-0.163-0.486-0.325-0.811c-0.324-0.81-0.648-1.621-1.134-2.431c-0.162-0.325-0.325-0.648-0.486-0.972
		c-0.324-0.486-0.648-0.973-0.973-1.458c-0.324-0.325-0.486-0.648-0.811-1.135c-0.161-0.324-0.486-0.648-0.81-0.972
		c-0.324-0.486-0.648-0.811-0.972-1.135c-0.163-0.324-0.486-0.647-0.649-0.81c-0.811-0.973-1.783-1.783-2.755-2.593l-0.163-0.162
		c-0.486-0.486-1.134-0.973-1.62-1.296c-0.163-0.163-0.325-0.325-0.487-0.325c-0.648-0.486-1.134-0.811-1.782-1.296
		c-0.162,0-0.162,0-0.162,0c-5.997-3.728-13.291-5.673-20.909-5.024c-1.62,0.162-3.241,0.486-4.862,0.81
		c-10.535,4.052-18.314,16.37-18.314,31.12c0,13.939,6.969,25.608,16.532,30.309c0.162,0.162,0.325,0.162,0.486,0.162
		c-4.7,2.593-8.428,4.053-9.4,4.053c0.163,0.162,0.324,0.162,0.648,0.324c0,0,0,0.162,0.162,0.162c0.162,0,0.324,0.162,0.486,0.325
		c0.163,0,0.163,0,0.163,0c0.324,0.162,0.648,0.323,0.973,0.486c0.161,0.162,0.161,0.162,0.161,0.162
		c0.325,0.163,0.649,0.324,0.973,0.324c0.163,0.162,0.163,0.162,0.325,0.162c0.81,0.325,1.621,0.649,2.755,0.973
		c0,0,0.162,0,0.324,0c0.324,0.162,0.811,0.324,1.297,0.324c0,0,0.163,0.163,0.324,0.163c0.486,0,1.135,0.162,1.621,0.162
		c0.162,0,0.162,0,0.162,0.163c3.566,0.162,7.618-0.649,7.618-0.649v7.78c-0.648,0-6.159-1.783-7.618-3.241
		c-0.162,0-0.325,0-0.648,0.162c-5.835,0.972-9.725,2.756-11.508,8.104c-1.783,5.348,0,7.293,2.755,11.021
		c-2.269,4.214-8.589,5.835-0.486,15.236c-0.486,3.565,0.162,9.076,5.349,10.859c1.62,0.486,3.079,0.81,4.538,1.134
		c3.079,0,7.618,2.431,7.618,8.752v60.457c2.756,0.161,5.835,0.485,8.59,0.649v-66.131c3.079,0.324,11.345,1.298,20.908,5.35
		c0,0,0.162,0,0.162,0.161l0,0c0.972,0,1.783,0.325,2.755,0.486c6.321,1.945,10.211,7.457,8.752,12.318
		c-1.459,4.862-7.78,7.294-14.263,5.348c7.617,14.426,33.712,7.456,39.385-4.375c2.918-0.324,5.35,4.7,7.618,9.4
		c0,0,6.645,2.593,22.853,2.593c0,0-65.804,41.819-84.768,41.819c-8.104,0-26.095,0-26.095,6.157
		c-4.862,0-11.995,8.428-11.995,13.29c4.539-3.728,8.429-3.728,8.429-3.728c3.89,0,6.159,1.298,6.159,1.298
		c-1.458,1.459-7.942,8.75-7.942,14.586c5.511-5.511,7.942-5.511,7.942-5.511s5.672-0.811,7.779,1.297
		c-1.458,1.296-3.89,6.321-3.89,12.157c0,0,3.404-6.485,7.618-6.485v63.05c0,1.946-8.591,3.73-12.156,3.73V516.739z M285.814,325.97
		c-1.622,0.163-2.432-1.945-2.432-2.755s0.649-2.917,2.27-2.917c3.728-0.162,11.508,1.621,11.508,2.432
		S289.704,325.97,285.814,325.97z M283.382,315.596c-2.269-0.161-3.079-3.079-2.917-4.213c0-0.973,1.296-3.891,3.404-3.729
		c5.349,0.325,15.722,4.052,15.56,5.187C299.428,313.813,288.73,316.083,283.382,315.596z M282.41,302.306
		c-2.27-0.648-2.593-4.052-2.27-5.186c0.324-1.135,2.107-3.891,4.538-3.241c5.673,1.458,15.884,7.455,15.722,8.59
		C300.077,303.603,288.083,303.765,282.41,302.306z M299.915,264.704c0.972-2.27,0.648-5.511,0.162-8.429c-0.162,0-0.324,0-0.324,0
		c-6.808,0-12.319-5.51-12.319-12.317c0-1.135,0.163-2.27,0.487-3.242c0-0.162,0-0.162,0-0.162
		c1.458-5.024,6.159-8.914,11.832-8.914c6.807,0,12.318,5.511,12.318,12.318C312.071,251.737,306.56,259.031,299.915,264.704z"/>
	<path fill="#ED1C24" d="M483.878,275.401c3.238,5.511,9.563,8.915,16.369,8.266c9.401-0.811,16.371-9.239,15.397-18.64
		c0-0.324,0-0.648,0-0.972c-1.135,4.862-6.809,9.076-14.101,9.724c-5.674,0.486-10.536-1.135-13.614-3.89
		C486.471,271.835,485.173,273.78,483.878,275.401z"/>
	<path fill="#FFFFFF" d="M461.023,243.633l5.834,0.325l-2.915,4.052C463.942,248.009,460.051,249.306,461.023,243.633z
		 M446.921,243.633h8.429c0,0-0.324,6.97,5.996,7.456l-1.295,2.27C460.051,253.358,443.193,248.981,446.921,243.633z"/>
	<path fill="#6A7AB5" d="M300.401,302.468c0.162-1.135-10.049-7.132-15.722-8.59c-2.431-0.649-4.214,2.269-4.538,3.241
		c-0.324,1.134,0,4.538,2.27,5.186C288.083,303.765,300.077,303.603,300.401,302.468z M299.428,312.842
		c0.162-1.135-10.21-4.862-15.56-5.187c-2.107-0.163-3.404,2.755-3.404,3.729c-0.162,1.134,0.648,4.052,2.917,4.213
		C288.73,316.083,299.428,313.813,299.428,312.842z M287.758,281.722v3.89c1.459,1.458,6.97,3.241,7.618,3.241v-7.78
		C295.376,281.073,291.325,281.884,287.758,281.722z M285.651,320.297c-1.621,0-2.27,2.107-2.27,2.917s0.811,2.918,2.432,2.755
		c3.89,0,11.345-2.431,11.345-3.241S289.379,320.135,285.651,320.297z M277.709,424.677c-6.321,8.268-1.783,15.884-1.783,15.884
		c0-5.836,6.484-13.127,7.942-14.586C283.869,425.975,281.6,424.677,277.709,424.677z M297.97,442.183
		c-0.973,5.187,1.621,10.048,5.997,12.316c0.972,0.486,1.945,0.974,2.917,1.135c0.486,0.164,0.972,0.164,1.458,0.164
		c0.163,0,0.325,0,0.487,0c0,0-6.483-5.999-3.891-11.671C303.318,442.992,300.726,442.183,297.97,442.183z M286.3,273.78
		c-9.563-4.701-16.532-16.37-16.532-30.309c0-14.75,7.78-27.067,18.314-31.12c-15.884,3.566-27.067,17.667-25.609,33.551
		C263.608,259.517,273.495,270.214,286.3,273.78z M388.897,239.905c10.212-1.783,13.615,7.293,13.615,10.535
		c0,12.318-9.563,17.342-17.505,17.342C421.963,267.783,408.833,219.969,388.897,239.905z M364.099,346.23
		c17.667,0,16.532-23.016,12.642-26.906c5.673-5.673,17.343-31.605,17.343-36.468c0,0-23.34-5.025-19.611-21.233l0,0h-0.325
		c-6.321,6.646-2.431,20.585,7.618,24.15c0,0-3.891,15.398-13.453,25.122c-9.563-0.324-23.016-1.62-34.848-6.159
		C351.78,314.462,370.42,329.05,364.099,346.23z M295.052,235.367c4.539-0.324,8.59,2.918,9.077,7.294
		c0.324,4.376-3.08,8.104-7.617,8.59c-4.701,0.323-8.753-2.918-9.078-7.293c0,6.808,5.511,12.317,12.319,12.317c0,0,0.163,0,0.324,0
		c0.486,2.917,0.81,6.159-0.162,8.429c6.645-5.673,12.156-12.967,12.156-20.746c0-6.808-5.511-12.318-12.318-12.318
		c-5.672,0-10.373,3.89-11.832,9.076C289.055,237.798,291.648,235.691,295.052,235.367z M425.366,226.453
		c-8.104-7.942,3.727-23.015,8.104-23.015c-4.701,0-25.286,13.614-18.315,23.015C419.045,226.453,425.366,226.453,425.366,226.453z
		 M322.282,359.52c6.32,1.946,12.804-0.486,14.263-5.348c1.459-4.862-2.432-10.373-8.752-12.318
		c-0.973-0.162-1.783-0.486-2.755-0.486C334.276,346.554,334.113,357.089,322.282,359.52z M303.967,292.095
		c0,0,9.076,2.917,20.26,8.104c-2.269-1.458-4.376-3.079-6.321-4.862c-5.672-5.349-10.049-8.266-13.938-9.724V292.095z
		 M307.371,408.957c18.963,0,84.768-41.819,84.768-41.819c-16.37,0-22.853-2.593-22.853-2.593
		c-3.728,1.945-11.184,5.672-27.229,15.074c-12.966,7.78-21.719,17.505-33.551,21.719c-1.945,0.649-3.242,0.811-4.538,0.649
		c-2.755-0.164-5.834-0.488-8.59-0.649v-60.457c0-6.322-4.539-8.752-7.618-8.752v70.18c-5.187,2.757-7.618,5.999-9.077,9.241
		c0,0-9.724-1.298-9.401,16.854c0-4.862,7.132-13.29,11.995-13.29C281.275,408.957,299.266,408.957,307.371,408.957z
		 M471.233,506.041c-4.862,0-26.905,0.974-28.85-18.315c-4.862-0.971-10.536-1.135-16.533-0.325
		c15.56,29.824,32.417,29.987,36.954,30.313c6.809,7.615,4.54,33.55-5.348,33.064c-36.468-1.946-35.173,20.26-31.121,24.798
		c0-16.693,11.347-20.746,40.199-20.746C466.535,554.829,489.874,524.843,471.233,506.041z M478.691,578.005h-4.865
		c-0.485,7.942,7.458,10.212,7.458,10.212C478.691,585.787,476.908,579.788,478.691,578.005z M432.496,589.189
		c-2.107-2.107-3.728-10.535-0.648-13.614h-5.512C425.851,584.164,432.496,589.189,432.496,589.189z M541.416,312.031
		c0-25.447-34.849-21.396-36.632-1.783c1.622-14.425,24.961-16.532,24.961,1.458c0,18.478-43.6,30.634-43.6,62.077
		c0,34.524,34.524,37.766,31.119,69.37c-0.646,5.511-6.482,12.645-15.074,12.645c-18.152,0-27.876-7.779-33.551-18.641
		c5.836,15.398,16.048,27.23,37.117,27.23c22.044,0,23.988-16.209,23.988-19.937c0-31.605-33.064-39.225-33.064-69.209
		C496.681,345.906,541.416,333.912,541.416,312.031z M283.869,435.05c0,9.726,3.89,13.454,3.89,13.454
		c0-5.836,2.431-10.861,3.89-12.157C289.541,434.239,283.869,435.05,283.869,435.05z M536.229,381.077
		c-8.754,0-16.047,6.807-16.857,15.398c0.485-1.946,1.783-4.052,4.537-5.998c10.212-7.617,29.986,7.618,18.641,23.341
		c6.32-2.593,10.697-8.592,10.697-15.723C553.247,388.695,545.628,381.077,536.229,381.077z M458.592,578.005h-5.996
		c-0.649,11.185,6.645,12.968,6.645,12.968C456.159,587.892,455.674,580.922,458.592,578.005z M291.162,517.873
		c-0.973,0-1.783,0.163-2.593,0.488c-2.755,2.105-4.538,5.509-4.376,9.074c0.973,3.082,3.729,5.187,6.97,5.187
		c4.052,0,7.456-3.242,7.456-7.294C298.618,521.115,295.214,517.873,291.162,517.873z M332.817,572.657h-8.59
		c0,13.615,8.752,16.209,8.752,16.209C330.548,586.272,327.306,578.005,332.817,572.657z M359.398,485.782
		c0-31.443,75.206-35.01,75.206-60.942c0-10.536-9.077-15.237-15.56-15.237c1.78,1.783,11.508,22.854-16.533,22.854
		c-25.446,8.429-80.716,56.567-42.303,73.262c0,4.7-0.648,40.683-23.664,37.927c-33.227-4.053-41.493,9.563-35.171,25.121
		c0-23.499,16.37-19.125,37.927-19.125c13.453,0,33.064-17.019,33.064-45.706C372.365,503.935,359.398,498.911,359.398,485.782z
		 M295.376,505.068v-63.05c-4.214,0-7.618,6.485-7.618,6.485v53.811v-0.325h-4.7l0.163,6.81
		C286.786,508.799,295.376,507.015,295.376,505.068z M308.342,586.272c0,0-6.645-10.372,0.487-17.507h-7.456
		C298.293,581.734,308.342,586.272,308.342,586.272z M354.698,572.657c0,0-3.566,0-6.159,0c0,9.724,11.183,13.451,11.183,13.451
		C355.833,582.056,353.077,574.44,354.698,572.657z"/>
	<path fill="#FFFFFF" d="M145.613,468.114l-0.324-1.295l-0.162-1.298c-0.648-4.537-1.783-12.966-8.267-14.589
		c-1.783-0.321-3.565-0.16-5.51,0.649c0.486-1.944,0.486-3.889-0.163-5.511c-2.432-6.157-10.859-6.157-15.398-6.157h-1.458
		l-1.296-0.164c-4.539-0.81-12.805-2.43-16.37,3.403c-0.811,1.459-1.297,3.242-1.135,5.351c-1.621-1.135-3.404-1.623-5.187-1.623
		c-6.645,0.324-9.238,8.429-10.697,12.805l-0.323,1.299l-0.649,1.134c-2.107,4.052-6.321,11.507-1.783,16.693
		c1.134,1.298,2.755,2.108,4.701,2.593c-1.621,1.459-2.593,2.918-3.08,4.701c-1.784,6.321,5.187,11.347,8.915,13.939l1.134,0.811
		l0.811,0.973c3.241,3.403,9.076,9.563,15.235,6.807c1.621-0.649,2.917-1.783,4.052-3.566c0.811,1.946,1.945,3.242,3.404,4.215
		c5.673,3.728,12.48-1.298,16.046-4.052l1.135-0.811l1.297-0.647c4.052-1.945,11.669-5.512,11.183-12.157
		c-0.163-1.783-0.973-3.566-2.269-5.025c2.106-0.161,3.728-0.809,5.187-1.944C149.827,480.435,147.072,472.33,145.613,468.114z"/>
	<path fill="#ED1C24" d="M116.277,473.464c37.44,22.205,25.933-2.271,25.123-5.834C140.589,464.063,140.265,437.157,116.277,473.464
		z"/>
	<path fill="#ED1C24" d="M114.008,478.976c-9.563,42.464,10.048,23.987,13.291,22.04
		C130.378,499.235,155.824,490.644,114.008,478.976z"/>
	<path fill="#ED1C24" d="M108.011,478.487c-43.276,4.052-19.774,17.019-16.856,19.45C93.91,500.37,109.956,521.926,108.011,478.487z
		"/>
	<path fill="#ED1C24" d="M106.552,472.651c-17.181-39.87-22.206-13.45-23.664-10.047C81.429,466.006,65.87,487.889,106.552,472.651z
		"/>
	<path fill="#FFFFFF" d="M724.891,462.279l-0.484-1.295l-0.488-1.299c-1.46-4.376-3.889-12.48-10.534-12.805
		c-1.783,0-3.566,0.488-5.351,1.623c0.164-2.108-0.161-3.892-1.134-5.351c-3.403-5.833-11.832-4.213-16.369-3.403l-1.297,0.164
		h-1.296c-4.54,0-13.13,0-15.562,6.157c-0.647,1.622-0.647,3.566-0.161,5.511c-1.783-0.81-3.566-0.971-5.351-0.649
		c-6.645,1.623-7.615,10.052-8.265,14.589l-0.161,1.298l-0.488,1.295c-1.459,4.216-4.052,12.32,1.135,16.532
		c1.298,1.136,3.081,1.783,5.025,1.944c-1.297,1.459-1.944,3.242-2.107,5.025c-0.649,6.646,6.97,10.212,11.185,12.157l1.135,0.647
		l1.135,0.811c3.728,2.754,10.534,7.779,16.208,4.213c1.458-1.134,2.594-2.43,3.241-4.376c1.136,1.783,2.431,2.917,4.053,3.566
		c6.157,2.757,12.156-3.403,15.235-6.807l0.973-0.973l0.971-0.811c3.728-2.593,10.697-7.618,8.914-13.939
		c-0.324-1.783-1.459-3.242-2.917-4.701c1.946-0.324,3.566-1.295,4.7-2.593C731.211,473.625,727.16,466.17,724.891,462.279z"/>
	<path fill="#ED1C24" d="M691.826,469.573c-32.577-28.85-5.835-25.446-2.27-25.771C693.284,443.479,719.056,435.538,691.826,469.573
		z"/>
	<path fill="#ED1C24" d="M687.288,473.464c-37.441,22.205-25.935-2.271-25.122-5.834
		C662.976,464.063,663.301,437.157,687.288,473.464z"/>
	<path fill="#ED1C24" d="M689.718,478.976c9.402,42.464-10.209,23.987-13.29,22.04C673.188,499.235,647.739,490.644,689.718,478.976
		z"/>
	<path fill="#ED1C24" d="M695.717,478.487c43.274,4.052,19.611,17.019,16.854,19.45C709.817,500.37,693.771,521.926,695.717,478.487
		z"/>
	<path fill="#ED1C24" d="M697.013,472.651c17.342-39.87,22.207-13.45,23.663-10.047
		C722.135,466.006,737.696,487.889,697.013,472.651z"/>
	<path fill="#FFFFFF" d="M705.44,473.789c0-0.325-0.161-0.649-0.161-0.973c3.403-2.594,7.132-5.187,7.132-5.187l-0.325-0.811
		c0,0-4.377,0.646-8.59,1.458c-2.107-3.405-5.675-5.834-9.887-6.159c-1.298-4.053-2.593-7.942-2.593-7.942h-0.811
		c0,0-0.649,4.215-1.134,8.268c-2.595,0.646-4.864,2.104-6.646,4.212c-0.813,1.135-1.459,2.27-2.108,3.567c-4.216,0-8.59,0-8.59,0
		l-0.323,0.97c0,0,4.213,1.947,8.104,3.892c0,0.325,0,0.649,0,0.974c0.324,3.402,1.944,6.481,4.377,8.75
		c-1.298,4.216-2.758,8.917-2.758,8.917l0.649,0.484c0,0,3.566-3.727,6.646-6.809c1.619,0.488,3.403,0.649,5.187,0.488
		c1.783-0.163,3.403-0.648,4.861-1.459c3.729,2.594,7.779,5.673,7.779,5.673l0.649-0.649c0,0-2.269-4.374-4.376-8.265
		C704.631,480.596,705.766,477.192,705.44,473.789z"/>
	<path fill="#ED1C24" d="M691.826,467.305c-2.108,0.16-3.889,1.134-5.187,2.754c-1.459,1.622-2.108,3.566-1.784,5.512
		c0.325,4.376,4.053,7.457,8.268,7.133c2.105-0.324,3.89-1.135,5.187-2.757c1.296-1.62,1.944-3.564,1.783-5.672
		C699.769,470.059,696.042,466.98,691.826,467.305z"/>
	<path fill="#ED1C24" d="M111.739,469.573c32.74-28.85,5.997-25.446,2.269-25.771S84.671,435.538,111.739,469.573z"/>
	<path fill="#FFFFFF" d="M124.056,475.084c3.891-1.944,8.104-3.892,8.104-3.892l-0.162-0.97c0,0-4.539,0-8.752,0
		c-0.487-1.298-1.135-2.433-2.107-3.567c-1.783-2.107-4.052-3.566-6.483-4.212c-0.648-4.053-1.135-8.268-1.135-8.268h-0.973
		c0,0-1.296,3.89-2.593,7.942c-4.053,0.325-7.78,2.754-9.887,6.159c-4.052-0.813-8.59-1.458-8.59-1.458l-0.325,0.811
		c0,0,3.729,2.593,7.293,5.187c-0.163,0.323-0.163,0.647-0.163,0.973c-0.323,3.403,0.649,6.807,2.756,9.399
		c-1.945,3.891-4.375,8.265-4.375,8.265l0.648,0.649c0,0,4.214-3.079,7.779-5.673c1.459,0.811,3.242,1.296,5.025,1.459
		c1.783,0.161,3.404,0,5.025-0.488c3.241,3.082,6.645,6.809,6.645,6.809l0.81-0.484c0,0-1.458-4.701-2.917-8.917
		c2.593-2.269,4.214-5.348,4.538-8.75C124.219,475.733,124.056,475.409,124.056,475.084z"/>
	<path fill="#ED1C24" d="M117.087,470.059c-1.297-1.62-3.242-2.594-5.187-2.754c-4.214-0.324-7.941,2.754-8.428,6.97
		c-0.163,2.107,0.486,4.052,1.783,5.672c1.297,1.622,3.241,2.593,5.349,2.757c4.052,0.324,7.942-2.757,8.266-7.133
		C119.033,473.625,118.384,471.681,117.087,470.059z"/>
	<path fill="#FFFFFF" d="M116.601,288.53c-18.315-3.08-35.658,9.076-38.899,27.391c-3.242,18.153,8.915,35.658,27.23,38.899
		c18.153,3.08,35.658-9.076,38.899-27.392C147.072,309.276,134.753,291.771,116.601,288.53z"/>
	<path fill="#ED1C24" d="M124.219,313.976c-0.324-0.163-0.811-0.487-1.459-0.973c-2.755-1.782-8.266-5.348-8.266-5.348
		c-0.81-0.648-1.621-1.135-2.269-1.621c-2.432-1.621-4.539-2.918-6.483-4.052c-0.81-0.487-1.621-0.973-2.432-1.297
		c-3.079-1.621-6.159-2.594-9.887-2.917c-2.755,2.107-5.187,4.538-7.131,7.456c8.266,2.917,16.532,7.779,33.389,18.315
		C120.653,321.27,123.895,314.462,124.219,313.976z"/>
	<path fill="#ED1C24" d="M116.277,331.967c0.324-0.811,1.945-4.538,2.431-5.997c-17.342-10.859-25.446-15.56-33.712-18.639
		c-1.297,2.431-2.27,4.862-2.918,7.618C86.779,321.593,99.583,327.915,116.277,331.967z"/>
	<path fill="#ED1C24" d="M114.494,304.576c6.483-3.89,13.939-2.756,19.612-0.811c-2.106-2.756-4.7-5.187-7.779-7.132
		c-5.349-0.973-12.805-1.134-18.802,3.565C109.793,301.333,111.9,302.955,114.494,304.576z"/>
	<path fill="#ED1C24" d="M88.399,335.695c0.972,0.648,1.782,1.135,2.755,1.621c1.945,1.135,4.052,2.107,6.159,2.755
		c0.972,0.325,1.782,0.648,2.755,0.973c3.241,1.134,10.698,3.079,11.346,3.241c0.163-0.325,2.917-7.293,3.89-9.887
		c-12.966-3.242-27.067-8.915-33.875-16.208c-0.324,3.403-0.162,6.808,0.487,9.887C83.375,331.156,85.644,333.749,88.399,335.695z"
		/>
	<path fill="#ED1C24" d="M111.9,346.878l-2.755-0.648c-2.593-0.649-5.186-1.297-7.942-2.107c1.296,2.755,3.404,5.024,5.673,6.808
		c3.08,0.324,5.997,0.324,8.914-0.163C113.684,349.147,111.9,346.878,111.9,346.878z"/>
	<path fill="#ED1C24" d="M138.968,313.166c-0.648-2.107-1.458-4.052-2.43-5.835c-5.187-2.269-12.967-4.539-19.774-1.135l9.4,6.159
		c1.945-0.163,3.728-0.163,5.349-0.163c0.973,0,1.783,0,2.593,0.163C135.889,312.517,137.509,312.68,138.968,313.166z"/>
	<path fill="#ED1C24" d="M134.105,314.787c-0.161,15.397-7.456,27.391-13.776,34.847c9.887-3.403,17.505-11.994,19.45-22.854
		c0.648-3.728,0.648-7.293-0.162-10.859C138.157,315.435,136.375,315.11,134.105,314.787z"/>
	<path fill="#ED1C24" d="M105.255,298.903c4.376-3.891,9.563-5.187,14.263-5.349c-1.135-0.325-2.431-0.811-3.728-0.972
		c-6.807-1.135-13.453,0.162-19.125,3.079C99.745,296.31,102.5,297.443,105.255,298.903z"/>
	<path fill="#ED1C24" d="M126.488,314.787c-2.107,4.7-3.566,7.617-4.539,10.21c-0.324,0.648-0.648,1.458-0.973,2.269
		c-0.648,1.296-2.107,5.349-2.107,5.349l-0.973,2.432l-4.214,10.211c1.135,1.458,2.593,2.755,3.89,3.728
		c6.16-7.132,13.778-18.801,14.101-34.361C130.053,314.625,128.433,314.625,126.488,314.787z"/>
	<path fill="#ED1C24" d="M97.962,342.988c-1.945-0.648-4.052-1.458-5.997-2.432c0.648,2.27,1.783,4.214,2.755,5.998
		c2.269,1.458,4.7,2.431,7.293,3.242C100.393,348.013,98.935,345.744,97.962,342.988z"/>
	<path fill="#ED1C24" d="M88.885,338.937c-1.458-0.811-2.756-1.782-3.89-2.756c1.296,2.432,3.08,4.539,5.024,6.646
		C89.533,341.53,89.209,340.233,88.885,338.937z"/>
	<path fill="#FFFFFF" d="M656.167,327.429c3.243,18.315,20.748,30.471,38.9,27.392c18.316-3.242,30.473-20.747,27.23-38.899
		c-3.242-18.315-20.585-30.471-38.9-27.391C665.245,291.771,652.929,309.276,656.167,327.429z"/>
	<path fill="#ED1C24" d="M675.781,313.976c0.321-0.163,0.81-0.487,1.459-0.973c2.754-1.782,8.265-5.348,8.265-5.348
		c0.81-0.648,1.62-1.135,2.27-1.621c2.432-1.621,4.537-2.918,6.645-4.052c0.648-0.487,1.459-0.973,2.269-1.297
		c3.081-1.621,6.159-2.594,9.888-2.917c2.757,2.107,5.187,4.538,7.133,7.456c-8.268,2.917-16.532,7.779-33.39,18.315
		C679.345,321.27,676.103,314.462,675.781,313.976z"/>
	<path fill="#ED1C24" d="M683.722,331.967c-0.324-0.811-1.944-4.538-2.43-5.997c17.343-10.859,25.446-15.56,33.712-18.639
		c1.297,2.431,2.269,4.862,2.917,7.618C713.22,321.593,700.415,327.915,683.722,331.967z"/>
	<path fill="#ED1C24" d="M685.505,304.576c-6.483-3.89-13.939-2.756-19.61-0.811c2.104-2.756,4.7-5.187,7.779-7.132
		c5.348-0.973,12.804-1.134,18.801,3.565C690.206,301.333,688.098,302.955,685.505,304.576z"/>
	<path fill="#ED1C24" d="M711.601,335.695c-0.974,0.648-1.783,1.135-2.757,1.621c-1.944,1.135-4.052,2.107-6.157,2.755
		c-0.974,0.325-1.783,0.648-2.757,0.973c-3.242,1.134-10.696,3.079-11.346,3.241c-0.161-0.325-2.918-7.293-3.89-9.887
		c12.967-3.242,27.067-8.915,33.876-16.208c0.324,3.403,0.161,6.808-0.488,9.887C716.623,331.156,714.354,333.749,711.601,335.695z"
		/>
	<path fill="#ED1C24" d="M688.259,346.878l2.597-0.648c2.593-0.649,5.347-1.297,8.104-2.107c-1.459,2.755-3.566,5.024-5.836,6.808
		c-2.917,0.324-5.998,0.324-8.915-0.163C686.314,349.147,688.259,346.878,688.259,346.878z"/>
	<path fill="#ED1C24" d="M661.032,313.166c0.646-2.107,1.459-4.052,2.43-5.835c5.187-2.269,12.966-4.539,19.774-1.135l-9.401,6.159
		c-1.945-0.163-3.729-0.163-5.348-0.163c-0.974,0-1.784,0-2.593,0.163C664.11,312.517,662.491,312.68,661.032,313.166z"/>
	<path fill="#ED1C24" d="M665.895,314.787c0.161,15.397,7.454,27.391,13.774,34.847c-9.887-3.403-17.503-11.994-19.449-22.854
		c-0.646-3.728-0.646-7.293,0.163-10.859C661.842,315.435,663.625,315.11,665.895,314.787z"/>
	<path fill="#ED1C24" d="M694.743,298.903c-4.376-3.891-9.563-5.187-14.264-5.349c1.135-0.325,2.432-0.811,3.729-0.972
		c6.809-1.135,13.453,0.162,19.125,3.079C700.254,296.31,697.5,297.443,694.743,298.903z"/>
	<path fill="#ED1C24" d="M673.51,314.787c2.271,4.7,3.405,7.617,4.54,10.21c0.324,0.648,0.649,1.458,0.972,2.269
		c0.647,1.296,2.106,5.349,2.106,5.349l0.974,2.432l4.213,10.211c-1.134,1.458-2.593,2.755-3.888,3.728
		c-6.159-7.132-13.778-18.801-14.104-34.361C669.945,314.625,671.565,314.625,673.51,314.787z"/>
	<path fill="#ED1C24" d="M702.038,342.988c1.944-0.648,4.051-1.458,5.995-2.432c-0.647,2.27-1.783,4.214-2.754,5.998
		c-2.268,1.458-4.7,2.431-7.294,3.242C699.769,348.013,701.063,345.744,702.038,342.988z"/>
	<path fill="#ED1C24" d="M711.115,338.937c1.456-0.811,2.754-1.782,3.889-2.756c-1.296,2.432-3.079,4.539-5.025,6.646
		C710.466,341.53,710.791,340.233,711.115,338.937z"/>
</g>
</svg>
