<?xml version="1.0" encoding="utf-8"?>
<!-- Generator: Adobe Illustrator 16.0.0, SVG Export Plug-In . SVG Version: 6.00 Build 0)  -->
<!DOCTYPE svg PUBLIC "-//W3C//DTD SVG 1.0//EN" "http://www.w3.org/TR/2001/REC-SVG-20010904/DTD/svg10.dtd">
<svg version="1.0" id="Layer_1" xmlns="http://www.w3.org/2000/svg" xmlns:xlink="http://www.w3.org/1999/xlink" x="0px" y="0px"
	 width="800px" height="800px" viewBox="0 0 800 800" enable-background="new 0 0 800 800" xml:space="preserve">
<g>
	<path fill="#FFFFFE" d="M289.933,618.144c0,0-84.055-42.034-124.082-106.073c0,55.032-3.001,124.078-3.001,124.078l128.081,25.016"
		/>
	<path fill="#FFFFFE" d="M510.072,619.138c0,0,83.052-39.022,123.075-103.062c0,55.032,3.004,120.072,3.004,120.072l-127.082,25.016
		"/>
	<rect x="288.931" y="598.128" fill="#FFFFFE" width="222.143" height="101.057"/>
	<path fill="#FFFFFE" d="M466.041,606.124c0,35.032-30.016,64.047-66.042,64.047c-36.021,0-66.041-29.015-66.041-64.047
		c0-36.017,30.021-65.031,66.041-65.031C436.025,541.093,466.041,570.107,466.041,606.124"/>
	<path fill="#FFFFFE" d="M134.833,639.153v-94.063l-5.004-1.995v-13.013l5.004-3.004v-8.998l-5.004-2.005v-15.015l18.012-18.014
		v-3.997c0,0,0.998-4,6.002-4h5.005c0,0,4.002,0.993,4.002,4v3.997l19.015,18.014v15.015l-5.004,2.005v8.998l5.004,3.004v100.063"/>
	<path fill="#FFFFFE" d="M666.169,639.153v-94.063l6.005-1.995v-13.013l-6.005-3.004v-8.998l6.005-2.005v-15.015l-19.011-18.014
		v-3.997c0,0,0-4-5.004-4h-6.005c0,0-4.003,0.993-4.003,4v3.997l-19.01,18.014v15.015l6.002,2.005v8.998l-6.002,3.004v100.063"/>
	<g>
		<defs>
			<rect id="SVGID_1_" x="131.832" y="679.177" width="538.341" height="94.063"/>
		</defs>
		<clipPath id="SVGID_2_">
			<use xlink:href="#SVGID_1_"  overflow="visible"/>
		</clipPath>
		<path clip-path="url(#SVGID_2_)" fill="#FFFFFE" d="M393.999,773.24c-46.03,0-75.048-16.011-106.069-33.03
			c-17.013-9.007-34.023-18.003-54.035-24.006c-56.034-19.016-93.061,3.998-95.061,4.999l-7.002-12.002
			c1.999-1.012,44.026-28.029,107.067-7.011c21.013,8.004,38.024,17.012,55.035,26.016c32.02,17.013,63.04,33.021,112.07,30.018
			c47.032-2.004,79.051-18.014,110.067-34.021c13.01-6.003,25.018-12.005,38.025-17.004c1.001,0,2.002-1.011,3.005-1.011
			c17.009-7.003,67.039-27.011,111.069,6.01l-9.007,11.009c-37.022-28.02-80.053-11.009-96.062-4.004c-1.999,0-3.001,0-4.001,1
			c-12.009,5.009-24.016,11.001-37.025,17.012c-31.021,15.007-66.04,32.019-115.069,35.022
			C403.004,772.236,398,773.24,393.999,773.24"/>
	</g>
	<g>
		<defs>
			<rect id="SVGID_3_" x="100.811" y="611.133" width="598.379" height="139.095"/>
		</defs>
		<clipPath id="SVGID_4_">
			<use xlink:href="#SVGID_3_"  overflow="visible"/>
		</clipPath>
		<path clip-path="url(#SVGID_4_)" fill="#FFFFFE" d="M641.152,748.225l-10.005-7.005c-2.002-1.01-8.005-2.004-14.009-1.01
			c-1.001,0-1.999,0-3.001,1.01c-5.005,0.991-11.004,1.995-16.009-2.004c-2.005-1.001-4.003-4.005-4.003-10.008
			c0-3.997,1.998-8.005,5-10.006c11.009-9.008,37.025-2.998,45.03-1.003c6.003,1.003,11.008,1.003,12.008,0
			c3.001-30.015,15.009-51.034,22.018-61.031c-49.036-30.025-124.084-14.018-152.101,3.996
			c-42.026,27.021-77.052,44.03-121.077,44.03c-38.024,0-71.046-16.01-105.067-32.018c-19.012-10.01-39.021-19.017-60.037-27.021
			c-46.028-15.017-98.063,2.003-117.073,10.001c7.003,10.017,18.008,30.024,19.01,58.046c1.002,2.002,7.003,2.002,12.007,0.991
			c8.005-1.994,35.024-7.004,46.03,2.004c3.005,3.005,4.002,7.005,4.002,11.009c0,6.01-3.001,9.008-5.004,10.009
			c-4.003,3.996-11.007,1.995-15.009,1.001c-1.001-1.001-3-1.001-4.002-1.001c-5.004-1.001-11.005-1.001-13.009,1.001l-10.004,5.001
			l-1.001-16.011c-4.003,1.002-15.013,2.997-22.016-2.995c-3.001-2.005-5.004-6.009-5.004-10.018
			c-1.999-36.017-22.011-56.024-22.011-57.034l-7.008-6.001l9.006-5c2.004-1.003,73.05-35.024,135.089-14.014
			c23.013,8.012,43.024,18.01,62.039,27.019c33.021,16.01,63.04,31.026,98.061,31.026c42.026,0,75.047-16.01,115.075-41.026
			c32.02-21.018,119.073-39.03,173.107,0l6.006,3.997l-5.005,6.003c0,0-20.01,23.012-23.014,59.039c0,5-2.001,8.004-6.003,11.008
			c-7.005,5.001-18.015,2.997-22.016,2.004"/>
	</g>
	<path fill="#FFFFFE" d="M198.871,717.197c0,0-7.003-6-10.004-12.003c-6.006-10.008-50.033,9.999-50.033,9.999l12.009,3.014"/>
	<path fill="#FFFFFE" d="M598.129,720.202c0,0,7.001-7.003,10.004-12.013c5.005-9.999,49.032,11.013,49.032,11.013l-12.011,3.005"/>
	<path fill="#FFFFFE" d="M133.831,718.207c0,0-1.001-27.018-7.003-39.03c-6.006-13.004-9.007-25.017-9.007-25.017
		s37.024-18.012,62.039-19.015c24.015,0,84.054,10.01,103.064,20.018c19.014,11.01,69.047,39.021,95.063,44.021
		c27.016,6.01,70.044-0.994,97.059-12.003c27.021-11.009,45.028-30.014,56.039-35.023c11.005-5,47.029-18.006,70.043-20.009
		c24.015-2.003,53.031,7.997,69.044,11.01c16.013,2.996,14.008,8.999,14.008,8.999l-20.011,62.044c0,0-31.022-11.012-52.036-12.012
		c-20.012,0-56.034,15.007-67.043,20.017c-11.004,3.995-59.034,24.013-75.049,30.014c-15.007,6.003-68.039,20.016-98.06,13.004
		c-30.019-5.991-88.057-36.017-103.063-43.018c-15.013-8.005-70.048-26.019-77.051-23.022
		C183.862,703.19,133.831,718.207,133.831,718.207"/>
	<path fill="#FFFFFE" d="M652.164,127.825c-1.004-4.002-6.009-6.001-30.021-6.001c-9.005,0-17.013,0-17.013,0h-1
		c-15.009,0.997-28.018,5-41.026,10.003c17.013-20.012,42.026-32.02,58.038-38.024c1.001-0.998,3-2,3-2
		c1.002-2.003,2.003-3,1.002-5.004c-2.001-3.001-9.006-4.002-13.01-4.002c-4.999,0-12.006,1.001-21.013,1.999
		c-5.001,1.002-9.005,2.003-13.006,2.003v1.001c-18.013,4.003-35.024,11.006-49.033,23.014c-2,1.001-4.001,3.004-6.001,4.002
		l11.006-19.011c7.003-10.007,13.007-19.014,20.011-27.019l1.001-1.999c0-2.002,2.004-4.002,1.001-5.003
		c-1.001-1.002-2.002-2.003-4.001-2.003c-2.003,0-9.008,1.001-35.025,21.013c-24.013,17.011-45.026,39.026-61.036,64.042
		c-6.004,11.006-16.009,31.021-20.012,45.027c0-0.998,0-2-1.001-4.002c0-6.002-1.002-12.007-1.002-19.011
		c0-8.004,1.002-16.008,1.002-21.013c0-2.004,0-7.003-2.003-7.003c-2.001-1-5.001,3.002-6.002,5
		c-13.008,29.02-16.011,54.035-17.011,68.045l-4.004,42.028c-1.001,3.001-3.001,17.011-3.001,17.011
		c-4.006-6.006-6.005-10.008-9.005-17.011l-4.004-7.003h-1.001c-6.006-8.005-12.007-11.009-19.015-16.014
		c-10.004-6.001-22.011-13.004-41.025-34.018c-10.003-12.012-22.011-36.026-25.016-52.036c-8.005-32.02-7.004-71.046,2.004-106.065
		c0-2.003,1.001-6.006,0-8.009c-1.002-0.998-2.004-1.999-4.004-1.999c-3.004,0-5.004,3-22.014,30.02
		c-11.006,18.008-19.01,38.024-23.013,59.037c-1.002,4.004-1.002,9.003-2.004,13.005c-4.003-10.003-7.002-20.011-9.006-30.016
		c-6.003-22.015-8.005-45.032-6.003-65.043c0.998-2,0.998-5.004,0-6.001c-1-1.001-2.002-1.001-3.004-1.001
		c-4.003,0-10.004,5.003-22.012,37.022c-11.009,30.02-15.011,58.037-11.009,88.056c-13.009-16.009-19.011-40.023-24.015-61.037
		c-2-6.006-3-11.011-4.002-16.014c-1.002-1.999-3.001-8.005-5.005-7.003h-1.001v1.001l-1.999,6.001
		c-1.002,1.002-2.003,3.005-2.003,6.006c0,1.001,0,1.999,0,3.001c0,2.002,0,3.005,0,4.002
		c-1.999,16.009-3.001,57.039,18.012,100.063l1.002,1.002l1.003,2.003c1.997,5,4.999,10.004,7.002,14.006
		c1.002,1.003,1.999,3.001,3.001,4.003c2.003,5.004,5.004,8.004,8.005,11.01c-12.007-2.004-30.02-6.006-39.022-7.006
		c-2.003,0-3.005,1-4.003,3.004c-1.001,1.998,0,4.002,0.998,5c8.005,4.003,21.014,16.013,34.022,29.018l24.014,22.011l3.005,3.006
		c7.004,7.01,16.011,15.007,23.014,22.009l-16.01-1.994c-1.999,0-4.002,1.001-4.002,3.004c-1.002,0.993-1.002,2.997,1.001,5
		l38.025,31.018l17.011,13.004l0.997,1.01l29.019,23.013c0,0.992,1.001,0.992,2.004,0.992h8.005
		c-16.01,7.003-31.021,7.003-47.031,1.01c-13.009-4.006-26.018-11.01-36.021-19.021c-2.004-1.996-6.007-3.998-7.004-2.998
		c-2.003,2.003-1,6.009,0,8.005c3,8.004,9.002,15.008,16.011,21.017c-20.013-3.004-39.027-8.013-59.039-18.012
		c-2.003,0-5.005-2.003-7.003-1c-1.002,1,0,6,0.997,8.004c10.008,14.006,17.012,24.014,25.017,32.019
		c8.004,8.005,18.013,16.009,23.018,20.017c1,0,4,2.003,16.008,2.003c5.005,0,10.009-1.01,14.012-1.01h1.998
		c-12.008,4.006-24.014,6.011-34.021,5.009c-2-1.003-7.004,0-7.004,1.994c-1.002,2.004,3.001,5.008,5.004,6.01
		c15.008,4.999,30.021,9.006,43.025,11.011c5.004,0.991,18.013,3.998,32.021,4.999c1.002,1.001,2,1.001,3.002,0
		c1.002,1.001,2.003,1.001,3.001,1.001c5.003,0,11.01,1.002,16.01,1.002c4.006,0,9.005-1.002,13.008-1.002l1.002,1.002l2.003,5.001
		c-1.001,0-1.001,1.001-2.003,1.001c-1.002,2.003-1.999,3.998-1.002,5.008l6.006,9.999v2.005c-2.003,1.002-2.003,2.003-2.003,4.005
		c3.005,11.009,8.005,15.009,12.011,18.014c3.001,1.994,4.002,2.996,5,5.993c0,2.003,1.001,4.007,2.003,6.01
		c2,4.999,5.004,13.013,3.002,16.01c-2,4.006-4.004,5.001-7.004,7.003c-1.001,1.003-4.002,3.005-6.006,4.999
		c-7.003,6.011-7.003,14.016-1.999,23.021l0.998,1.001c0,0.994,2.003,2.004,4.006,2.004c2,0,3.001-2.004,3.001-3.005
		c1.999-7.012,13.009-12.011,15.009-13.005c4.002,0,7.006,0,10.008-3.004c4.001-3.999,26.018-3.999,26.018-3.999s2,0,6,0.993
		c1.004,0,2.005,1.002,3.001,1.002c0,1.002,1.003,1.002,2.004,1.002l8.005,4.006c1.002,0.994,14.011,7.998,15.007,7.998
		c1.001,1.008,8.005,11.009,9.009,11.009c2,2.003,3.004,1.002,3.004-0.994c4.001-3.013,9.001-9.007,10.004-16.018
		c2.002-6.001,1-13.004-1.999-18.005l-1.004-1.008c-1,0-3-2.005-5.003-3.999c-3.002-2.003-8.005-6.002-9.006-7.005
		c-3-3.996-5.005-8.004-6.001-12.01c0.996,0,1.997-0.994,3.001-2.004c0-0.992,1-2.003,1-2.996l-1-3.006
		c-1.004-3.005-2.005-7.003-3.001-12.01h0.996c2.005,0,4.003-1.997,4.003-5.001c0,0,0-0.993-0.998-2.003l-4.001-12.004l0.996,1.003
		c1.001,1,4.003,3.004,5.005,1.995c2.003,0,2.003-2.998,2.003-5c0.997-8.005,7.003-17.011,14.006-22.012
		c0,1.003,1.003,1.994,1.003,1.994c1,2.004,1,5.009,2.002,5.009c1.999,0,2.999-2.002,4.999-5.009
		c3.005-2.996,6.008-4.999,9.008-5.992l14.011,5.992c1,2.004,3,6.011,6.003,9.009c3.004,2.003,6.005,4.004,10.006,7.002l2.004,1.01
		h-1.001c-2.003,0.994-7.005,2.997-7.005,3.999c0,2.003,5.002,3.998,6.002,3.998c4.002,2.002,7.003,2.002,11.006,2.002
		c7.007,0,13.01-2.002,17.011-7.002c3.005-2.997,4.004-8.005,3.005-13.015c0-3.996-2.002-12.995-2.002-17.003l4.002-12.01v-1.995
		c0-6.011-2-13.014-5.005-20.016L536.089,403l-1.002-1.002c-1-1.995-2.002-3.998-3.001-6.001
		c-11.009-17.011-25.017-31.025-26.017-32.019c-1.001-1-4.002-3.004-5.004-2.003c-2.002,0-2.002,4.007-2.002,6.01
		c-0.998-2.003-5.003-6.01-6.003-7.011c-2.005-3.005-3.001-6.001-4.001-8.005c13.008-58.037,51.031-96.061,52.03-97.063
		c0-0.998,1.001-0.998,1.001-1.999c8.005-83.054,103.063-120.075,104.064-120.075l3.004-1.002
		C652.164,129.829,653.163,128.827,652.164,127.825 M437.023,489.058h1.001h-1.999H437.023z"/>
	<path fill="#221C5D" d="M393.999,768.239c-45.032,0-74.051-15.016-104.066-32.027c-17.012-9.006-34.022-18.005-54.035-25.015
		c-59.037-19.017-99.065,6-99.065,6l-3.001-5c2.004-1,42.027-27.018,104.066-6.01c20.011,7.012,38.024,16.02,54.034,25.016
		c33.021,17.021,64.042,34.021,114.073,31.026c48.029-2.996,80.052-19.007,111.068-34.023c13.009-7.003,26.018-13.013,39.026-18.012
		c1.003,0,1.999-0.993,3.003-0.993c18.013-7.011,65.039-26.026,106.068,5.992l-3.003,5.009c-39.025-30.024-84.053-12.013-101.063-6
		c-1.002,0.991-2.002,0.991-3.006,2.002c-13.008,3.998-25.014,9.998-38.023,17.003c-30.016,15.018-65.04,32.018-113.067,35.032
		C403.004,768.239,398,768.239,393.999,768.239"/>
	<path fill="#1D3584" d="M387.993,722.207l-1.002-1.004v10h1.002c3.001,0,5.002-0.993,6.006-5.001
		C393.999,723.206,391.995,722.207,387.993,722.207"/>
	<polyline fill="#1D3584" points="418.013,735.211 425.017,734.216 420.013,723.206 	"/>
	<polyline fill="#1D3584" points="318.951,717.197 321.952,705.194 312.944,714.202 	"/>
	<path fill="#1D3584" d="M198.871,657.168h-1.999l-1.002,9.997h3.001c3.005,0,5.004-0.992,5.004-3.998
		C204.877,659.169,202.878,658.159,198.871,657.168"/>
	<polyline fill="#1D3584" points="483.051,716.204 489.06,713.199 481.052,704.193 	"/>
	<path fill="#1D3584" d="M522.077,656.156c-41.025,26.024-75.047,42.034-117.073,42.034c-58.037,0-102.063-38.027-163.104-58.044
		c-61.037-21.009-130.083,13.014-130.083,13.014s22.015,22.02,23.017,61.042c0,0,41.025-26.018,102.063-6.013
		c60.039,21.019,92.059,61.043,170.112,57.035c68.039-3.997,106.063-36.017,150.095-52.025c13.004-5.01,63.036-28.02,106.065,3.998
		c4.001-38.021,25.017-62.034,25.017-62.034C636.151,618.144,553.1,636.148,522.077,656.156 M169.853,688.185
		c-11.005,1.993-19.01-3.999-21.014-15.008c-2-11.01,3.005-20.017,14.011-22.022c4.002-0.991,7.003-0.991,10.008,0v10.01
		c-2.004-1.995-4.002-1.995-7.007-1.995c-5.001,0.994-8.006,5.994-7.003,12.003c2.002,6,6.005,9.006,11.005,8.005
		c2.004-1.001,4.003-2.005,7.008-3.997l3,9.006C176.86,686.181,173.855,687.182,169.853,688.185z M203.875,687.182l-6.002-12.002
		h-2.003l-1.002,11.001l-10.004-1.001l2-36.026l14.01,1.01c9.006,0,14.01,5,14.01,13.004c0,3.998-3.004,8.005-7.006,10.01
		l7.006,13.004L203.875,687.182z M232.893,693.191l-10.004-3.014l3.002-13.006l-6.007-25.014l12.012,2.002l3,15.009l10.004-11.01
		l11.011,3.005l-19.015,19.014L232.893,693.191z M265.914,680.178c7.007,6.003,9.007,10,7.007,16.011
		c-4.002,8.005-11.009,8.005-18.013,5c-5.004-2.004-8.005-5-11.005-7.997l5-7.011c3.005,3.004,6.005,6,10.008,8.004
		c2.004,1.002,3.001,0,4.002-0.993c1.001-1.011,0-3.014-4.002-6.01c-6.003-5.001-8.006-9.006-5.005-15.009
		c3.006-7.01,9.007-8.004,16.011-5.008c5.004,2.004,8.009,4.007,10.008,7.003l-5.004,7.004c-2-2.996-5.004-4.999-8.005-5.992
		c-1.999-1.012-3.002-1.012-4.003,0C262.913,676.173,262.913,677.172,265.914,680.178z M277.926,711.197l13.005-24.016l-9.003-5.001
		l4.002-8.013l26.014,14.017l-3.001,9.004l-9.006-5.008l-13.009,25.017L277.926,711.197z M326.955,736.212l-10.008-3.998
		l1.002-6.012l-11.006-6l-4.003,5.009l-9.006-5.009l28.018-27.011l10.008,5.993L326.955,736.212z M354.973,746.22l-22.017-7.004
		l11.011-35.022l11.006,3.996l-9.008,26.026l10.009,2.998L354.973,746.22z M387.993,739.216h-2v11.012h-11.009l1.001-37.028
		l13.009,1.003c10.004,0,15.009,4.005,15.009,13.004C404.003,735.211,396.999,740.21,387.993,739.216z M431.021,748.225l-3-7.005
		l-11.009,2.003l-1.003,5.993l-11.005,2.005l8.004-38.021l12.009-2.002l17.009,33.02L431.021,748.225z M449.029,743.223
		l-10.004-35.033l10.004-2.995l8.009,26.009l10.004-2.997l4.004,9.008L449.029,743.223z M499.063,725.211l-4.004-5.009
		l-11.005,5.009l1.001,5.992l-10.009,4.008l-3-39.022l11.004-4.999l26.019,28.013L499.063,725.211z M527.082,711.197
		c-10.009,5.007-19.013,2.002-24.015-9.007c-5.002-10.01-2.002-20.01,8.006-25.019c3-0.999,6-1.992,9.002-1.992l3.006,9.006
		c-2.004,0-5.005,0-7.009,0.994c-4.999,2.002-6,7.001-4.001,13.011c3.006,5,8.004,7.004,13.01,5c2.001-1,4.001-2.996,5.001-6.002
		l5.005,8.006C533.085,707.198,531.086,710.194,527.082,711.197z M540.091,704.193l-14.01-33.021l23.013-10.008l3.005,8.005
		l-13.01,4.999l2.001,5.009l10.008-3.997l4.001,7.995l-10.008,4.007l2.003,6.01l13.009-6.01l3.001,8.005L540.091,704.193z
		 M587.12,688.185l-10.005,1.993l-8.007-36.018l23.014-3.997l2.004,7.996l-12.01,3.005l1,6.001l8.005-2.002l4.003,8.014
		l-10.004,2.003L587.12,688.185z M602.13,686.181c-2.002,0-5.005-1.995-5.005-5.009c0-2.996,2.001-4.999,5.005-5.992
		c2,0,5.005,1.992,5.005,4.998C607.135,683.175,605.13,685.18,602.13,686.181z M637.149,662.167
		c-1.999-2.004-4.002-4.008-7.004-4.008c-5.002,0-9.004,3.005-10.007,9.006c0,7.003,3.004,11.011,8.009,11.011c3,0,5,0,8.004-1.004
		v8.008c-3.004,2.002-6.006,2.002-11.008,2.002c-11.006-1.001-17.011-9.006-15.009-21.009c1.002-11.01,9.007-18.015,20.011-17.02
		c4.005,1.01,7.004,2.001,9.01,3.005L637.149,662.167z M645.154,691.189c-3,0-5.999-2.005-5.999-5.009
		c0-3.006,1.997-5.009,5.001-6.003c3.003,0,5.003,2.003,5.003,5.002C650.159,688.185,648.159,691.189,645.154,691.189z"/>
	<path fill="#C81529" d="M637.149,741.22l-4.002-3.005c-3.002-2.003-10.005-3.004-16.009-2.003c-1.001,0-3.001,0-4.001,1.002
		c-4.005,1.001-9.008,2.002-12.009-1.002c-2.003-1.001-3-3.998-3-7.004s0.997-5.006,4.001-7.001c9.007-8.005,38.025-1.004,41.025,0
		c3,0.999,12.009,1.995,16.01,0c1.002-1.004,1.002-2.005,1.002-4c3.001-33.027,18.015-55.04,24.014-62.051
		c-50.03-33.013-129.082-17.003-160.104,2.003c-36.021,22.019-74.044,43.029-119.073,43.029h-1.001
		c-37.023,0-69.043-16.009-102.064-32.02c-19.014-9.006-39.025-19.006-61.041-27.021c-51.029-17.003-110.067,6.01-125.078,12.012
		c6.004,8.007,21.013,28.021,22.015,60.042c0,2.002,1,2.995,2.003,4.005c4.002,1.995,12.007,0.995,15.009,0.995
		c4.002-0.995,33.019-7.005,42.026,1c1.999,2.005,3.001,5.009,3.001,8.004c0,2.997-1.002,5.001-3.001,7.005
		c-3.001,2.003-8.005,1.001-12.008,0c-1.002-0.995-3-0.995-4.002-0.995c-6.006-1.009-13.009-1.009-16.01,0.995l-5.004,3.004v-14.013
		c-1.001,0-2.004,0-4.002,0c-1.001,1.009-13.009,3.004-20.012-1.995c-2.004-2.005-3.005-4-3.005-7.014
		c-2-38.021-23.013-59.037-23.013-60.03l-3.001-2.003l3.001-2.006c3-2.001,72.047-34.021,133.084-14.005
		c22.016,8.006,42.026,17.011,61.037,27.02c33.021,16.009,64.043,31.018,100.064,31.018c40.026,0,74.049-16.01,117.074-42.026
		c33.021-20.016,117.074-37.019,169.109,0l1.999,2.003l-1.999,2.005c0,0-20.014,24.004-24.018,62.034c0,3.005-1.999,6.009-4.001,7
		c-7.004,5.001-19.013,2.004-20.014,1.004c-1.002,0-1.999,0-4.003,0 M616.138,724.202c-5.001,0-9.003,1.009-11.008,2
		c-1,1.004-1,2.004-1,3.006s0,1.995,0,3.006c2.004,0,5.003,0,8.004-1.011c1.004,0,3.006-0.993,4.004-0.993
		c4.001,0,11.008-1.002,16.013,0.993l0.997-5.992C627.146,725.211,621.142,724.202,616.138,724.202z M173.855,727.206
		c3.005,0,6.005,1,8.009,1c1.998,1.002,3,1.002,4.003,1.002c3,1.002,7.002,1.995,8.004,1.002c0,0,0-1.002,0-2.004
		c0.997-2.004,0-2.004-1.002-2.995c-4.002-4.008-16.009-4.008-27.019-2.005v5C167.854,728.206,170.854,727.206,173.855,727.206z"/>
	<path fill="#C81529" d="M393.999,769.232c-45.032,0-74.051-16.009-104.066-32.019c-17.012-9.008-34.022-18.012-54.035-25.017
		c-59.037-20.017-99.065,5-99.065,5l-3.001-3.998c2.004-1.002,42.027-27.019,104.066-7.012
		c20.011,7.012,38.024,17.019,54.034,26.026c33.021,17.002,64.042,33.011,114.073,30.016c48.029-2.003,80.052-18.013,111.068-34.023
		c13.009-5.999,26.018-12.002,39.026-17.009c1.003-1.003,1.999-1.003,3.003-1.996c18.013-7.011,65.039-25.016,106.068,7.003
		l-3.003,3.998c-39.025-30.024-84.053-12.013-101.063-5.009c-1.002,0-2.002,1.011-3.006,1.011
		c-13.008,4.999-25.014,11.002-38.023,17.003c-30.016,15.018-65.04,32.018-113.067,35.032
		C403.004,768.239,398,769.232,393.999,769.232"/>
	<path fill="#C81529" d="M193.871,726.202c-13.009-12-19.015-22.009-19.015-23.012l5.004-2.002c0,0,5.004,10.009,18.013,20.015"/>
	<path fill="#C81529" d="M604.13,727.206l-3.001-4.999c15.009-10.01,17.01-22.013,17.01-22.013l5.004,0.994
		C623.143,701.188,621.142,715.193,604.13,727.206"/>
	<path fill="#252F90" d="M464.041,424.01l1.002,1.01C465.043,425.02,465.043,425.02,464.041,424.01"/>
	<path fill="#252F90" d="M434.022,201.872c-1.001-4.003-2.001-10.004-3.002-15.007C432.021,190.866,433.021,196.872,434.022,201.872
		"/>
	<g>
		<defs>
			<rect id="SVGID_5_" x="432.021" y="187.864" width="3.003" height="15.008"/>
		</defs>
		<clipPath id="SVGID_6_">
			<use xlink:href="#SVGID_5_"  overflow="visible"/>
		</clipPath>
		<path clip-path="url(#SVGID_6_)" fill="#FFFFFE" d="M434.022,201.872c-1.001-4.003-2.001-10.004-3.002-15.007
			C432.021,190.866,433.021,196.872,434.022,201.872"/>
	</g>
	<path fill="#EEEDEA" d="M475.047,356.975C475.047,355.966,475.047,356.975,475.047,356.975"/>
	<g>
		<defs>
			<rect id="SVGID_7_" x="164.853" y="26.76" width="375.238" height="539.349"/>
		</defs>
		<clipPath id="SVGID_8_">
			<use xlink:href="#SVGID_7_"  overflow="visible"/>
		</clipPath>
		<path clip-path="url(#SVGID_8_)" fill="#1D3584" d="M533.085,407.007v-1.01c-0.999,0-0.999-0.993-1.999-1.994
			c0-2.005-2.004-4-3.001-6.003c-10.009-17.02-25.018-31.025-25.018-31.025v4.006l0.997,7.003c0,0-48.027-28.012-69.04-54.038
			c-16.011-20.008-34.021-42.02-45.029-68.041l-4.002-7.002c-14.011-16.01-28.021-13.009-60.039-50.033
			c-11.006-12.006-23.014-37.023-26.018-53.033c-8.005-35.023-7.003-74.045,2.002-108.068c0,0,4.004-12.007-18.013,23.013
			c-11.005,17.012-19.009,37.023-23.011,57.035c-2.004,11.01-2.004,21.018-2.004,31.022c-7.003-15.007-13.009-31.022-17.012-47.031
			c-6.002-22.011-8.005-45.028-6.002-67.043c0,0-4.002-3-17.011,32.023c-13.009,36.022-15.012,66.042-9.007,100.063
			c-25.016-21.013-30.02-59.038-38.023-89.057l-1.003,1.001c0,0,0,1.999-1.001,4.002c0,3.001,0,5.003,0,7.003
			c-0.997,15.011-3.001,56.037,18.012,98.063c1.003,1.002,1.003,2,1.003,3.001c3.001,7.003,7.003,12.007,10.004,18.013
			c5.004,9.003,10.008,12.007,16.013,20.012c-1.001,0-37.023-8.004-50.031-10.008c8.005,6.006,22.012,19.015,39.022,34.023
			c0,0,50.031,4.002,88.057,33.02c0,0-33.021-16.008-74.046-19.009c3,1.998,5.003,4.002,7.003,6.005
			c12.007,11.009,24.015,22.011,34.022,31.017l-30.02-3.005l42.025,34.022l8.006,1.002c0,0,14.011-1.002,28.021,2.002
			c15.009,3.999,23.013,9.007,23.013,9.007c-8.004-3.005-22.015-4.008-31.021-3.005c-6.001,0-9.002,2.004-14.007,2.004l3.002,2.002
			l26.018,22.011h24.014c-20.012,13.005-40.024,18.013-65.04,9.006c-13.009-3.998-26.018-11.009-37.023-20.008
			c4.002,11.002,15.008,20.008,23.014,28.013c-27.016-2.003-48.029-8.005-72.047-19.014c9.006,15.008,16.014,24.013,24.018,32.026
			c7.004,7.997,17.012,16.011,22.011,19.006c3.005,2.004,18.013,2.004,28.022,1.002c1.998,0,4.002-1.002,4.999-1.002
			c2.003,0,5.003-1.001,8.005-1.001c10.007-3.005,22.015-6.002,21.014-6.002c-4.002,2.997-9.003,6.002-14.008,8.005
			c-2.999,2.005-6.004,3.006-9.006,5.009c-14.011,5.993-29.018,10-43.027,7.997c15.012,5.009,32.023,9.005,48.032,11.009
			c6.001,1.002,8.004,1.002,13.009-2.004c7.002-2.997,14.006-6.001,19.01-9.005c3.001-0.995,6.006-2.996,9.007-3.998
			c4.003-2.004,9.006-5.009,13.009-7.003c-2.004,1.994-5.004,4.999-8.005,7.003c-1.001,1.994-3.005,3.003-5.004,3.998
			c-5.005,5.009-12.007,10.008-19.015,16.008c19.015,1.012,30.02,4.008,55.036-3.997c0,0-5.004,3.997-12.007,8.005l7.003,15.008
			l-8.005-3.998l5.003,10c0,0,4.003,5.009,9.008,9.006l2.002,5.007c-4.002-0.999-9.006-5.007-12.011-7.01
			c4.003,17.02,14.01,13.013,17.012,23.021c2.003,7.002,9.007,20.008,5.004,26.018c-5.004,8.005-8.006,7.002-15.008,13.005
			c-7.008,7.011-1.002,16.017,0,19.016c1.999-8.006,8.004-14.008,11.006-15.009c6.005-1.002,12.007,0,15.011-3.006
			c8.005-8.003,27.016-10,40.024-2.004c-6.006-9.999-9.005-9.999-21.014-13.003c21.014,1.001,22.015,6.001,33.021,18.013
			c0-7.013-5.004-16.019-10.008-20.016c-2-1.003-18.01-3.006-34.02-5.002c-6.005,0-8.005-8.004-9.006-11.01
			c1.001,0,5.004,3.006,10.004,2.006c-0.998-5.01-3-12.012-4.003-16.011c2.003,1.002,3.005,1.994,7.007,1.994l-2.002-9.005
			c-1.002-7.998-4.002-13.006,3.001-25.017c5.004,3.005,6.005,4.007,8.004,6.009c0,0,2.005,7.005,3.005,11.01
			c1.001,0.994,8.006,7.004,8.006,7.998L398,486.053c0,0,4.003,10.008,12.009,15.009c5.004,2.002,9.005,4.006,11.004,6.01
			c1.002,2.002,4.004,7.002,2.003,9.998c-1.001,2.003-7.007-7.996-21.013,4.008c9.006,0,21.013,2.996,23.014,6.002
			c3.004,3.004,6.004,7.01,8.005,8.004c10.008,6.01,11.008,9.006,10.008,21.009c6-4.999,4.001-17.002,4.001-20.006
			c8.005,10.007,6.007,23.019,3.003,28.019c7.005-3.004,14.008-17.01,7.005-28.019c-2.003-1.003-12.011-9.007-14.009-11.003
			c-6.006-6.011-7.004-13.013-10.008-20.016c2.003,0,5.003,0.993,6.004,0.993c-1.001-3.999-2.002-10-3-14.999v-3.007
			c0-0.999,0-0.999-1.001-2.002v-1.002c0-0.993,0-2.003,0-2.997c3,2.997,6,2.997,6,2.997l-6-15.007c0-2.004,0-3.005,0-3.999
			c1.001-1.01,1.001-2.003,1.001-3.005v-1.003c0-1,0.998-2.001,0.998-2.996v-1.008c1.001-0.995,1.001-2.006,2.002-2.998
			c-3,6.002,5.004,14.007,5.004,14.007c0.998-13.015,12.008-24.015,21.014-29.021c0,4.005,1.999,7.01,1.999,7.01
			c2.004-6.002,8.005-8.006,12.008-9.005l8.005,3.003l8.005,3.999h2.004c0,0,1.002,7.004,5.004,10.008
			c3.001,2.003,7.002,4.006,15.006,10c0,2.004-1.996,4.007-6,5.009c12.008,5.007,27.016,0,25.016-14.017
			c-1.002-3.996-3.004-17.003-3.004-17.003l3.004-9.004l0.997-3.006l1.003-1.995C538.089,419.009,536.089,413.008,533.085,407.007
			 M490.06,426.013l-7.009-12.003l-16.009-8.013l13.01,16.019c-7.005-4.008-19.01-11.011-32.02-13.005
			c0,0,11.006,9.998,16.009,14.999c1.002,1.01,1.002,1.01,1.002,1.01l-1.002-1.01c-1-0.993-5.003-1.994-13.009-2.997
			c-8.003,0-16.008-2.004-25.015-7.003c0,0,2.003,2.997,5.003,4.999v1.002c4.004,2.005,8.005,5.009,14.007,7.004l8.01,3.006
			c-5.005,2.001-9.008,4.005-12.013,6c-6,5.008-10.004,11.01-12.007,16.011c-4.001,10.006-7.003,28.021-4.001,38.021
			c-9.008-11.001-16.009-26.01-12.009-43.021c-13.009,7.003-22.014,5.001-31.017,3.998c-4.003,4.999-9.007,19.016-10.009,30.017
			c-1-0.993-2.003-1.994-2.003-3.999c-4.002-7.002-5-15.009-6.001-23.013c0-3.005,0-6,0-9.006l30.021-21.018l-43.029-3.999
			l2.003-1.002c17.007-12.002,37.022-20.015,58.036-19.006c0.998,0,3.003,0,5,0c-14.006-7.01-37.022-7.01-51.029-2.003
			c-18.013,6.003-26.017,6.003-46.028,2.003c21.013-4.006,20.012-5.008,33.021-10.015c10.004-5.994,30.02-17.002,54.033-12.003
			c-6.006-2.997-11.01-4.999-18.012-7.003c-8.005-2.003-19.011-3.004-32.02-1.001c0,0,9.006-9.006,25.017-11.002
			c-22.017-20.016-86.058-50.031-86.058-50.031c91.061,21.009,129.083,64.039,135.088,71.041l1,0.993
			c-3-7.995-23.017-55.032-78.048-89.054c-8.009-5-16.014-9.006-24.019-13.004c-13.009-7.002-24.014-15.008-35.02-24.015
			c-102.066-81.053-64.042-194.126-64.042-194.126c-3.001,26.018,1.003,52.035,9.007,75.048
			c4.002,14.01,10.004,27.019,17.011,39.026c6.002,13.008,13.009,24.014,19.011,31.018c13.009,16.014,28.02,29.019,46.029,39.026
			c0,0-78.049-53.032-34.022-165.103c-2,4.002-32.02,95.06,82.055,173.109c3,2.002,4.002,2.002,5,3
			c15.012,37.023,74.05,95.061,85.056,123.08c-1.002-5.008-1.002-11.009-2-17.011c7.003,7.003,12.008,16.01,15.009,25.016
			c0-6.01,1-14.005,1-20.016c9.009,5.009,24.017,16.01,35.022,29.022v-1.002l-1-1.001v1.001h1v1.002v-9.006l-1-2.996
			c0,0,18.012,21.01,24.017,38.021c0,1.001,1,1.994,1,3.004c0,3.999-1,7.002-2.004,9.006c0,1.995-3,4.999-4.001,5.995
			c0-0.996,1.001-1.995,1.001-4c0-1.001-1.001-3.004-1.001-5.008c-1-1.994-2.004-3.998-2.004-5.993c-0.996-1.01-2-2.003-2-2.003
			c1.004,3.998,1.004,6.002,0,9.005c-1,3.999-2.999,5.001-2.999,5.001l-1.002-2.003c0-0.994-1.003-2.998-1.003-4.007
			c-1.996-5-9.004-19.007-12.005-24.006c-2.001,2.996,1.001,10,1.001,10c1,2.002,3,7.003,3,7.003c-2,4.006,1.003,9.007,5.004,11.01
			c-1.002,1.001-5.004,0-7.004-0.994c0,1.995,4.004,5.995,6.002,7.996C508.069,440.021,496.061,431.013,490.06,426.013z
			 M516.072,460.036l-4.999-4.009l-4.004-2.995l-1-2.004v-0.992l-1.001-4.008c4.001,2.005,7.003,7.004,9.005,9.999l3,5.01
			L516.072,460.036z M532.086,463.04c-2.004,1.995-4.001,3.999-7.005,5c-3.004,1.002-6.003,2.004-8.008,1.002h1.003
			c6.001-4.007,3.001-11.009-2.999-18.014h-1.004l-13.008-12.004l-1.001-0.999h1.001l2.002,0.999l7.005,4h1.001l3,2.003l3,2.003
			c3.002-1.002,7.004-2.003,8.008-2.003c2.001,0,3.004-1.002,4.001-2.003C529.082,444.025,535.087,459.041,532.086,463.04z"/>
	</g>
	<path fill="#1D3584" d="M605.13,125.825h1.004c-20.014,2-39.027,7.004-55.036,17.012c13.01-25.017,42.026-43.029,68.044-53.037
		c0,0,3.001-5.004-28.021,0c-4.001,0-8.005,1.002-12.009,2.003c-17.01,3-34.021,11.006-48.026,22.015
		c-7.009,6.001-14.013,13.005-20.013,21.01c-27.019,35.022-36.026,66.044-36.026,66.044s-3-45.031,54.035-105.068
		c7.007-11.009,14.009-21.013,22.016-30.02c0,0,1.001-7.003-32.02,18.012c-23.018,17.011-44.031,38.026-59.04,63.041
		c-5.003,9.003-17.009,31.018-20.01,45.028v1.001c0,0,0,9.003,1.997,20.012c2.004,14.007,7.004,33.021,7.004,33.021
		c-3-8.004-10.004-25.016-13.004-33.021c-1.001-4.002-2.003-8.004-2.003-11.009c-1.001-1.999-1.001-4.003-1.001-6.001
		c-1-2.003-1-3.001-1-4.002c0-2.004-1.001-4.003-1.001-5.003c-1-7.004-1-13.009-1-20.014c0-8.004,0-16.008,1-21.013
		c-15.012,35.021-17.009,61.037-17.009,72.048c-1.004,7.003-1.004,12.006-1.004,16.009c4.004,11.005,11.008,26.013,23.018,45.028
		c0,0-11.009-7.002-24.019-30.02c-0.998,5.004-1.998,11.004-4.003,20.011c15.012,25.016,30.021,45.033,44.029,60.042v-30.026
		c4.004,4.008,8.005,8.014,10.005,11.011c2.003-10,5.004-21.011,9.008-34.022c27.02-78.049,58.036-102.063,58.036-102.063
		c-29.018,45.027-55.037,135.092-54.035,178.113c6.005,3.998,11.01,8.004,15.013,11.009c-3.005-3.005-4.003-7.011-5.004-10.009
		c13.01-60.031,53.033-100.063,53.033-100.063c8.004-86.055,106.067-123.077,106.067-123.077
		C652.164,123.823,605.13,125.825,605.13,125.825"/>
	<path fill="#C9C8C2" d="M620.139,625.146v-49.036c-4.999,4.006-10.004,7.002-15.009,10.006v15.009h-7.001v-10
		c-32.025,21.01-48.033,24.006-48.033,24.006c22.016-11,37.024-22.001,48.033-31.01v-19.021
		c-39.026,34.021-74.052,51.043-87.056,57.043c0,1.002,0,4,0,8.005h67.042c13.006-3.004,27.015-4.005,42.023-3.004"/>
	<path fill="#999692" d="M559.103,633.145c-10.009,3.004-20.014,6.009-28.017,10.015v-10.015"/>
	<path fill="#999692" d="M475.047,674.168c-3,2.005-7.005,4.008-9.006,4.008v-30.018h9.006v21.011"/>
	<rect x="466.041" y="621.141" fill="#999692" width="9.006" height="24.015"/>
	<path fill="#999692" d="M507.069,655.163v-7.005h-8.006v14.009c2.002-2.004,5.001-2.998,8.006-4.999"/>
	<rect x="499.063" y="621.141" fill="#999692" width="8.006" height="24.015"/>
	<path fill="#999692" d="M485.056,664.169v-16.011h-6.006v25.019c2.002-1.004,4.001-2.005,6.006-3.006"/>
	<rect x="479.05" y="621.141" fill="#999692" width="6.006" height="24.015"/>
	<rect x="489.06" y="621.141" fill="#999692" width="6" height="24.015"/>
	<path fill="#999692" d="M495.06,662.167v-14.009h-6v20.019c1.996-1.012,4.001-3.014,6-4.008"/>
	<rect x="466.041" y="602.127" fill="#999692" width="41.028" height="16.017"/>
	<path fill="#999692" d="M301.938,658.159c-3.004-2.003-6.005-2.996-9.005-3.999v-6.002h9.005v4"/>
	<rect x="292.934" y="621.141" fill="#999692" width="9.005" height="24.015"/>
	<path fill="#999692" d="M324.952,669.169c3.005,2.003,6.006,3.004,9.006,4.008v-25.019h-9.006v7.005"/>
	<rect x="325.954" y="621.141" fill="#999692" width="8.004" height="24.015"/>
	<rect x="304.94" y="621.141" fill="#999692" width="7.003" height="24.015"/>
	<rect x="315.945" y="621.141" fill="#999692" width="6.007" height="24.015"/>
	<rect x="292.934" y="602.127" fill="#999692" width="41.024" height="16.017"/>
	<path fill="#999692" d="M315.945,665.163c1.002,1.01,4.003,2.002,6.007,3.014v-20.019h-7.004v15.009"/>
	<path fill="#999692" d="M282.925,649.153c2.003,1.01,4.003,2.001,6.006,3.005v-19.014h-6.006v13.011"/>
	<path fill="#999692" d="M304.94,660.163h2.003c0.998,1.001,3,2.004,5,3.004v-15.009h-7.003v10.001"/>
	<path fill="#C9C8C2" d="M181.864,607.134v-31.024c5,4.006,10.004,7.002,14.006,10.006v15.009h8.005v-10
		c32.022,21.01,47.03,24.006,47.03,24.006c-21.013-11-37.022-22.001-47.03-31.01v-19.021c37.022,32.027,71.046,49.038,85.056,56.042
		v9.006c0,0-57.035,0-58.035,0c-17.013-4.005-34.023-4.005-49.031-3.004"/>
	<path fill="#999692" d="M268.919,643.159c-8.004-3.013-19.015-8.014-25.016-10.015h25.016"/>
	<path fill="#999692" d="M272.921,642.148v-9.004h6.002v14.014c-0.997,0-3.001-1.003-6.002-3.004"/>
	<path fill="#999692" d="M517.073,648.158v-15.014h-6v22.019c1.998-1.003,4.004-3.005,6-4.009"/>
	<path fill="#999692" d="M527.082,643.159v-10.015h-6.005v15.014c2.004-1,4.004-2.003,6.005-3.003"/>
	<path fill="#999692" d="M462.038,618.144v-12.02c0-34.014-28.016-62.035-62.039-62.035c-35.02,0-62.038,28.021-62.038,62.035v12.02
		h10.008c-1.002-4.007-1.002-7.011-1.002-11.01c0-29.021,24.016-52.035,52.031-52.035c29.022,0,53.035,23.014,53.035,52.035
		c0,3.999-1.001,7.003-1.001,11.01"/>
	<path fill="#C9C8C2" d="M195.87,572.11v-14.014l-14.006-14.008v16.01c1.998,3.005,6,9.007,14.006,17.012"/>
	<path fill="#C9C8C2" d="M620.139,560.099c-2,3.005-7.001,9.007-15.009,17.012v-19.014l15.009-14.008v11.01"/>
	<path fill="#999692" d="M388.994,667.165c-1.001,0-2.003,1.012-2.003,3.006c0,2.002,0,3.006,2.003,3.006c2,0,3.001,0,4.001-1.004
		C392.995,669.169,390.994,667.165,388.994,667.165"/>
	<path fill="#999692" d="M405.004,667.165c-2,0-3.001,2.004-3.001,6.012c0,3.995,1.001,6,3.001,6c2.004,0,3-2.005,3-6
		C408.004,669.169,407.008,667.165,405.004,667.165"/>
	<path fill="#999692" d="M450.033,622.142c-6.004,22.013-27.018,38.021-51.035,38.021c-24.014,0-44.025-16.009-50.031-39.022
		h-11.006v54.039c21.013,9.006,43.029,16.01,66.042,16.01h1.001c20.013,0,39.025-4.008,57.034-11.012v-59.037 M379.988,681.172
		h-3.001v-12.995l-4.003,0.992v-2.004l4.003-2.002h3.001V681.172z M385.993,682.181v-3.004c3.001-1.001,6.002-2.005,6.002-5.009
		c-1.001,1.012-2,1.012-4.002,1.012c-2,0-4.002-1.012-4.002-5.009c0-3.006,2.002-5.008,5.003-5.008c4.001,0,6.001,2.002,6.001,7.01
		C394.995,677.172,391.995,681.172,385.993,682.181z M405.004,682.181c-4.001,0-6.006-3.004-6.006-9.004
		c0-5,2.005-8.014,6.006-8.014c4.004,0,7.003,3.014,7.003,8.014C412.007,679.177,409.008,682.181,405.004,682.181z M420.013,682.181
		c-2,0-4.004-1.009-5-2.003v-2.002c0.996,0,3,1.001,5,1.001c1,0,3.003-1.001,3.003-3.004c0-0.993-1.001-2.005-3.003-2.005
		c-0.999,0-2,0-3.001,0h-1.999l0.996-9.005h9.008v3.014h-7.004v2.995c1.001,0,1.001,0,2,0c4.003,0,6.005,2.005,6.005,5.001
		C426.018,680.178,423.016,682.181,420.013,682.181z"/>
	<path fill="#999692" d="M167.854,537.085c1.999,0,4.003,1.003,6.002,2.005v27.019c-1.999,0-4.003-1.01-6.002-1.01"/>
	<path fill="#999692" d="M163.852,564.104c-2.004,0-4.003,0-6.007,0v-28.019c1.003,0,2.004,0,3.005,0c0.998,0,2,0,3.002,0"/>
	<path fill="#999692" d="M147.841,564.104c2,0,4.003,0,6.002,0v-28.019c-1.999,0-4.002,0-6.002,0"/>
	<path fill="#999692" d="M137.834,566.108c2.003,0,4.002-1.01,6.005-1.01v-28.014c-2.003,0-4.002,1.003-6.005,2.005"/>
	<path fill="#999692" d="M131.832,514.073c1.999,0,3.001-1,5-1v3.003"/>
	<path fill="#999692" d="M153.843,524.073c-1.999,0-4.002,0-6.002,1.01v-15.016c2,0,4.003,0,6.002,0"/>
	<path fill="#999692" d="M163.852,510.067c-2.004,0-4.003,0-6.007,0v14.006c2.004,0,4.003,0,6.007,1.01"/>
	<path fill="#999692" d="M167.854,511.067c1.999,0,4.003,0,6.002,1.003v15.009c-1.999-1.003-4.003-1.003-6.002-1.996"/>
	<path fill="#999692" d="M143.839,525.083c-2.003,0.993-4.002,0.993-6.005,1.996V512.07c2.003-1.003,4.002-1.003,6.005-1.003"/>
	<path fill="#999692" d="M174.856,513.073c2.004,0,3.004,1,5.004,1l-5.004,2.003"/>
	<path fill="#999692" d="M131.832,541.093c1.999-1.011,3.001-2.003,5-2.003v2.995"/>
	<path fill="#999692" d="M174.856,539.09c2.004,0,3.004,0.992,5.004,2.003l-5.004,0.992"/>
	<path fill="#999692" d="M179.86,505.067c-7.003-3.006-15.008-5-24.014-5c-9.008,0-17.013,1.994-24.015,5v6
		c7.002-3.004,15.007-5.007,24.015-5.007c9.006,0,17.011,2.003,24.014,5.007"/>
	<path fill="#999692" d="M179.86,531.076c-7.003-2.996-15.008-3.997-24.014-3.997c-9.008,0-17.013,1.001-24.015,3.997v7.012
		c7.002-3.005,15.007-5.007,24.015-5.007c9.006,0,17.011,2.002,24.014,5.007"/>
	<path fill="#999692" d="M179.86,502.062c-7.003-3.005-15.008-4.999-24.014-4.999c-9.008,0-17.013,1.994-24.015,4.999l19.011-18.004
		c2.003,0,3,0,5.004,0c1.998,0,3.001,0,5.003,0"/>
	<path fill="#999692" d="M150.843,479.051v3.003c2.003,0,3,0,5.004,0c1.998,0,3.001,0,5.003,0v-3.003
		c0-1.002-3.005-1.002-3.005-1.002h-4.002C152.846,478.049,150.843,478.049,150.843,479.051"/>
	<path fill="#999692" d="M173.855,597.126c-1.999-1.001-4.003-1.001-6.002-2.004v-27.011c1.999,0,4.003,0.994,6.002,1.996"/>
	<path fill="#999692" d="M163.852,595.122c-2.004-1.002-4.003-1.002-6.007-1.002v-27.018c2.004,0,4.003,0,6.007,0"/>
	<path fill="#999692" d="M153.843,594.12c-1.999,0-4.002,0-6.002,1.002v-28.02c2,0,4.003,0,6.002,0"/>
	<path fill="#999692" d="M143.839,595.122c-2.003,1.003-4.002,1.003-6.005,2.004v-27.019c2.003-1.002,4.002-1.996,6.005-1.996"/>
	<path fill="#999692" d="M657.165,537.085c2,0,4.003,1.003,6.003,2.005v27.019c-2,0-4.003-1.01-6.003-1.01"/>
	<path fill="#999692" d="M654.16,564.104c-1.996,0-5.001,0-7.001,0v-28.019c1,0,2,0,3,0c1.001,0,3.004,0,4.001,0"/>
	<path fill="#999692" d="M637.149,564.104c2.006,0,5.005,0,7.007,0v-28.019c-2.002,0-5.001,0-7.007,0"/>
	<path fill="#999692" d="M628.147,566.108c1.998,0,4.003-1.01,6.003-1.01v-28.014c-2,0-4.005,1.003-6.003,2.005"/>
	<path fill="#999692" d="M622.143,514.073c1,0,3.001-1,4.002-1v3.003"/>
	<path fill="#999692" d="M644.156,524.073c-2.002,0-4.001,0-7.007,1.01v-15.016c3.006,0,5.005,0,7.007,0"/>
	<path fill="#999692" d="M654.16,510.067c-1.996,0-5.001,0-7.001,0v14.006c2,0,5.005,0,7.001,1.01"/>
	<path fill="#999692" d="M657.165,511.067c2,0,4.003,0,6.003,1.003v15.009c-2-1.003-4.003-1.003-6.003-1.996"/>
	<path fill="#999692" d="M634.15,525.083c-2,0.993-4.005,0.993-6.003,1.996V512.07c1.998-1.003,4.003-1.003,6.003-1.003"/>
	<path fill="#999692" d="M665.171,513.073c0.998,0,3.001,1,4.001,1l-4.001,2.003"/>
	<path fill="#999692" d="M622.143,541.093c1-1.011,3.001-2.003,4.002-2.003v2.995"/>
	<path fill="#999692" d="M665.171,539.09c0.998,0,3.001,0.992,4.001,2.003l-4.001,0.992"/>
	<path fill="#999692" d="M669.172,505.067c-6.004-3.006-15.012-5-23.017-5c-9.006,0-18.008,1.994-24.013,5v6
		c6.005-3.004,15.007-5.007,24.013-5.007c8.005,0,17.013,2.003,23.017,5.007"/>
	<path fill="#999692" d="M669.172,531.076c-6.004-2.996-15.012-3.997-23.017-3.997c-9.006,0-18.008,1.001-24.013,3.997v7.012
		c6.005-3.005,15.007-5.007,24.013-5.007c8.005,0,17.013,2.002,23.017,5.007"/>
	<path fill="#999692" d="M669.172,502.062c-6.004-3.005-15.012-4.999-23.017-4.999c-9.006,0-18.008,1.994-24.013,4.999l19.01-18.004
		c1.002,0,3.004,0,5.003,0c1.004,0,3.004,0,4.004,0"/>
	<path fill="#999692" d="M641.152,479.051v3.003c1.002,0,3.004,0,5.003,0c1.004,0,3.004,0,4.004,0v-3.003c0-1.002-2-1.002-3-1.002
		h-3.003C643.155,478.049,641.152,478.049,641.152,479.051"/>
	<path fill="#999692" d="M663.168,597.126c-2-1.001-4.003-1.001-6.003-2.004v-27.011c2,0,4.003,0.994,6.003,1.996"/>
	<path fill="#999692" d="M654.16,595.122c-1.996-1.002-5.001-1.002-7.001-1.002v-27.018c2,0,5.005,0,7.001,0"/>
	<path fill="#999692" d="M644.156,594.12c-2.002,0-4.001,0-7.007,1.002v-28.02c3.006,0,5.005,0,7.007,0"/>
	<path fill="#999692" d="M634.15,595.122c-2,1.003-4.005,1.003-6.003,2.004v-27.019c1.998-1.002,4.003-1.996,6.003-1.996"/>
	<path fill="#999692" d="M663.168,635.146c-2-0.993-4.003-0.993-6.003-2.001c0-2.006,0-13.006,0-13.006V599.12
		c0,0,4.003,0,6.003,1.011v20.008 M654.16,632.149c-1.996-1.011-5.001-1.011-7.001-2.003c0-1.001,0-9.006,0-9.006v-23.013
		c0,0,5.005,0,7.001,0v23.013V632.149z M644.156,621.141v-23.013c-2.002,0-7.007,0-7.007,0v23.013c0,0,0,6.002,0,8.005
		c3.006,0,5.005,0,7.007,1.001V621.141z M634.15,622.142V599.12c-2,0-6.003,1.011-6.003,1.011v24.006c0,0,0,1.009,0,3.006
		c1.998,1,4.003,1,6.003,1V622.142z M173.855,618.144v-18.013c-1.999-1.011-6.002-1.011-6.002-1.011v30.025
		c0,0,4.003-1.003,6.002-1.003V618.144z M163.852,598.128c-2.004,0-6.007,0-6.007,0v21.01c0,0,0,10.008,0,12.001
		c2.004-0.992,4.003-0.992,6.007-1.993V598.128z M153.843,632.149c-1.999,0-4.002,0.995-6.002,0.995c0-0.995,0-14.007,0-14.007
		v-21.01c0,0,4.003,0,6.002,0v21.01V632.149z M143.839,634.152c-2.003,0.993-4.002,0.993-6.005,1.996v-36.018
		c0,0,4.002-1.011,6.005-1.011v21.019V634.152z"/>
	<path fill="#C81529" d="M378.986,625.146c9.007,5.001,17.012,7.004,22.017,7.999h1l1.001-2.006c0-8.997-2.001-17.002-2.001-20.006
		l-1.004-1.002c-11.005-4.999-20.011-10-26.017-17.002c-5-4.008-8.005-8.013-10.004-13.014l-1.001-1.003l-2,1.003
		c-4.003,5.001-6.005,11.009-8.005,17.011l0.998,1.002C358.974,610.131,367.981,619.138,378.986,625.146"/>
	<path fill="#C81529" d="M375.985,591.124h1.002h1.999c12.008-17.02,26.018-23.013,35.025-26.025l1.001-0.994l-1.001-2.001
		c-4.003-2.005-9.008-2.005-14.013-2.005c-7.004,0-13.008,1.002-19.009,3.005c-5.005,3.005-11.011,6.002-15.013,11.001v1.012
		C365.978,578.112,368.982,584.12,375.985,591.124"/>
	<path fill="#C81529" d="M380.99,593.129v1.993c6.001,3.998,12.005,8.006,19.009,12.012h1.004l1-1.01
		c4.002-5,17.011-17.003,38.025-20.009l0.996-0.999v-0.996c-4.001-7.01-9.003-12.01-15.007-16.009l-1.001-1.009
		c-2.001,0-9.008,0-18.009,4.006C396.999,576.109,387.993,583.111,380.99,593.129"/>
	<path fill="#C81529" d="M444.029,590.115c0,0-1-0.994-2.004-0.994c-4.001,0.994-7.001,0.994-11.005,2.003l-1,0.994v2.002
		c2.001,3.006,4.002,11.012,4.002,20.017c0,6.002,0,11.009-1.001,16.01c-1,4.006-2.001,7.003-4.004,10l1.003,2.002h2.001
		c5.002-4.999,9.003-11.01,12.008-17.003C448.032,614.137,448.032,601.124,444.029,590.115"/>
	<path fill="#C81529" d="M402.003,637.149l-1-1.001c-5.005-1.003-13.01-3.004-22.017-7.003
		c-10.004-5.009-18.009-12.013-24.014-21.019l-1.002-0.993l-1.999,2.004c1.001,5.992,1.999,11.001,4.002,17.004
		c3,7.003,9.006,14.005,16.009,19.014c6.006,5.008,14.011,8.005,22.017,9.005l0.996-1c4.003-4.007,6.008-9.006,7.008-15.009V637.149
		"/>
	<path fill="#C81529" d="M427.02,595.122l-1.002-1.002h-1.001c-11.005,5-18.009,12.004-21.014,15.018v1.995
		c1.001,3.004,2.002,9.006,3.005,17.01c0,5.002-1.003,9.007-2.004,13.014c-1.001,3.999-2,7.997-4.001,11.002v1.002l1,1
		c5.005,0,10.004-1,14.006-3.006h1.003c5.003-4.999,8.005-9.998,11.009-16.009c2-6,3-12.002,3-18.013
		C431.021,608.127,429.018,599.12,427.02,595.122"/>
</g>
</svg>
