<?xml version="1.0" encoding="utf-8"?>
<!-- Generator: Adobe Illustrator 16.0.0, SVG Export Plug-In . SVG Version: 6.00 Build 0)  -->
<!DOCTYPE svg PUBLIC "-//W3C//DTD SVG 1.0//EN" "http://www.w3.org/TR/2001/REC-SVG-20010904/DTD/svg10.dtd">
<svg version="1.0" id="Layer_1" xmlns="http://www.w3.org/2000/svg" xmlns:xlink="http://www.w3.org/1999/xlink" x="0px" y="0px"
	 width="800px" height="800px" viewBox="0 0 800 800" enable-background="new 0 0 800 800" xml:space="preserve">
<g>
	<path fill="#024592" d="M765.009,497.467l-0.794-0.82l-45.496-17.517c0.819-3.114,2.476-7.606,5.591-12.149l23.466,10.417
		c0.767,0.305,1.532,0.507,2.4,0.507c2.144,0,4.136-1.171,5.132-3.014c0.666-0.967,2.478-3.879,3.958-7.759
		c2.371-6.076,2.91-11.54,1.528-16.188c-1.399-4.746-4.85-8.478-9.903-10.671l-62.604-28.8l-0.414-0.207l-0.097-0.051
		c-2.352-1.022-6.895-2.35-12.41-0.511c0.024-1.89,0.049-3.829,0.049-5.819c-0.024-4.903-0.203-10.061-0.458-15.116
		c-0.307-5.261-0.767-10.672-1.354-16.088c-3.522-31.863-10.977-55.085-13.964-63.612l-1.021-2.833
		c-12.283-34.34-21.957-61.509-21.7-93.986c0.15-24.432,30.687-58.825,42.43-70.009l11.031-10.441L574.487,26.992l-9.112,6.026
		c-21.244,13.966-48.664,21.677-77.313,21.677c-30.025,0-58.444-8.375-80.016-23.516l-8.07-5.667l-8.071,5.667
		c-21.573,15.142-49.99,23.516-80.018,23.516c-28.618,0-56.067-7.71-77.283-21.677l-9.141-6.026l-104.657,95.593l-11.184,10.186
		l10.979,10.47c11.748,11.184,42.285,45.577,42.432,70.009c0.286,32.477-9.396,59.646-21.697,93.986l-0.972,2.833
		c-3.066,8.527-10.493,31.75-13.992,63.612c-0.56,5.416-1.048,10.827-1.377,16.088c-0.256,5.105-0.438,10.212-0.438,15.116
		c-0.023,1.99,0,3.88,0.027,5.819c-5.487-1.839-10.009-0.512-12.331,0.511l-0.104,0.051l-0.384,0.207l-62.628,28.8
		c-5.082,2.193-8.502,5.925-9.908,10.671c-1.355,4.648-0.843,10.112,1.506,16.188c1.532,3.88,3.319,6.792,3.982,7.759
		c1.021,1.843,3.016,3.014,5.158,3.014c0.817,0,1.61-0.202,2.377-0.507l23.462-10.417c3.114,4.543,4.748,9.035,5.619,12.149
		l-45.499,17.517l-0.843,0.82v1.119l2.732,6.842c28.442,71.287,76.751,132.209,139.711,176.175
		c58.467,40.902,126.949,64.851,198.131,69.19l23.416,23.234l1.016,0.461l1.077-0.461l23.41-23.234
		c71.133-4.391,139.613-28.288,198.13-69.19c62.939-43.966,111.269-104.888,139.663-176.175l2.731-6.842V497.467 M228.399,609.551
		c-39.783-27.832-72.001-64.395-94.496-106.878l11.182-4.036l1.076,2.041c2.472,4.548,5.259,9.039,8.194,13.278
		c0.304,0.409,0.687,1.019,1.175,1.787l0.229,0.305c50.35,75.678,124.495,122.915,208.828,133.024l13.509,13.531
		C324.146,658.621,272.771,640.492,228.399,609.551 M571.601,609.551c-44.371,30.941-95.746,49.127-149.722,53.053l13.482-13.531
		c84.36-10.109,158.505-57.347,208.828-133.024l0.231-0.305c0.481-0.769,0.865-1.378,1.176-1.838
		c2.959-4.238,5.716-8.68,8.22-13.228l1.071-2.041l11.237,4.036C643.652,545.156,611.405,581.719,571.601,609.551"/>
	<path fill="#FFFFFF" d="M759.545,504.354c-28.216,70.729-76.164,131.241-138.663,174.898
		c-58.168,40.645-126.338,64.395-197.163,68.633l-0.944,0.457l-22.75,22.621l-22.772-22.621l-0.972-0.457
		c-70.803-4.238-139.001-27.988-197.163-68.633c-62.501-43.657-110.453-104.169-138.64-174.898l-2.195-5.464l86.249-33.241
		c2.299-0.871,4.649-0.152,5.976,1.842l0.101,0.152c0.512,0.917,1.712,2.604,3.267,4.083c0.744,2.248,1.509,4.496,2.299,6.74
		c-4.443-1.687-7.71-5.976-8.986-7.915l-0.283-0.406l-0.639-0.41l-0.306,0.051l-6.125,2.4l-2.758,1.069l0.507,1.276l0.589,1.433
		c2.527,6.279,5.31,12.407,8.196,18.484c0.46,0.87,0.917,1.787,1.352,2.657l2.785-1.022l11.283-4.086
		c0.615,1.377,1.276,2.657,1.942,3.98l-11.235,4.036l-2.81,1.022c0.46,0.921,0.921,1.787,1.405,2.654
		c22.728,43.049,55.305,80.123,95.618,108.26c45.706,31.914,98.762,50.297,154.47,53.77l4.778,4.747
		c-58.392-2.654-114.082-21.494-161.853-54.841c-49.837-34.826-88.136-83.035-110.705-139.455l-0.51-1.226l-68.737,26.445
		l0.512,1.332c27.88,69.904,75.295,129.706,137.057,172.806c58.141,40.692,126.281,64.188,197.108,68.012l20.173,20.066l1.021,0.975
		l21.192-21.041c70.776-3.824,138.948-27.319,197.081-68.012c61.768-43.1,109.153-102.901,137.06-172.806l0.487-1.332
		l-68.682-26.445l-0.509,1.226c-22.6,56.42-60.898,104.629-110.711,139.455c-47.848,33.347-103.559,52.187-161.978,54.841
		l4.775-4.747c55.735-3.473,108.845-21.855,154.571-53.77c40.286-28.137,72.896-65.211,95.618-108.26
		c0.461-0.867,0.919-1.733,1.378-2.654l-2.807-1.022l-11.261-4.036c0.637-1.323,1.303-2.654,1.94-3.98l11.364,4.086l2.782,1.022
		c0.408-0.87,0.842-1.787,1.274-2.657c2.938-6.077,5.696-12.205,8.246-18.484l0.588-1.433l0.484-1.276l-2.728-1.069l-6.103-2.4
		l-0.308-0.051l-0.667,0.41l-0.304,0.406c-1.276,1.939-4.543,6.279-9.037,7.915c0.765-2.197,1.529-4.391,2.273-6.69
		c1.603-1.479,2.831-3.216,3.368-4.133l0.075-0.152c1.325-1.994,3.678-2.713,5.977-1.842l86.274,33.241L759.545,504.354z"/>
	<path fill="#FFFFFF" d="M302.391,688.14l4.955,4.29c3.421,3.009,5.133,6.432,3.776,10.924c-2.172,7.154-9.191,9.602-15.984,7.561
		c-3.265-0.972-6.992-2.812-9.903-4.953l-0.768-1.332l0.484-0.764l2.578-3.621l1.327-0.618l0.767,0.461
		c2.149,1.687,4.803,3.113,7.333,3.883c2.094,0.613,5.082,0.305,5.792-2.146c0.587-1.895-0.661-3.271-1.938-4.392l-5.8-5.109
		c-3.136-2.806-4.67-6.588-3.419-10.771c1.942-6.336,9.423-7.968,15.216-6.281c3.6,1.07,6.51,2.654,9.221,4.949l0.767,1.483
		l-0.412,0.713l-2.705,3.373l-1.278,0.612l-0.815-0.511c-1.788-1.534-4.288-3.009-6.331-3.626c-1.994-0.612-4.443-0.512-5.162,1.788
		C299.629,685.639,301.29,687.219,302.391,688.14"/>
	<path fill="#FFFFFF" d="M273.027,697.129c0.793,0.304,0.972,1.073,0.666,1.682l-1.048,2.603l-1.507,0.669l-12.407-5.004
		l-0.768-1.535l1.023-2.552c0.354-0.921,1.021-1.073,1.709-0.769l2.223,0.866l9.574-23.538l-2.582-1.02
		c-0.737-0.309-0.89-1.021-0.634-1.741l1.046-2.502l1.481-0.714l12.969,5.211l0.791,1.533l-1.074,2.604
		c-0.328,0.867-0.993,1.074-1.709,0.766l-2.602-1.069l-9.552,23.538L273.027,697.129z"/>
	<path fill="#FFFFFF" d="M234.371,652.65c-0.917-0.461-1.044-1.128-0.563-2.045l1.79-3.424c0.41-0.765,1.023-0.921,1.839-0.455
		l22.467,11.693l2.348,1.175c0.873,0.459,0.972,0.971,0.667,1.584l-0.101,0.152l-2.276,3.469c-0.585,0.87-1.274,0.77-2.246,0.258
		l-8.145-4.188l-13.021,24.717c-0.509,1.02-0.737,1.12-1.661,0.66l-5.231-2.756c-0.972-0.512-0.972-0.663-0.46-1.631l13.045-24.823
		L234.371,652.65z"/>
	<path fill="#FFFFFF" d="M224.873,638.812l-4.492-2.912c-0.817-0.562-1.479-0.356-2.195,0.102l-28.597,21.091l-0.408,0.456
		l0.23,1.175l4.976,3.222c0.767,0.51,1.433,0.252,1.992-0.208l5.16-4.082l1.53,0.967l7.662,5.004l1.584,0.973l-1.534,6.179
		c-0.232,0.921-0.154,1.634,0.869,2.345l4.902,3.174l1.507-0.258l0.278-0.766l7.48-34.521
		C226.001,640.087,225.769,639.373,224.873,638.812 M216.704,647.901l-2.86,10.314l-7.148-4.648l8.298-6.74
		c0.921-0.714,1.762-1.382,2.476-2.041l0.106,0.097C217.264,645.754,217.008,646.727,216.704,647.901"/>
	<path fill="#FFFFFF" d="M182.26,635.489l-3.397-6.846c-1.889-3.774-1.839-7.856,0.921-11.28c4.188-5.154,11.746-3.879,16.496-0.054
		c2.91,2.349,5.003,4.855,6.636,8.021c0.46,0.815,0.46,1.276,0.152,1.631l-0.663,0.465l-3.803,2.139l-1.406,0.055l-0.562-0.77
		c-1.071-2.04-2.808-4.39-4.468-5.717c-1.606-1.272-3.905-2.146-5.463-0.258c-1.048,1.275-0.076,3.372,0.535,4.648l3.015,5.874
		c1.988,3.985,2.294,7.81-0.689,11.485c-4.727,5.823-12.13,5.418-17.696,0.977c-2.631-2.096-5.414-5.21-7.275-8.223l-0.182-1.582
		l0.765-0.512l3.733-2.399l1.454-0.105l0.583,0.718c1.354,2.35,3.222,4.695,5.261,6.331c1.737,1.378,4.598,2.192,6.18,0.254
		C183.666,638.812,183.079,637.074,182.26,635.489"/>
	<path fill="#FFFFFF" d="M146.594,612.922l-0.127,2.092l-2.912,2.658c-0.843,0.766-1.56,0.559-2.17-0.104l-13.407-14.504
		c-0.763-0.815-0.944-1.377,0.104-2.298l24.282-22.263l2.039,0.051l3.577,3.883c0.792,0.866,0.792,1.378-0.051,2.193l-20.323,18.59
		L146.594,612.922z"/>
	<path fill="#FFFFFF" d="M120.752,586.262l-0.307,1.787l-2.195,1.687l-1.633-0.203l-8.169-10.519l0.127-1.737l2.223-1.681
		c0.767-0.566,1.377-0.415,1.887,0.197l1.479,1.895l20.223-15.476l-1.684-2.143l0.306-1.839l2.193-1.686l1.638,0.202l8.5,10.983
		l-0.102,1.733l-2.221,1.736c-0.767,0.563-1.429,0.41-1.889-0.203l-1.739-2.248l-20.221,15.476L120.752,586.262z"/>
	<path fill="#FFFFFF" d="M105.539,535.25l-17.263,10.573c-0.993,0.612-1.631,0.354-2.172-0.512l-2.498-4.086
		c-0.64-1.022-0.688-1.58,0.355-2.244l28.136-17.212c1.177-0.719,1.711-0.309,2.271,0.613l2.299,3.731
		c0.562,0.865,0.562,1.479,0.205,2.345l-9.652,24.004l0.051,0.097l17.413-10.671c0.97-0.561,1.582-0.253,2.146,0.613l2.628,4.289
		c0.74,1.128,0.154,1.581-0.587,2.092L100.84,565.99c-1.177,0.717-1.71,0.362-2.2-0.407l-2.293-3.782
		c-0.511-0.764-0.617-1.63-0.255-2.547l9.495-23.897L105.539,535.25z"/>
	<path fill="#FFFFFF" d="M401.764,720.409c0.838,0,1.278,0.616,1.221,1.378l-0.048,2.708c0,0.663-0.406,1.175-1.149,1.175
		l-13.38-0.207c-0.79,0-1.302-0.563-1.302-1.119l0.053-2.811c0.025-0.917,0.558-1.332,1.325-1.332l2.4,0.057l0.361-25.382
		l-2.732-0.046c-0.869,0-1.253-0.668-1.253-1.327l0.053-2.764l1.171-1.171l13.968,0.203c0.739,0,1.278,0.566,1.249,1.123
		l-0.027,2.811c0,0.968-0.533,1.378-1.351,1.328l-2.78-0.052l-0.385,25.377L401.764,720.409z"/>
	<path fill="#FFFFFF" d="M375.772,690.794l-4.033,32.476c-0.208,1.328-0.768,1.534-1.712,1.379l-4.393-0.563
		c-0.922-0.097-1.659-0.508-2.122-1.378l-12.892-22.267l-0.076-0.046l-2.506,20.014c-0.149,1.124-0.709,1.433-1.76,1.327
		l-4.771-0.612c-1.227-0.099-1.709-0.457-1.531-1.683l4.059-32.577c0.148-1.328,0.818-1.535,1.889-1.387l4.365,0.512
		c1.021,0.16,1.504,0.511,1.995,1.387l12.813,22.413l0.104,0.051l2.527-20.175c0.127-1.12,0.739-1.372,1.813-1.271l4.978,0.612
		C375.872,689.158,375.872,689.873,375.772,690.794"/>
	<path fill="#FFFFFF" d="M422.978,698.455c0.129,1.632,2.303,2.498,3.628,2.958l6.204,2.194c4.238,1.533,7.097,4.141,7.454,8.84
		c0.61,7.45-5.004,12.255-12.101,12.817c-3.372,0.254-7.561-0.106-11.032-1.023c-0.817-0.206-1.122-0.51-1.17-0.972l0.149-0.916
		l1.069-4.294l1.022-1.068l0.924,0.151c2.603,0.77,5.563,1.175,8.191,0.967c2.171-0.197,4.877-1.529,4.648-4.082
		c-0.156-1.939-1.813-2.81-3.472-3.422l-7.226-2.604c-3.983-1.483-6.764-4.441-7.096-8.781c-0.562-6.644,5.792-10.878,11.845-11.39
		c3.778-0.258,7.047,0.151,10.413,1.276c0.873,0.304,1.23,0.664,1.23,1.069l-0.129,0.82l-1.279,4.188l-0.967,0.972L434.339,696
		c-2.219-0.761-5.055-1.271-7.198-1.124C425.074,695.083,422.802,696,422.978,698.455"/>
	<path fill="#FFFFFF" d="M465.03,714.384l2.554-0.407c0.846-0.207,1.378,0.407,1.478,1.125l0.46,2.653l-0.915,1.378l-13.174,2.249
		c-0.767,0.151-1.384-0.305-1.483-0.866l-0.512-2.761c-0.126-0.917,0.308-1.429,1.074-1.533l2.348-0.405l-4.339-25.022l-2.731,0.512
		c-0.843,0.151-1.354-0.462-1.456-1.129l-0.51-2.704l0.945-1.378l13.762-2.346c0.737-0.157,1.378,0.305,1.456,0.866l0.481,2.761
		c0.207,0.917-0.281,1.427-1.021,1.584l-2.783,0.451L465.03,714.384z"/>
	<path fill="#FFFFFF" d="M525.264,684.357c-3.372-9.956-11.137-15.881-21.423-12.406c-9.857,3.266-13.33,12.664-9.754,23.183
		c3.551,10.519,11.516,15.679,21.447,12.356C524.802,704.377,529.013,695.388,525.264,684.357 M513.543,700.805
		c-4.697,1.53-8.529-0.976-11.158-8.68c-2.455-7.307-0.845-12.052,3.495-13.49c4.699-1.58,8.353,0.77,11.031,8.635
		C519.515,694.876,517.882,699.321,513.543,700.805"/>
	<path fill="#FFFFFF" d="M588.044,671.596c0.59,0.968,0.564,1.222-0.331,1.731l-5.031,3.015c-0.968,0.565-1.124,0.46-1.684-0.457
		l-14.423-24.05l-8.227,4.848c-0.889,0.563-1.477,0.309-2.018-0.563l-1.986-3.318c-0.463-0.768-0.255-1.33,0.533-1.842
		l21.778-12.918l2.275-1.328c0.815-0.46,1.35-0.304,1.657,0.258l0.153,0.204l1.737,3.676c0.456,0.969,0,1.534-0.922,2.097
		l-7.913,4.645L588.044,671.596z"/>
	<path fill="#FFFFFF" d="M614.6,648.818l2.095-1.582l1.812,0.356l1.659,2.247l-0.204,1.632l-10.776,7.865l-1.734-0.153l-1.687-2.248
		c-0.534-0.714-0.383-1.377,0.255-1.834l1.938-1.433l-15.161-20.423l-2.249,1.63l-1.783-0.304l-1.662-2.193l0.229-1.64l11.186-8.27
		l1.783,0.155l1.661,2.244c0.537,0.766,0.359,1.378-0.229,1.838l-2.299,1.683L614.6,648.818z"/>
	<path fill="#FFFFFF" d="M630.018,597.193c-0.278-0.972-0.227-1.735,0.615-2.505l2.68-2.452c0.744-0.714,1.275-0.663,1.941,0
		l23.822,23.082l0.129,0.103l-0.052,2.045l-3.857,3.521c-0.968,0.921-1.685,0.616-2.68-0.406l-12.561-12.716l-0.079,0.102
		l6.999,19.097c0.433,1.023,0,1.581-0.512,2.045l-1.405,1.277c-0.74,0.667-1.249,0.917-2.377,0.512l-19.349-7.659l-0.081,0.099
		l12.259,13.636c0.967,1.07,0.582,1.632-0.206,2.346l-3.144,2.912c-0.888,0.819-1.581,0.866-2.322,0.103l-0.1-0.103l-21.271-24.967
		c-0.815-0.921-0.66-1.636,0.106-2.303l2.732-2.497c0.896-0.82,1.506-0.82,2.529-0.462l24.408,9.449l0.1-0.055L630.018,597.193z"/>
	<path fill="#FFFFFF" d="M670.641,578.761l-13.863-11.444c-0.816-0.659-0.662-1.326-0.049-2.036l3.291-3.931
		c0.641-0.77,1.152-1.022,2.019-0.363l14.245,11.799c9.042,7.455,9.193,15.364,2.835,22.976c-6.868,8.225-14.477,8.225-22.952,1.175
		l-14.301-11.744c-0.789-0.714-0.61-1.427,0-2.142l3.27-3.935c0.641-0.765,1.175-0.973,2.044-0.308l13.813,11.439
		c6.278,5.211,9.854,4.546,12.97,0.819C676.901,587.541,676.846,583.861,670.641,578.761"/>
	<path fill="#FFFFFF" d="M683.893,528.002c-0.534-0.818-0.662-1.584-0.049-2.556l1.938-3.063c0.561-0.867,1.071-1.02,1.89-0.508
		l29.082,16.029l0.129,0.105c0.816,0.511,0.996,1.17,0.508,1.939l-2.783,4.391c-0.712,1.175-1.453,1.022-2.731,0.359l-15.448-8.988
		l-0.049,0.102l11.825,16.6c0.66,0.865,0.354,1.474,0.02,2.092l-1.02,1.584c-0.532,0.866-0.966,1.222-2.118,1.12l-20.731-2.299
		l-0.052,0.101l15.421,9.957c1.226,0.77,0.997,1.433,0.459,2.35l-2.299,3.58c-0.639,1.021-1.279,1.275-2.193,0.714l-0.154-0.105
		l-27.063-18.434c-1.075-0.715-1.075-1.484-0.563-2.299l1.995-3.166c0.609-0.967,1.225-1.171,2.321-1.022l26.069,2.713l0.051-0.105
		L683.893,528.002z"/>
	<path fill="#FFFFFF" d="M554.239,664.445c-1.17-2.501-3.268-4.699-5.821-5.768c-3.628-1.535-7.834-0.72-13.329,1.781l-7.378,3.42
		c-1.069,0.512-1.276,0.921-0.737,2.096l13.862,29.722c0.562,1.128,1.2,1.225,2.046,0.815l4.72-2.193
		c1.12-0.512,1.227-1.125,0.846-1.889l-4.521-9.703l2.651-1.073C553.854,678.331,557.766,672.001,554.239,664.445 M543.848,675.885
		l-2.575,1.17l-4.753-10.21l2.3-1.068c3.521-1.64,6.332-1.077,7.965,2.446C548.396,671.646,547.397,674.301,543.848,675.885"/>
	<path fill="#FFFFFF" d="M124.633,413.869c-2.015-0.815-3.881-1.124-5.565-1.124c-2.4,0-4.393,0.663-5.616,1.175l-0.433,0.156
		l-62.683,28.851c-4.292,1.838-7.125,4.901-8.275,8.836c-1.479,4.999-0.023,10.519,1.433,14.296
		c1.429,3.728,3.216,6.533,3.728,7.354c0.815,1.327,2.449,1.889,3.831,1.276l25.635-11.339l0.714,0.973
		c3.727,5.059,5.667,10.163,6.689,13.734l4.186-1.631c-1.071-3.626-2.96-8.427-6.381-13.481l-1.023-1.429l29.742-13.125
		c1.433-0.613,2.172-2.299,1.61-3.728l-0.482-1.175c-2.479-5.565-3.372-11.385-2.479-16.443c0.768-4.289,2.806-7.556,5.644-8.938
		l0.355-0.152c1.2-0.563,2.479-0.815,3.704-0.815c1.99,0,3.933,0.613,5.899,1.783C124.788,417.241,124.712,415.555,124.633,413.869
		 M50.386,470.192l-0.638-1.226c-1.61-2.908-5.082-10.261-3.421-15.928c0.792-2.76,2.732-4.699,5.847-6.132l53.565-24.611
		l-0.612,2.86l-0.205,1.124c-0.966,5.257-0.202,11.436,2.043,17.36l0.511,1.275L50.386,470.192z"/>
	<path fill="#FFFFFF" d="M757.939,451.763c-1.128-3.935-3.989-6.947-8.274-8.836l-62.656-28.8l-0.412-0.207
		c-1.249-0.563-3.238-1.222-5.665-1.222c-1.69,0-3.574,0.355-5.616,1.171c-0.054,1.736-0.153,3.423-0.204,5.109
		c1.967-1.226,3.955-1.839,5.923-1.839c1.252,0,2.501,0.305,3.725,0.765l0.362,0.203c2.805,1.433,4.875,4.699,5.644,8.988
		c0.891,5.008,0,10.827-2.478,16.393l-0.49,1.175c-0.532,1.429,0.157,3.114,1.612,3.728l29.744,13.125l-0.999,1.476
		c-3.443,4.957-5.333,9.809-6.408,13.484l4.188,1.581c1.022-3.622,2.988-8.676,6.664-13.734l0.719-0.973l25.659,11.339
		c1.354,0.612,3.037,0.051,3.804-1.327c0.512-0.77,2.299-3.575,3.725-7.303C757.987,462.281,759.416,456.762,757.939,451.763
		 M750.274,468.967l-0.661,1.226l-57.089-25.225l0.509-1.327c2.273-5.925,3.011-12.048,2.096-17.31l-0.255-1.175l-0.641-2.86
		l53.592,24.611c3.166,1.382,5.083,3.372,5.869,6.077C755.385,458.706,751.862,466.059,750.274,468.967"/>
	<path fill="#FFFFFF" d="M574.054,32.635l-6.231,4.11c-21.959,14.427-50.298,22.366-79.761,22.366
		c-30.919,0-60.232-8.603-82.571-24.28l-5.515-3.881l-5.516,3.881c-22.315,15.677-51.625,24.28-82.573,24.28
		c-29.463,0-57.804-7.939-79.709-22.366l-6.255-4.11l-102.129,93.219l-7.662,6.995l7.535,7.148
		c12.126,11.567,43.66,47.235,43.839,73.252c0.277,33.243-9.576,60.718-21.96,95.49l-1.022,2.835
		c-2.987,8.373-10.288,31.216-13.708,62.616c-0.615,5.313-1.072,10.623-1.382,15.832c-0.251,5.003-0.406,10.009-0.433,14.913
		c-0.127,36.305,6.948,67.762,21.066,93.6c2.4,4.441,5.082,8.782,7.963,12.868c0.256,0.461,0.719,1.073,1.228,1.838l0.228,0.31
		c49.765,74.856,123.04,121.427,206.377,131.185l0.793,0.102l33.321,33.393l33.345-33.393l0.788-0.102
		c83.314-9.758,156.643-56.328,206.38-131.139l0.202-0.355c0.536-0.765,0.975-1.377,1.278-1.889
		c2.861-4.087,5.54-8.376,7.939-12.817c14.122-25.838,21.22-57.295,21.066-93.6c0-4.904-0.18-9.909-0.462-14.913
		c-0.306-5.208-0.738-10.519-1.328-15.832c-3.471-31.4-10.774-54.244-13.762-62.616l-1.017-2.835
		c-12.387-34.799-22.188-62.247-21.933-95.49c0.176-26.018,31.71-61.685,43.838-73.252l7.532-7.148L574.054,32.635z
		 M622.819,213.174c-0.253,35.872,10.471,64.979,23.539,101.67c4.904,13.76,10.47,35.452,13.252,60.421
		c0.538,5.005,0.997,10.109,1.276,15.27c0.285,4.8,0.433,9.546,0.433,14.452c0.106,29.771-4.899,61.529-19.862,88.9
		c-2.247,4.087-4.668,8.122-7.4,11.951c-7.816,11.283-70.931,116.069-205.156,129.705l-0.483,0.512l0,0l-28.441,28.543
		l-28.444-28.543l-0.486-0.512c-134.169-13.636-197.314-118.422-205.152-129.705c-2.681-3.829-5.16-7.864-7.375-11.951
		c-14.963-27.371-19.995-59.129-19.893-88.9c0.052-4.905,0.181-9.651,0.46-14.452c0.304-5.16,0.714-10.264,1.276-15.27
		c2.755-24.969,8.325-46.661,13.223-60.421c13.126-36.691,23.798-65.798,23.545-101.67c-0.256-35.898-46.853-80.172-46.853-80.172
		l96.59-88.188c22.67,14.909,52.442,23.974,85.019,23.974c34.114,0,65.112-9.879,88.089-26.042
		c23.025,16.163,54.001,26.042,88.086,26.042c32.63,0,62.351-9.064,85.021-23.974l96.613,88.188
		C669.696,133.002,623.077,177.276,622.819,213.174"/>
	<path fill="#FFFFFF" d="M307.295,177.837c-2.762-0.614-6.616,0.205-10.214,2.527c-3.626,2.373-6.204,5.617-7.098,8.604
		c2.783,0.637,6.637-0.205,10.235-2.528C303.847,184.093,306.422,180.85,307.295,177.837"/>
	<path fill="#FFFFFF" d="M292.331,125.574c0.357-3.142-0.689-7.33-3.114-11.135c-2.35-3.854-5.515-6.434-8.248-7.172
		c-0.333,3.139,0.689,7.3,3.087,11.131C286.457,122.252,289.599,124.831,292.331,125.574"/>
	<path fill="#FFFFFF" d="M292.532,139.206c-0.455,2.81,0.334,6.587,2.301,10.163c1.993,3.574,4.669,6.052,7.098,6.869
		c0.46-2.811-0.307-6.589-2.245-10.162C297.692,142.5,294.987,140.05,292.532,139.206"/>
	<path fill="#FFFFFF" d="M297.998,130.323c1.788-2.503,2.81-6.691,2.554-11.337c-0.255-4.647-1.684-8.681-3.727-10.902
		c-1.737,2.477-2.811,6.663-2.555,11.336C294.526,124.066,296.01,128.051,297.998,130.323"/>
	<path fill="#FFFFFF" d="M303.363,152.227c2.654-1.096,5.514-4.033,7.482-8.169c1.986-4.135,2.626-8.4,1.965-11.439
		c-2.66,1.073-5.515,4.009-7.509,8.121C303.333,144.874,302.697,149.139,303.363,152.227"/>
	<path fill="#FFFFFF" d="M289.571,134.304c2.912,2.655,6.233,3.983,8.761,3.831c-0.436-2.783-2.274-6.076-5.211-8.706
		c-2.932-2.655-6.204-3.982-8.758-3.854C284.773,128.381,286.639,131.675,289.571,134.304"/>
	<path fill="#FFFFFF" d="M301.396,143.574c2.223-1.966,4.112-5.771,4.822-10.366c0.695-4.596,0.105-8.911-1.399-11.592
		c-2.223,1.966-4.112,5.797-4.828,10.391C299.302,136.604,299.885,140.867,301.396,143.574"/>
	<path fill="#FFFFFF" d="M314.464,164.433c-2.783-0.614-6.609,0.23-10.208,2.555c-3.604,2.347-6.21,5.59-7.075,8.603
		c2.76,0.613,6.586-0.23,10.212-2.553C311.022,170.689,313.628,167.446,314.464,164.433"/>
	<path fill="#FFFFFF" d="M308.977,160.68c2.705-3.576,4.082-7.633,3.983-10.775c-2.81,0.46-6.125,2.706-8.83,6.307
		c-2.661,3.6-4.04,7.635-3.932,10.801C303.001,166.552,306.323,164.279,308.977,160.68"/>
	<path fill="#FFFFFF" d="M292.61,177.99c2.223-1.966,4.061-5.795,4.726-10.392c0.71-4.596,0.051-8.884-1.456-11.566
		c-2.2,1.992-4.059,5.821-4.725,10.392C290.467,171.045,291.106,175.334,292.61,177.99"/>
	<path fill="#FFFFFF" d="M292.077,191.217c-4.137,0.842-7.509,2.936-9.296,5.412c2.425,1.634,6.282,2.297,10.389,1.482
		c4.14-0.868,7.537-2.911,9.321-5.438C300.042,191.037,296.208,190.374,292.077,191.217"/>
	<path fill="#FFFFFF" d="M216.603,175.59c-0.894-3.013-3.448-6.256-7.098-8.603c-3.628-2.324-7.458-3.168-10.214-2.555
		c0.895,3.013,3.472,6.257,7.098,8.579C210.017,175.385,213.843,176.204,216.603,175.59"/>
	<path fill="#FFFFFF" d="M223.778,188.969c-0.894-2.987-3.449-6.231-7.075-8.604c-3.651-2.323-7.454-3.141-10.237-2.527
		c0.894,3.012,3.444,6.255,7.07,8.604C217.165,188.765,220.996,189.606,223.778,188.969"/>
	<path fill="#FFFFFF" d="M230.977,196.628c-1.76-2.476-5.132-4.57-9.32-5.412c-4.083-0.843-7.915-0.18-10.341,1.456
		c1.737,2.502,5.133,4.596,9.27,5.412C224.723,198.926,228.576,198.287,230.977,196.628"/>
	<path fill="#FFFFFF" d="M288.374,186.341c1.914-4.138,2.477-8.426,1.788-11.491c-2.681,1.149-5.464,4.162-7.38,8.298
		c-1.889,4.162-2.477,8.426-1.786,11.516C283.674,193.514,286.457,190.501,288.374,186.341"/>
	<path fill="#FFFFFF" d="M221.862,204.366c2.35,1.838,6.127,2.757,10.315,2.194c4.137-0.508,7.687-2.375,9.546-4.724
		c-2.292-1.838-6.098-2.729-10.286-2.192C227.272,200.178,223.75,202.017,221.862,204.366"/>
	<path fill="#FFFFFF" d="M241.929,200.025c3.471,2.577,7.253,3.678,10.06,3.241c-0.712-3.064-3.089-6.484-6.588-9.088
		c-3.522-2.578-7.248-3.677-10.057-3.243C236.031,194,238.408,197.445,241.929,200.025"/>
	<path fill="#FFFFFF" d="M223.624,174.85c-0.718,3.065-0.129,7.379,1.76,11.491c1.917,4.161,4.726,7.173,7.353,8.322
		c0.739-3.063,0.156-7.354-1.733-11.516C229.061,179.011,226.305,175.999,223.624,174.85"/>
	<path fill="#FFFFFF" d="M229.677,118.398c2.421-3.831,3.472-7.992,3.11-11.131c-2.755,0.738-5.87,3.317-8.27,7.172
		c-2.4,3.832-3.472,7.993-3.117,11.135C224.16,124.807,227.328,122.252,229.677,118.398"/>
	<path fill="#FFFFFF" d="M224.211,134.304c2.912-2.629,4.75-5.922,5.183-8.729c-2.527-0.128-5.849,1.199-8.73,3.854
		c-2.94,2.63-4.829,5.923-5.239,8.706C217.98,138.287,221.251,136.959,224.211,134.304"/>
	<path fill="#FFFFFF" d="M281.608,206.587c4.137,0.508,7.963-0.384,10.265-2.196c-1.889-2.375-5.361-4.213-9.548-4.748
		c-4.188-0.537-7.97,0.382-10.292,2.192C273.921,204.213,277.42,206.051,281.608,206.587"/>
	<path fill="#FFFFFF" d="M244.179,205.005c-4.059,1.018-7.383,3.293-9.042,5.871c2.453,1.533,6.358,1.991,10.447,0.945
		c3.954-0.97,7.169-3.115,8.88-5.591l1.456,1.455c-4.545,2.605-8.526,6.154-11.948,10.647c1.329,2.144,2.045,3.216,3.372,5.362
		c2.654-5.923,5.844-10.877,9.703-14.912c3.649,4.035,6.432,8.886,9.064,14.835c1.35-2.144,2.016-3.216,3.366-5.362
		c-3.445-4.519-7.02-7.965-11.36-10.544l1.479-1.432c1.688,2.453,4.905,4.597,8.837,5.542c4.082,1.046,7.963,0.588,10.415-0.945
		c-1.633-2.578-4.951-4.853-9.061-5.871c-3.397-0.87-6.641-0.664-9.064,0.33c-2.35,0.895-3.731,1.737-3.731,1.737
		c-1.018-0.562-2.145-1.098-3.267-1.583l-0.205-0.075l-0.1-0.029h0.023C251.021,204.366,247.672,204.111,244.179,205.005"/>
	<path fill="#FFFFFF" d="M210.398,152.227c0.689-3.088,0.051-7.353-1.916-11.488c-1.993-4.111-4.85-7.048-7.507-8.121
		c-0.664,3.039-0.051,7.304,1.941,11.439C204.884,148.194,207.717,151.131,210.398,152.227"/>
	<path fill="#FFFFFF" d="M271.854,200.025c3.499-2.58,5.872-6.026,6.588-9.09c-2.81-0.434-6.565,0.665-10.059,3.243
		c-3.477,2.604-5.9,6.024-6.589,9.088C264.577,203.703,268.383,202.602,271.854,200.025"/>
	<path fill="#FFFFFF" d="M221.147,177.99c1.532-2.655,2.143-6.944,1.481-11.566c-0.716-4.571-2.555-8.4-4.748-10.392
		c-1.511,2.682-2.145,6.97-1.483,11.566C217.114,172.195,218.952,176.023,221.147,177.99"/>
	<path fill="#FFFFFF" d="M200.823,149.878c-0.104,3.168,1.279,7.225,3.956,10.801c2.683,3.6,6.003,5.872,8.809,6.333
		c0.105-3.166-1.3-7.201-3.983-10.801C206.927,152.61,203.606,150.365,200.823,149.878"/>
	<path fill="#FFFFFF" d="M218.924,149.369c1.967-3.549,2.783-7.353,2.327-10.136c-2.454,0.817-5.161,3.294-7.153,6.843
		c-1.939,3.6-2.731,7.379-2.294,10.162C214.253,155.446,216.959,152.969,218.924,149.369"/>
	<path fill="#FFFFFF" d="M219.463,119.394c0.256-4.673-0.767-8.833-2.504-11.31c-2.043,2.221-3.522,6.228-3.755,10.902
		c-0.228,4.646,0.792,8.834,2.555,11.311C217.775,128.075,219.259,124.066,219.463,119.394"/>
	<path fill="#FFFFFF" d="M212.364,143.574c1.479-2.707,2.094-6.97,1.377-11.567c-0.689-4.594-2.576-8.425-4.799-10.391
		c-1.481,2.681-2.094,6.996-1.381,11.592C208.278,137.803,210.144,141.607,212.364,143.574"/>
	<path fill="#FFFFFF" d="M300.219,186.441c-3.599,2.324-7.453,3.193-10.235,2.528c0.917-2.987,3.472-6.231,7.098-8.581
		c3.625-2.347,7.452-3.165,10.214-2.551C306.422,180.85,303.847,184.093,300.219,186.441"/>
	<path fill="#FFFFFF" d="M302.469,192.697c-1.762,2.478-5.132,4.571-9.269,5.388c-4.137,0.841-7.966,0.202-10.419-1.456
		c1.737-2.476,5.185-4.57,9.296-5.412C296.208,190.374,300.069,191.037,302.469,192.697"/>
	<path fill="#FFFFFF" d="M301.958,156.238c-2.477-0.816-5.161-3.294-7.125-6.843c-1.99-3.602-2.756-7.378-2.301-10.188
		c2.455,0.819,5.132,3.294,7.098,6.895C301.624,149.649,302.391,153.427,301.958,156.238"/>
	<path fill="#FFFFFF" d="M304.151,156.212c2.683-3.576,5.999-5.847,8.809-6.333c0.078,3.168-1.3,7.225-3.983,10.801
		c-2.682,3.624-5.997,5.872-8.779,6.333C300.09,163.847,301.469,159.786,304.151,156.212"/>
	<path fill="#FFFFFF" d="M295.904,156.032c1.484,2.656,2.122,6.946,1.433,11.566c-0.665,4.621-2.503,8.401-4.699,10.392
		c-1.531-2.655-2.193-6.944-1.481-11.541C291.822,161.827,293.66,158.024,295.904,156.032"/>
	<path fill="#FFFFFF" d="M297.182,175.59c0.865-3.013,3.419-6.256,7.075-8.603c3.648-2.324,7.452-3.168,10.235-2.555
		c-0.921,3.013-3.469,6.257-7.097,8.579C303.769,175.385,299.942,176.204,297.182,175.59"/>
	<path fill="#FFFFFF" d="M312.81,132.594c0.661,3.063,0.05,7.353-1.944,11.464c-1.989,4.109-4.849,7.098-7.503,8.169
		c-0.666-3.088-0.03-7.353,1.938-11.488C307.295,136.653,310.15,133.691,312.81,132.594"/>
	<path fill="#FFFFFF" d="M304.818,121.616c1.505,2.705,2.094,6.97,1.378,11.592c-0.689,4.595-2.578,8.4-4.801,10.366
		c-1.511-2.683-2.094-6.97-1.405-11.567C300.73,127.413,302.596,123.582,304.818,121.616"/>
	<path fill="#FFFFFF" d="M296.826,108.084c2.015,2.246,3.471,6.255,3.727,10.902c0.256,4.672-0.794,8.86-2.554,11.311
		c-1.988-2.221-3.472-6.23-3.728-10.902C294.042,114.747,295.088,110.561,296.826,108.084"/>
	<path fill="#FFFFFF" d="M298.332,138.134c-2.578,0.152-5.849-1.2-8.761-3.805c-2.933-2.629-4.798-5.948-5.208-8.755
		c2.555-0.104,5.826,1.199,8.758,3.829C296.058,132.058,297.896,135.352,298.332,138.134"/>
	<path fill="#FFFFFF" d="M280.995,107.268c2.734,0.738,5.872,3.317,8.243,7.148c2.404,3.855,3.45,8.017,3.117,11.159
		c-2.756-0.743-5.897-3.322-8.298-7.176C281.684,114.593,280.612,110.406,280.995,107.268"/>
	<path fill="#FFFFFF" d="M282.781,183.147c1.893-4.161,4.699-7.148,7.353-8.298c0.716,3.065,0.154,7.353-1.784,11.491
		c-1.893,4.161-4.699,7.173-7.355,8.322C280.281,191.6,280.868,187.31,282.781,183.147"/>
	<path fill="#FFFFFF" d="M282.324,199.617c4.16,0.537,7.683,2.4,9.574,4.749c-2.327,1.838-6.13,2.729-10.29,2.222
		c-4.188-0.564-7.66-2.374-9.604-4.751C274.354,200.025,278.136,199.106,282.324,199.617"/>
	<path fill="#FFFFFF" d="M268.383,194.178c3.494-2.578,7.249-3.677,10.059-3.243c-0.716,3.064-3.089,6.51-6.588,9.09
		c-3.5,2.577-7.254,3.678-10.06,3.241C262.506,200.203,264.856,196.782,268.383,194.178"/>
	<path fill="#FFFFFF" d="M253.521,205.414l0.205,0.075c1.122,0.485,2.249,1.021,3.267,1.583c0,0,1.405-0.842,3.731-1.737
		c2.424-0.994,5.667-1.174,9.088-0.33c4.086,1.018,7.404,3.293,9.038,5.871c-2.452,1.533-6.305,2.018-10.415,0.972
		c-3.932-0.998-7.148-3.116-8.86-5.569l-1.456,1.432c4.34,2.579,7.915,6.025,11.36,10.544c-1.35,2.146-2.04,3.219-3.366,5.337
		c-2.633-5.924-5.443-10.775-9.12-14.81c-3.826,4.084-7.021,8.988-9.625,14.912c-1.35-2.119-2.018-3.218-3.395-5.336
		c3.471-4.544,7.403-8.068,11.948-10.698l-1.428-1.43c-1.74,2.476-5.004,4.621-8.909,5.618c-4.116,1.046-7.97,0.561-10.447-0.972
		c1.633-2.578,4.953-4.853,9.063-5.871c3.472-0.87,6.793-0.639,9.27,0.38L253.521,205.414"/>
	<path fill="#FFFFFF" d="M245.4,194.178c3.478,2.604,5.876,6.024,6.588,9.088c-2.833,0.437-6.588-0.665-10.06-3.241
		c-3.521-2.58-5.898-6.026-6.586-9.09C238.125,190.501,241.877,191.6,245.4,194.178"/>
	<path fill="#FFFFFF" d="M241.724,201.836c-1.889,2.349-5.41,4.215-9.546,4.751c-4.188,0.536-7.966-0.384-10.315-2.222
		c1.889-2.349,5.411-4.212,9.576-4.722C235.625,199.082,239.431,199.998,241.724,201.836"/>
	<path fill="#FFFFFF" d="M232.737,194.663c-2.627-1.149-5.41-4.162-7.353-8.322c-1.917-4.138-2.5-8.426-1.76-11.518
		c2.626,1.151,5.437,4.164,7.353,8.325C232.915,187.31,233.504,191.6,232.737,194.663"/>
	<path fill="#FFFFFF" d="M224.518,114.439c2.4-3.854,5.515-6.434,8.27-7.172c0.362,3.139-0.712,7.3-3.087,11.131
		c-2.373,3.854-5.517,6.433-8.272,7.176C221.069,122.433,222.14,118.271,224.518,114.439"/>
	<path fill="#FFFFFF" d="M220.636,129.428c2.937-2.655,6.202-3.982,8.729-3.854c-0.383,2.807-2.242,6.101-5.205,8.729
		c-2.909,2.655-6.18,3.983-8.735,3.855C215.835,135.352,217.724,132.058,220.636,129.428"/>
	<path fill="#FFFFFF" d="M211.827,156.238c-0.433-2.811,0.306-6.589,2.299-10.137c1.965-3.601,4.672-6.076,7.125-6.895
		c0.432,2.81-0.36,6.587-2.299,10.188C216.959,152.943,214.28,155.421,211.827,156.238"/>
	<path fill="#FFFFFF" d="M213.587,167.013c-2.806-0.461-6.126-2.733-8.809-6.333c-2.677-3.576-4.059-7.633-3.956-10.775
		c2.81,0.46,6.104,2.706,8.782,6.307C212.315,159.812,213.693,163.847,213.587,167.013"/>
	<path fill="#FFFFFF" d="M217.881,156.032c2.193,1.992,4.059,5.795,4.748,10.417c0.661,4.597,0.05,8.886-1.481,11.541
		c-2.195-1.991-4.034-5.771-4.722-10.392C215.709,162.978,216.37,158.688,217.881,156.032"/>
	<path fill="#FFFFFF" d="M213.205,118.986c0.232-4.674,1.711-8.681,3.705-10.902c1.787,2.501,2.81,6.637,2.577,11.336
		c-0.228,4.646-1.711,8.681-3.7,10.903C213.997,127.82,212.977,123.658,213.205,118.986"/>
	<path fill="#FFFFFF" d="M208.943,121.616c2.247,1.966,4.084,5.797,4.826,10.391c0.689,4.597,0.102,8.884-1.404,11.567
		c-2.249-1.966-4.086-5.771-4.803-10.366C206.849,128.586,207.438,124.321,208.943,121.616"/>
	<path fill="#FFFFFF" d="M200.975,132.594c2.658,1.098,5.515,4.06,7.457,8.146c1.99,4.135,2.656,8.4,1.967,11.488
		c-2.656-1.071-5.514-4.06-7.482-8.169C200.924,139.946,200.286,135.657,200.975,132.594"/>
	<path fill="#FFFFFF" d="M199.291,164.433c2.756-0.614,6.614,0.23,10.214,2.555c3.626,2.347,6.204,5.59,7.098,8.603
		c-2.759,0.613-6.586-0.23-10.214-2.553C202.739,170.689,200.157,167.446,199.291,164.433"/>
	<path fill="#FFFFFF" d="M206.467,177.837c2.783-0.614,6.609,0.205,10.237,2.527c3.626,2.373,6.181,5.617,7.075,8.604
		c-2.783,0.637-6.586-0.205-10.242-2.528C209.911,184.093,207.361,180.85,206.467,177.837"/>
	<path fill="#FFFFFF" d="M211.292,192.697c2.4-1.66,6.282-2.323,10.415-1.48c4.086,0.842,7.531,2.936,9.297,5.412
		c-2.455,1.658-6.282,2.297-10.419,1.456C216.449,197.268,213.052,195.174,211.292,192.697"/>
	<path fill="#FFFFFF" d="M359.252,597.291c-0.695-0.046-2.043-0.148-3.499-0.148c-1.073,0-2.298,0.051-3.706,0.148h-0.433l0.078-0.4
		c0.486-3.424,0.739-6.999,0.739-10.883v-20.271c0-5.616-0.432-6.229-2.298-6.229c-0.533,0-1.272,0.101-2.244,0.358l-3.166,0.714
		c-0.974,0.199-1.583,0.457-2.25,0.711l-0.149,0.059l-0.922-0.672l0.154-0.254c0.433-0.862,1.022-2.299,1.35-3.574l0.057-0.25h0.256
		c1.604-0.207,2.732-0.313,4.621-0.719l6.686-1.433c1.227-0.254,2.577-0.659,3.755-0.964l0.205-0.059l0.767,0.718l-0.029,0.254
		c-0.56,3.678-0.765,7.915-0.765,10.422v21.805c0,4.442,0.41,7.911,1.149,10.16l0.18,0.507H359.252z"/>
	<path fill="#FFFFFF" d="M406.563,597.705l-0.052,0.304h-0.305c-0.058,0-5.059,0.051-7.994,0.305l-0.232,0.051l-0.56-1.119
		l21.854-37.228h-13.685c-2.144,0-4.901,0.258-7.2,1.89l-0.178,0.102l-1.098-0.405l0.129-0.313c0.737-2.037,1.297-5.359,1.504-6.736
		l0.048-0.305h0.361c1.585,0.098,3.267,0.098,5.054,0.098h15.729c2.016,0,2.96,0,4.798-0.153l0.357-0.051l0.055,0.36l0.66,4.036
		l0.105,0.202l-0.154,0.147c-3.373,3.783-7.404,10.776-10.876,17.107C409.243,586.312,407.073,591.983,406.563,597.705"/>
	<path fill="#FFFFFF" d="M384.146,573.296c4.083-2.299,7.865-5.105,7.865-10.623c0-6.022-4.982-10.367-11.848-10.367
		c-7.046,0-12.589,5.054-12.589,11.542c0,5.358,3.601,8.375,7.277,10.619c-5.845,3.475-9.422,6.791-9.422,12.514
		c0,6.74,5.414,11.439,13.202,11.439c8.604,0,14.808-5.414,14.808-12.868C393.438,579.42,389.046,575.997,384.146,573.296
		 M373.116,562.621c0-4.036,3.089-7.045,7.148-7.045c4.188,0,7.251,3.061,7.251,7.197c0,4.653-3.37,6.999-6.791,8.938
		C376.841,569.464,373.116,567.063,373.116,562.621 M379.193,595.305c-4.983,0-8.584-3.625-8.584-8.481
		c0-5.261,4.038-8.427,8.222-10.464c5.72,3.111,9.348,5.715,9.348,10.519C388.179,591.628,384.247,595.305,379.193,595.305"/>
	<path fill="#FFFFFF" d="M444.351,574.163c4.033-2.295,7.862-5.054,7.862-10.62c0-6.03-4.953-10.366-11.85-10.366
		c-7.043,0-12.612,5.105-12.612,11.536c0,5.363,3.603,8.427,7.303,10.675c-5.845,3.42-9.445,6.741-9.445,12.458
		c0,6.745,5.413,11.491,13.174,11.491c8.63,0,14.863-5.414,14.863-12.919C453.646,580.341,449.25,576.918,444.351,574.163
		 M433.777,563.543c0-4.092,3.063-7.1,7.152-7.1c4.133,0,7.25,3.064,7.25,7.252c0,4.645-3.422,6.994-6.843,8.882
		C437.509,570.385,433.777,567.984,433.777,563.543 M439.854,596.222c-5.005,0-8.628-3.625-8.628-8.478
		c0-5.261,4.033-8.473,8.271-10.519c5.72,3.115,9.32,5.723,9.32,10.569C448.817,592.546,444.912,596.222,439.854,596.222"/>
	<path fill="#FFFFFF" d="M268.584,507.317c-0.791,2.759-3.268,11.747-3.472,12.512c-13.02-0.46-21.7-0.562-29.359-0.562
		c-9.652,0-15.907,0-21.115,0.102c0.917-6.128,1.604-13.173,1.604-22.009v-36.41c0-5.87-0.199-17.157-2.344-22.364
		c3.983,0.254,6.638,0.254,9.549,0.254h21.826c7.787,0,10.931-0.254,19.406-0.354c-1.555,5.565-3.165,11.436-3.806,13.633
		c-0.61,2.248-1.787,0.562-1.988,0.258c-3.626-5.211-10.597-5.823-17.212-5.823c-2.064,0-4.543,0.151-7.431,0.253
		c-0.1,1.994-0.484,7.561-0.484,12.509v11.854h9.654c7.097,0,14.195-0.511,16.978-0.921c1.149-0.156,0.944,0.765,0.944,0.765
		c-0.894,3.114-2.043,7.354-2.808,10.108c-7.455-0.71-11.486-0.917-16.618-0.917h-8.25v16.443c0,10.671,1.173,14.195,13.815,14.195
		c7.224,0,11.053,0,18.815-5.87C267.667,503.898,269.351,504.511,268.584,507.317"/>
	<path fill="#FFFFFF" d="M303.462,507.423c-1.739,4.188-2.555,7.196-3.598,11.845c-1.178-0.105-3.854-0.105-6.538-0.105
		c-2.299,0-5.181,0.105-7.431,0.207c-0.816-5.105-1.733-8.325-3.521-13.431l-7.659-23.542c-2.326-6.943-5.109-14.601-10.241-20.576
		c7.687,0.254,13.712-0.102,21.066-0.663c0.46,5.667,1.732,11.131,3.37,16.595l4.316,14.808c1.072,3.475,3.268,11.237,3.268,11.237
		c0.815-2.502,1.759-5.008,2.575-7.201l6.742-17.415c1.15-3.009,2.684-7.708,3.117-12.458c0-1.636,0.149-3.115,0-5.109
		c1.661,0.105,4.699,0.105,7.121,0.105c2.324,0,6.102-0.257,7.89-0.511c1.608-0.203,1.379,0.815,0.845,1.429
		c-4.011,5.108-7.224,12.001-10.241,19.101L303.462,507.423z"/>
	<path fill="#FFFFFF" d="M396.887,519.369c-1.863-0.152-5.642-0.253-9.27-0.253c-3.676,0-7.326,0.101-9.546,0.253
		c1.044-6.842,1.401-12.458,1.401-20.936v-14.093c0-5.621-0.486-15.729-2.474-21.958c4.494,0,11.437-0.258,16.136-0.461
		l-0.256,13.379l4.237-5.515c5.31-6.947,8.986-9.141,14.501-9.141c1.995,0,2.91,0.152,5.054,1.073
		c-1.682,5.972-3.393,12.256-4.414,15.877c-0.206,0.819-0.943,1.843-2.015,0.668c-2.251-2.506-2.636-3.419-5.363-3.419
		c-3.269,0-5.976,1.732-7.991,5.055c-1.661,2.704-2.35,4.953-2.35,10.568v9.547C394.537,510.076,395.226,514.315,396.887,519.369"/>
	<path fill="#FFFFFF" d="M461.913,462.839c-0.457,1.636-1.783,6.486-2.348,8.481c-4.566-0.563-7.353-0.563-10.417-0.563h-5.208
		c-0.256,3.88-0.357,8.63-0.357,11.947v13.379c0,8.938,0.919,15.577,8.733,15.577c2.499,0,4.494-0.562,7.608-2.143
		c0.484-0.207,1.684-0.156,1.276,1.378c-0.742,2.603-1.38,4.999-2.246,7.962c-6.998,1.838-9.961,2.399-13.716,2.399
		c-10.08,0-16.595-4.395-16.595-18.843v-17.923c0-5.819,0-9.96-0.228-13.835c-3.117,0-6.38,0.354-7.994,0.663
		c-0.353,0.047-1.147-0.105-0.786-1.382c0.098-0.355,1.58-5.667,2.092-7.556c1.505,0.152,4.289,0.202,7.172,0.202
		c0-4.597-0.256-7.099-0.483-10.619c4.137-1.226,11.642-4.599,14.885-6.64c1.2-0.769,1.812,0.305,1.712,1.581
		c-0.102,1.382-0.919,5.261-1.073,15.678h8.171c2.833,0,5.998-0.101,8.986-0.815C461.533,461.668,462.169,461.871,461.913,462.839"
		/>
	<path fill="#FFFFFF" d="M576.582,519.162c-3.804,0-7.609,0.105-9.624,0.207c1.046-6.432,1.426-13.836,1.426-22.414V486.64
		c0-6.897-0.482-14.863-10.235-14.863c-3.45,0-6.92,1.433-9.553,3.884c-2.933,3.013-3.806,5.515-3.806,12.868v8.427
		c0,10.822,0.767,17.36,2.405,22.414c-1.789-0.102-5.72-0.207-9.423-0.207c-3.906,0-7.608,0.105-9.626,0.207
		c1.073-6.432,1.431-13.836,1.431-22.414v-14.504c0-5.718-0.459-14.351-2.502-20.682c5.231,0,12.511,0,17.517-0.46l-0.386,10.214
		l4.771-4.032c5.821-4.854,10.571-6.896,16.548-6.896c13.556,0,18.177,7.607,18.177,21.037v15.323c0,10.822,0.719,17.36,2.4,22.414
		C584.214,519.268,580.258,519.162,576.582,519.162"/>
	<path fill="#FFFFFF" d="M370.283,489.395c2.015,0,2.015-5.004,2.015-6.179c0-13.891-8.936-22.469-23.238-22.469
		c-16.593,0-28.109,12.509-28.109,30.638c0,17.821,11.364,29.979,29.287,29.979c6.127,0,12.819-1.689,18.18-3.422
		c0.917-3.424,1.225-4.497,2.35-8.532c0.509-1.834-0.537-2.447-1.504-1.788c-4.117,2.86-7.077,3.782-12.082,3.782
		c-12.408,0-19.837-7.864-20.065-21.649c3.806-0.258,12.306-0.359,18.332-0.359H370.283z M336.959,482.549
		c0.589-9.491,3.727-15.058,11.186-15.058c5.209,0,9.141,3.981,9.141,9.34c0,3.731-1.942,5.261-6.948,5.362L336.959,482.549z"/>
	<path fill="#FFFFFF" d="M494.953,460.646c-20.732,0-31.811,13.227-31.811,31.505c0,18.383,10.694,29.107,29.001,29.107
		c19.251,0,31.587-12.508,31.587-32.016C523.73,471.113,513.389,460.646,494.953,460.646 M493.422,514.721
		c-8.86,0-13.736-8.574-13.736-24.865c0-13.891,3.727-22.622,13.402-22.622c9.064,0,14.096,8.731,14.096,24.917
		C507.184,507.063,502.408,514.721,493.422,514.721"/>
	<path fill="#FFFFFF" d="M464.313,218.459L405.951,95.672c2.145-4.542-2.094-10.416-6.615-10.416c-4.52,0-8.091,5.898-5.946,10.52
		l-57.958,123.32c-11.518,6.23-14.047,14.069-11.67,19.302c0,0,1.35,3.704,6.533,5.259c0.027,7.992,0.129,84.334,0.182,99.029
		l-0.076,0.664c-2.322-0.359-5.033,1.173-5.033,5.206c0,6.18,0.05,9.806,0.05,15.833c0,1.429,0.055,5.769,0.055,6.179
		c0,4.9,5.004,6.433,5.004,6.433s110.653,39.525,114.281,40.953c5.287,1.991,10.01,3.626,14.553,5.465
		c1.533,0.562,1.609,1.428,1.711,4.184v5.62c0,0,2.836,0.102,4.29,0.102c10.697,0,9.319-5.409,9.677-21.755
		c0.305-17.154,0.354-22.312-4.545-23.438c-0.41-45.037,0.583-123.946,0.356-146.209c3.629-1.376,6.766-4.212,7.252-8.554
		C478.511,229.387,474.173,223.285,464.313,218.459 M400.154,109.283c1.967,4.188,4.16,8.809,6.429,13.761
		c-2.014,0.104-5.994,0.41-8.547,1.022c-1.481,0.308-1.788,0.869-1.788,1.38c0,0.482,0.611,1.199,2.195,1.225
		c3.166,0.077,7.706,0.333,10.057,0.433c0.717,1.456,1.383,2.964,2.093,4.468c-1.683,0.486-4.082,1.228-4.771,1.483
		c-1.048,0.434-2.148,0.817-2.07,1.608c0.105,0.688,1.228,0.766,2.142,0.894c1.995,0.252,4.983,0.457,6.743,0.409
		c1.175,2.476,1.995,4.287,3.219,6.842c0.714,1.608-1.508,1.915-3.373,2.042c-2.271,0.152-7.936,0.127-10.668,0.485
		c-1.071,0.154-1.456,0.714-1.456,1.327c0,0.561,0.817,1.072,1.811,1.149c3.884,0.204,8.68,0.587,11.21,1.099
		c2.118,0.407,4.52,0.943,6.002,1.507c0.768,1.583,1.456,3.114,2.194,4.672c0.409,0.919-0.795,1.353-1.683,1.43
		c-1.455,0.128-7.97-0.306-11.443,0.05c-1.532,0.152-1.866,0.536-1.866,1.303c0,0.561,0.313,0.919,1.769,1.149
		c2.781,0.457,8.374,0.688,10.134,0.996c1.813,0.28,4.289,0.919,6.204,1.761c1.175,2.58,1.939,4.163,3.116,6.69
		c0.482,1.048-0.184,1.402-0.815,1.431c-1.024,0.075-12.796,0.227-13.791,0.28c-1.199,0.104-2.553,0.458-2.756,1.431
		c-0.154,0.738,0.917,1.811,3.624,1.991c2.709,0.177,12.972,0.79,18.281,4.595c1.455,3.065,2.834,6.077,4.188,8.937
		c-4.031-0.384-17.949-1.558-24.33-1.355c-5.492,0.154-7.766,0-7.994,1.126c-0.153,1.096,0.975,1.582,4.444,1.915
		c3.294,0.356,21.444,1.428,31.097,5.157c1.865,4.033,3.521,7.659,4.976,10.698c-5.024-1.022-16.772-2.759-23.921-2.935
		c-2.755-0.079-3.775,0.535-3.775,1.684c0,1.147,2.446,1.301,4.133,1.456c8.885,0.892,21.448,3.957,26.403,5.795
		c0.482,1.123,0.915,1.993,1.224,2.706c-16.16-3.368-39.219-5.028-49.378-5.028c-10.088,0-31.792,1.48-48.025,5.31
		C356.009,203.855,384.657,142.5,400.154,109.283 M356.924,379.401l-0.915,0.562c-5.005-1.785-7.509-2.654-12.515-4.341
		l-0.892-1.174v-20.936l0.892-0.56c5.006,1.941,7.51,2.858,12.515,4.699l0.915,1.171V379.401 M377.864,386.807l-0.866,0.56
		c-5.034-1.786-7.535-2.705-12.564-4.441l-0.871-1.228c0-8.218,0-12.356,0-20.425l0.871-0.56c5.054,1.837,7.554,2.757,12.586,4.492
		l0.894,1.176C377.915,374.447,377.915,378.585,377.864,386.807 M398.824,394.262l-0.892,0.509
		c-5.006-1.732-7.505-2.603-12.509-4.441l-0.921-1.175c0-8.221,0-12.408,0.048-20.529l0.873-0.51
		c5.055,1.736,7.554,2.553,12.558,4.239l0.921,1.174C398.877,381.698,398.854,385.99,398.824,394.262 M419.734,401.563l-0.892,0.563
		c-4.979-1.685-7.482-2.604-12.534-4.339l-0.847-1.226c0.028-8.276,0.028-12.563,0.052-20.885l0.892-0.614
		c5.006,1.633,7.512,2.451,12.543,3.981l0.864,1.176C419.813,388.85,419.787,393.294,419.734,401.563 M440.648,408.814l-0.896,0.613
		c-5.004-1.737-7.504-2.654-12.507-4.341l-0.896-1.175c0.05-8.374,0.05-12.869,0.073-21.6l0.919-0.664
		c4.955,1.533,7.484,2.248,12.46,3.782l0.894,1.221C440.674,395.794,440.674,400.44,440.648,408.814 M378.375,359.436
		c-24.717-8.58-35.922-13.125-36.157-20.312c-0.199-4.442-0.767-22.927-0.304-27.625l-0.463-68.961
		c-0.019-2.043,3.296-3.244,6.36-4.009c2.889-0.716,21.117-4.749,51.603-4.749c30.483,0,51.753,3.676,57.242,5.872
		c1.198,0.487,2.654,1.073,3.524,1.814l0.076,5.924c-5.186-0.716-24.842-3.422-33.267-4.011c-3.884-0.227-8.938-0.433-13.867-0.534
		l-0.584-1.403l-1.533-0.766c-10.753-0.436-14.557-0.436-25.48,0l-1.584,0.766l-0.56,1.608l1.454,26.299l-1.175,0.075
		c-5.363,0.46-26.834,3.474-28.267,3.858c-1.965,0.481-2.449,1.045-2.271,1.785c0.283,1.149,1.815,0.742,3.4,0.562
		c10.668-1.201,20.271-1.865,28.518-2.195l0.23,4.187c0.049,1.2,1.069,2.145,2.246,2.145h0.053c9.136-0.409,12.252-0.409,21.342,0
		c1.225,0.05,2.274-0.92,2.322-2.145l0.232-4.137c3.421,0.152,5.281,0.333,5.281,0.333c15.295,1.352,35.313,4.263,43.942,9.472
		l0.054,6.204c-5.031-1.071-17.901-3.778-22.673-4.11c-5.927-0.46-8.732-0.155-9.73,0c-0.997,0.127-1.84,0.714-1.711,1.455
		c0.154,0.739,0.993,1.176,2.299,1.328c1.173,0.153,20.221,0.842,31.916,8.809l0.076,6.283c-6.715-1.354-29.004-5.644-44.448-6.361
		c-20.223-0.969-45.399,1.456-47.394,1.763c-1.938,0.281-2.933,0.867-2.804,1.915c0.148,1.047,0.458,1.532,3.267,1.329
		c1.99-0.156,38.705-1.456,57.956,1.326c15.676,2.272,26.503,4.876,33.524,8.245l0.104,7.917c-6.255-1.277-19.89-3.906-26.836-4.494
		c-14.426-1.224-23.59-1.021-25.17-1.021c-1.435,0-2.046,0.665-1.946,1.583c0.051,1.071,1.073,1.071,2.045,1.125
		c1.915,0.049,12.56,0.331,24.358,2.168c7.708,1.176,19.657,3.04,27.6,7.176l0.102,8.019c-4.112-0.488-12.256-1.381-15.703-1.51
		c-4.645-0.125-8.554-0.023-10.01,0.31c-0.97,0.228-1.505,0.867-1.378,1.456c0.152,0.585,0.663,1.07,1.634,1.07
		c0.972,0,7.942,0.434,13.151,1.304c4.109,0.714,9.064,2.167,12.382,3.815c0,0,0.025,7.865,0.025,10.468
		c0,0.256-8.858-2.807-17.694-3.369c-7.913-0.512-15.521-0.411-21.522,0.101c-0.539,0.051-2.221,0.358-2.197,1.787
		c0.055,1.585,1.865,1.329,2.731,1.329c4.55,0.204,8.274,0,16.289,0.815c11.594,1.122,22.524,4.854,22.524,5.054
		c0,3.22,0,6.131,0,9.96c0,0.153-5.006-1.43-12.771-2.503c-3.213-0.358-8.729-1.021-10.875-0.814
		c-1.433,0.152-2.758,0.408-2.81,1.685c-0.077,1.888,3.194,1.888,4.342,2.041c1.224,0.152,4.645,0.359,10.672,1.381
		c4.854,0.816,11.442,2.655,11.442,2.807c0,8.224,0,14.861,0,14.861C436.841,379.146,404.266,369.036,378.375,359.436
		 M431.864,259.388c1.044,0,20.196,0.535,28.623,7.556l0.101,7.965c-5.362-1.301-17.82-4.06-32.377-5.489
		c-3.904-0.383-7.759-0.611-11.513-0.766c0,0-1.966-0.051-4.926-0.101l1.2-22.316c5.663,0.382,11.612,0.943,16.771,1.633
		c8.327,1.098,23.823,3.881,30.59,6.664l0.053,5.771c-3.32-0.792-10.419-2.323-15.372-2.988c-6.639-0.891-11.748-0.891-12.919-0.713
		c-1.124,0.127-2.506,0.202-2.478,1.479C429.617,259.106,430.717,259.388,431.864,259.388 M408.4,246.391l-1.532,28.801
		c0,0-8.168-0.128-14.708,0l-1.658-28.673C390.502,246.52,401.609,245.982,408.4,246.391 M461.559,416.117l-0.921,0.563
		c-4.979-1.737-7.504-2.659-12.481-4.341l-0.922-1.225c0.025-8.376,0.078-13.125,0.078-22.471l0.892-0.714
		c4.979,1.481,7.484,2.195,12.434,3.727l0.921,1.278V416.117z M465.312,234.775c-1.198,2.041-3.802,1.224-6.563,0
		c-2.55-1.176-23.743-8.86-59.334-8.86c-35.646,0-55.023,6.971-57.602,7.582c-2.582,0.639-6.153,2.707-8.121-1.048
		c-1.304-2.423,0.408-4.749,4.338-6.355c3.989-1.687,32.759-7.968,61.384-8.248c28.647-0.256,55.964,5.922,63.699,10.903
		C465.08,229.974,466.486,232.681,465.312,234.775"/>
	<path fill="#FFFFFF" d="M492.633,173.038c3.62,2.348,7.428,3.19,10.235,2.578c-0.866-3.039-3.471-6.281-7.097-8.603
		c-3.628-2.374-7.455-3.194-10.214-2.58C486.424,167.446,488.978,170.713,492.633,173.038"/>
	<path fill="#FFFFFF" d="M509.867,174.85c-0.693,3.065-0.106,7.379,1.783,11.491c1.916,4.161,4.699,7.173,7.353,8.322
		c0.719-3.063,0.154-7.354-1.76-11.516C515.327,179.011,512.546,175.999,509.867,174.85"/>
	<path fill="#FFFFFF" d="M496.638,152.227c0.688-3.088,0.055-7.353-1.912-11.488c-1.992-4.111-4.824-7.048-7.508-8.121
		c-0.64,3.039-0.027,7.304,1.966,11.439C491.123,148.194,493.983,151.131,496.638,152.227"/>
	<path fill="#FFFFFF" d="M515.944,118.398c2.399-3.831,3.469-7.992,3.114-11.131c-2.76,0.738-5.876,3.317-8.274,7.172
		c-2.4,3.832-3.472,7.993-3.115,11.135C510.427,124.807,513.566,122.252,515.944,118.398"/>
	<path fill="#FFFFFF" d="M510.45,134.304c2.938-2.629,4.774-5.922,5.188-8.729c-2.531-0.128-5.826,1.199-8.735,3.854
		c-2.909,2.63-4.799,5.923-5.206,8.706C504.247,138.287,507.518,136.959,510.45,134.304"/>
	<path fill="#FFFFFF" d="M498.63,143.574c1.484-2.707,2.097-6.97,1.378-11.567c-0.714-4.594-2.604-8.425-4.799-10.391
		c-1.504,2.681-2.094,6.996-1.375,11.592C494.521,137.803,496.382,141.607,498.63,143.574"/>
	<path fill="#FFFFFF" d="M505.728,119.394c0.256-4.673-0.813-8.833-2.555-11.31c-2.014,2.221-3.469,6.228-3.725,10.902
		c-0.208,4.646,0.815,8.834,2.577,11.311C504.041,128.075,505.501,124.066,505.728,119.394"/>
	<path fill="#FFFFFF" d="M575.838,134.304c2.911,2.655,6.183,3.983,8.737,3.831c-0.41-2.783-2.299-6.076-5.211-8.706
		c-2.909-2.655-6.181-3.982-8.73-3.854C571.039,128.381,572.904,131.675,575.838,134.304"/>
	<path fill="#FFFFFF" d="M567.872,206.587c4.14,0.508,7.918-0.384,10.265-2.196c-1.889-2.375-5.388-4.213-9.574-4.748
		c-4.16-0.537-7.965,0.382-10.285,2.192C560.165,204.213,563.686,206.051,567.872,206.587"/>
	<path fill="#FFFFFF" d="M578.599,125.574c0.333-3.142-0.717-7.33-3.116-11.135c-2.377-3.854-5.515-6.434-8.27-7.172
		c-0.334,3.139,0.712,7.3,3.112,11.131C572.726,122.252,575.838,124.831,578.599,125.574"/>
	<path fill="#FFFFFF" d="M574.615,186.341c1.912-4.138,2.501-8.426,1.788-11.491c-2.657,1.149-5.441,4.162-7.35,8.298
		c-1.947,4.162-2.479,8.426-1.792,11.516C569.917,193.514,572.726,190.501,574.615,186.341"/>
	<path fill="#FFFFFF" d="M584.265,130.323c1.736-2.503,2.782-6.691,2.554-11.337c-0.255-4.647-1.731-8.681-3.727-10.902
		c-1.761,2.477-2.811,6.663-2.556,11.336C580.793,124.066,582.247,128.051,584.265,130.323"/>
	<path fill="#FFFFFF" d="M587.635,143.574c2.249-1.966,4.11-5.771,4.827-10.366c0.688-4.596,0.102-8.911-1.407-11.592
		c-2.192,1.966-4.079,5.797-4.768,10.391C585.543,136.604,586.155,140.867,587.635,143.574"/>
	<path fill="#FFFFFF" d="M588.196,156.238c0.461-2.811-0.354-6.589-2.295-10.137c-1.967-3.601-4.648-6.076-7.099-6.895
		c-0.459,2.81,0.308,6.587,2.296,10.188C583.043,152.943,585.746,155.421,588.196,156.238"/>
	<path fill="#FFFFFF" d="M589.629,152.227c2.657-1.096,5.516-4.033,7.454-8.169c1.993-4.135,2.634-8.4,1.993-11.439
		c-2.682,1.073-5.543,4.009-7.51,8.121C589.579,144.874,588.94,149.139,589.629,152.227"/>
	<path fill="#FFFFFF" d="M577.399,166.449c-0.688,4.597-0.051,8.886,1.456,11.541c2.243-1.991,4.08-5.795,4.747-10.392
		c0.716-4.62,0.052-8.911-1.48-11.566C579.924,158.024,578.089,161.827,577.399,166.449"/>
	<path fill="#FFFFFF" d="M487.063,149.878c-0.101,3.168,1.306,7.225,3.958,10.801c2.707,3.6,5.999,5.872,8.837,6.333
		c0.101-3.166-1.329-7.201-3.986-10.801C493.166,152.61,489.845,150.365,487.063,149.878"/>
	<path fill="#FFFFFF" d="M506.852,198.11c4.109,0.844,7.964,0.176,10.368-1.482c-1.739-2.501-5.159-4.595-9.295-5.437
		c-4.084-0.79-7.939-0.154-10.394,1.505C499.294,195.174,502.715,197.268,506.852,198.11"/>
	<path fill="#FFFFFF" d="M558.12,200.025c3.473-2.58,5.873-6.026,6.586-9.09c-2.833-0.434-6.586,0.665-10.085,3.243
		c-3.499,2.604-5.846,6.024-6.588,9.088C550.817,203.703,554.621,202.602,558.12,200.025"/>
	<path fill="#FFFFFF" d="M492.706,177.837c0.894,3.012,3.476,6.255,7.099,8.604c3.624,2.324,7.402,3.166,10.212,2.528
		c-0.866-2.987-3.443-6.231-7.069-8.604C499.294,178.042,495.488,177.224,492.706,177.837"/>
	<path fill="#FFFFFF" d="M505.168,149.369c1.99-3.549,2.757-7.353,2.322-10.136c-2.428,0.817-5.131,3.294-7.125,6.843
		c-1.938,3.6-2.728,7.379-2.295,10.162C500.52,155.446,503.203,152.969,505.168,149.369"/>
	<path fill="#FFFFFF" d="M507.413,177.99c1.51-2.655,2.146-6.944,1.456-11.566c-0.69-4.571-2.501-8.4-4.722-10.392
		c-1.534,2.682-2.146,6.97-1.483,11.566C503.353,172.195,505.218,176.023,507.413,177.99"/>
	<path fill="#FFFFFF" d="M508.128,204.366c2.322,1.838,6.128,2.757,10.315,2.194c4.138-0.508,7.657-2.375,9.547-4.724
		c-2.322-1.838-6.126-2.729-10.263-2.192C513.543,200.178,510.017,202.017,508.128,204.366"/>
	<path fill="#FFFFFF" d="M530.213,205.005c-4.112,1.018-7.404,3.293-9.064,5.871c2.476,1.533,6.337,1.991,10.446,0.945
		c3.904-0.945,7.123-3.088,8.857-5.542l1.479,1.432c-4.389,2.579-7.964,6.025-11.411,10.544c1.401,2.146,2.042,3.219,3.396,5.362
		c2.657-5.949,5.414-10.8,9.09-14.835c3.857,4.035,7.022,8.988,9.648,14.912c1.329-2.146,2.044-3.218,3.373-5.362
		c-3.422-4.493-7.402-8.042-11.947-10.647l1.504-1.455c1.663,2.476,4.926,4.621,8.857,5.591c4.112,1.046,7.966,0.588,10.419-0.945
		c-1.635-2.578-4.953-4.853-9.039-5.871c-3.499-0.894-6.813-0.639-9.263,0.38h0.019l-0.097,0.029l-0.208,0.075
		c-1.121,0.485-2.192,1.021-3.267,1.583c0,0-1.382-0.842-3.7-1.737C536.877,204.341,533.634,204.135,530.213,205.005"/>
	<path fill="#FFFFFF" d="M528.174,200.025c3.493,2.577,7.224,3.678,10.058,3.241c-0.737-3.064-3.089-6.484-6.586-9.088
		c-3.499-2.578-7.277-3.677-10.059-3.243C522.276,194,524.675,197.445,528.174,200.025"/>
	<path fill="#FFFFFF" d="M595.244,160.68c2.655-3.576,4.088-7.633,3.983-10.775c-2.808,0.46-6.127,2.706-8.832,6.307
		c-2.683,3.6-4.088,7.635-3.985,10.801C589.22,166.552,592.541,164.279,595.244,160.68"/>
	<path fill="#FFFFFF" d="M583.319,180.389c-3.621,2.325-6.203,5.593-7.071,8.607c2.784,0.61,6.588-0.231,10.216-2.581
		c3.624-2.322,6.225-5.565,7.098-8.578C590.778,177.199,586.976,178.016,583.319,180.389"/>
	<path fill="#FFFFFF" d="M590.495,166.987c-3.626,2.321-6.177,5.59-7.072,8.603c2.785,0.613,6.611-0.205,10.239-2.579
		c3.624-2.322,6.179-5.566,7.074-8.554C597.949,163.793,594.121,164.663,590.495,166.987"/>
	<path fill="#FFFFFF" d="M578.344,191.217c-4.14,0.842-7.561,2.936-9.29,5.412c2.418,1.634,6.272,2.297,10.361,1.482
		c4.161-0.868,7.561-2.911,9.318-5.438C586.308,191.037,582.453,190.374,578.344,191.217"/>
	<path fill="#FFFFFF" d="M599.049,132.594c0.668,3.063,0.027,7.353-1.917,11.464c-1.987,4.109-4.846,7.098-7.503,8.169
		c-0.688-3.088-0.05-7.353,1.938-11.488C593.533,136.653,596.365,133.691,599.049,132.594"/>
	<path fill="#FFFFFF" d="M581.099,149.369c-1.988-3.549-2.755-7.353-2.296-10.136c2.399,0.817,5.106,3.294,7.099,6.843
		c1.94,3.6,2.756,7.379,2.295,10.162C585.746,155.446,583.043,152.969,581.099,149.369"/>
	<path fill="#FFFFFF" d="M583.603,167.598c-0.667,4.597-2.526,8.401-4.725,10.392c-1.508-2.655-2.167-6.918-1.455-11.541
		c0.666-4.622,2.501-8.425,4.725-10.417C583.654,158.688,584.265,162.978,583.603,167.598"/>
	<path fill="#FFFFFF" d="M590.396,156.212c2.678-3.576,6.024-5.847,8.832-6.333c0.104,3.168-1.301,7.225-3.983,10.801
		c-2.703,3.624-6.024,5.872-8.834,6.333C586.308,163.847,587.713,159.786,590.396,156.212"/>
	<path fill="#FFFFFF" d="M591.055,121.616c1.509,2.705,2.096,6.97,1.379,11.592c-0.688,4.595-2.55,8.4-4.799,10.366
		c-1.479-2.683-2.092-6.97-1.379-11.567C586.976,127.413,588.862,123.582,591.055,121.616"/>
	<path fill="#FFFFFF" d="M583.092,108.084c2.018,2.246,3.472,6.255,3.727,10.902c0.257,4.672-0.817,8.86-2.554,11.311
		c-2.018-2.221-3.472-6.23-3.729-10.902C580.281,114.747,581.355,110.561,583.092,108.084"/>
	<path fill="#FFFFFF" d="M584.575,138.134c-2.531,0.152-5.826-1.2-8.737-3.805c-2.934-2.629-4.799-5.948-5.204-8.755
		c2.527-0.104,5.821,1.199,8.73,3.829C582.324,132.058,584.189,135.352,584.575,138.134"/>
	<path fill="#FFFFFF" d="M567.213,107.268c2.78,0.738,5.893,3.317,8.298,7.148c2.371,3.855,3.421,8.017,3.088,11.159
		c-2.761-0.743-5.873-3.322-8.273-7.176C567.925,114.593,566.879,110.406,567.213,107.268"/>
	<path fill="#FFFFFF" d="M569.054,183.147c1.884-4.161,4.692-7.148,7.35-8.298c0.69,3.065,0.153,7.353-1.788,11.491
		c-1.915,4.161-4.698,7.173-7.354,8.322C566.547,191.6,567.135,187.31,569.054,183.147"/>
	<path fill="#FFFFFF" d="M568.591,199.617c4.158,0.537,7.657,2.4,9.546,4.749c-2.299,1.838-6.125,2.729-10.314,2.222
		c-4.137-0.564-7.657-2.374-9.545-4.751C560.598,200.025,564.402,199.106,568.591,199.617"/>
	<path fill="#FFFFFF" d="M554.649,194.178c3.471-2.578,7.224-3.677,10.057-3.243c-0.737,3.064-3.113,6.51-6.586,9.09
		c-3.521,2.577-7.253,3.678-10.087,3.241C548.751,200.203,551.15,196.782,554.649,194.178"/>
	<path fill="#FFFFFF" d="M543.006,207.071c1.074-0.587,2.146-1.098,3.267-1.609l0.208-0.077l0.097-0.024
		c2.453-1.02,5.772-1.226,9.244-0.356c4.11,1.018,7.43,3.293,9.039,5.845c-2.453,1.558-6.328,2.016-10.419,0.97
		c-3.95-0.995-7.175-3.115-8.885-5.591l-1.477,1.406c4.545,2.679,8.525,6.203,11.947,10.696c-1.355,2.144-2.044,3.216-3.373,5.362
		c-2.626-5.897-5.791-10.852-9.648-14.937c-3.676,4.06-6.433,8.937-9.09,14.86c-1.328-2.144-2.018-3.216-3.372-5.362
		c3.451-4.519,6.999-7.965,11.388-10.57l-1.505-1.405c-1.709,2.426-4.928,4.547-8.832,5.542c-4.086,1.046-7.993,0.588-10.446-0.97
		c1.66-2.552,4.981-4.827,9.041-5.845c3.421-0.845,6.688-0.664,9.116,0.305C541.624,206.229,543.006,207.071,543.006,207.071"/>
	<path fill="#FFFFFF" d="M531.646,194.178c3.497,2.604,5.897,6.024,6.614,9.088c-2.862,0.437-6.593-0.665-10.086-3.241
		c-3.499-2.58-5.849-6.026-6.587-9.09C524.368,190.501,528.146,191.6,531.646,194.178"/>
	<path fill="#FFFFFF" d="M527.99,201.836c-1.89,2.349-5.382,4.215-9.569,4.751c-4.188,0.536-7.971-0.384-10.293-2.222
		c1.889-2.349,5.415-4.212,9.6-4.722C521.864,199.082,525.697,199.998,527.99,201.836"/>
	<path fill="#FFFFFF" d="M498.07,156.238c-0.463-2.811,0.304-6.589,2.295-10.137c1.994-3.601,4.697-6.076,7.097-6.895
		c0.463,2.81-0.304,6.587-2.294,10.188C503.227,152.943,500.52,155.421,498.07,156.238"/>
	<path fill="#FFFFFF" d="M499.858,167.013c-2.812-0.461-6.13-2.733-8.837-6.333c-2.652-3.576-4.059-7.633-3.958-10.775
		c2.838,0.46,6.103,2.706,8.809,6.307C498.581,159.812,499.959,163.847,499.858,167.013"/>
	<path fill="#FFFFFF" d="M504.147,156.032c2.193,1.992,4.031,5.795,4.747,10.417c0.664,4.597,0.028,8.886-1.481,11.541
		c-2.195-1.991-4.084-5.771-4.749-10.392C502.002,162.978,502.613,158.688,504.147,156.032"/>
	<path fill="#FFFFFF" d="M510.017,188.969c-2.78,0.637-6.588-0.205-10.212-2.528c-3.623-2.348-6.178-5.591-7.099-8.604
		c2.782-0.614,6.588,0.205,10.241,2.527C506.597,182.738,509.15,185.982,510.017,188.969"/>
	<path fill="#FFFFFF" d="M507.925,191.217c4.136,0.842,7.556,2.936,9.318,5.412c-2.428,1.634-6.254,2.297-10.392,1.482
		c-4.137-0.868-7.558-2.911-9.293-5.438C499.959,191.037,503.841,190.374,507.925,191.217"/>
	<path fill="#FFFFFF" d="M519.003,194.663c-2.653-1.149-5.437-4.162-7.376-8.322c-1.914-4.138-2.477-8.426-1.76-11.518
		c2.679,1.151,5.46,4.164,7.376,8.325C519.157,187.31,519.722,191.6,519.003,194.663"/>
	<path fill="#FFFFFF" d="M510.784,114.439c2.398-3.854,5.515-6.434,8.274-7.172c0.354,3.139-0.715,7.3-3.114,11.131
		c-2.401,3.854-5.518,6.433-8.275,7.176C507.313,122.433,508.384,118.271,510.784,114.439"/>
	<path fill="#FFFFFF" d="M506.902,129.428c2.909-2.655,6.181-3.982,8.759-3.854c-0.437,2.807-2.299,6.101-5.211,8.729
		c-2.933,2.655-6.203,3.983-8.754,3.855C502.104,135.352,503.97,132.058,506.902,129.428"/>
	<path fill="#FFFFFF" d="M499.448,118.986c0.256-4.674,1.711-8.681,3.725-10.902c1.79,2.501,2.811,6.637,2.555,11.336
		c-0.227,4.646-1.687,8.681-3.702,10.903C500.264,127.82,499.24,123.658,499.448,118.986"/>
	<path fill="#FFFFFF" d="M495.209,121.616c2.221,1.966,4.085,5.797,4.799,10.391c0.719,4.597,0.106,8.884-1.378,11.567
		c-2.248-1.966-4.086-5.771-4.796-10.366C493.088,128.586,493.729,124.321,495.209,121.616"/>
	<path fill="#FFFFFF" d="M487.218,132.594c2.684,1.098,5.488,4.06,7.479,8.146c1.995,4.135,2.656,8.4,1.94,11.488
		c-2.654-1.071-5.515-4.06-7.454-8.169C487.19,139.946,486.529,135.657,487.218,132.594"/>
	<path fill="#FFFFFF" d="M579.442,198.11c-4.139,0.844-7.993,0.176-10.389-1.482c1.758-2.501,5.15-4.595,9.29-5.437
		c4.136-0.79,7.943-0.154,10.364,1.505C586.976,195.174,583.552,197.268,579.442,198.11"/>
	<path fill="#FFFFFF" d="M586.464,186.441c-3.628,2.324-7.461,3.193-10.216,2.528c0.896-2.987,3.45-6.231,7.1-8.581
		c3.599-2.347,7.403-3.165,10.214-2.551C592.666,180.85,590.088,184.093,586.464,186.441"/>
	<path fill="#FFFFFF" d="M593.662,173.038c-3.65,2.348-7.454,3.19-10.239,2.578c0.896-3.039,3.446-6.281,7.072-8.603
		c3.626-2.374,7.454-3.194,10.241-2.58C599.841,167.446,597.237,170.713,593.662,173.038"/>
	<path fill="#FFFFFF" d="M495.771,166.987c3.626,2.321,6.203,5.59,7.097,8.603c-2.782,0.613-6.639-0.205-10.235-2.579
		c-3.628-2.322-6.209-5.566-7.075-8.554C488.316,163.793,492.144,164.663,495.771,166.987"/>
</g>
</svg>
