<?xml version="1.0" encoding="utf-8"?>
<!-- Generator: Adobe Illustrator 16.0.0, SVG Export Plug-In . SVG Version: 6.00 Build 0)  -->
<!DOCTYPE svg PUBLIC "-//W3C//DTD SVG 1.0//EN" "http://www.w3.org/TR/2001/REC-SVG-20010904/DTD/svg10.dtd">
<svg version="1.0" id="Layer_1" xmlns="http://www.w3.org/2000/svg" xmlns:xlink="http://www.w3.org/1999/xlink" x="0px" y="0px"
	 width="800px" height="800px" viewBox="0 0 800 800" enable-background="new 0 0 800 800" xml:space="preserve">
<g>
	<path d="M231.803,39.556C164.332,49.873,119.4,62.402,119.4,62.402v410.752c0,0,18.463,95.521,112.403,188.908V39.556z"/>
	<path d="M573.233,656.951c89.552-91.689,107.327-183.797,107.327-183.797V62.42c0,0-42.831-11.728-107.327-21.835V656.951z"/>
	<path d="M127.029,472.371c2.671,12.225,46.38,193.83,272.971,293.186c226.974-99.508,270.3-280.961,272.971-293.186V68.18
		c-26.583-6.713-144.399-34.478-274.305-34.478c-129.793,0-245.434,27.728-271.637,34.439V472.371z M400,781.27
		c-1.068,0-2.097-0.248-3.051-0.668C269.711,725.643,199.078,645.584,162.195,588.09c-40.084-62.475-49.811-111.504-50.23-113.525
		c-0.075-0.514-0.154-0.934-0.154-1.41V62.402c0-3.318,2.291-6.255,5.532-7.19c1.333-0.381,132.195-36.481,281.324-36.481
		c149.128,0,282.579,36.1,283.916,36.481c3.281,0.896,5.607,3.872,5.607,7.19v410.752c0,0.477-0.039,0.896-0.154,1.41
		c-0.419,2.021-10.183,51.051-50.229,113.525c-36.884,57.494-107.518,137.553-234.794,192.512
		C402.098,781.021,401.029,781.27,400,781.27"/>
	<path fill="#E3000D" d="M410.185,388.577c-26.966,3.624-53.36,17.259-75.139,38.675c-47.215,46.551-56.941,114.498-7.36,163.316
		c40.01,39.455,95.352,40.123,137.229,3.395l-28.225-27.805c-26.394,21.436-59.727,26.449-85.433,1.145
		c-35.431-34.879-18.993-80.266,12.738-111.521c31.695-31.275,77.807-47.447,113.202-12.568
		c24.065,23.742,22.464,49.527,8.313,73.002l28.95,28.51c32.189-38.561,23.418-87.801-13.656-124.758
		c-11.289-11.119-23.607-19.242-36.425-24.562l-72.999-71.895l43.251-42.641l85.241,83.89c0,0,20.292-20.005,20.407-20.005
		c1.753-1.755,2.326-2.727,2.326-4.691c0-1.45-0.609-2.499-1.448-3.547L396.3,193.757l43.25-42.603l85.245,83.928
		c0,0,20.288-20.023,20.403-20.023c1.757-1.773,2.326-2.747,2.326-4.692c0-1.487-0.569-2.498-1.409-3.566l-100.653-99.107
		c-2.518-2.576-5.873-4.063-9.764-4.063c-3.889,0-7.438,1.563-9.955,4.138l-151.608,149.3c-0.875,1.068-1.41,2.079-1.41,3.566
		c0,1.945,0.534,2.879,2.288,4.634l19.643,19.528c1.753,1.716,2.746,2.23,4.729,2.23c1.488,0,2.556-0.552,3.585-1.354l1.756-1.736
		c-0.154,0,67.926-66.897,67.926-66.897l34.442,33.906L269.217,386.785c-0.878,1.048-1.413,2.097-1.413,3.509
		c0,1.945,0.534,2.975,2.291,4.691l19.603,19.529c1.753,1.754,2.786,2.211,4.769,2.211c1.487,0,2.556-0.494,3.585-1.354l1.717-1.68
		c-0.114,0,67.966-66.897,67.966-66.897L410.185,388.577z"/>
	<path d="M412.053,385.927l9.841,4.291l-11.289,1.525c-26.089,3.509-52.102,16.915-73.232,37.759
		c-49.657,48.896-52.708,114.211-7.436,158.816c19.489,19.203,42.87,29.367,67.622,29.367c22.159,0,43.748-8.238,62.628-23.875
		l-23.763-23.381c-14.608,11.195-30.283,17.088-45.616,17.088c-15.408,0-29.903-6.199-41.838-17.965
		c-17.05-16.82-23.876-37.529-19.682-59.975c3.546-19.033,15.065-38.941,32.42-56.047c21.396-21.053,46.835-33.164,69.797-33.164
		c17.962,0,34.095,6.961,47.979,20.615c22.005,21.721,25.479,47.502,10.106,74.717l24.602,24.219
		c27.117-35.145,21.169-80.971-15.639-117.721c-10.716-10.506-22.615-18.537-35.393-23.817l-0.648-0.229l-75.709-74.64l47.829-47.18
		l85.241,83.927c11.674-11.556,16.212-15.923,18.271-17.64l-0.114-0.133c1.337-1.316,1.337-1.545,1.337-2.46
		c0-0.458-0.115-0.82-0.725-1.525L391.722,193.776l47.829-47.141l85.245,83.927c11.709-11.557,16.208-15.981,18.269-17.659
		l-0.113-0.114c1.334-1.335,1.334-1.564,1.334-2.422c0-0.477-0.115-0.858-0.726-1.602l-100.385-98.84
		c-2.021-2.079-4.577-3.127-7.476-3.127c-2.899,0-5.566,1.125-7.628,3.203L276.387,259.339c-0.305,0.438-0.42,0.82-0.42,1.297
		c0,0.819,0,1.049,1.373,2.383l19.604,19.528c1.297,1.316,1.566,1.316,2.441,1.316c0.459,0,0.878-0.114,1.563-0.706l1.488-1.468
		l0.154,0.152c1.449-1.754,4.5-4.729,10.49-10.623l59.573-58.659l39.056,38.388L271.468,389.055
		c-0.344,0.419-0.458,0.819-0.458,1.239c0,0.896,0,1.105,1.373,2.421l19.643,19.529c1.298,1.334,1.563,1.334,2.442,1.334
		c0.459,0,0.878-0.113,1.563-0.668l1.488-1.486l0.154,0.113c1.449-1.752,4.5-4.729,10.412-10.622l59.652-58.659l2.327,2.231
		C370.061,344.487,407.704,381.598,412.053,385.927 M397.559,624.037c-26.508,0-51.45-10.813-72.199-31.236
		c-47.944-47.217-44.893-116.234,7.438-167.779c20.403-20.158,45.348-33.717,70.712-38.599
		c-5.112-4.958-15.219-14.951-35.775-35.184c-21.091,20.749-56.487,55.57-64.076,63.16v0.039l-3.319,3.203
		c-1.373,1.086-3.166,2.25-5.873,2.25c-3.205,0-4.998-1.086-7.02-3.109l-19.643-19.564c-2.133-2.079-3.241-3.796-3.241-6.923
		c0-2.613,1.183-4.405,2.097-5.512l135.896-133.834l-29.903-29.406c-21.091,20.768-56.522,55.57-64.076,63.104v0.038l-3.316,3.242
		c-1.337,1.107-3.166,2.308-5.876,2.308c-3.202,0-4.994-1.163-7.016-3.205l-19.643-19.527c-2.097-2.059-3.241-3.776-3.241-6.865
		c0-2.651,1.22-4.463,2.098-5.549L423.457,105.5c3.201-3.242,7.55-5.073,12.242-5.073c4.69,0,8.849,1.754,12.09,5.034
		l100.576,99.127c1.146,1.334,2.365,3.126,2.365,5.777c0,3.128-1.184,4.92-3.205,6.923l-1.029,0.934
		c-2.937,2.841-12.737,12.453-19.452,19.089l-2.248,2.232l-85.245-83.927l-38.712,38.159l142.606,140.471
		c1.144,1.373,2.366,3.166,2.366,5.778c0,3.166-1.184,4.958-3.205,6.96l-1.029,0.935c-2.936,2.86-12.74,12.491-19.452,19.108
		l-2.252,2.212l-85.241-83.89l-38.751,38.16l70.369,69.205c13.351,5.665,25.744,14.017,36.843,25.001
		c40.314,40.219,45.731,90.852,13.885,128.99l-2.251,2.746l-33.258-32.725l1.297-2.154c15.369-25.572,12.737-48.82-7.857-69.092
		c-12.624-12.414-27.232-18.707-43.402-18.707c-21.284,0-45.045,11.365-65.222,31.236c-16.474,16.248-27.383,34.955-30.663,52.729
		c-3.815,20.596,2.212,38.828,17.889,54.33c10.87,10.662,23.418,16.096,37.299,16.096c14.609,0,29.789-6.063,43.784-17.467
		l2.327-1.83l32.725,32.268l-2.556,2.211C446.455,614.482,422.389,624.037,397.559,624.037"/>
</g>
</svg>
