<?xml version="1.0" encoding="utf-8"?>
<!-- Generator: Adobe Illustrator 22.0.1, SVG Export Plug-In . SVG Version: 6.00 Build 0)  -->
<svg version="1.1" id="Layer_1" xmlns="http://www.w3.org/2000/svg" xmlns:xlink="http://www.w3.org/1999/xlink" x="0px" y="0px"
	 viewBox="0 0 640 480" style="enable-background:new 0 0 640 480;" xml:space="preserve">
<style type="text/css">
	.st0{fill:#FFFFFF;}
	.st1{fill:#0560A7;}
	.st2{fill:#FFDF1A;}
	.st3{fill:#ACB75C;}
	.st4{fill:#82A79A;}
	.st5{fill:none;}
</style>
<g>
	<title>leeds-united-logo</title>
	<path class="st0" d="M320.2,77.9c1.3,3.2,2.2,6.5,3.3,9.8c4.4-0.5,8.8-0.1,13,1.2c6.3,2.1,11.6,6.7,14.5,12.7
		c1.3,2.5,2.2,5.2,2.8,8c3.5,0,7,0,10.5,0c-2.7,2.3-5.6,4.2-8.4,6.4c2.4,5.3,3.5,11.3,2.4,17c-1.4,7.9-6.8,14.8-13.9,18.5
		c1.1,3.4,2.2,6.9,3.3,10.3c-3.1-1.8-5.8-4.4-8.9-6.1c-4.8,4.5-11.2,7.5-17.9,7.6c-7.2,0.2-14.1-2.6-19.3-7.7c-3.1,2-5.9,4.4-9,6.4
		c1.1-3.5,2.4-6.9,3.4-10.4c-6.6-3.5-11.9-9.8-13.6-17.1c-1.4-6.1-0.7-12.6,2.1-18.2c-2.7-2.3-5.8-4.1-8.5-6.5
		c3.6-0.1,7.1,0,10.7-0.1c1.2-7.4,5.6-14.4,12.1-18.3c5.3-3.3,11.8-4.4,18-3.6C318,84.5,319,81.2,320.2,77.9 M320.2,80.3
		c-0.9,3.3-1.5,6.8-1.7,10.2c-2.3-1.6-5.4-1.5-7.6,0.1c-1.8,1.2-2.2,3.7-3.9,5.1c-3,2.8-6.4,5.2-10.1,7.2c-1.8,1-4,0.8-5.7,2
		c-2.2,1.5-3.5,4.6-2.4,7.2c-3.4-0.7-6.8-1.2-10.2-1.4c2.7,2,5.9,3.1,8.8,4.9c-2.8,2.3-3.1,6.9-0.6,9.5c2.3,2.2,3.2,5.3,4.3,8.2
		c1,3.2,2.2,6.5,1.6,9.9c-0.6,3.7,2.5,7.2,6.1,7.3c-1.7,2.9-3.2,6-4.4,9.1c2.4-1.9,4.6-4.1,6.5-6.4c0.5,0,0.9,0,1.4,0
		c0.1,1.6,1.7,2.3,3,3.1c2.4,1,5,0.2,7.2-1c5.1-1.1,10.3-1.1,15.4,0c2.2,1.1,4.7,1.9,7.1,0.9c1.2-0.7,2.8-1.5,3-3
		c0.4,0,0.9,0,1.3-0.1c2,2.3,4.2,4.5,6.6,6.4c-1.2-3.3-2.7-6.4-4.6-9.4c3.7,0.4,6.8-3.5,6.3-7.1c-0.5-2.7,0.1-5.4,1-8
		c0.8-2.6,1.6-5.3,3-7.7c0.9-1.6,2.6-2.6,3.2-4.4c0.9-2.7,0.2-5.6-1.8-7.6l0.1-0.2c3-1.3,5.9-2.8,8.6-4.6c-3.5,0.2-6.9,0.6-10.2,1.5
		c0.9-2.8-0.2-5.9-2.7-7.4c-1.5-0.9-3.4-0.8-5-1.6c-2.6-1.3-5.1-2.9-7.3-4.7c-1.9-1.5-4-3.1-5.1-5.4c-1.6-3.4-6.5-4.9-9.5-2.5
		C321.7,87.1,321.1,83.7,320.2,80.3 M299.3,95.3c-2.2,1.9-4.1,4.3-6.2,6.4c1.8-0.5,3.4-1.6,5.1-2.3s3.4-1.5,4.6-3
		c1.4-1.9,3.4-3.2,4.6-5.2C304.7,92.5,302,93.8,299.3,95.3 M333.1,91.4c1.9,2.5,4.1,4.7,6.5,6.8c2.6,1.3,5.2,2.5,7.8,3.7
		c-1-1.4-2.3-2.5-3.5-3.7c-1.4-1.3-2.5-2.9-4.4-3.6C337.5,93.5,335.4,92.3,333.1,91.4 M285.1,126.4c0.2,3,0.7,5.9,1.3,8.8
		c1.2,2.7,2.6,5.3,4.2,7.8c-0.4-2.8-0.6-5.6-1.1-8.3c-0.1-1.2-1-2.3-1.5-3.4C287,129.6,286.2,127.9,285.1,126.4 M355.2,126.4
		c-0.9,1.4-1.8,2.9-2.6,4.4c-0.8,1.5-1.9,2.9-2,4.7c-0.3,2.6-0.7,5.2-0.9,7.8c1-1.6,1.7-3.4,2.7-5c0.8-1.3,1.6-2.7,1.8-4.2
		C354.5,131.5,355,129,355.2,126.4 M311.3,158.3c2.9,0.5,5.8,1,8.7,1.4c2.9-0.4,5.7-1,8.6-1.4l-0.6-0.5c-2.7-0.4-5.3-1-8-1.4
		C317.2,157.1,314.1,157.4,311.3,158.3z"/>
	<path class="st0" d="M311.1,91.3c1.9-1.5,4.8-2,6.7-0.4c1.8,1.3,2.2,3.8,2.2,5.9c-0.2,2.4-0.2,5-1.5,7.1c-0.6,0.9-0.4,1.9-0.4,2.9
		c0.6,0.5,1.2,1.1,1.9,1.3c1.1,0,2-0.7,2.4-1.7c0.4-2.1-1.5-3.6-1.6-5.5c-0.4-3.2-0.9-6.9,1.3-9.6c1.9-2,5.3-1.6,7.3,0
		c1.2,0.8,1.5,2.3,2.4,3.4c1.7,2.1,3.9,3.7,6,5.4c2.6,1.9,5.3,3.9,8.5,4.4c2.9,0.4,5.4,3.3,5,6.3c-0.2,2-1.9,3.5-3.7,4.2
		c-2.2,0.9-4.6,1.5-7,1.7c-1.4,0-3-0.9-4.2,0.1c-1.1,0.5-0.9,1.8-1,2.7c0.7,0.5,1.3,1.5,2.3,1.3c1.8,0,2.6-1.9,4-2.7
		c2.3-1.4,4.8-2.3,7.5-2.8c1.5-0.2,2.9,0.6,4.2,1.3c1.7,2.2,2.1,5.7,0,7.8c-2.6,2.6-3.7,6.2-4.8,9.6c-1,2.9-1.8,5.9-1.3,9
		c0.7,3.4-2.5,7.3-6.1,6.8c-3.3-0.8-4.9-4-6.5-6.7c-0.9-1.3-1-3-1.3-4.5c-0.3-1-1.2-1.4-2.1-1.8c-1.3,0.2-2.6,1.2-2.3,2.7
		c0.4,2.3,3.2,2.3,4.5,3.9c2.1,2.4,4.6,4.8,4.8,8.1c-0.1,0.3-0.2,0.9-0.3,1.1c0.3,0,1,0.1,1.3,0.2l-1.3,0.1c-1,2.1-3.1,3.4-5.4,3.3
		c-2.1,0.1-3.7-1.6-5.8-1.7c-3-0.3-6-0.7-8.9-0.3c-2.3,0.1-4.8,0.2-6.9,1.3c-2.9,1.7-7,0.3-8.2-2.8l-1.2,0.3c1.9-1,1.4-3.5,2-5.2
		c1.3-1.9,2.7-3.7,4.4-5.2c1.1-0.9,2.7-1,3.4-2.4c0.7-0.8,0.1-1.9,0-2.7c-1.4-0.8-3.5-0.8-4.1,1c-0.2,2.2-1,4.2-2.2,6
		c-1,1.3-1.7,3.3-3.4,3.7c-1,0.4-1.8,1.2-2.7,1.7c-2.2-0.4-4.4-1.7-5.2-4c-0.9-2,0.1-4.2-0.3-6.3c-0.7-4.4-2.1-8.6-4.1-12.6
		c-0.7-1.6-2.4-2.5-3-4.1c-1.2-2.5-0.3-5.9,2.3-7.3c1.2,0.4,2.5,0,3.8-0.2c2.4,0.6,4.7,1.5,6.7,2.8c1.2,0.7,1.8,2.3,3.3,2.4
		c1.5,0.5,3.2-1.3,2.6-2.8c-0.4-1.2-1.7-1.9-2.9-1.6c-3.3,0.9-6.7-0.5-9.8-1.6c-0.6-1.8-3.1-2-3.2-4c0-2.1,1.1-4.5,3.1-5.5
		c1.3-0.8,2.9-0.8,4.4-1.4c1.8-0.8,3.6-1.8,5.2-3c2.3-1.7,4.7-3.3,6.6-5.4C309.3,94.1,309.7,92.3,311.1,91.3 M318.9,109.1
		c-7.4,0.5-13.8,7.1-13.7,14.5c-0.2,4.6,1.6,9.1,5.1,12.1c5.3,4.5,13.6,4.8,19.2,0.6c3.8-2.9,6-7.5,5.9-12.3c0-4.2-1.7-8.2-4.8-11.1
		C327.4,110.1,323.2,108.7,318.9,109.1z"/>
	<path class="st0" d="M309.3,114.6c1.7-2,3.9-3.5,6.4-4.3c0,0.4,0.1,1.2,0.1,1.7c1.5,0.4,2.9,0.7,4.4,1.1c0,1.9,0,3.7,0,5.6
		c-0.4,0.3-0.9,0.7-1.3,1l-0.1,0c-0.6-0.1-1.1,0.3-1.2,0.8c0,0.1,0,0.1,0,0.2l-0.2,0c-0.9,0.3-1.8,0.8-2.6,1.3c-1.5-0.6-3-1.3-4.4-2
		C309.6,118.4,311.6,115.6,309.3,114.6z"/>
	<path class="st0" d="M324.9,110.5c3.1,0.9,5.8,2.9,7.5,5.7l-0.5,0.1l-1.2,0.2c-0.1,1.6-0.1,3.1-0.1,4.7c-1.7,0.3-3.3,0.7-4.9,1.3
		l-0.8-0.6l-0.3-0.5c-0.1-0.5-0.6-0.8-1.1-0.7c-0.1,0-0.1,0-0.2,0.1l-0.1-0.2c-0.1-0.6-0.7-1-1.3-0.9h-0.1c-0.5-0.3-0.9-0.7-1.4-1
		c0-1.9,0-3.7,0-5.5c1.4-0.4,2.9-0.8,4.4-1.2C324.8,111.6,324.8,110.9,324.9,110.5z"/>
	<path class="st0" d="M308.8,121.7c0.5-0.4,0.8-1.2,1.5-1.2c1.6,0.7,3.1,1.5,4.7,2.1c0.4,2.1,1,4.2,1.4,6.3
		c-1.1,1.4-1.9,2.9-3.1,4.2c-0.8-0.3-1.5-0.6-2.3-0.9l-0.2-0.1l-0.1,0l-0.1-0.1l-0.2-0.1c-0.7-0.8-1.5-0.4-2,0.4l-0.4-0.1
		c-1.7-2.6-2.5-5.7-2.3-8.7c0.4,0.1,1.2,0.3,1.5,0.4c0.5-0.6,1-1.2,1.4-1.9L308.8,121.7z"/>
	<path class="st0" d="M325.5,122.9c1.6-0.7,3.3-1.1,5-1.4c0.6,1,1.2,1.9,1.8,2.8l0.1,0.2c0.3,1.2,1.6,0.7,2.4,0.6
		c-0.3,2.7-1.2,5.3-2.7,7.6l-0.4-0.4l-0.3-0.2c-0.2-0.4-0.7-0.5-1.1-0.3c0,0,0,0,0,0c-1.2,0.4-2.4,1.1-3.6,1.4
		c-1.4-0.9-2.2-2.4-3.4-3.6C324.1,127.3,324.4,124.9,325.5,122.9z"/>
	<path class="st0" d="M316.3,129.2c2.2-0.1,4.5,0,6.7,0c1.2,1.4,2.3,2.8,3.5,4.1l-0.7,1.2l0,0.1l-0.3,0.1l-0.5,1.3l-0.6,0.5
		l-0.5,0.4c0.3,0.5,0.5,1,0.8,1.5c-2.9,1.1-6,0.9-8.8,0.1c0.1-0.4,0.2-1.1,0.3-1.5v-0.1c0.2-0.5-0.1-1.1-0.6-1.3c-0.1,0-0.2,0-0.2,0
		c-0.3-0.3-0.6-0.7-0.9-1c-0.3-0.3-0.6-0.9-0.8-1.2C314.5,131.9,315.4,130.6,316.3,129.2z"/>
	<path class="st0" d="M293.2,190.9c18,0,36.1,0,54.1,0c0,63.7,0,127.4,0,191c-3.2,2.9-6.3,6-9.6,8.8c-5.5,3.9-11.2,7.7-16.9,11.3
		c-0.6,0.5-1.2-0.1-1.7-0.3c-5.5-3.5-11-7.1-16.3-11c-3.3-2.8-6.3-5.9-9.5-8.7C293.2,318.3,293.2,254.6,293.2,190.9 M325.7,202.1
		c-2.1,2.6-3,5.9-4.7,8.7c-1.8,0-3.4-1-4.9-1.8c-0.1,0.8-0.2,1.5-0.4,2.3c1.4,1,3,1.4,4.6,1.7c-2.5,5.9-4.3,12.1-7,18
		c-4.6-1.5-10-0.8-13.5,2.7c-1.7,1.6-2.3,4.7-0.3,6.3c1.9,1.1,4,1.6,6.2,1.5c4,0.3,7.4-2.4,9.8-5.4c4.1,2.7,8.6,5.3,13.7,4.8
		c5.5-0.2,10.9-3.5,13.1-8.6c0.1-0.8,0.1-1.7,0-2.5c-1.3,0.3-2.1,1.4-3.1,2.1c-2.1,1.6-4.4,3.3-7.1,3.5c-4.9,0-9.7-1.1-14-3.2
		c3.2-5.8,6.4-11.6,8-18c4.5-1.4,9.2-2.9,12.5-6.4c1.7-2,3-4.8,2.6-7.5c-0.4-2-2.5-2.8-4.2-3.2C332.6,196.1,328.3,198.6,325.7,202.1
		 M306.7,254.8c-0.5,1,0.4,1.7,1.2,2c0.9-1.4,1.9-2.9,3.5-3.6c1.3-0.8,3.3-1.3,4.6,0c0.8,2-0.1,4.2-1.1,5.9
		c-3.4,6.1-6.8,12.2-10.6,18.1c-1.1,1.8-1.8,3.8-2.1,5.9c-0.1,2-0.4,4.5,1.2,6.1c2.1,2.4,5.6,2,8.5,1.9c3.6-0.4,6.4-3,8.7-5.6
		c0.8,3.6,4.3,6.7,8.1,6.4c2.3,0.1,4.7-0.9,5.9-2.9c1.3-2.1,1-4.7,0.2-6.9c-0.8,0-1.7,0.1-2.4,0.4c0.3,1.4,0.9,3.6-0.9,4.4
		c-2.2,1.3-5.5-0.2-5.5-2.9c0.2-2.9,1.7-5.5,2.8-8.1c2.8-6,5.7-12,8.7-18c1-2.1,2.4-4,3-6.2c-1.9-0.4-3.7-0.6-5.6-0.6
		c-2.7,4.6-4.9,9.4-7.1,14.3c-2.4,5-4.7,10-7,15c-1.9,3.7-5.4,7-9.8,7c-1.2,0.1-2.3-0.8-2.5-2c-0.4-1.7,0.3-3.4,1-4.9
		c3.7-7.9,8.7-15.1,12.4-23c0.4-1.8,0.4-4-1.1-5.3c-1.4-1.2-3.2-1.7-5-2C312.2,249.9,308.7,251.9,306.7,254.8 M339.2,301.6
		c-2,0.5-4.1,0.6-6.1,0.8c-7.2-0.2-14.6-1.6-21.6,0.6c-2.7,0.7-4.8,3.5-4.2,6.3c0.9,2.9,4.3,4.4,7.2,3.8c0.6-0.2,1.7-0.3,1.4-1.2
		c-1.2-0.9-2.6-1.3-3.9-2.1c0.1-1.1,0.4-2.4,1.6-2.9c2.5-1,5.4-1,8.1-0.9c-0.5,4.6-1.6,9.2-3.2,13.6c-2.7-0.2-5.4,0.4-7.8,1.7
		c-1.9,1.2-2.5,3.6-1.9,5.7c0.5,0.5,1.1,0.9,1.8,1.1c0.1-1.2,0.1-2.6,1.1-3.5c1.7-1.3,3.9-1,5.9-1c-1.4,4.4-2.9,8.9-5.5,12.8
		c-1.4,2.2-4.5,3.6-7,2.6c-1.8-0.6-0.9-3.7-3-3.6c-1,2,0,4.4,1.6,5.8c2,1.6,4.9,1.9,7.3,1.2c2.6-0.6,4.6-2.6,6.3-4.6
		c3.1-4,5.4-8.6,6.6-13.5c2.5-0.2,5.2,0.6,7.4-0.8c1.9-0.9,3.4-2.9,3.1-5.1c0.2-1.1-0.5-2.2-1.6-2.6c-0.1,1-0.4,1.9-0.9,2.8
		c-1.9,1.7-4.6,1.9-6.9,1.4c1.1-4.5,2-9.1,2.9-13.6c3.2,0,6.4,0.1,9.5-0.7c2.2-0.7,4.5-2,5.5-4.1c0-0.9,0.5-2.4-0.6-2.7
		C341.2,299.8,340.5,301.2,339.2,301.6 M314.2,351c-5.7,5.2-9.7,12.4-10.3,20.2c-0.6,5,1.2,10.5,5.3,13.5c2.1,1.7,4.8,2.1,7.4,2
		c3,0.1,5.9-1.1,8-3.3c2-2.2,3.8-4.6,4.6-7.4c-0.5-0.3-1.3-1-1.8-0.3c-1.2,1.8-2.6,3.5-4,5.1c-2.3,2.2-5.6,2.8-8.6,1.7
		c-1.6-1.1-2.7-2.7-3.1-4.6c-1.3-4.9,0.3-9.8,2-14.4c2.1-5.1,4.8-10.2,9.2-13.8c2.4-1.9,5-3.6,8-4c1.2-0.1,2.9,0.2,3.3,1.6
		c0.8,1.6,0.6,3.4,0.1,5.1c-0.2,0.8,0.8,1.2,1.4,1c2-2.7,1.4-6.8-1.1-9c-1.9-1.4-4.4-1.1-6.7-1C322.7,344,318.3,347.6,314.2,351z"/>
	<path class="st0" d="M329.8,202.8c1.1-2.2,4.6-3.7,6.5-1.6c1.6,1.6,0.4,3.9-0.6,5.5c-2.2,2.5-5.6,3.5-8.7,4.4
		C327.7,208.2,328.6,205.5,329.8,202.8z"/>
	<path class="st0" d="M306.2,231.9c1.9-0.3,3.8,0,5.5,1.1c0.5,0.5-0.1,1.1-0.4,1.6c-1.2,1.7-3,3.2-5.2,3.2c-1.3,0.1-2.8-0.1-3.5-1.3
		C302.1,234.3,304.2,232.4,306.2,231.9z"/>
	<g id="_0560a7ff">
		<path class="st1" d="M314.1,15.9h12.3c22,2.1,43.2,9.2,63.6,17.6c26,11,51.2,24.4,74.2,40.8c6.6,4.7,12.8,9.8,18.8,15.2
			c4.3,4.4,9.3,8.5,11.2,14.5c4.4,16.3,6.5,33,7.4,49.8c0.2,2.1,0,4.3,0.3,6.4v18.7c-0.5,6.8-0.6,13.6-1.4,20.3
			c-3.9,42-16.1,82.9-36,120.1c-15.2,28.4-34.4,54.6-56.9,77.7c-12.8,13.2-26.4,25.4-40.9,36.6c-11.8,9.3-24.1,18-36.8,26
			c-3.2,2.1-6.5,4-9.6,6.3l0,0c-14.2-8.8-28.3-18-41.6-28.2c-26.7-20.2-51.1-43.6-71.7-70c-20.5-26.3-36.9-55.5-48.6-86.8
			c-9.7-26-15.9-53.1-18.6-80.7c-0.7-6.3-0.9-12.6-1.4-18.9v-23.8c0.2-1.2,0.3-2.5,0.3-3.7c0.8-15.8,2.8-31.5,6.6-46.9
			c0.8-3.7,2.5-7.2,5-10.1c2-2.1,3.7-4.3,5.9-6.2c11.6-11,24.8-20.2,38.4-28.6c25.8-15.7,53.2-28.9,82-38.1
			C288.9,20,301.4,17.1,314.1,15.9 M282.4,35.3c-14.1,4.4-27.9,9.8-41.3,16.1c-20.5,9.7-40.5,20.7-58.9,34
			c-7.6,5.6-14.9,11.5-21.3,18.4c-1,1.2-2.3,2.4-2.6,4c-5.7,21.6-7.4,44.1-7.3,66.4c0.4,3,0.1,6,0.4,9.1
			c2.1,45.7,14.4,90.4,36,130.7c15.3,28.7,35.2,54.9,58.2,77.9c22.4,22.5,47.8,42,74.7,58.8c24.6-15.5,48-33.1,68.9-53.2
			c2.1-2.4,4.6-4.3,6.7-6.7c32.8-32.8,58.9-72.5,74.8-116.1c12.8-34.9,19.1-71.9,18.6-109.1c-0.1-12.1-1-24.2-2.7-36.2
			c-1.3-7.8-2.5-15.6-4.9-23.1c-5.5-6.8-12.3-12.4-19.2-17.9C447,76.9,430.3,67,413.2,58.2c-19.4-9.8-39.4-18.4-60.3-24.4
			c-11.6-3.2-23.6-5.7-35.6-5.2C305.3,29.1,293.7,31.9,282.4,35.3z"/>
		<path class="st1" d="M299,74.9c8.8-1.9,17.8-3,26.8-2.3c14.3,1.2,28.2,5.2,41.7,9.8c17.7,6.4,34.9,14.2,50.9,24.1
			c6.7,4.2,13.3,8.7,19,14.1c3,3.1,6.6,5.9,7.9,10.2c1.6,5.3,2,10.8,2.4,16.3c0,5.3,0.6,10.5,0,15.8c0.2,3.4-0.3,6.7-0.2,10
			c-57.2,0.1-114.4,0.1-171.7,0c-27.7,0-55.3,0.1-83.1-0.1c-0.2-4.1-0.2-8.2-0.5-12.4c-0.1-4.8,0.2-9.6,0.3-14.4
			c0.4-5.4,0.8-10.9,2.6-16c1-3,3.5-5.1,5.5-7.4c8-7.9,17.5-14.1,27.1-19.7c11.5-6.5,23.4-12.3,35.7-17.1
			C275.2,81.4,286.9,77.5,299,74.9 M320.2,77.9c-1.2,3.2-2.2,6.6-3.4,9.8c-6.2-0.8-12.7,0.3-18,3.6c-6.6,3.9-10.9,10.9-12.2,18.3
			c-3.6,0.1-7.1,0-10.7,0.1c2.7,2.4,5.8,4.2,8.5,6.5c-2.8,5.7-3.5,12.1-2.1,18.2c1.7,7.3,6.9,13.6,13.6,17.1
			c-0.9,3.5-2.3,7-3.4,10.4c3.1-1.9,5.9-4.4,9-6.4c5.1,5.1,12.1,7.8,19.3,7.7c6.7-0.1,13.1-3.1,17.9-7.6c3.1,1.8,5.8,4.4,8.9,6.1
			c-1.1-3.4-2.2-6.8-3.3-10.3c7.1-3.7,12.5-10.6,13.9-18.5c1.1-5.7,0.1-11.7-2.4-17c2.8-2.1,5.8-4.1,8.4-6.4c-3.5-0.1-7,0-10.5,0
			c-0.5-2.8-1.5-5.5-2.8-8c-3-6-8.2-10.6-14.5-12.7c-4.2-1.4-8.6-1.8-13-1.2C322.5,84.5,321.5,81.1,320.2,77.9L320.2,77.9z"/>
		<path class="st1" d="M320.3,80.4c0.9,3.3,1.4,6.8,1.7,10.2c3.1-2.4,7.9-1,9.5,2.5c1.1,2.3,3.1,3.9,5.1,5.4
			c2.3,1.8,4.7,3.4,7.3,4.7c1.6,0.8,3.5,0.7,5,1.6c2.5,1.6,3.6,4.6,2.7,7.4c3.4-0.8,6.8-1.3,10.2-1.5c-2.7,1.8-5.6,3.3-8.6,4.6
			l-0.1,0.2c2,2,2.7,4.9,1.8,7.6c-0.7,1.8-2.3,2.8-3.2,4.4c-1.3,2.4-2.1,5.1-3,7.7c-0.9,2.6-1.5,5.3-1,8c0.5,3.6-2.6,7.5-6.3,7.1
			c1.8,3,3.4,6.1,4.6,9.4c-2.4-1.9-4.6-4.1-6.6-6.4c-0.4,0-0.9,0-1.3,0.1c-0.2,1.6-1.8,2.4-3,3c-2.4,0.9-5,0.2-7.1-0.9
			c-5.1-1.1-10.3-1.1-15.4,0c-2.2,1.1-4.8,1.9-7.2,1c-1.2-0.7-2.9-1.4-3-3.1c-0.5,0-0.9,0-1.4,0c-2,2.3-4.2,4.5-6.5,6.4
			c1.2-3.2,2.7-6.2,4.4-9.1c-3.7-0.2-6.8-3.7-6.1-7.3c0.6-3.4-0.6-6.7-1.6-9.9c-1-2.9-2-6-4.3-8.2c-2.5-2.6-2.2-7.2,0.6-9.5
			c-2.9-1.7-6.1-2.8-8.8-4.9c3.4,0.2,6.8,0.7,10.2,1.4c-1.1-2.6,0.2-5.7,2.4-7.2c1.7-1.2,3.9-1,5.7-2c3.6-2,7-4.4,10.1-7.2
			c1.7-1.4,2.1-3.8,3.9-5.1c2.3-1.7,5.3-1.7,7.6-0.1C318.8,87.1,319.4,83.7,320.3,80.4 M311.1,91.3c-1.4,1.1-1.9,2.8-3,4.1
			c-1.9,2.2-4.3,3.8-6.6,5.4c-1.6,1.2-3.3,2.2-5.2,3c-1.4,0.6-3,0.6-4.4,1.4c-2,1-3,3.3-3.1,5.5c0.1,2,2.6,2.2,3.2,4
			c3.1,1.2,6.5,2.5,9.8,1.6c1.3-0.3,2.5,0.4,2.9,1.6c0.6,1.5-1.1,3.3-2.6,2.8c-1.5-0.2-2.1-1.7-3.3-2.4c-2.1-1.3-4.3-2.2-6.7-2.8
			c-1.2,0.2-2.5,0.7-3.8,0.2c-2.5,1.4-3.4,4.7-2.3,7.3c0.6,1.7,2.3,2.5,3,4.1c2,4,3.4,8.2,4.1,12.6c0.4,2.1-0.7,4.3,0.3,6.3
			c0.8,2.2,3,3.6,5.2,4c0.9-0.6,1.7-1.3,2.7-1.7c1.8-0.5,2.4-2.4,3.4-3.7c1.2-1.8,2-3.8,2.2-6c0.5-1.8,2.7-1.8,4.1-1
			c0.1,0.9,0.7,1.9,0,2.7c-0.7,1.3-2.3,1.5-3.4,2.4c-1.8,1.5-3.1,3.4-4.4,5.2c-0.7,1.7-0.1,4.2-2,5.2l1.2-0.3
			c1.2,3.1,5.3,4.4,8.2,2.8c2.1-1.1,4.5-1.2,6.9-1.3c3-0.4,6,0.1,8.9,0.3c2.1,0.2,3.7,1.8,5.8,1.7c2.3,0,4.4-1.3,5.4-3.3l1.3-0.1
			c-0.3-0.1-1-0.2-1.3-0.2c0.1-0.3,0.2-0.9,0.3-1.1c-0.2-3.3-2.7-5.8-4.8-8.1c-1.3-1.6-4.1-1.6-4.5-3.9c-0.3-1.5,1-2.5,2.3-2.7
			c0.9,0.4,1.8,0.8,2.1,1.8c0.3,1.5,0.5,3.2,1.3,4.5c1.6,2.7,3.2,5.9,6.5,6.7c3.6,0.5,6.7-3.3,6.1-6.8c-0.5-3.1,0.4-6.1,1.3-9
			c1.1-3.4,2.2-7,4.8-9.6c2.1-2.1,1.7-5.5,0-7.8c-1.2-0.8-2.6-1.6-4.2-1.3c-2.6,0.5-5.2,1.4-7.5,2.8c-1.4,0.8-2.2,2.7-4,2.7
			c-1,0.1-1.6-0.8-2.3-1.3c0.1-0.9-0.1-2.3,1-2.7c1.2-1,2.8-0.1,4.2-0.1c2.4-0.2,4.8-0.8,7-1.7c1.8-0.7,3.5-2.2,3.7-4.2
			c0.4-3-2.1-5.9-5-6.3c-3.2-0.5-6-2.5-8.5-4.4c-2.2-1.6-4.4-3.2-6-5.4c-0.8-1.1-1.2-2.6-2.4-3.4c-2-1.6-5.4-2-7.3,0
			c-2.2,2.7-1.7,6.4-1.3,9.6c0.1,2,2,3.5,1.6,5.5c-0.3,1-1.3,1.7-2.4,1.7c-0.8-0.2-1.3-0.8-1.9-1.3c0.1-1-0.1-2,0.4-2.9
			c1.3-2.1,1.3-4.7,1.5-7.1c0-2.1-0.4-4.6-2.2-5.9C315.9,89.3,313,89.8,311.1,91.3L311.1,91.3z"/>
		<path class="st1" d="M299.3,95.3c2.7-1.4,5.4-2.8,8.1-4c-1.2,2-3.2,3.3-4.6,5.2c-1.1,1.5-2.9,2.3-4.6,3c-1.7,0.7-3.3,1.8-5.1,2.3
			C295.2,99.6,297.1,97.2,299.3,95.3z"/>
		<path class="st1" d="M333.1,91.4c2.3,0.8,4.3,2.1,6.5,3.1c1.8,0.7,3,2.3,4.4,3.6c1.2,1.2,2.5,2.3,3.5,3.7
			c-2.6-1.1-5.3-2.4-7.8-3.7C337.3,96.2,335.1,93.9,333.1,91.4z"/>
		<path class="st1" d="M318.9,109.1c4.3-0.4,8.5,1.1,11.7,4c3.1,2.9,4.8,6.9,4.8,11.1c0,4.8-2.2,9.3-5.9,12.3
			c-5.5,4.2-13.9,3.9-19.2-0.6c-3.5-3.1-5.3-7.5-5.1-12.1C305.1,116.1,311.5,109.6,318.9,109.1 M316,110.1c0,0.4,0,1.2,0,1.6
			c1.9,0.5,3.9,1.6,5.9,0.8c1.3-0.4,3-0.5,3-2.2C322,109.3,318.9,109.3,316,110.1 M309.3,114.6c2.4,1,0.3,3.8,1.2,5.6
			c1.4,0.7,2.9,1.4,4.4,2c0.8-0.6,1.6-1,2.6-1.3c-0.8,0.4-1.5,0.9-2.3,1.4c0.4,2.2,1,4.4,1.5,6.6c2.2,0,4.4,0,6.6,0
			c0.6-2.1,1.2-4.2,1.9-6.3l-0.3-0.6l0.8,0.6c1.6-0.6,3.2-1,4.9-1.3c0-1.6,0-3.1,0.1-4.7l1.2-0.2l-0.9,0.6c-0.2,1.5-0.2,3.1,0,4.6
			c0.5,0.9,1,1.8,1.5,2.7c-0.7-0.9-1.2-1.8-1.8-2.8c-1.7,0.2-3.4,0.7-5,1.4c-1.1,2-1.4,4.4-2.1,6.6c1.2,1.1,2,2.7,3.4,3.6
			c1.2-0.3,2.4-1,3.6-1.4c0.4-0.2,0.9-0.1,1.1,0.3c0,0,0,0,0,0c-0.9-0.4-1.8,0.2-2.6,0.5c-1.1,0.5-2.4,0.8-3.1,1.9l0.7-1.2
			c-1.2-1.3-2.3-2.7-3.5-4.1c-2.2,0-4.5-0.1-6.7,0c-0.8,1.4-1.8,2.7-2.7,4c0.2,0.3,0.6,0.9,0.8,1.2c-0.9-1-2.1-1.6-3.3-2.2
			c0.7,0.3,1.5,0.6,2.3,0.9c1.2-1.3,2-2.8,3.1-4.2c-0.5-2.1-1.1-4.2-1.4-6.3c-1.6-0.6-3.1-1.4-4.7-2.1c-0.7,0-1,0.9-1.5,1.2
			c1.5-1.6,1.3-3.8,1.5-5.8c-0.4-0.4-0.8-0.8-1.2-1.1c-1.9,2.4-3.1,5.3-3.4,8.3c0.4,0.1,1.1,0.3,1.5,0.4c0.5-0.5,1-1,1.5-1.6
			c-0.4,0.6-0.9,1.2-1.4,1.9c-0.4-0.1-1.2-0.3-1.5-0.4c-0.2,3.1,0.6,6.2,2.3,8.8l0.4,0.1c0.4-0.8,1.2-1.1,2-0.4
			c-1.1-0.8-1.5,0.1-1.8,1c1.5,2.5,4.1,4.3,6.8,5.3c0.2-0.3,0.5-1,0.7-1.3c-0.1,0.4-0.2,1.1-0.3,1.5c2.9,0.8,6,1,8.8-0.1
			c-0.3-0.5-0.5-1-0.8-1.5l0.5-0.4c0,0.7,0.1,1.3,0.5,1.9c2.8-1,5.2-2.7,7-5c0-0.2,0-0.7-0.1-1l0.4,0.4c1.5-2.3,2.5-4.9,2.7-7.6
			c-0.9,0.2-2.1,0.7-2.4-0.6c0.1,0.2,0.4,0.5,0.5,0.7l1.9-0.4c0.1-3.1-0.8-6.1-2.6-8.6c-1.7-2.8-4.3-4.8-7.5-5.7
			c0,0.4-0.1,1.1-0.1,1.5c-1.5,0.3-2.9,0.8-4.4,1.2c0,1.9,0,3.7,0,5.5c0.5,0.3,0.9,0.7,1.4,1c-0.8-0.8-2.1-0.8-2.9,0
			c0.4-0.3,0.9-0.7,1.3-1c0-1.9,0-3.7,0-5.6c-1.4-0.4-2.9-0.8-4.4-1.1c0-0.4-0.1-1.2-0.1-1.7C313.2,111.2,311,112.6,309.3,114.6
			L309.3,114.6z"/>
		<path class="st1" d="M321.8,119.8c0.6-0.1,1.2,0.3,1.3,0.9C322.5,120.8,321.9,120.4,321.8,119.8z"/>
		<path class="st1" d="M323.2,120.9c0.5-0.2,1,0,1.3,0.4c0,0.1,0.1,0.1,0.1,0.2c-0.5,0.2-1.1,0-1.3-0.5
			C323.2,121,323.2,120.9,323.2,120.9z"/>
		<path class="st1" d="M285.1,126.3c1.1,1.5,1.9,3.3,2.9,4.9c0.6,1.1,1.4,2.1,1.5,3.4c0.4,2.8,0.7,5.6,1.1,8.3
			c-1.6-2.5-2.9-5.1-4.2-7.8C285.8,132.3,285.3,129.3,285.1,126.3z"/>
		<path class="st1" d="M355.2,126.4c-0.2,2.6-0.7,5.1-1,7.7c-0.2,1.6-1,2.9-1.8,4.2c-0.9,1.6-1.6,3.4-2.7,5c0.2-2.6,0.6-5.2,0.9-7.8
			c0.1-1.7,1.2-3.2,2-4.7C353.5,129.3,354.3,127.8,355.2,126.4z"/>
		<path class="st1" d="M325.4,134.5l0.3-0.1c-0.1,0.3-0.4,1-0.5,1.2l-0.3,0.1L325.4,134.5z"/>
		<path class="st1" d="M315.2,135.4c0.5,0,1,0.5,0.9,1.1c0,0.1,0,0.2,0,0.2C315.6,136.5,315.2,135.9,315.2,135.4z"/>
		<path class="st1" d="M311.3,158.3c2.8-0.9,5.8-1.2,8.7-1.8c2.7,0.4,5.3,1.1,8,1.4l0.6,0.5c-2.9,0.4-5.7,1-8.6,1.4
			C317.1,159.3,314.2,158.8,311.3,158.3z"/>
		<path class="st1" d="M191.2,190.6c6.6,0,13.2,0,19.8,0c-6.2,6.8-12.3,13.7-18.6,20.4C191.9,204.3,191.3,197.5,191.2,190.6z"/>
		<path class="st1" d="M235.9,190.7c11.3,0,22.5,0,33.8,0c-12.1,13.6-24.4,26.9-36.5,40.5c-9.7,10.6-19.2,21.4-29,31.9
			c-3.2-9.3-5.9-18.8-8-28.4C209.3,219.9,222.7,205.4,235.9,190.7z"/>
		<path class="st1" d="M370.9,190.7c11.2,0,22.5,0,33.7,0c13.3,14.7,26.6,29.3,39.8,44c-2.1,9.6-4.8,19.1-8,28.4
			c-3.5-3.5-6.7-7.4-10.1-11c-12.5-13.8-25-27.6-37.6-41.5C382.8,203.9,376.6,197.4,370.9,190.7z"/>
		<path class="st1" d="M429.5,190.7c6.6,0,13.2,0,19.8,0c-0.1,6.8-0.6,13.7-1.3,20.5C441.8,204.3,435.6,197.5,429.5,190.7z"/>
		<path class="st1" d="M325.7,202c2.5-3.4,6.8-5.9,11.2-5c1.7,0.4,3.8,1.2,4.2,3.2c0.5,2.7-0.8,5.5-2.6,7.5c-3.3,3.5-8,5-12.5,6.4
			c-1.6,6.4-4.9,12.2-8,18c4.4,2.2,9.2,3.3,14,3.2c2.7-0.2,5-1.9,7.1-3.5c1-0.8,1.9-1.9,3.1-2.1c0,0.8,0,1.7,0,2.5
			c-2.2,5.1-7.6,8.5-13.1,8.6c-5,0.5-9.6-2.2-13.7-4.8c-2.3,3-5.8,5.6-9.8,5.4c-2.2,0.1-4.3-0.4-6.2-1.5c-2-1.6-1.4-4.7,0.3-6.3
			c3.5-3.5,8.9-4.2,13.5-2.7c2.7-5.8,4.5-12,7-18c-1.6-0.4-3.3-0.7-4.6-1.7c0.1-0.7,0.3-1.5,0.4-2.3c1.5,0.8,3.1,1.8,4.9,1.8
			C322.6,208,323.6,204.7,325.7,202 M329.7,202.8c-1.2,2.7-2.1,5.5-2.8,8.3c3.1-0.8,6.5-1.9,8.7-4.4c1-1.6,2.2-3.9,0.6-5.5
			C334.3,199.1,330.9,200.6,329.7,202.8 M306.2,232c-2,0.4-4.1,2.4-3.6,4.6c0.7,1.2,2.2,1.4,3.5,1.3c2.2,0,4-1.5,5.2-3.2
			c0.3-0.4,0.9-1.1,0.4-1.6C310.1,232,308.1,231.6,306.2,232L306.2,232z"/>
		<path class="st1" d="M265.5,222.8c3.3-3.6,6.5-7.4,9.9-10.8c0.1,12,0,24.1,0,36.1c0.2,1.3-1,2.2-1.8,3.1
			c-16.5,18.3-33,36.5-49.5,54.7c-4.6-7.6-8.7-15.5-12.4-23.6C229.6,262.4,247.6,242.7,265.5,222.8z"/>
		<path class="st1" d="M365,212c10.2,11,20.2,22.3,30.4,33.4c11,12.3,22.2,24.5,33.2,36.7c-3.6,8.2-7.8,16.1-12.4,23.7
			c-16.5-18.3-33-36.5-49.5-54.8c-0.8-0.9-2-1.7-1.7-3C365,236.1,365,224,365,212z"/>
		<path class="st1" d="M306.7,254.8c2-2.9,5.5-4.9,9-4.6c1.7,0.3,3.6,0.7,5,2c1.5,1.3,1.5,3.5,1.1,5.3c-3.7,7.9-8.6,15.1-12.4,23
			c-0.7,1.5-1.3,3.2-1,4.9c0.2,1.2,1.3,2,2.5,2c4.4,0.1,8-3.2,9.8-7c2.3-5,4.6-10,7-15c2.3-4.8,4.4-9.7,7.1-14.3
			c1.9,0,3.8,0.2,5.6,0.6c-0.7,2.2-2,4.1-3,6.2c-3,6-5.9,11.9-8.7,18c-1.1,2.6-2.6,5.2-2.8,8.1c0,2.7,3.2,4.2,5.5,2.9
			c1.7-0.8,1.2-3,0.9-4.4c0.8-0.3,1.6-0.4,2.4-0.4c0.8,2.2,1.1,4.8-0.2,6.9c-1.2,2.1-3.6,3-5.9,2.9c-3.8,0.3-7.3-2.8-8.1-6.4
			c-2.3,2.6-5.1,5.1-8.7,5.6c-2.9,0.2-6.4,0.5-8.5-1.9c-1.6-1.6-1.3-4-1.2-6.1c0.3-2.1,1-4.1,2.1-5.9c3.8-5.9,7.2-12,10.6-18.1
			c1-1.8,1.9-3.9,1.1-5.9c-1.2-1.2-3.2-0.8-4.6,0c-1.6,0.7-2.6,2.2-3.5,3.6C307.1,256.5,306.2,255.8,306.7,254.8z"/>
		<path class="st1" d="M270.9,281.8c1.5-1.6,2.9-3.4,4.6-4.9c0.1,11.8,0,23.6,0.1,35.4c0,0.8,0.1,1.7-0.5,2.4
			c-8.3,9.1-16.5,18.2-24.8,27.3c-5.5-6.4-10.8-13.1-15.7-20C246.6,308.5,258.8,295.2,270.9,281.8z"/>
		<path class="st1" d="M365.1,276.9c12.4,13.5,24.7,27.3,37.1,40.9c1.1,1.5,3,2.7,3.6,4.5c-4.8,6.9-10,13.5-15.6,19.7
			c-8.3-9.3-16.8-18.5-25.1-27.8C365,301.7,365,289.3,365.1,276.9z"/>
		<path class="st1" d="M339.1,301.6c1.4-0.4,2.1-1.7,3-2.6c1.1,0.3,0.6,1.8,0.6,2.7c-1,2.2-3.2,3.5-5.5,4.1
			c-3.1,0.8-6.3,0.7-9.5,0.7c-0.9,4.6-1.8,9.1-2.9,13.6c2.4,0.5,5.1,0.3,6.9-1.4c0.4-0.9,0.7-1.8,0.9-2.8c1.1,0.4,1.7,1.5,1.6,2.6
			c0.2,2.2-1.2,4.2-3.1,5.1c-2.2,1.4-4.9,0.6-7.4,0.8c-1.3,4.9-3.5,9.5-6.6,13.5c-1.7,2-3.7,4-6.3,4.6c-2.4,0.6-5.3,0.4-7.3-1.2
			c-1.6-1.4-2.6-3.7-1.6-5.8c2.1-0.1,1.2,3,3,3.6c2.5,1,5.6-0.4,7-2.6c2.6-3.9,4.1-8.4,5.5-12.8c-2,0-4.2-0.3-5.9,1
			c-1,0.8-1,2.3-1.1,3.5c-0.7-0.2-1.3-0.6-1.8-1.1c-0.6-2,0-4.5,1.9-5.7c2.4-1.3,5.1-1.9,7.8-1.7c1.7-4.4,2.7-8.9,3.2-13.6
			c-2.7-0.1-5.5-0.2-8.1,0.9c-1.2,0.5-1.5,1.7-1.6,2.9c1.2,0.8,2.7,1.2,3.9,2.1c0.4,0.9-0.7,1.1-1.4,1.2c-2.9,0.5-6.2-0.9-7.2-3.8
			c-0.6-2.8,1.5-5.6,4.2-6.3c7-2.1,14.4-0.7,21.6-0.6C335,302.2,337.1,302.1,339.1,301.6z"/>
		<path class="st1" d="M263.1,355.3c4.2-4.5,8.2-9.2,12.4-13.6c0,8.6,0.1,17.1,0,25.7c-4.3-3.8-8.5-7.6-12.3-11.8L263.1,355.3z"/>
		<path class="st1" d="M365,341.7c4.3,4.5,8.5,9.1,12.5,13.9c-4.1,4-8.2,8.1-12.5,11.8C365,358.8,365,350.3,365,341.7z"/>
		<path class="st1" d="M314.2,351c4-3.4,8.5-7,13.9-7.6c2.2,0,4.8-0.4,6.7,1c2.4,2.2,3.1,6.3,1.1,9c-0.6,0.2-1.7-0.2-1.4-1
			c0.5-1.7,0.7-3.5-0.1-5.1c-0.4-1.4-2-1.7-3.3-1.6c-3,0.4-5.6,2.1-8,4c-4.4,3.5-7.1,8.6-9.2,13.8c-1.7,4.5-3.3,9.5-2,14.4
			c0.4,1.9,1.5,3.5,3.1,4.6c2.9,1.1,6.3,0.5,8.6-1.7c1.4-1.6,2.8-3.3,4-5.1c0.4-0.7,1.3,0,1.8,0.3c-0.7,2.9-2.6,5.3-4.6,7.4
			c-2.1,2.2-5,3.4-8,3.3c-2.6,0-5.3-0.4-7.4-2c-4.1-3.1-5.9-8.5-5.3-13.5C304.5,363.4,308.6,356.2,314.2,351z"/>
	</g>
	<g id="_ffdf1aff">
		<path class="st2" d="M282.4,35.3c11.3-3.4,22.9-6.3,34.7-6.7c12.1-0.5,24,2,35.6,5.2c20.9,6,41,14.6,60.3,24.4
			c17.1,8.9,33.8,18.7,49.2,30.4c6.9,5.4,13.7,11,19.2,17.9c2.4,7.5,3.7,15.3,4.9,23.1c1.8,12,2.7,24.1,2.7,36.2
			c0.5,37.2-5.8,74.2-18.6,109.1c-15.9,43.6-42.1,83.3-74.8,116.1c-2.1,2.4-4.6,4.3-6.7,6.7c-21,20.2-44.3,37.8-68.9,53.2
			c-26.9-16.9-52.2-36.4-74.7-58.8c-22.9-23-42.9-49.2-58.2-77.9c-21.6-40.3-33.9-85-36-130.7c-0.3-3,0-6.1-0.4-9.1
			c-0.1-22.3,1.6-44.8,7.3-66.4c0.3-1.7,1.6-2.8,2.6-4c6.4-7,13.8-12.9,21.3-18.4c18.4-13.3,38.4-24.4,58.9-34
			C254.5,45.1,268.3,39.7,282.4,35.3 M299,74.9c-12.1,2.6-23.9,6.5-35.4,11c-12.3,4.9-24.2,10.6-35.7,17.1
			c-9.7,5.6-19.1,11.8-27.1,19.7c-2,2.3-4.5,4.4-5.5,7.4c-1.8,5.1-2.2,10.6-2.6,16c-0.2,4.8-0.4,9.6-0.3,14.4
			c0.3,4.1,0.3,8.3,0.5,12.4c27.7,0.1,55.4,0,83.1,0.1c57.2,0,114.4,0,171.7,0c-0.1-3.4,0.4-6.7,0.2-10c0.6-5.3,0-10.5,0-15.8
			c-0.4-5.5-0.8-11-2.4-16.3c-1.3-4.3-5-7.1-7.9-10.2c-5.8-5.4-12.4-9.9-19-14.1c-16-9.9-33.2-17.8-50.9-24.1
			c-13.5-4.7-27.4-8.7-41.7-9.8C316.8,71.9,307.8,73,299,74.9 M191.2,190.6c0,6.8,0.6,13.6,1.2,20.4c6.3-6.7,12.4-13.6,18.6-20.4
			C204.5,190.6,197.9,190.7,191.2,190.6 M235.9,190.7c-13.1,14.7-26.6,29.2-39.7,44c2.1,9.6,4.8,19.1,8,28.4
			c9.8-10.5,19.3-21.3,29-31.9c12.1-13.5,24.5-26.9,36.5-40.5C258.4,190.6,247.1,190.6,235.9,190.7 M370.9,190.7
			c5.8,6.8,11.9,13.2,17.8,19.9c12.5,13.8,25,27.6,37.5,41.5c3.4,3.6,6.6,7.5,10.1,11c3.2-9.3,5.8-18.8,8-28.4
			c-13.2-14.7-26.5-29.3-39.8-44C393.3,190.7,382.1,190.7,370.9,190.7 M429.5,190.7c6.1,6.9,12.3,13.7,18.5,20.5
			c0.7-6.8,1.2-13.7,1.3-20.5C442.7,190.6,436.1,190.6,429.5,190.7 M293.2,190.9c0,63.7,0,127.4,0,191.1c3.3,2.8,6.2,5.9,9.5,8.7
			c5.3,3.8,10.8,7.5,16.3,11c0.5,0.3,1.2,0.8,1.7,0.3c5.8-3.6,11.4-7.4,16.9-11.3c3.3-2.8,6.4-5.9,9.6-8.8c0-63.7,0-127.4,0-191
			C329.3,190.9,311.2,190.9,293.2,190.9 M265.5,222.8c-17.9,19.8-35.9,39.6-53.7,59.4c3.7,8.1,7.9,16,12.4,23.6
			c16.5-18.3,33-36.5,49.5-54.7c0.8-0.9,2-1.7,1.8-3.1c0-12,0-24.1,0-36.1C272.1,215.5,268.9,219.3,265.5,222.8 M365,212
			c-0.1,12,0,24.1,0,36.1c-0.2,1.3,0.9,2.1,1.7,3c16.5,18.3,33.1,36.5,49.5,54.8c4.6-7.7,8.7-15.6,12.4-23.7
			c-11-12.3-22.2-24.5-33.2-36.7C385.3,234.3,375.3,223,365,212 M270.9,281.8c-12.1,13.4-24.3,26.7-36.3,40.2
			c4.8,6.9,10.2,13.6,15.7,20c8.3-9.1,16.5-18.2,24.8-27.3c0.6-0.6,0.4-1.6,0.5-2.4c-0.1-11.8,0-23.6-0.1-35.4
			C273.8,278.4,272.5,280.1,270.9,281.8 M365.1,276.8c0,12.4-0.1,24.8,0,37.3c8.3,9.3,16.8,18.5,25.1,27.8
			c5.6-6.3,10.8-12.9,15.6-19.7c-0.6-1.8-2.5-2.9-3.6-4.5C389.7,304.1,377.5,290.4,365.1,276.8 M263.1,355.3l0.1,0.3
			c3.9,4.2,8.1,8,12.3,11.8c0.1-8.6,0.1-17.1,0-25.7C271.2,346.1,267.3,350.9,263.1,355.3 M365,341.7c0,8.5,0,17.1,0,25.6
			c4.4-3.7,8.5-7.7,12.5-11.8C373.5,350.9,369.3,346.3,365,341.7z"/>
		<path class="st2" d="M316,110.2c2.9-0.9,6-0.8,8.9,0.1c-0.1,1.7-1.8,1.9-3,2.2c-2,0.8-4-0.3-5.9-0.8
			C316,111.3,316,110.5,316,110.2z"/>
		<path class="st2" d="M305.6,123.1c0.3-3,1.5-5.9,3.4-8.3c0.4,0.3,0.8,0.7,1.2,1.1c-0.2,2,0,4.3-1.5,5.8l-0.2,0.3
			c-0.5,0.5-1,1.1-1.5,1.6C306.7,123.4,306,123.2,305.6,123.1z"/>
		<path class="st2" d="M331.8,116.3l0.5-0.1c1.8,2.5,2.7,5.5,2.6,8.6l-1.9,0.4c-0.1-0.2-0.4-0.5-0.5-0.7l-0.1-0.2
			c-0.5-0.9-1-1.8-1.5-2.7c-0.2-1.5-0.2-3.1,0-4.6L331.8,116.3z"/>
		<path class="st2" d="M318.8,119.8c0.8-0.8,2.1-0.8,2.9,0h0.1c0.1,0.6,0.7,1,1.3,0.9l0.1,0.2c0.1,0.5,0.7,0.8,1.2,0.7
			c0,0,0.1,0,0.1-0.1l0.3,0.5l0.3,0.6c-0.7,2.1-1.2,4.2-1.9,6.3c-2.2,0-4.4,0-6.6,0c-0.6-2.2-1.1-4.4-1.5-6.6c0.8-0.5,1.5-1,2.3-1.4
			l0.2,0C318.2,120.9,318.7,120.4,318.8,119.8L318.8,119.8z"/>
		<path class="st2" d="M308.6,132.7c0.3-0.8,0.7-1.7,1.8-1l0.2,0.1l0.1,0.1l0.1,0l0.2,0.1c1.2,0.6,2.4,1.2,3.3,2.2
			c0.3,0.3,0.6,0.7,0.9,1c0,0.6,0.3,1.1,0.9,1.3v0.1c-0.2,0.3-0.5,1-0.7,1.3C312.7,137,310.1,135.2,308.6,132.7z"/>
		<path class="st2" d="M328.9,132.4c0.8-0.3,1.7-0.9,2.6-0.5l0.3,0.2c0,0.2,0,0.7,0.1,1c-1.8,2.3-4.3,4-7,5
			c-0.4-0.5-0.6-1.2-0.5-1.9l0.6-0.5l0.3-0.1c0.1-0.3,0.4-0.9,0.5-1.2l0-0.1C326.5,133.3,327.8,132.9,328.9,132.4z"/>
	</g>
	<g id="_acb75cff">
		<path class="st3" d="M317.5,120.8c0-0.6,0.5-1,1.1-1c0.1,0,0.1,0,0.2,0C318.7,120.4,318.2,120.8,317.5,120.8z"/>
	</g>
	<g id="_82a79aff">
		<path class="st4" d="M310.6,131.9l0.1,0.1l0.1,0L310.6,131.9L310.6,131.9z"/>
	</g>
</g>
<rect x="120.4" y="3.4" class="st5" width="399.1" height="473.3"/>
</svg>
