<?xml version="1.0" encoding="utf-8"?>
<!-- Generator: Adobe Illustrator 16.0.0, SVG Export Plug-In . SVG Version: 6.00 Build 0)  -->
<svg version="1.2" baseProfile="tiny" id="Layer_1" xmlns="http://www.w3.org/2000/svg" xmlns:xlink="http://www.w3.org/1999/xlink"
	 x="0px" y="0px"   viewBox="0 0 1000 1000" xml:space="preserve">
<g>
	<g>
		<path fill="#0F1C45" d="M909.861,499.978c0-225.987-183.852-409.844-409.881-409.844c-225.979,0-409.84,183.856-409.84,409.844
			c0,226.006,183.861,409.887,409.84,409.887C726.01,909.865,909.861,725.984,909.861,499.978z M499.97,893.104
			c-216.726,0-393.039-176.363-393.039-393.119c0-216.729,176.313-393.099,393.039-393.099
			c216.776,0,393.086,176.369,393.086,393.099C893.057,716.74,716.746,893.104,499.97,893.104z"/>
		<path fill="#0F1C45" d="M499.97,115.449c-212.008,0-384.496,172.513-384.496,384.536c0,212.039,172.487,384.554,384.496,384.554
			c212.057,0,384.575-172.516,384.575-384.554C884.545,287.962,712.027,115.449,499.97,115.449z M499.97,867.199
			c-202.786,0-367.217-164.359-367.217-367.214c0-202.799,164.431-367.19,367.217-367.19c202.836,0,367.245,164.391,367.245,367.19
			C867.215,702.84,702.807,867.199,499.97,867.199z"/>
		<path fill="#FFFFFF" d="M499.97,132.795c-202.786,0-367.217,164.391-367.217,367.19c0,202.855,164.431,367.214,367.217,367.214
			c202.836,0,367.245-164.359,367.245-367.214C867.215,297.186,702.807,132.795,499.97,132.795z M499.97,752.291
			c-139.087,0-252.279-113.201-252.279-252.313c0-139.097,113.192-252.251,252.279-252.251
			c139.125,0,252.315,113.155,252.315,252.251C752.285,639.09,639.096,752.291,499.97,752.291z"/>
		<path fill="#FFFFFF" d="M499.97,261.834c-131.325,0-238.156,106.816-238.156,238.144c0,131.34,106.831,238.211,238.156,238.211
			c131.352,0,238.233-106.871,238.233-238.211C738.203,368.65,631.322,261.834,499.97,261.834z M499.97,733.748
			c-129.071,0-233.723-104.621-233.723-233.763c0-129.087,104.652-233.732,233.723-233.732
			c129.11,0,233.801,104.645,233.801,233.732C733.771,629.127,629.08,733.748,499.97,733.748z"/>
		<path fill="#6FB2E2" d="M499.97,266.253c-129.071,0-233.723,104.645-233.723,233.732c0,129.142,104.652,233.763,233.723,233.763
			c129.11,0,233.801-104.621,233.801-233.763C733.771,370.898,629.08,266.253,499.97,266.253z"/>
		<path fill="#0F1C45" d="M499.97,247.727c-139.087,0-252.279,113.155-252.279,252.251c0,139.112,113.192,252.313,252.279,252.313
			c139.125,0,252.315-113.201,252.315-252.313C752.285,360.881,639.096,247.727,499.97,247.727z M499.97,738.189
			c-131.325,0-238.156-106.871-238.156-238.211c0-131.328,106.831-238.144,238.156-238.144
			c131.352,0,238.233,106.816,238.233,238.144C738.203,631.318,631.322,738.189,499.97,738.189z"/>
		<path fill="#6FB2E2" d="M499.97,106.886c-216.726,0-393.039,176.369-393.039,393.099c0,216.755,176.313,393.119,393.039,393.119
			c216.776,0,393.086-176.363,393.086-393.119C893.057,283.255,716.746,106.886,499.97,106.886z M499.97,884.539
			c-212.008,0-384.496-172.516-384.496-384.554c0-212.023,172.487-384.536,384.496-384.536
			c212.057,0,384.575,172.513,384.575,384.536C884.545,712.023,712.027,884.539,499.97,884.539z"/>
	</g>
	<polygon fill="#6FB2E2" points="171.929,491.04 165.282,492.674 163.528,485.815 174.485,482.563 180.187,482.563 180.187,520.918 
		171.929,520.918 	"/>
	<g>
		<path fill="none" d="M204.508,498.391c3.318,0,5.449-1.964,5.449-4.612v-0.106c0-2.359-2.009-4.465-5.449-4.465
			c-3.429,0-5.458,2.064-5.458,4.394v0.11C199.049,496.377,201.19,498.391,204.508,498.391z"/>
		<path fill="none" d="M204.508,514.564c4.141,0,6.585-2.086,6.585-4.754v-0.096c0-2.938-2.77-4.684-6.585-4.684
			c-3.805,0-6.574,1.746-6.574,4.684v0.096C197.934,512.449,200.379,514.564,204.508,514.564z"/>
		<path fill="none" d="M787.547,489.352c-4.141,0-6.486,2.399-6.486,5.777v0.101c0,3.38,2.531,5.72,6.639,5.72
			c4.139,0,6.533-2.401,6.533-5.668v-0.101C794.232,491.792,791.729,489.352,787.547,489.352z"/>
		<path fill="#6FB2E2" d="M189.816,510.348v0.129c0,6.645,6.24,10.988,14.691,10.988c8.433,0,14.702-4.141,14.702-11.207v-0.107
			c0-4.52-2.292-6.969-6.158-8.984c2.942-1.795,4.839-4.241,4.839-8.315v-0.101c0-5.891-5.337-10.461-13.383-10.461
			c-8.055,0-13.383,4.611-13.383,10.461v0.101c0,4.075,1.898,6.52,4.84,8.315C191.938,503.023,189.816,505.746,189.816,510.348z
			 M199.049,493.602c0-2.33,2.029-4.394,5.458-4.394c3.439,0,5.449,2.106,5.449,4.465v0.106c0,2.648-2.131,4.612-5.449,4.612
			c-3.317,0-5.458-2.014-5.458-4.679V493.602z M197.934,509.715c0-2.938,2.769-4.684,6.574-4.684c3.816,0,6.585,1.746,6.585,4.684
			v0.096c0,2.668-2.445,4.754-6.585,4.754c-4.129,0-6.574-2.115-6.574-4.754V509.715z"/>
		<path fill="#6FB2E2" d="M787.273,482.163c-8.617,0-14.531,5.662-14.531,13.342v0.101c0,7.732,5.338,12.303,13.605,12.303
			c3.256,0,5.754-0.998,7.723-2.605c-0.326,3.252-1.969,8.652-7.723,8.652c-3.215,0-5.568-1.037-8.328-3.27l-4.404,6.354
			c3.217,2.668,6.959,4.525,12.52,4.525c10.816,0,16.633-8.432,16.633-20.795v-0.116c0-7.497-1.777-11.623-4.496-14.346
			C795.379,483.409,792.385,482.163,787.273,482.163z M794.232,495.282c0,3.267-2.395,5.668-6.533,5.668
			c-4.107,0-6.639-2.34-6.639-5.72v-0.101c0-3.378,2.346-5.777,6.486-5.777c4.182,0,6.686,2.44,6.686,5.83V495.282z"/>
	</g>
	<path fill="#6FB2E2" d="M829.541,512.697h-18.617l-1.35-5.933l20.893-24.222h7.059v23.348h5.127v6.807h-5.127v8.199h-7.984V512.697
		z M829.541,505.891v-11.858l-10.127,11.858H829.541z"/>
	<g>
		<path fill="none" d="M700.094,545.43c-4.199,35.885-24.587,98.572-79.026,149.336c65.007-40.55,108.351-112.701,108.351-194.803
			c0-39.839-10.22-77.336-28.166-110.02C705.303,431.063,707.117,485.225,700.094,545.43z"/>
		<path fill="none" d="M388.54,299.549c28.636-2.569,64.607-4.58,107.067-4.58h7.385c43.298,0,79.841,2.091,108.745,4.733
			c-33.089-18.527-71.205-29.111-111.757-29.111C459.565,270.592,421.56,281.117,388.54,299.549z"/>
		<path fill="none" d="M374.68,692.046c-52.298-50.266-72.053-111.37-76.167-146.616c-6.854-58.656-5.312-111.571-1.483-152.283
			c-16.879,31.922-26.458,68.271-26.458,106.816C270.572,580.259,312.051,651.037,374.68,692.046z"/>
		<path fill="#FFFFFF" d="M499.98,270.592c40.552,0,78.668,10.584,111.757,29.111c7.23,0.661,13.982,1.355,20.242,2.061
			c-37.81-25.257-83.21-40.006-131.999-40.006c-48.645,0-93.931,14.677-131.682,39.817c6.271-0.695,13.024-1.378,20.241-2.025
			C421.56,281.117,459.565,270.592,499.98,270.592z"/>
		<path fill="#FFFFFF" d="M701.252,389.943c17.946,32.683,28.166,70.18,28.166,110.02c0,82.102-43.344,154.253-108.351,194.803
			c-10.274,9.581-21.762,18.736-34.584,27.207c88.732-34.695,151.741-121.124,151.741-222.01c0-48.34-14.494-93.36-39.347-130.965
			C699.716,375.529,700.521,382.521,701.252,389.943z"/>
		<path fill="#FFFFFF" d="M270.572,499.963c0-38.545,9.579-74.894,26.458-106.816c0.716-7.614,1.511-14.803,2.348-21.521
			c-23.805,37.065-37.625,81.121-37.625,128.336c0,99.571,61.406,185.053,148.302,220.62c-13.183-8.885-24.927-18.494-35.375-28.537
			C312.051,651.037,270.572,580.259,270.572,499.963z"/>
		<path fill="#0F1C45" d="M700.094,545.43c7.023-60.205,5.209-114.366,1.158-155.486c-0.731-7.423-1.536-14.415-2.374-20.945
			c-4.704-36.641-10.481-58.614-10.481-58.614s-19.761-4.487-56.417-8.62c-6.26-0.706-13.012-1.4-20.242-2.061
			c-28.904-2.642-65.447-4.733-108.745-4.733h-7.385c-42.46,0-78.431,2.011-107.067,4.58c-7.217,0.647-13.97,1.33-20.241,2.025
			c-37.742,4.183-58.106,8.809-58.106,8.809s-6.057,23.025-10.815,61.243c-0.836,6.717-1.631,13.906-2.348,21.521
			c-3.829,40.712-5.372,93.627,1.483,152.283c4.114,35.246,23.869,96.351,76.167,146.616c10.449,10.043,22.193,19.652,35.375,28.537
			c24.51,16.519,53.97,30.532,89.264,40.153c34.298-9.35,63.077-22.851,87.164-38.764c12.822-8.471,24.31-17.626,34.584-27.207
			C675.507,644.002,695.895,581.314,700.094,545.43z M499.29,746.469v-0.01c-133.842-44.928-176.779-141.98-183.335-193.857
			c-15.726-124.408,13.952-228.919,13.952-228.919s67.613-14.427,169.33-14.473v-0.007c101.982,0,169.556,14.484,169.556,14.484
			s29.658,104.499,13.932,228.916C676.168,604.471,633.172,701.523,499.29,746.469z"/>
		<path fill="#A1C8EC" d="M451.968,668.463c-0.052-0.813,0.253-1.621,0.649-2.332c-3.167-1.816-5.682-4.748-6.892-8.422
			c-0.597-1.807-0.83-3.693-0.687-5.6c0-0.631,0.009-1.301,0.009-1.939c0.08-2.748,0.14-5.57-1.218-9.73
			c-1.472-4.484-3.277-6.959-5.204-9.578c-0.813-1.076-1.646-2.211-2.397-3.449c-0.485-0.771-0.852-1.512-1.123-2.291
			c-0.175-0.447-0.336-0.875-0.468-1.303c-1.228-3.652-0.924-7.689,0.739-11.18c-1.175-0.244-2.24-0.912-2.939-1.9l-6.251-8.955
			c-0.861-1.26-1.087-2.852-0.629-4.303c0.021,0,0.021,0,0.021-0.021c0.507-1.457,1.664-2.6,3.114-3.063l10.288-3.428
			c0.229-0.072,0.462-0.114,0.694-0.149l-57.334-69.194h-55.569c0,0.002,0,0.004,0,0.005l125.217,151.375L451.968,668.463z"/>
		<path fill="#A1C8EC" d="M664.279,575.149l-44.384-53.524h-57.631l82.417,99.575C654.163,605.07,660.4,589.319,664.279,575.149z"/>
		<path fill="#A1C8EC" d="M511.922,682.244c-0.59-0.197-1.176-0.406-1.807-0.629c-2.625-0.895-5.305-1.848-9.729-1.848
			c-4.74,0-7.692,0.953-10.767,1.936c-1.307,0.438-2.626,0.865-4.09,1.197c-0.89,0.184-1.713,0.314-2.546,0.336
			c-4.259,0.385-8.686-1.156-11.809-4.109c-0.611,0.721-1.35,1.348-2.294,1.633l-8.432,2.473l38.79,46.893
			c0.017,0.006,0.034,0.012,0.051,0.018c15.172-5.093,29.039-10.813,41.729-17.014l-24.752-29.872
			C514.792,683.131,513.338,682.794,511.922,682.244z"/>
		<path fill="#A1C8EC" d="M477.602,560.637c2.577-1.771,5.576-2.697,8.7-2.697c0.56,0,1.084,0.152,1.633,0.193
			c-0.243-1.338,0.081-2.738,0.915-3.836l6.718-8.684c0.901-1.178,2.364-1.867,3.894-1.867h0.021c1.541,0,2.982,0.738,3.927,1.967
			l6.442,8.645c0.791,1.057,1.107,2.395,0.904,3.674c-0.01,0.061-0.031,0.082-0.053,0.145c0.732-0.145,1.422-0.277,2.131-0.277
			c3.248,0,6.34,0.984,8.98,2.893c1.572,1.137,2.85,2.516,3.895,4.119c0.385,0.508,0.734,1.035,1.129,1.594
			c1.572,2.242,3.205,4.598,6.756,7.176c3.846,2.738,6.777,3.689,9.873,4.686c1.32,0.406,2.658,0.83,4.027,1.398
			c0.033,0.015,0.063,0.031,0.097,0.045l-48.243-58.184h-0.037h-54.04L477.602,560.637z"/>
		<path fill="#A1C8EC" d="M565.982,610.652c-0.57,0.789-1.414,1.307-2.318,1.643c1.809,3.539,2.197,7.73,0.926,11.523
			c-0.588,1.809-1.529,3.49-2.758,4.953c-0.365,0.516-0.76,1.035-1.178,1.543c-1.676,2.191-3.42,4.443-4.76,8.592
			c-1.459,4.477-1.459,7.539-1.459,10.777c0,1.135-0.018,2.316-0.105,3.536l28.796,34.746c12.001-8.729,22.438-17.917,31.492-27.316
			l-45.306-54.643L565.982,610.652z"/>
		<path fill="#FFFFFF" d="M512.406,504.136c-17.064,0.307-24.461-4.49-44.014-5.672c-1.722-0.107,1.067,5.049-17.927,5.97
			c-7.6,0.375-15.473-1.658-23.528-3.573c-7.691-1.851-14.014-0.288-15.94,6.141h88.82v0.002h65.726
			c-9.871-3.108-17.375-7.354-30.701-7.224C533.381,499.792,527.955,503.875,512.406,504.136z"/>
		<path fill="#FFFFFF" d="M484.983,480.814c-0.018-0.037-0.027-0.072-0.044-0.109c-0.005,0.017-0.008,0.026-0.008,0.026
			s-4.049-3.088-7.825-8.946c-0.165-0.03-0.48-0.084-0.933-0.159c-4.1-0.571-20.253-2.58-34.837-1.062l0.032,12.891
			c14.21,1.141,32.511,1.86,57.971,1.828l0.174-13.276C488.949,474.655,485.979,478.936,484.983,480.814z"/>
		<path fill="#FFFFFF" d="M504.313,471.036l-0.028,14.232c1.108-0.006,2.229-0.012,3.364-0.021
			c5.402-0.043,10.664-0.208,15.781-0.389c2.482-0.079,11.145-3.875,13.563-4.007c6.201-0.325,12.147-0.76,17.765-1.256l0.044-4.492
			C546.845,473.154,523.175,468.041,504.313,471.036z"/>
		<path fill="#FFFFFF" d="M339.748,333.088c0,0-18.517,78.283-13.869,173.914h83.515c-3.643-5.545-14.621-22.022-17.391-23.369
			c-13.302-6.492-31.696-13.595-31.696-13.595l0.882-2.506c0,0,10.249,4.729,33.575,9.09c12.229,2.292,23.482,4.72,41.815,6.42
			l0.048-11.853c-1.136,0.199-2.263,0.414-3.36,0.653c-5.112,1.161-8.08,2.437-9.825,3.556c-0.008,0.005-0.017,0.011-0.025,0.017
			c-0.113,0.073-0.211,0.144-0.314,0.215c-0.505,0.356-0.886,0.684-1.168,0.965c-0.034,0.035-0.069,0.07-0.101,0.104
			c-0.033,0.035-0.067,0.07-0.098,0.103c-0.24,0.27-0.408,0.513-0.534,0.728c-0.026,0.051-0.038,0.081-0.038,0.081l-0.007-0.005
			c-0.001,0.001-0.002,0.004-0.003,0.005c-0.002-0.004-0.003-0.008-0.006-0.012c-0.172-0.13-7.871-5.986-9.917-16.713
			c-2.12-11.14,3.389-17.704,3.389-17.704l51.148-17.583c0,0-0.029,0.095-0.08,0.274c0.052-0.165,0.08-0.259,0.08-0.259
			s-2.738,10.51-0.021,21.412c2.438,9.836,7.894,19.193,10.274,22.978c-2.008-3.487-3.811-7.785-4.704-12.855
			c-2.12-12.127,6.037-20.929,6.037-20.929l62.248-21.464c0,0-0.014,0.058-0.039,0.166c-0.889,4.251-2.781,16.182-0.143,26.661
			c2.942,11.634,11.11,24.334,15.411,30.481l0.935-97.519c-2.303,0.25-5.975,0.667-6.494,0.706
			c-0.771,0.058-1.471,0.614-1.623,1.376c-0.031,0.157,0.021,0.041,0,0.11c-0.093,0.479-0.386,0.905-0.926,1.13
			c-0.182,0.083-0.392,0.145-0.639,0.174c-0.047,0-0.121,0.009-0.213,0.009l-0.003-0.009c-1.502,0.12-7.65,0.575-12.021,0.767
			c-0.504,0.03-0.801-0.706-0.061-0.959c4.111-1.372,9.863-3.413,10.686-3.662c0.168-0.056,0.317-0.117,0.455-0.184
			c0.019-0.01,0.039-0.019,0.058-0.029c0.097-0.05,0.176-0.108,0.255-0.166c0.046-0.036,0.098-0.069,0.136-0.109
			c0.016-0.015,0.025-0.035,0.04-0.05c0.138-0.165,0.22-0.362,0.223-0.616c0.012-0.288,0.498-1.09,1.645-1.475l0.009,0.026
			c0.053-0.016,0.099-0.037,0.155-0.051c1.031-0.29,11.025-3.82,11.025-3.82v0.019l0.031-0.019l0.369,40.97l40.65-14.025
			c0.001-0.002,0.001-0.005,0.002-0.008c0,0.003-0.001,0.005-0.001,0.008l0.022-0.008c0,0-0.043,0.209-0.114,0.581
			c-1.948,11.832-3.032,21.728-1.874,33.055c1.446,13.972,9.192,26.165,10.613,28.301c0.128,0.179,0.203,0.28,0.203,0.28
			l-0.012,0.004c0.021,0.03,0.033,0.048,0.033,0.048l-48.928,17.006l0.048,5.23c25.487-2.488,42.935-6.086,42.935-6.086
			s0.15,7.916-11.467,18.815c-3.209,2.983-4.152,9.176,1.117,15.015c0.033,0.038,0.076,0.069,0.112,0.105h80.587
			c4.656-95.627-13.855-173.916-13.855-173.916s-63.621-13.641-159.653-13.641v-0.011
			C403.454,319.472,339.748,333.088,339.748,333.088z M478.632,364.525l22.172-7.704l0.14-11.988
			c-2.315,0.247-5.692,0.622-6.202,0.675c-0.217,0.011-0.42,0.069-0.612,0.153l0.004,0.014c-0.478,0.239-0.843,0.684-0.954,1.201
			c-0.021,0.149,0.019,0.011,0,0.097c-0.123,0.638-0.567,1.182-1.493,1.289c-0.035,0.005-0.091,0.004-0.139,0.005
			c-0.946,0.079-7.589,0.577-12.207,0.807c-0.52,0.031-0.813-0.721-0.074-0.958c4.132-1.39,9.863-3.451,10.694-3.68
			c0.712-0.239,1.18-0.556,1.21-1.182c0.018-0.315,0.538-1.158,1.766-1.497c1.014-0.275,11.04-3.784,11.04-3.784v0.009l0.027,17.726
			l19.361-6.727c0,0-0.01,0.025-0.015,0.036c0.007-0.011,0.015-0.025,0.015-0.025s-2.912,7.023-2.201,13.038
			c1.367,11.461,7.863,17.473,7.863,17.473h-0.004l0.004,0.004c0,0-0.039-0.002-0.095-0.004c-1.388-0.005-19.563,0.043-37.145,6.153
			c-7.822,2.72-12.769,7.075-13.461,9.496c-0.002,0.011-0.003,0.016-0.003,0.016s-5.621-1.542-6.189-13.283
			C471.673,372.447,478.277,364.931,478.632,364.525z M477.303,397.434l51.705-17.912c0,0-0.025,0.07-0.065,0.208
			c0.049-0.132,0.075-0.208,0.075-0.208s-0.774,4.517-0.568,9.443c0.05,0.824,0.118,1.704,0.213,2.654
			c0.104,0.831,0.243,1.652,0.428,2.445c2.625,11.252,10.51,20.661,10.51,20.661s-23.994,0.33-41.507,6.196
			c-10.5,3.513-17.309,9.536-19.11,11.995c-0.047,0.067-0.098,0.137-0.136,0.193c-0.083,0.122-0.161,0.242-0.214,0.341
			c-0.001-0.006-0.001-0.012-0.003-0.018c-0.018,0.028-0.038,0.061-0.038,0.061s-6.455-7.464-7.691-18.923
			C469.621,402.558,476.775,397.715,477.303,397.434z M415.663,387.834c4.119-1.396,9.872-3.433,10.676-3.689
			c0.116-0.034,0.209-0.075,0.311-0.114c0.548-0.228,0.856-0.536,0.905-1.038c0.019-0.283,0.388-0.949,1.257-1.322
			c0.158-0.076,0.327-0.146,0.52-0.202c0.944-0.247,9.863-3.361,10.928-3.728l0.111-0.061v0.021h0.009l-0.009,0.062l0.194,21.526
			l16.567-5.692c0.018-0.034,0.03-0.057,0.03-0.057s-0.006,0.031-0.01,0.05l0.02-0.007c0,0-0.012,0.023-0.033,0.07
			c-0.188,0.942-1.513,8.003-0.321,14.264c2.193,11.585,8.95,17.652,8.95,17.652s-0.013,0-0.018,0
			c0.003,0.002,0.018,0.016,0.018,0.016s-1.187,0.017-3.23,0.129c-5.569,0.338-17.631,1.444-30.466,4.994
			c-7.205,2-11.331,4.556-13.661,6.574c-0.033,0.029-0.061,0.055-0.093,0.083c-0.198,0.174-0.387,0.345-0.559,0.509
			c-0.008,0.007-0.014,0.014-0.022,0.021c-0.979,0.943-1.548,1.725-1.86,2.209c-0.01-0.022-0.015-0.044-0.025-0.067
			c-0.013,0.02-0.027,0.042-0.027,0.042s-5.963-3.575-5.316-15.296c0.721-12.008,6.75-17.182,6.861-17.527l19.987-6.867
			l0.131-15.855c-2.321,0.253-5.824,0.632-6.339,0.69c-0.782,0.061-1.451,0.599-1.616,1.377c-0.031,0.15,0.013,0.032,0,0.104
			c-0.119,0.614-0.577,1.167-1.521,1.268c-0.037,0.004-0.101,0.01-0.171,0.016c-0.022,0.004-0.036,0-0.06,0.008l-0.001-0.003
			c-1.399,0.12-7.646,0.557-12.024,0.791C415.195,388.835,414.941,388.103,415.663,387.834z M387.356,428.361
			c14.145-14.347,23.488-18.658,23.488-18.658s-0.474,0.676-1.236,1.958c-2.363,4.071-7.671,14.436-10.292,29.306
			c-2.128,12.025,0.236,27.163,0.236,27.163s-0.891-0.18-2.756-0.583c-3.577-0.678-10.427-1.872-18.003-2.644
			c-9.326-0.964-16.539-0.112-16.539-0.112S368.594,447.407,387.356,428.361z"/>
		<path fill="#6FB2E2" d="M460.449,683.232l-2.091,0.613c-1.48,0.447-3.075,0.162-4.29-0.711c-0.013-0.051-0.03-0.051-0.03-0.051
			c-1.27-0.893-1.988-2.324-2.019-3.844l-0.029-6.235L326.772,521.63c0.771,10.554,1.836,21.267,3.266,32.079
			c6.421,48.815,43.203,134.09,169.201,176.416L460.449,683.232z"/>
		<path fill="#6FB2E2" d="M554.291,653.873c-0.063,0.895-0.215,1.725-0.424,2.516c-0.121,0.447-0.242,0.873-0.396,1.32
			c-1.166,3.682-3.703,6.615-6.891,8.422c0.385,0.729,0.684,1.541,0.65,2.395l-0.283,10.875c-0.029,1.543-0.773,2.943-2.021,3.836
			c-0.008,0-0.029,0.021-0.029,0.039c-1.248,0.875-2.863,1.141-4.322,0.65l-10.355-3.205c-0.928-0.293-1.605-0.893-2.225-1.594
			c-2.811,2.66-6.564,4.191-10.439,4.191c-0.431,0-0.859-0.024-1.287-0.062l24.752,29.872c15.816-7.726,29.786-16.201,42.106-25.163
			L554.33,653.22C554.313,653.439,554.313,653.65,554.291,653.873z"/>
		<path fill="#6FB2E2" d="M442.279,591.117c0.759-3.723,2.87-7.111,5.975-9.322c1.552-1.156,3.308-1.949,5.165-2.416
			c0.619-0.201,1.228-0.377,1.865-0.568c2.65-0.789,5.42-1.602,8.96-4.18c3.865-2.76,5.642-5.238,7.569-7.832
			c0.781-1.127,1.612-2.232,2.585-3.35c0.581-0.691,1.188-1.246,1.857-1.754c0.345-0.314,0.702-0.6,1.066-0.873
			c0.091-0.065,0.188-0.122,0.28-0.186l-32.331-39.012H382.34l57.334,69.194C440.553,590.688,441.443,590.806,442.279,591.117z"/>
		<path fill="#6FB2E2" d="M549.746,580.961c0.41,0.234,0.773,0.488,1.139,0.773c3.031,2.16,5.084,5.438,5.906,9.061
			c0.91-0.234,1.854-0.277,2.779,0.037l10.359,3.627c1.449,0.525,2.566,1.643,3.053,3.082c0,0.02,0.012,0.02,0.012,0.041
			c0.455,1.459,0.199,3.045-0.711,4.281l-2.971,4.144l45.306,54.643c12.489-12.966,22.352-26.331,30.063-39.449l-82.417-99.575
			h-62.447h-0.47l48.243,58.184C548.355,580.143,549.074,580.497,549.746,580.961z"/>
		<path fill="#6FB2E2" d="M668.66,553.709c1.424-10.814,2.488-21.529,3.256-32.084h-52.021l44.384,53.524
			C666.381,567.476,667.798,560.262,668.66,553.709z"/>
		<path fill="#0F1C45" d="M476.255,561.695c-0.668,0.508-1.276,1.063-1.857,1.754c-0.973,1.117-1.805,2.223-2.585,3.35
			c-1.927,2.594-3.704,5.072-7.569,7.832c-3.54,2.578-6.31,3.391-8.96,4.18c-0.637,0.191-1.246,0.367-1.865,0.568
			c-1.857,0.467-3.613,1.26-5.165,2.416c-3.105,2.211-5.216,5.6-5.975,9.322c-0.836-0.312-1.726-0.429-2.604-0.298
			c-0.232,0.035-0.465,0.077-0.694,0.149l-10.288,3.428c-1.451,0.463-2.607,1.605-3.114,3.063c0,0.021,0,0.021-0.021,0.021
			c-0.458,1.451-0.232,3.043,0.629,4.303l6.251,8.955c0.699,0.988,1.764,1.656,2.939,1.9c-1.663,3.49-1.966,7.527-0.739,11.18
			c0.131,0.428,0.293,0.855,0.468,1.303c0.271,0.779,0.638,1.52,1.123,2.291c0.751,1.238,1.584,2.373,2.397,3.449
			c1.927,2.619,3.732,5.094,5.204,9.578c1.358,4.16,1.298,6.982,1.218,9.73c0,0.639-0.009,1.309-0.009,1.939
			c-0.144,1.906,0.089,3.793,0.687,5.6c1.21,3.674,3.726,6.605,6.892,8.422c-0.396,0.711-0.702,1.52-0.649,2.332l0.021,4.542
			l0.029,6.235c0.031,1.52,0.749,2.951,2.019,3.844c0,0,0.018,0,0.03,0.051c1.215,0.873,2.81,1.158,4.29,0.711l2.091-0.613
			l8.432-2.473c0.944-0.285,1.683-0.912,2.294-1.633c3.123,2.953,7.549,4.494,11.809,4.109c0.833-0.021,1.656-0.152,2.546-0.336
			c1.463-0.332,2.783-0.76,4.09-1.197c3.075-0.982,6.027-1.936,10.767-1.936c4.425,0,7.104,0.953,9.729,1.848
			c0.631,0.223,1.217,0.432,1.807,0.629c1.416,0.55,2.87,0.887,4.346,1.013c0.428,0.037,0.856,0.062,1.287,0.062
			c3.875,0,7.629-1.531,10.439-4.191c0.619,0.701,1.297,1.301,2.225,1.594l10.355,3.205c1.459,0.49,3.074,0.225,4.322-0.65
			c0-0.018,0.021-0.039,0.029-0.039c1.248-0.893,1.992-2.293,2.021-3.836l0.283-10.875c0.033-0.854-0.266-1.666-0.65-2.395
			c3.188-1.807,5.725-4.74,6.891-8.422c0.154-0.447,0.275-0.873,0.396-1.32c0.209-0.791,0.361-1.621,0.424-2.516
			c0.022-0.223,0.022-0.434,0.039-0.653c0.088-1.22,0.105-2.401,0.105-3.536c0-3.238,0-6.301,1.459-10.777
			c1.34-4.148,3.084-6.4,4.76-8.592c0.418-0.508,0.813-1.027,1.178-1.543c1.229-1.463,2.17-3.145,2.758-4.953
			c1.271-3.793,0.883-7.984-0.926-11.523c0.904-0.336,1.748-0.854,2.318-1.643l3.33-4.646l2.971-4.144
			c0.91-1.236,1.166-2.822,0.711-4.281c0-0.021-0.012-0.021-0.012-0.041c-0.486-1.439-1.604-2.557-3.053-3.082l-10.359-3.627
			c-0.926-0.314-1.869-0.271-2.779-0.037c-0.822-3.623-2.875-6.9-5.906-9.061c-0.365-0.285-0.729-0.539-1.139-0.773
			c-0.672-0.464-1.391-0.818-2.155-1.152c-0.033-0.014-0.063-0.03-0.097-0.045c-1.369-0.568-2.707-0.992-4.027-1.398
			c-3.096-0.996-6.027-1.947-9.873-4.686c-3.551-2.578-5.184-4.934-6.756-7.176c-0.395-0.559-0.744-1.086-1.129-1.594
			c-1.045-1.604-2.322-2.982-3.895-4.119c-2.641-1.908-5.732-2.893-8.98-2.893c-0.709,0-1.398,0.133-2.131,0.277
			c0.021-0.063,0.043-0.084,0.053-0.145c0.203-1.279-0.113-2.617-0.904-3.674l-6.442-8.645c-0.944-1.229-2.386-1.967-3.927-1.967
			h-0.021c-1.53,0-2.992,0.689-3.894,1.867l-6.718,8.684c-0.834,1.098-1.158,2.498-0.915,3.836
			c-0.549-0.041-1.073-0.193-1.633-0.193c-3.124,0-6.123,0.926-8.7,2.697c-0.093,0.063-0.189,0.12-0.28,0.186
			C476.958,561.096,476.601,561.381,476.255,561.695z M434.424,599.814l9.71-3.207c1.054,3.451,3.277,6.311,6.514,8.422
			c-3.905-0.143-7.67,1.006-10.349,3.246L434.424,599.814z M469.529,672.441l-9.953,2.924l-0.083-10.139
			c3.644,0.053,7.093-1.186,10.139-3.563C468.271,665.309,468.19,669.223,469.529,672.441z M466.558,659.84
			c-5.43,1.865-11.323-1.197-13.109-6.596c-0.428-1.338-0.569-2.67-0.467-3.959c-0.019-3.162,0.519-6.553-1.267-11.949
			c-2.141-6.537-5.176-9.201-7.366-12.785c-0.345-0.551-0.568-1.057-0.734-1.541c-0.14-0.328-0.262-0.672-0.383-0.986
			c-1.787-5.426,1.187-11.324,6.674-12.977c3.765-1.139,7.53,0.119,11.894,1.754c0.548,0.197,0.507,0.813-0.092,0.986
			c-4.342,1.398-6.717,6.025-5.285,10.328c1.063,3.227,5.518,7.387,6.754,11.162c1.32,4.078-0.131,9.119,0.946,12.377
			c1.398,4.32,6.064,6.66,10.398,5.248c0.497-0.135,0.894,0.191,0.619,0.576C472.594,655.365,470.292,658.561,466.558,659.84z
			 M531.891,640.611c0,0.072-0.012,0.174-0.012,0.256c0,0.18,0,0.385-0.018,0.547c-0.033,0.545-0.131,0.975-0.285,1.357
			c-1.182,3.574-5.084,5.541-8.717,4.387c-1.633-0.551-2.914-1.604-3.754-2.945c-2.717-3.602-10.908-14.975-11.416-15.584
			c-0.605-0.691-0.221-1.197,0.316-1.814c0.547-0.6,1.104-1.654,1.4-2.547c0.283-0.895,0.375-2.354,0.375-2.904
			c0.031-0.547-0.061-1.338,0.832-1.684c0.58-0.205,19.314-6.279,19.314-6.279c0.367-0.092,0.744-0.152,1.111-0.193
			c0.951-0.082,1.918,0,2.867,0.264c3.605,1.197,5.594,5.045,4.416,8.645c-0.285,0.803-0.662,1.531-1.156,2.131
			c-1.27,1.988-3.023,3.529-4.373,7.57C531.545,635.67,531.928,638.125,531.891,640.611z M494.907,630.711
			c0.477-0.805,1.093-0.57,1.845-0.258c0.742,0.328,1.918,0.512,2.873,0.512c0.944,0,2.373-0.359,2.924-0.512
			c0.516-0.16,1.256-0.463,1.835,0.258c0.373,0.496,12.005,16.264,12.005,16.264c0.197,0.285,0.391,0.639,0.555,0.994
			c0.373,0.822,0.59,1.797,0.59,2.76c0,3.773-3.096,6.857-6.898,6.857c-0.854,0-1.658-0.172-2.438-0.455
			c-2.28-0.568-4.303-1.766-8.572-1.766c-4.1,0-6.374,1.146-8.718,1.857c-0.079,0.061-0.162,0.061-0.253,0.078
			c-0.191,0.063-0.385,0.113-0.546,0.162c-0.529,0.123-0.975,0.166-1.371,0.123c-3.814,0-6.899-3.084-6.899-6.857
			c0-1.705,0.62-3.248,1.675-4.453C486.128,642.633,494.479,631.369,494.907,630.711z M493.688,620.855
			c0-3.346,2.761-6.066,6.118-6.066c3.411,0,6.139,2.721,6.139,6.066c0,3.35-2.729,6.09-6.139,6.09
			C496.45,626.945,493.688,624.205,493.688,620.855z M531.879,607.057c-0.992,1.363-2.426,2.275-3.984,2.639
			c-4.273,1.432-17.719,5.645-18.447,5.967c-0.854,0.365-1.25-0.201-1.645-0.873c-0.428-0.689-1.248-1.541-2.032-2.109
			c-0.737-0.547-2.148-1.066-2.668-1.26c-0.505-0.213-1.288-0.365-1.327-1.295c-0.01-0.613-0.102-20.145-0.102-20.145
			c0.031-0.354,0.102-0.736,0.172-1.125c0.193-0.893,0.582-1.785,1.179-2.596c2.23-3.047,6.544-3.736,9.616-1.512
			c0.701,0.484,1.26,1.105,1.705,1.756c1.506,1.826,2.434,3.975,5.895,6.451c3.299,2.373,5.826,2.779,8.17,3.57
			c0.068,0.043,0.174,0.061,0.252,0.104c0.176,0.061,0.346,0.119,0.52,0.191c0.516,0.193,0.9,0.438,1.186,0.699
			C533.455,599.73,534.143,603.994,531.879,607.057z M496.358,586.299c1.014,1.381,1.419,3.021,1.289,4.596
			c0.06,4.455-0.052,18.438,0.031,19.23c0.07,0.91-0.559,1.082-1.341,1.295c-0.791,0.176-1.878,0.682-2.659,1.238
			c-0.761,0.57-1.691,1.686-2.037,2.111c-0.315,0.447-0.734,1.125-1.656,0.893c-0.59-0.17-19.36-6.18-19.36-6.18
			c-0.333-0.119-0.678-0.273-0.992-0.479c-0.833-0.465-1.563-1.096-2.171-1.885c-2.223-3.063-1.532-7.346,1.551-9.578
			c0.681-0.488,1.432-0.832,2.211-1.045c2.202-0.861,4.556-1.086,7.986-3.563c3.328-2.395,4.464-4.625,5.957-6.596
			c0.07-0.078,0.122-0.119,0.192-0.223c0.11-0.141,0.214-0.285,0.335-0.426c0.333-0.426,0.69-0.688,1.033-0.902
			C489.801,582.576,494.136,583.254,496.358,586.299z M470.323,613.705c4.291,1.328,17.674,5.732,18.456,5.914
			c0.914,0.232,0.914,0.873,0.822,1.666c-0.07,0.789,0.092,1.979,0.363,2.869c0.306,0.891,1.127,2.141,1.433,2.578
			c0.293,0.457,0.852,1.064,0.314,1.824c-0.345,0.539-11.882,16.338-11.882,16.338c-0.214,0.295-0.497,0.598-0.791,0.822
			c-0.68,0.629-1.551,1.156-2.485,1.441c-3.613,1.154-7.54-0.813-8.697-4.395c-0.284-0.805-0.375-1.611-0.345-2.408
			c-0.141-2.35,0.397-4.643-0.923-8.643c-1.279-3.875-3.064-5.641-4.515-7.668c-0.041-0.063-0.079-0.143-0.111-0.205
			c-0.121-0.162-0.234-0.324-0.345-0.486c-0.283-0.457-0.446-0.854-0.518-1.238c-1.185-3.6,0.803-7.447,4.416-8.645
			C467.177,612.973,468.841,613.064,470.323,613.705z M516.242,674.377c-1.387,0-2.719-0.271-3.936-0.777
			c-3.031-0.943-6.129-2.498-11.873-2.498c-6.929,0-10.419,2.031-14.516,3.004c-0.629,0.162-1.219,0.211-1.726,0.211
			c-0.354,0.043-0.699,0.061-1.066,0.061c-5.732,0-10.5-4.594-10.391-10.295c0.083-3.896,2.446-7.063,5.358-10.695
			c0.365-0.445,0.944-0.184,0.944,0.445c0,4.486,3.693,8.178,8.24,8.178c3.439,0,8.775-2.92,12.803-2.92
			c4.325,0,8.736,2.92,12.188,2.92c4.564,0,8.258-3.691,8.258-8.178c0-0.545,0.455-0.789,0.74-0.445
			c2.932,3.623,5.295,6.799,5.369,10.695C526.734,669.783,521.988,674.377,516.242,674.377z M539.764,675.443l-9.76-3.043
			c1.184-3.41,1.074-7.041-0.277-10.633c3.066,2.414,6.799,3.672,10.289,3.441L539.764,675.443z M556.221,622.023
			c-0.465,1.301-1.137,2.467-1.992,3.473c-1.855,2.576-4.291,5.02-6.055,10.408c-2.139,6.545-1.287,10.441-1.615,14.621
			c-0.047,0.668-0.16,1.217-0.344,1.695c-0.059,0.332-0.139,0.678-0.24,1.023c-1.777,5.398-7.684,8.461-13.092,6.596
			c-3.775-1.258-6.037-4.475-8.604-8.34c-0.344-0.52,0.082-0.934,0.67-0.732c4.332,1.381,8.988-0.955,10.381-5.275
			c1.086-3.248-0.07-9.193,1.178-12.969c1.326-4.096,5.486-7.326,6.574-10.57c1.41-4.281-0.965-8.93-5.328-10.328
			c-0.477-0.164-0.588-0.648-0.162-0.824c4.385-1.635,8.166-2.893,11.951-1.754C555.012,610.699,557.943,616.598,556.221,622.023z
			 M564.49,599.846l-5.947,8.238c-2.891-2.148-6.385-3.197-10.297-3.006c3.266-2.16,5.652-5.305,6.475-8.662L564.49,599.846z
			 M518.07,567.871c1.135,0.836,2.061,1.85,2.73,2.924c1.906,2.557,3.479,5.623,8.129,8.93c5.6,4.059,9.627,4.443,13.51,6.045
			c0.643,0.266,1.121,0.529,1.533,0.834c0.316,0.162,0.623,0.385,0.902,0.586c4.637,3.35,5.754,9.846,2.307,14.369
			c-2.389,3.125-6.148,4.301-10.674,5.52c-0.57,0.172-0.875-0.367-0.52-0.852c2.689-3.674,1.867-8.768-1.846-11.436
			c-2.771-1.998-8.828-2.748-12.055-5.082c-3.529-2.537-5.336-7.477-8.137-9.479c-3.676-2.637-8.855-1.848-11.523,1.807
			c-0.3,0.426-0.823,0.365-0.854-0.102c-0.244-4.615-0.267-8.541,2.006-11.77C506.846,565.518,513.434,564.566,518.07,567.871z
			 M499.635,552.338l6.097,8.139c-3.014,2.08-5.074,5.063-6.097,8.754c-1.057-3.713-3.338-6.916-6.322-8.754L499.635,552.338z
			 M495.808,570.189c2.232,3.205,2.223,7.15,2.001,11.789c-0.032,0.576-0.631,0.697-0.983,0.211
			c-2.69-3.662-7.855-4.475-11.537-1.814c-2.8,2.008-5.369,7.467-8.645,9.799c-3.481,2.559-8.789,2.73-11.581,4.748
			c-3.691,2.66-4.503,7.793-1.813,11.436c0.294,0.416,0.07,0.893-0.366,0.783c-4.514-1.23-8.3-2.406-10.685-5.541
			c-3.448-4.547-2.325-11.039,2.292-14.389c1.136-0.791,2.386-1.338,3.666-1.662c3.031-0.977,6.431-1.543,11.077-4.889
			c5.632-4.061,7.216-7.693,9.955-10.859c0.446-0.527,0.87-0.893,1.259-1.217c0.262-0.215,0.568-0.426,0.87-0.672
			C485.936,564.588,492.51,565.539,495.808,570.189z"/>
		<path fill="#FDC64F" d="M499.806,626.945c3.411,0,6.139-2.74,6.139-6.09c0-3.346-2.729-6.066-6.139-6.066
			c-3.356,0-6.118,2.721-6.118,6.066C493.688,624.205,496.45,626.945,499.806,626.945z"/>
		<path fill="#E52A1B" d="M549.543,609.047c-3.785-1.139-7.566,0.119-11.951,1.754c-0.426,0.176-0.314,0.66,0.162,0.824
			c4.363,1.398,6.738,6.047,5.328,10.328c-1.088,3.244-5.248,6.475-6.574,10.57c-1.248,3.775-0.092,9.721-1.178,12.969
			c-1.393,4.32-6.049,6.656-10.381,5.275c-0.588-0.201-1.014,0.213-0.67,0.732c2.566,3.865,4.828,7.082,8.604,8.34
			c5.408,1.865,11.314-1.197,13.092-6.596c0.102-0.346,0.182-0.691,0.24-1.023c0.184-0.479,0.297-1.027,0.344-1.695
			c0.328-4.18-0.523-8.076,1.615-14.621c1.764-5.389,4.199-7.832,6.055-10.408c0.855-1.006,1.527-2.172,1.992-3.473
			C557.943,616.598,555.012,610.699,549.543,609.047z"/>
		<path fill="#E52A1B" d="M503.58,570.166c-2.272,3.229-2.25,7.154-2.006,11.77c0.03,0.467,0.554,0.527,0.854,0.102
			c2.668-3.654,7.848-4.443,11.523-1.807c2.801,2.002,4.607,6.941,8.137,9.479c3.227,2.334,9.283,3.084,12.055,5.082
			c3.713,2.668,4.535,7.762,1.846,11.436c-0.355,0.484-0.051,1.023,0.52,0.852c4.525-1.219,8.285-2.395,10.674-5.52
			c3.447-4.523,2.33-11.02-2.307-14.369c-0.279-0.201-0.586-0.424-0.902-0.586c-0.412-0.305-0.891-0.568-1.533-0.834
			c-3.883-1.602-7.91-1.986-13.51-6.045c-4.65-3.307-6.223-6.373-8.129-8.93c-0.67-1.074-1.596-2.088-2.73-2.924
			C513.434,564.566,506.846,565.518,503.58,570.166z"/>
		<path fill="#E52A1B" d="M499.635,569.23c1.023-3.691,3.083-6.674,6.097-8.754l-6.097-8.139l-6.322,8.139
			C496.297,562.314,498.578,565.518,499.635,569.23z"/>
		<path fill="#E52A1B" d="M548.246,605.078c3.912-0.191,7.406,0.857,10.297,3.006l5.947-8.238l-9.77-3.43
			C553.898,599.773,551.512,602.918,548.246,605.078z"/>
		<path fill="#E52A1B" d="M530.367,597.52c-0.285-0.262-0.67-0.506-1.186-0.699c-0.174-0.072-0.344-0.131-0.52-0.191
			c-0.078-0.043-0.184-0.061-0.252-0.104c-2.344-0.791-4.871-1.197-8.17-3.57c-3.461-2.477-4.389-4.625-5.895-6.451
			c-0.445-0.65-1.004-1.271-1.705-1.756c-3.072-2.225-7.386-1.535-9.616,1.512c-0.597,0.811-0.985,1.703-1.179,2.596
			c-0.07,0.389-0.141,0.771-0.172,1.125c0,0,0.092,19.531,0.102,20.145c0.039,0.93,0.822,1.082,1.327,1.295
			c0.52,0.193,1.931,0.713,2.668,1.26c0.784,0.568,1.604,1.42,2.032,2.109c0.395,0.672,0.791,1.238,1.645,0.873
			c0.729-0.322,14.174-4.535,18.447-5.967c1.559-0.363,2.992-1.275,3.984-2.639C534.143,603.994,533.455,599.73,530.367,597.52z"/>
		<path fill="#E52A1B" d="M444.134,596.607l-9.71,3.207l5.875,8.461c2.679-2.24,6.444-3.389,10.349-3.246
			C447.412,602.918,445.188,600.059,444.134,596.607z"/>
		<path fill="#E52A1B" d="M459.494,665.227l0.083,10.139l9.953-2.924c-1.339-3.219-1.258-7.133,0.103-10.777
			C466.587,664.041,463.138,665.279,459.494,665.227z"/>
		<path fill="#E52A1B" d="M488.736,657.586c0.396,0.043,0.842,0,1.371-0.123c0.162-0.049,0.355-0.1,0.546-0.162
			c0.092-0.018,0.174-0.018,0.253-0.078c2.345-0.711,4.619-1.857,8.718-1.857c4.27,0,6.292,1.197,8.572,1.766
			c0.779,0.283,1.584,0.455,2.438,0.455c3.803,0,6.898-3.084,6.898-6.857c0-0.963-0.217-1.938-0.59-2.76
			c-0.164-0.355-0.357-0.709-0.555-0.994c0,0-11.632-15.768-12.005-16.264c-0.579-0.721-1.319-0.418-1.835-0.258
			c-0.551,0.152-1.98,0.512-2.924,0.512c-0.955,0-2.131-0.184-2.873-0.512c-0.751-0.313-1.368-0.547-1.845,0.258
			c-0.428,0.658-8.779,11.922-11.396,15.564c-1.055,1.205-1.675,2.748-1.675,4.453C481.837,654.502,484.922,657.586,488.736,657.586
			z"/>
		<path fill="#E52A1B" d="M474.522,650.902c-4.334,1.412-9-0.928-10.398-5.248c-1.077-3.258,0.374-8.299-0.946-12.377
			c-1.237-3.775-5.692-7.936-6.754-11.162c-1.433-4.303,0.943-8.93,5.285-10.328c0.599-0.174,0.64-0.789,0.092-0.986
			c-4.364-1.635-8.129-2.893-11.894-1.754c-5.487,1.652-8.461,7.551-6.674,12.977c0.121,0.314,0.243,0.658,0.383,0.986
			c0.166,0.484,0.389,0.99,0.734,1.541c2.189,3.584,5.225,6.248,7.366,12.785c1.786,5.396,1.248,8.787,1.267,11.949
			c-0.102,1.289,0.04,2.621,0.467,3.959c1.786,5.398,7.679,8.461,13.109,6.596c3.734-1.279,6.036-4.475,8.583-8.361
			C475.416,651.094,475.019,650.768,474.522,650.902z"/>
		<path fill="#E52A1B" d="M480.449,568.584c-0.389,0.324-0.813,0.689-1.259,1.217c-2.739,3.166-4.323,6.799-9.955,10.859
			c-4.646,3.346-8.046,3.912-11.077,4.889c-1.28,0.324-2.529,0.871-3.666,1.662c-4.617,3.35-5.741,9.842-2.292,14.389
			c2.384,3.135,6.171,4.311,10.685,5.541c0.436,0.109,0.66-0.367,0.366-0.783c-2.69-3.643-1.877-8.775,1.813-11.436
			c2.792-2.018,8.1-2.189,11.581-4.748c3.276-2.332,5.845-7.791,8.645-9.799c3.682-2.66,8.847-1.848,11.537,1.814
			c0.353,0.486,0.951,0.365,0.983-0.211c0.222-4.639,0.231-8.584-2.001-11.789c-3.298-4.65-9.873-5.602-14.49-2.277
			C481.017,568.158,480.711,568.369,480.449,568.584z"/>
		<path fill="#E52A1B" d="M529.727,661.768c1.352,3.592,1.461,7.223,0.277,10.633l9.76,3.043l0.252-10.234
			C536.525,665.439,532.793,664.182,529.727,661.768z"/>
		<path fill="#E52A1B" d="M520.525,653.832c0,4.486-3.693,8.178-8.258,8.178c-3.451,0-7.862-2.92-12.188-2.92
			c-4.028,0-9.364,2.92-12.803,2.92c-4.547,0-8.24-3.691-8.24-8.178c0-0.629-0.579-0.891-0.944-0.445
			c-2.913,3.633-5.275,6.799-5.358,10.695c-0.109,5.701,4.659,10.295,10.391,10.295c0.367,0,0.712-0.018,1.066-0.061
			c0.507,0,1.097-0.049,1.726-0.211c4.097-0.973,7.587-3.004,14.516-3.004c5.744,0,8.841,1.555,11.873,2.498
			c1.217,0.506,2.549,0.777,3.936,0.777c5.746,0,10.492-4.594,10.393-10.295c-0.074-3.896-2.438-7.072-5.369-10.695
			C520.98,653.043,520.525,653.287,520.525,653.832z"/>
		<path fill="#E52A1B" d="M537.166,624.246c0.494-0.6,0.871-1.328,1.156-2.131c1.178-3.6-0.811-7.447-4.416-8.645
			c-0.949-0.264-1.916-0.346-2.867-0.264c-0.367,0.041-0.744,0.102-1.111,0.193c0,0-18.734,6.074-19.314,6.279
			c-0.893,0.346-0.801,1.137-0.832,1.684c0,0.551-0.092,2.01-0.375,2.904c-0.297,0.893-0.854,1.947-1.4,2.547
			c-0.537,0.617-0.922,1.123-0.316,1.814c0.508,0.609,8.699,11.982,11.416,15.584c0.84,1.342,2.121,2.395,3.754,2.945
			c3.633,1.154,7.535-0.813,8.717-4.387c0.154-0.383,0.252-0.813,0.285-1.357c0.018-0.162,0.018-0.367,0.018-0.547
			c0-0.082,0.012-0.184,0.012-0.256c0.037-2.486-0.346-4.941,0.902-8.795C534.143,627.775,535.896,626.234,537.166,624.246z"/>
		<path fill="#E52A1B" d="M461.098,622.115c0.072,0.385,0.235,0.781,0.518,1.238c0.111,0.162,0.224,0.324,0.345,0.486
			c0.032,0.063,0.07,0.143,0.111,0.205c1.451,2.027,3.236,3.793,4.515,7.668c1.321,4,0.782,6.293,0.923,8.643
			c-0.03,0.797,0.062,1.604,0.345,2.408c1.157,3.582,5.083,5.549,8.697,4.395c0.934-0.285,1.805-0.813,2.485-1.441
			c0.294-0.225,0.577-0.527,0.791-0.822c0,0,11.537-15.799,11.882-16.338c0.538-0.76-0.021-1.367-0.314-1.824
			c-0.306-0.438-1.127-1.688-1.433-2.578c-0.271-0.891-0.433-2.08-0.363-2.869c0.092-0.793,0.092-1.434-0.822-1.666
			c-0.782-0.182-14.165-4.586-18.456-5.914c-1.481-0.641-3.146-0.732-4.81-0.234C461.901,614.668,459.913,618.516,461.098,622.115z"
			/>
		<path fill="#E52A1B" d="M486.727,584.787c-0.343,0.215-0.699,0.477-1.033,0.902c-0.121,0.141-0.226,0.285-0.335,0.426
			c-0.07,0.104-0.122,0.145-0.192,0.223c-1.493,1.971-2.629,4.201-5.957,6.596c-3.43,2.477-5.784,2.701-7.986,3.563
			c-0.779,0.213-1.53,0.557-2.211,1.045c-3.083,2.232-3.774,6.516-1.551,9.578c0.609,0.789,1.338,1.42,2.171,1.885
			c0.314,0.205,0.66,0.359,0.992,0.479c0,0,18.771,6.01,19.36,6.18c0.922,0.232,1.341-0.445,1.656-0.893
			c0.345-0.426,1.276-1.541,2.037-2.111c0.781-0.557,1.868-1.063,2.659-1.238c0.782-0.213,1.411-0.385,1.341-1.295
			c-0.083-0.793,0.029-14.775-0.031-19.23c0.13-1.574-0.275-3.215-1.289-4.596C494.136,583.254,489.801,582.576,486.727,584.787z"/>
		<path fill="#FDC64F" d="M571.889,446.29c18.977-20.911,25.775-43.604,27.633-51.633l-40.65,14.025l0.527,58.53
			C560.857,462.152,564.195,454.779,571.889,446.29z"/>
		<path fill="#FDC64F" d="M608.373,456.867c0,0-0.075-0.101-0.203-0.28c0.092,0.138,0.156,0.232,0.191,0.284L608.373,456.867z"/>
		<path fill="#FDC64F" d="M599.545,394.649l-0.022,0.008c-0.032,0.195-0.06,0.379-0.092,0.573
			C599.502,394.858,599.545,394.649,599.545,394.649z"/>
		<path fill="#E9A500" d="M544.983,373.974c0.096-0.05,0.179-0.107,0.255-0.166C545.159,373.866,545.08,373.924,544.983,373.974z"/>
		<path fill="#E9A500" d="M608.395,456.919c0,0-0.013-0.018-0.033-0.048c-0.035-0.052-0.1-0.146-0.191-0.284
			c-1.421-2.137-9.167-14.33-10.613-28.301c-1.158-11.328-0.074-21.223,1.874-33.055c0.032-0.194,0.06-0.378,0.092-0.573
			c0-0.002,0.001-0.005,0.001-0.008c-0.001,0.002-0.001,0.005-0.002,0.008c-1.857,8.029-8.656,30.722-27.633,51.633
			c-7.693,8.489-11.031,15.862-12.49,20.923l-0.527-58.53l-0.369-40.97l-0.031,0.019v-0.019c0,0-9.994,3.53-11.025,3.82
			c-0.057,0.014-0.103,0.035-0.155,0.051l1.247,3.879c-0.451,0.229-0.84,0.654-0.949,1.197c-0.012,0.144,0.027,0,0,0.091
			c-0.085,0.46-0.354,0.881-0.867,1.115c0.54-0.226,0.833-0.651,0.926-1.13c0.021-0.07-0.031,0.046,0-0.11
			c0.152-0.763,0.852-1.319,1.623-1.376c0.52-0.039,4.191-0.455,6.494-0.706l-0.935,97.519c1.648,2.355,2.731,3.752,2.731,3.752
			s-1.002-0.279-2.76-0.71l-0.044,4.492c1.613-0.143,3.202-0.29,4.758-0.441l-0.048-5.23L608.395,456.919z"/>
		<path fill="#E9A500" d="M544.926,374.003c-0.138,0.066-0.287,0.127-0.455,0.184c-0.822,0.249-6.574,2.29-10.686,3.662
			c-0.74,0.253-0.443,0.989,0.061,0.959c4.37-0.192,10.519-0.646,12.021-0.767l-1.149-3.936
			C544.795,374.073,544.856,374.037,544.926,374.003z"/>
		<path fill="#E9A500" d="M545.414,373.648c-0.015,0.016-0.024,0.035-0.04,0.05C545.39,373.683,545.4,373.665,545.414,373.648z"/>
		<path fill="#FDC64F" d="M421.933,476.595c0.282-0.281,0.663-0.609,1.168-0.965C422.609,475.971,422.228,476.295,421.933,476.595z"
			/>
		<path fill="#FDC64F" d="M423.441,475.398c-0.008,0.005-0.017,0.011-0.025,0.017C423.424,475.409,423.433,475.403,423.441,475.398z
			"/>
		<path fill="#FDC64F" d="M421.162,477.61c0,0,0.012-0.03,0.038-0.081c-0.014,0.024-0.032,0.051-0.045,0.075L421.162,477.61z"/>
		<path fill="#FDC64F" d="M447.259,454.586c12.123-9.508,17.722-26.451,18.428-28.714c0.05-0.179,0.08-0.274,0.08-0.274
			l-51.148,17.583c0,0-5.509,6.564-3.389,17.704c2.046,10.727,9.745,16.583,9.917,16.713
			C416.129,468.358,438.149,461.734,447.259,454.586z"/>
		<path fill="#FDC64F" d="M476.172,471.627c0.453,0.074,0.768,0.129,0.933,0.159c-0.006-0.009-0.011-0.018-0.017-0.027
			C476.955,471.738,476.641,471.692,476.172,471.627z"/>
		<path fill="#FDC64F" d="M421.832,476.699c-0.032,0.034-0.067,0.069-0.098,0.103C421.765,476.769,421.799,476.734,421.832,476.699z
			"/>
		<path fill="#FDC64F" d="M378.792,464.903c7.576,0.772,14.426,1.966,18.003,2.644c-1.266-0.273-2.976-0.648-5.178-1.144
			c-22.951-5.233,19.174-56.666,19.174-56.666s-0.453,0.664-1.184,1.924c0.762-1.283,1.236-1.958,1.236-1.958
			s-9.344,4.312-23.488,18.658c-18.762,19.045-25.103,36.43-25.103,36.43S369.466,463.939,378.792,464.903z"/>
		<path fill="#E9A500" d="M391.618,466.404c2.202,0.496,3.912,0.871,5.178,1.144c1.866,0.403,2.756,0.583,2.756,0.583
			s-2.364-15.138-0.236-27.163c2.622-14.87,7.929-25.235,10.292-29.306c0.731-1.26,1.184-1.924,1.184-1.924
			S368.667,461.17,391.618,466.404z"/>
		<path fill="#E9A500" d="M415.754,388.787c4.378-0.234,10.625-0.671,12.024-0.791l-1.156-3.952c0.01-0.004,0.017-0.009,0.026-0.013
			c-0.101,0.039-0.194,0.081-0.311,0.114c-0.804,0.256-6.557,2.293-10.676,3.689C414.941,388.103,415.195,388.835,415.754,388.787z"
			/>
		<path fill="#E9A500" d="M430.436,385.418c-0.467,0.223-0.831,0.647-0.944,1.182c-0.031,0.156,0.052,0.031,0,0.101
			c-0.101,0.623-0.538,1.167-1.49,1.268c-0.044,0-0.104,0.011-0.163,0.022c0.071-0.006,0.134-0.012,0.171-0.016
			c0.944-0.101,1.402-0.653,1.521-1.268c0.013-0.072-0.031,0.046,0-0.104c0.166-0.778,0.834-1.316,1.616-1.377
			c0.516-0.058,4.019-0.437,6.339-0.69l-0.131,15.855l3.207-1.102l-0.194-21.526l0.009-0.062h-0.009v-0.021l-0.111,0.061
			c-1.065,0.367-9.984,3.481-10.928,3.728c-0.193,0.056-0.362,0.126-0.52,0.202c0.114-0.049,0.235-0.094,0.367-0.131
			L430.436,385.418z"/>
		<path fill="#E9A500" d="M503.979,337.982v-0.009c0,0-10.026,3.509-11.04,3.784c-1.228,0.338-1.748,1.181-1.766,1.497
			c-0.03,0.626-0.498,0.943-1.21,1.182c-0.831,0.229-6.562,2.29-10.694,3.68c-0.739,0.238-0.446,0.989,0.074,0.958
			c4.618-0.23,11.261-0.729,12.207-0.807c-0.035,0.001-0.06,0.004-0.103,0.004l-1.147-3.952c0.568-0.239,0.892-0.516,0.935-1.069
			c0.009-0.291,0.485-1.103,1.634-1.442l1.263,3.852c0.191-0.084,0.395-0.143,0.612-0.153c0.509-0.053,3.886-0.428,6.202-0.675
			l-0.14,11.988l3.201-1.112L503.979,337.982z"/>
		<path fill="#FDC64F" d="M491.234,343.25c-0.043,0.553-0.367,0.83-0.935,1.069l1.147,3.952c0.043,0,0.068-0.003,0.103-0.004
			c0.048-0.001,0.104,0,0.139-0.005c0.926-0.107,1.37-0.65,1.493-1.289c0.019-0.086-0.021,0.052,0-0.097
			c0.111-0.517,0.476-0.962,0.954-1.201l-0.004-0.014l-1.263-3.852C491.719,342.147,491.243,342.96,491.234,343.25z"/>
		<path fill="#FDC64F" d="M427.778,387.996l0.001,0.003c0.024-0.008,0.038-0.004,0.06-0.008c0.059-0.012,0.118-0.022,0.163-0.022
			c0.953-0.101,1.39-0.645,1.49-1.268c0.052-0.07-0.031,0.055,0-0.101c0.113-0.535,0.477-0.959,0.944-1.182l-1.258-3.878
			c-0.132,0.037-0.252,0.083-0.367,0.131c-0.87,0.373-1.238,1.039-1.257,1.322c-0.049,0.502-0.356,0.81-0.905,1.038
			c-0.01,0.004-0.017,0.009-0.026,0.013L427.778,387.996z"/>
		<path fill="#FDC64F" d="M547.588,376.751c0.027-0.091-0.012,0.052,0-0.091c0.109-0.543,0.498-0.968,0.949-1.197l-1.247-3.879
			l-0.009-0.026c-1.146,0.384-1.633,1.187-1.645,1.475c-0.003,0.254-0.085,0.451-0.223,0.616c-0.014,0.016-0.024,0.035-0.04,0.05
			c-0.038,0.04-0.09,0.073-0.136,0.109c-0.076,0.059-0.159,0.116-0.255,0.166c-0.019,0.01-0.039,0.019-0.058,0.029
			c-0.069,0.034-0.131,0.07-0.209,0.102l1.149,3.936l0.003,0.009c0.092,0,0.166-0.009,0.213-0.009
			c0.247-0.029,0.457-0.091,0.639-0.174C547.234,377.632,547.503,377.212,547.588,376.751z"/>
		<path fill="#E9A500" d="M476.172,471.627c0.469,0.065,0.783,0.111,0.916,0.132c-0.361-0.561-0.718-1.146-1.069-1.756
			c-2.38-3.785-7.835-13.142-10.274-22.978c-2.717-10.902,0.021-21.412,0.021-21.412s-0.028,0.094-0.08,0.259
			c-0.707,2.264-6.305,19.207-18.428,28.714c-9.109,7.148-31.13,13.772-26.113,23.011c0.002,0.004,0.003,0.008,0.006,0.012
			c0.001-0.001,0.002-0.004,0.003-0.005c0.013-0.024,0.031-0.051,0.045-0.075c0.126-0.215,0.294-0.458,0.534-0.728
			c0.03-0.033,0.065-0.068,0.098-0.103s0.067-0.069,0.101-0.104c0.294-0.3,0.676-0.624,1.168-0.965
			c0.103-0.071,0.201-0.142,0.314-0.215c0.008-0.005,0.017-0.011,0.025-0.017c1.745-1.119,4.713-2.395,9.825-3.556
			c1.097-0.239,2.224-0.455,3.36-0.653l-0.048,11.853c1.544,0.144,3.14,0.281,4.789,0.414l-0.032-12.891
			C455.919,469.047,472.073,471.056,476.172,471.627z"/>
		<path fill="#FDC64F" d="M457.17,393.583l-0.02,0.007c-0.004,0.018-0.006,0.03-0.013,0.063
			C457.159,393.607,457.17,393.583,457.17,393.583z"/>
		<path fill="#FDC64F" d="M465.767,425.586c0,0-0.015-0.014-0.018-0.016c-0.099,0.002-1.251,0.026-3.212,0.146
			C464.58,425.603,465.767,425.586,465.767,425.586z"/>
		<path fill="#FDC64F" d="M417.369,407.258c-0.112,0.345-6.14,5.519-6.861,17.527c-0.647,11.721,5.316,15.296,5.316,15.296
			s0.014-0.021,0.027-0.042c-3.716-8.675,11.945-15.47,23.615-25.096c11.036-9.104,17.208-20.489,17.664-21.346l-16.567,5.692
			l-3.207,1.102L417.369,407.258z"/>
		<path fill="#FDC64F" d="M417.736,437.897c0.008-0.007,0.014-0.014,0.022-0.021C417.751,437.883,417.744,437.89,417.736,437.897z"
			/>
		<path fill="#FDC64F" d="M418.41,437.283c-0.033,0.029-0.061,0.055-0.093,0.083C418.349,437.338,418.377,437.312,418.41,437.283z"
			/>
		<path fill="#E9A500" d="M439.466,414.943c-11.67,9.625-27.331,16.421-23.615,25.096c0.01,0.022,0.015,0.044,0.025,0.067
			c0.312-0.484,0.88-1.266,1.86-2.209c0.008-0.007,0.015-0.014,0.022-0.021c0.171-0.165,0.361-0.335,0.559-0.509
			c0.032-0.028,0.06-0.055,0.093-0.083c2.33-2.018,6.456-4.574,13.661-6.574c12.835-3.55,24.896-4.655,30.466-4.994
			c1.961-0.119,3.114-0.144,3.212-0.146c0.005,0,0.018,0,0.018,0s-6.757-6.066-8.95-17.652c-1.192-6.261,0.133-13.322,0.321-14.264
			c0.007-0.033,0.009-0.045,0.013-0.063c0.004-0.019,0.01-0.05,0.01-0.05s-0.012,0.023-0.03,0.057
			C456.674,394.455,450.502,405.839,439.466,414.943z"/>
		<path fill="#FDC64F" d="M477.088,471.759c0.006,0.009,0.011,0.018,0.017,0.027c3.776,5.858,7.825,8.946,7.825,8.946
			s0.003-0.01,0.008-0.026c-5.34-11.379,20.601-17.321,33.681-29.387c13.707-12.643,19.469-30.92,20.973-36.552
			c-0.01,0.046-0.021,0.106-0.031,0.154c0.025-0.108,0.039-0.166,0.039-0.166l-62.248,21.464c0,0-8.157,8.802-6.037,20.929
			c0.894,5.07,2.696,9.368,4.704,12.855C476.371,470.613,476.728,471.198,477.088,471.759z"/>
		<path fill="#FDC64F" d="M478.325,395.168c0,0,0.001-0.005,0.003-0.016c0,0.003-0.002,0.007-0.003,0.01
			c-2.768-8.831,18.155-15.573,29.233-25.29c7.828-6.881,15.494-20.326,15.794-20.854c0.005-0.011,0.015-0.036,0.015-0.036
			l-19.361,6.727l-3.201,1.112l-22.172,7.704c-0.355,0.406-6.959,7.922-6.496,17.36
			C472.705,393.626,478.325,395.168,478.325,395.168z"/>
		<path fill="#FDC64F" d="M529.029,379.507l-0.004-0.004c-0.004,0-0.038,0-0.091,0C528.99,379.505,529.029,379.507,529.029,379.507z
			"/>
		<path fill="#E9A500" d="M507.559,369.872c-11.078,9.717-32.001,16.459-29.233,25.29c0.001-0.003,0.003-0.006,0.003-0.01
			c0.692-2.421,5.639-6.776,13.461-9.496c17.583-6.11,35.757-6.159,37.145-6.153c0.053,0,0.087,0,0.091,0h0.004
			c0,0-6.496-6.012-7.863-17.473c-0.711-6.015,2.201-13.038,2.201-13.038s-0.008,0.015-0.015,0.025
			C523.053,349.546,515.387,362.991,507.559,369.872z"/>
		<path fill="#FDC64F" d="M528.449,388.964c0.037,0.88,0.104,1.771,0.213,2.654C528.567,390.668,528.499,389.788,528.449,388.964z"
			/>
		<path fill="#FDC64F" d="M478.591,433.492c0,0,0.02-0.032,0.038-0.061c-2.311-9.569,23.011-20.29,34.183-29.899
			c10.414-8.951,15.476-22.027,16.13-23.802c0.04-0.138,0.065-0.208,0.065-0.208l-51.705,17.912
			c-0.527,0.282-7.682,5.124-6.403,17.135C472.136,426.028,478.591,433.492,478.591,433.492z"/>
		<path fill="#FDC64F" d="M478.982,432.915c-0.049,0.067-0.094,0.131-0.136,0.193C478.885,433.052,478.935,432.982,478.982,432.915z
			"/>
		<path fill="#E9A500" d="M512.813,403.532c-11.172,9.609-36.494,20.33-34.183,29.899c0.001,0.006,0.001,0.012,0.003,0.018
			c0.053-0.099,0.131-0.219,0.214-0.341c0.042-0.062,0.087-0.125,0.136-0.193c1.801-2.459,8.61-8.482,19.11-11.995
			c17.513-5.866,41.507-6.196,41.507-6.196s-7.885-9.409-10.51-20.661c-0.185-0.793-0.324-1.615-0.428-2.445
			c-0.109-0.882-0.176-1.774-0.213-2.654c-0.206-4.926,0.568-9.443,0.568-9.443s-0.026,0.076-0.075,0.208
			C528.288,381.505,523.227,394.582,512.813,403.532z"/>
		<path fill="#E9A500" d="M554.801,475.105c1.758,0.431,2.76,0.71,2.76,0.71s-1.083-1.397-2.731-3.752
			c-4.301-6.147-12.469-18.847-15.411-30.481c-2.639-10.479-0.746-22.409,0.143-26.661c0.01-0.048,0.021-0.108,0.031-0.154
			c-1.504,5.632-7.266,23.91-20.973,36.552c-13.08,12.066-39.021,18.007-33.681,29.387c0.018,0.037,0.026,0.072,0.044,0.109
			c0.996-1.879,3.966-6.16,14.529-8.808l-0.174,13.276c1.622-0.002,3.266-0.007,4.946-0.015l0.028-14.232
			C523.175,468.041,546.845,473.154,554.801,475.105z"/>
		<path fill="#FDC64F" d="M499.29,730.143c-0.017-0.006-0.034-0.012-0.051-0.018c-125.998-42.326-162.78-127.601-169.201-176.416
			c-1.43-10.813-2.495-21.525-3.266-32.079c0-0.001,0-0.003,0-0.005h55.569h62.931h54.04v-14.621h0.507v-0.002h-88.82
			c1.926-6.429,8.249-7.992,15.94-6.141c8.055,1.915,15.928,3.948,23.528,3.573c18.994-0.921,16.205-6.077,17.927-5.97
			c19.553,1.182,26.95,5.979,44.014,5.672c15.549-0.261,20.975-4.343,22.436-4.356c13.326-0.13,20.83,4.116,30.701,7.224h10.258
			c-13.424-4.271-29.088-11.031-44.43-10.14c-1.461,0.083-1.979,4.899-17.531,5.185c-17.077,0.291-29.568-6.73-49.039-6.382
			c-1.713,0.03,1.808,7.097-17.146,5.976c-8.369-0.486-18.333-3.585-25.103-7.167c-4.422-2.339-8.075-5-10.816-8.731
			c-0.242-0.319-18.465-5.047-18.68-5.349c-0.8-1.09-1.154-1.475-1.935-2.516c42.066,8.979,65.809,9.884,114.266,9.923
			c5.4,0,12.684-0.207,17.797-0.345c2.486-0.051,12.936-4.757,15.354-4.849c37.172-1.624,59.799-7.264,59.799-7.264
			s-0.006,6.024-9.902,14.828c-2.17,1.932-6.037,10.462,0.658,16.831h3.12c-0.036-0.036-0.079-0.067-0.112-0.105
			c-5.27-5.839-4.326-12.032-1.117-15.015c11.617-10.899,11.467-18.815,11.467-18.815s-17.447,3.598-42.935,6.086
			c-1.556,0.152-3.145,0.299-4.758,0.441c-5.617,0.496-11.563,0.931-17.765,1.256c-2.418,0.132-11.08,3.928-13.563,4.007
			c-5.117,0.181-10.379,0.345-15.781,0.389c-1.135,0.008-2.256,0.015-3.364,0.021c-1.681,0.008-3.325,0.012-4.946,0.015
			c-25.46,0.032-43.761-0.687-57.971-1.828c-1.649-0.132-3.245-0.27-4.789-0.414c-18.333-1.701-29.587-4.129-41.815-6.42
			c-23.326-4.361-33.575-9.09-33.575-9.09l-0.882,2.506c0,0,18.395,7.104,31.696,13.595c2.771,1.347,13.748,17.824,17.391,23.369
			h-83.515c-4.647-95.631,13.869-173.914,13.869-173.914s63.706-13.616,159.542-13.652l-0.053-10.227
			c-101.717,0.046-169.33,14.473-169.33,14.473s-29.678,104.511-13.952,228.919c6.556,51.877,49.493,148.93,183.335,193.857V730.143
			z"/>
		<path fill="#E9A500" d="M682.725,552.602c15.727-124.417-13.932-228.916-13.932-228.916s-67.574-14.484-169.556-14.484v0.007
			l0.053,10.227v0.011c96.032,0,159.653,13.641,159.653,13.641s18.512,78.289,13.855,173.916h-80.587h-3.12
			c-6.695-6.369-2.828-14.898-0.658-16.831c9.896-8.804,9.902-14.828,9.902-14.828s-22.627,5.64-59.799,7.264
			c-2.418,0.092-12.867,4.798-15.354,4.849c-5.113,0.139-12.396,0.345-17.797,0.345c-48.457-0.04-72.2-0.944-114.266-9.923
			c0.781,1.041,1.135,1.425,1.935,2.516c0.215,0.302,18.438,5.03,18.68,5.349c2.741,3.732,6.394,6.393,10.816,8.731
			c6.77,3.582,16.734,6.68,25.103,7.167c18.954,1.121,15.434-5.945,17.146-5.976c19.471-0.348,31.962,6.673,49.039,6.382
			c15.553-0.285,16.07-5.102,17.531-5.185c15.342-0.892,31.006,5.869,44.43,10.14h-10.258h-65.726h-0.507v14.621h0.037h0.47h62.447
			h57.631h52.021c-0.768,10.555-1.832,21.27-3.256,32.084c-0.862,6.553-2.279,13.767-4.381,21.44
			c-3.879,14.17-10.116,29.921-19.598,46.051c-7.712,13.118-17.574,26.483-30.063,39.449c-9.055,9.399-19.491,18.587-31.492,27.316
			c-12.32,8.962-26.29,17.438-42.106,25.163c-12.69,6.2-26.558,11.921-41.729,17.014v16.316v0.01
			C633.172,701.523,676.168,604.471,682.725,552.602z"/>
	</g>
	<polygon fill="#0F1C45" points="186.6,368.706 193.652,355.388 225.207,353.111 209.216,325.798 216.228,312.445 272.49,342.057 
		266.038,354.359 229.295,335.037 244.982,363.511 244.82,363.826 212.788,366.993 249.263,386.193 242.873,398.329 	"/>
	<path fill="#0F1C45" d="M250.938,268.775l8.836-9.381l65.284,24.072l-10.025,10.629l-14.359-5.524l-18.434,19.549l6.391,14.019
		l-9.79,10.371L250.938,268.775z M288.268,283.726l-20.802-7.992l9.213,20.283L288.268,283.726z"/>
	<polygon fill="#0F1C45" points="301.364,222.473 312.403,215.801 358.154,233.826 337.862,200.349 349.682,193.18 382.646,247.549 
		372.451,253.724 325.18,235.105 346.131,269.673 334.332,276.843 	"/>
	<path fill="#0F1C45" d="M423.963,221.309c-10.481,3.021-20.24-3.615-23.276-14.093l-0.06-0.162
		c-3.023-10.476,1.938-21.176,12.226-24.157c6.129-1.756,11.677-0.518,17.605,2.389l5.71-12.333
		c-7.265-3.966-15.298-5.798-26.796-2.459c-18.779,5.413-27.76,23.428-22.747,40.798l0.07,0.167
		c5.063,17.537,22.423,27.562,40.413,22.377c11.771-3.403,17.555-9.62,21.886-18.136l-11.058-6.185
		C434.403,215.264,430.934,219.304,423.963,221.309z"/>
	<polygon fill="#0F1C45" points="462.946,160.443 476.928,160.077 477.575,185.242 503.348,184.576 502.729,159.422 
		516.689,159.068 518.313,222.634 504.33,222.988 503.672,197.493 477.881,198.126 478.549,223.645 464.569,223.993 	"/>
	<path fill="#0F1C45" d="M644.717,191.572c-11.801-5.444-23.408-2.42-28.268,8.05l-0.053,0.188
		c-5.295,11.452,0.711,18.152,10.957,26.474c8.516,6.928,9.736,9.484,8.234,12.718l-0.064,0.177
		c-1.563,3.374-5.629,3.998-10.846,1.587c-6.605-3.054-10.797-8.291-14.002-14.962l-11.678,5.496
		c4.096,9.394,11.514,16.524,20.24,20.582c12.439,5.738,24.18,3.347,29.467-8.113l0.068-0.177c4.656-10.044,0-17.308-10.285-25.768
		c-8.816-7.178-10.686-9.547-8.953-13.347l0.061-0.158c1.313-2.814,4.914-3.865,9.752-1.612c4.871,2.257,8.898,6.711,12.389,12.648
		l11.029-6.536C659.063,201.42,653.105,195.467,644.717,191.572z"/>
	<polygon fill="#0F1C45" points="691.744,234.962 676.365,223.242 684.186,212.976 726.07,244.917 718.258,255.167 702.863,243.452 
		672.131,283.762 661.023,275.273 	"/>
	<g>
		<path fill="none" d="M787.281,343.396l-16.297,8.209l6.346,12.679c3.072,6.085,8.064,7.933,12.865,5.512l0.17-0.07
			c5.338-2.704,6.234-7.812,3.145-13.895L787.281,343.396z"/>
		<path fill="#0F1C45" d="M792.271,325.243l-56.809,28.542l6.283,12.51l18.164-9.13l4.959,9.814l-12.064,21.317l7.336,14.621
			l13.332-24.09c6.305,5.887,14.572,7.924,23.742,3.322l0.152-0.071c5.348-2.714,8.959-6.65,10.531-11.412
			c1.857-5.608,1.066-12.241-2.555-19.47L792.271,325.243z M790.365,369.726l-0.17,0.07c-4.801,2.421-9.793,0.574-12.865-5.512
			l-6.346-12.679l16.297-8.209l6.229,12.435C796.6,361.915,795.703,367.022,790.365,369.726z"/>
	</g>
	<polygon fill="#0F1C45" points="556.566,203.038 580.002,208.116 586.486,196.803 559.215,190.881 561.953,178.274 595.23,185.489 
		597.869,173.318 550.984,163.147 537.521,225.313 584.846,235.567 587.482,223.401 553.754,216.095 	"/>
	<polygon fill="#0F1C45" points="745.238,263.789 696.484,304.631 727.611,341.757 737.117,333.769 714.959,307.291 
		725.207,298.713 740.793,317.303 753.436,313.028 734.744,290.721 744.615,282.428 766.514,308.558 776.027,300.548 	"/>
	<path fill="#0F1C45" d="M425.81,825.955c-11.1,0-18.781-9.234-18.781-20.314v-0.184c0-11.117,7.863-20.189,18.781-20.189
		c6.473,0,11.566,2.791,16.559,7.324l9.051-10.449c-6.009-5.928-13.304-9.984-25.518-9.984c-19.876,0-33.738,15.08-33.738,33.482
		v0.162c0,18.588,14.124,33.291,33.19,33.291c12.479,0,19.877-4.441,26.531-11.559l-9.06-9.16
		C437.722,823.014,433.218,825.955,425.81,825.955z"/>
	<rect x="465.736" y="773.264" fill="#0F1C45" width="14.223" height="64.725"/>
	<polygon fill="#0F1C45" points="513.068,786.385 493.384,786.385 493.384,773.275 547.008,773.275 547.008,786.385 
		527.293,786.385 527.293,837.988 513.068,837.988 	"/>
	<polygon fill="#0F1C45" points="577.953,812.459 553.094,773.264 569.725,773.264 585.18,799.25 600.873,773.264 617.068,773.264 
		592.191,812.197 592.191,837.988 577.953,837.988 	"/>
</g>
</svg>
