<svg id="Layer_1" data-name="Layer 1" xmlns="http://www.w3.org/2000/svg" width="703.49" height="712.66" viewBox="0 0 703.49 712.66"><defs><style>.cls-1{fill:#ff0;}.cls-2{fill:#ffe800;}.cls-3{fill:#ffeb00;}.cls-4{fill:#ffed00;}.cls-5{fill:#f21000;}.cls-6{fill:#fff200;}</style></defs><title>manchester_united-logo-freelogovectors.net_</title><path d="M434.87,727.46c-2.79,8.37-11.89,28.87-33.82,28.87-24.93,0-33.63-27-34.05-28.11l-.71-2.59s21.48,1.79,33.3,1.79,32-1.15,35.34-1.79l-.06,1.83Z" transform="translate(-48.26 -43.67)"/><path d="M500.3,714.15l5.14.68c-6.1,15.93-17.07,33.78-38.63,33.78-20.86,0-31.2-12.08-35.61-20.22l-3.6-2.21s36.07-1.19,72.7-12Z" transform="translate(-48.26 -43.67)"/><path d="M302.54,714.15l-5.15.68c6.11,15.93,17.08,33.78,38.64,33.78a42.25,42.25,0,0,0,36.75-20.22l2.46-2.21s-36.07-1.19-72.7-12Z" transform="translate(-48.26 -43.67)"/><path class="cls-1" d="M418.53,729.12c-3.37,4.9-5.64,4.66-9.7,4.66-2.05,0-5.11,1.7-5,4.76.07,2.4,2,4.4,5.34,4.4,7.37,0,13-10.29,14.56-14.64,0,0,4.35-.18,5.63-.31,0,0-7.81,23.24-28,23.24s-28.53-23-28.53-23,17.06,1.06,26.83,1.06,16,0,18.92-.18Z" transform="translate(-48.26 -43.67)"/><path class="cls-1" d="M497.6,718.9c-13.23,3.56-22.62,6.43-44.83,9.14,0,0,.69,2.29,5.52,2a8.35,8.35,0,0,0,2.79-.67,3.12,3.12,0,0,1,3.22,3.6c-.18,1.68-1.63,3.81-6.54,3.81s-10.67-4-13.55-7.75a41.58,41.58,0,0,1-6,.84,35.79,35.79,0,0,0,28.09,13.24c20.51,0,28.08-18.32,31.31-24.25Z" transform="translate(-48.26 -43.67)"/><path class="cls-2" d="M483.84,731.84a15.23,15.23,0,0,0-2.68-8.65,253.38,253.38,0,0,1-27.41,4.74q-.13.52-.24,1.08c.73.58,2.13,1.21,4.78,1.07a8.35,8.35,0,0,0,2.79-.67,3.12,3.12,0,0,1,3.22,3.6c-.18,1.68-1.63,3.81-6.54,3.81a11.72,11.72,0,0,1-3.91-.73,15.28,15.28,0,0,0,3.29,5.94,37,37,0,0,0,9.15,1.12,28.47,28.47,0,0,0,16-4.64,15.21,15.21,0,0,0,1.54-6.67Z" transform="translate(-48.26 -43.67)"/><path class="cls-3" d="M483.63,731.84a15,15,0,0,0-2.68-8.59,252.86,252.86,0,0,1-27,4.65,12,12,0,0,0-.28,1.25,7.2,7.2,0,0,0,4.59.93,8.35,8.35,0,0,0,2.79-.67,3.12,3.12,0,0,1,3.22,3.6c-.18,1.68-1.63,3.81-6.54,3.81a11.77,11.77,0,0,1-3.67-.64,15.19,15.19,0,0,0,3.42,6,37.38,37.38,0,0,0,8.78,1A28.51,28.51,0,0,0,482,738.74a15.12,15.12,0,0,0,1.67-6.9Z" transform="translate(-48.26 -43.67)"/><path class="cls-4" d="M483.42,731.84a14.89,14.89,0,0,0-2.69-8.55,250.22,250.22,0,0,1-26.53,4.58c-.12.46-.23.92-.31,1.4a7.48,7.48,0,0,0,4.4.81,8.35,8.35,0,0,0,2.79-.67,3.12,3.12,0,0,1,3.22,3.6c-.18,1.68-1.62,3.81-6.54,3.81a11.36,11.36,0,0,1-3.43-.57,14.94,14.94,0,0,0,3.55,6,37.32,37.32,0,0,0,8.41.94A28.59,28.59,0,0,0,481.6,739a14.74,14.74,0,0,0,1.82-7.12Z" transform="translate(-48.26 -43.67)"/><path class="cls-1" d="M305.24,718.9c13.22,3.56,22.62,6.43,44.83,9.14,0,0-.69,2.29-5.52,2a8.27,8.27,0,0,1-2.79-.67,3.12,3.12,0,0,0-3.22,3.6c.18,1.68,1.62,3.81,6.54,3.81s10.66-4,13.54-7.75a41.85,41.85,0,0,0,6,.84,35.79,35.79,0,0,1-28.09,13.24c-20.51,0-28.09-18.32-31.31-24.25Z" transform="translate(-48.26 -43.67)"/><path class="cls-1" d="M399.35,609.86c70.68,0,149-43.38,203.9-105.93,5.94-6.75,16-19.57,39.92-19.57s55.68,21.78,51.93,61.43c-2.72,28.92-44.05,94.08-114.73,134.25s-135.76,48.81-181,48.81S289,720.2,218.33,680s-112-105.33-114.73-134.25c-3.74-39.65,28-61.43,51.93-61.43s34,12.82,39.92,19.57c54.92,62.55,133.22,105.93,203.9,105.93Z" transform="translate(-48.26 -43.67)"/><path d="M399.35,607.32c34.25,0,70.35-10.33,104.67-28.16,35.76-18.58,69.56-45.27,97.33-76.89,3-3.49,7.17-8.52,13.74-12.78s15.56-7.67,28.08-7.67c1.29,0,2.68.07,4.14.2,11.52,1.09,24.18,6.67,34,16.36s16.68,23.53,16.68,41.09c0,2.07-.1,4.26-.32,6.56-1.56,16.6-15.36,44.66-39.73,73.18a289.76,289.76,0,0,1-76.27,63A376.55,376.55,0,0,1,480.9,722a358.07,358.07,0,0,1-163.1,0,376.55,376.55,0,0,1-100.72-39.74,289.52,289.52,0,0,1-76.26-63c-24.38-28.53-38.17-56.58-39.74-73.19-.22-2.3-.32-4.49-.32-6.56,0-17.56,6.9-31.38,16.68-41.09s22.43-15.27,33.95-16.36c1.46-.13,2.84-.2,4.14-.2,12.52,0,21.47,3.39,28.08,7.67s10.69,9.29,13.75,12.78c27.76,31.62,61.57,58.31,97.32,76.89C329,597,365.11,607.32,399.35,607.32Zm0,5.08c-35.08,0-72-10.54-107-28.73-36.29-18.85-70.6-45.95-98.79-78.06-2.88-3.28-6.78-8-12.7-11.87s-13.94-6.84-25.32-6.84a36.42,36.42,0,0,0-3.67.17A51.88,51.88,0,0,0,121,502c-8.9,8.82-15.18,21.43-15.18,37.49,0,2,.1,4.07.28,6.09,1.49,15.71,14.86,42.64,38.55,70.35a284.4,284.4,0,0,0,74.91,61.92A371.74,371.74,0,0,0,319,717a353.3,353.3,0,0,0,160.8,0,371.61,371.61,0,0,0,99.37-39.21A284.27,284.27,0,0,0,654,615.91c23.69-27.71,37.07-54.64,38.55-70.35q.28-3,.28-6.09c0-16.06-6.28-28.67-15.17-37.49a51.93,51.93,0,0,0-30.86-14.91,36.09,36.09,0,0,0-3.66-.17c-11.38,0-19.42,3-25.32,6.84s-9.81,8.59-12.69,11.87c-28.2,32.11-62.51,59.2-98.79,78.06-35,18.19-71.93,28.73-107,28.73Z" transform="translate(-48.26 -43.67)"/><path class="cls-5" d="M187.52,510.15l-.82-.94c-5.63-6.46-13.34-15.31-31.74-15.31-10.74,0-22.9,5.74-31,14.61-6,6.64-12.89,18.3-11.2,36.11,2.29,24.36,41,87.51,109.82,126.65,55.5,31.54,114.77,47.53,176.18,47.53s120.67-16,176.17-47.53C643.81,632.13,682.48,569,684.78,544.62c1.68-17.81-5.17-29.47-11.21-36.11-8.08-8.87-20.24-14.61-31-14.61-18.41,0-26.12,8.85-31.74,15.31l-.83.94C550.86,577.54,469.91,619.4,398.78,619.4S246.69,577.54,187.52,510.15Z" transform="translate(-48.26 -43.67)"/><path class="cls-1" d="M626.4,430.65a61.4,61.4,0,1,1,61.4,61.4,61.4,61.4,0,0,1-61.4-61.4Z" transform="translate(-48.26 -43.67)"/><path d="M623.86,430.65a63.95,63.95,0,1,1,18.73,45.21,63.75,63.75,0,0,1-18.73-45.21Zm5.09,0A58.84,58.84,0,1,0,646.18,389,58.68,58.68,0,0,0,629,430.65Z" transform="translate(-48.26 -43.67)"/><path class="cls-1" d="M50.8,430.75a61.4,61.4,0,1,1,61.4,61.4,61.41,61.41,0,0,1-61.4-61.4Z" transform="translate(-48.26 -43.67)"/><path d="M48.26,430.75A63.95,63.95,0,1,1,67,476a63.69,63.69,0,0,1-18.73-45.22Zm5.08,0a58.88,58.88,0,1,0,17.25-41.61,58.67,58.67,0,0,0-17.25,41.61Z" transform="translate(-48.26 -43.67)"/><path d="M704.61,265.51l.34-16.44c5,3.79,14.56,3.93,20.16-2a15.35,15.35,0,0,0,3.78-11.26,20.85,20.85,0,0,0-6.1-13.5C702.11,202.12,683.84,182,683.84,182a16.94,16.94,0,0,0-6.55-5.93c-2.6-1.15-11.53-5.24-18.35,5.13-6.19,9.41-5.27,22.71-4.16,27.54l19.4,26.36c6.62,8.39,25.26,26.27,30.43,30.43Z" transform="translate(-48.26 -43.67)"/><path d="M291.19,94.53c24.38-8.18,46.63-14.92,76.63-17.59L291.19,94.53Z" transform="translate(-48.26 -43.67)"/><path d="M291.19,94.59c24.38-8.18,46.63-14.91,76.63-17.58l4.56-2.58c-16.77-13.18-33.4-22.15-50-22.15-10.4,0-31.55,7-36.29,44.34l5.07-2Z" transform="translate(-48.26 -43.67)"/><path d="M507.59,94.59C483.21,86.41,461,79.68,431,77l-4.57-2.58c16.77-13.18,33.4-22.15,50-22.15,10.4,0,31.54,7,36.28,44.34l-5.06-2Z" transform="translate(-48.26 -43.67)"/><path d="M379.38,73.26c5-.25,16.4-.51,21-.51s17.21.61,20,.81l-41-.3Z" transform="translate(-48.26 -43.67)"/><path d="M371.82,75.74c12.26-23.5,23.5-32.07,29.72-32.07,7.77,0,16.87,12.37,24,28.29l1.51,3.59L420.84,75c-4.21-.75-15.91-.88-20.48-.88s-14.5,0-20.47.51l-8.07,1.08Z" transform="translate(-48.26 -43.67)"/><polygon class="cls-1" points="299.57 588.65 288.6 629.6 268.13 580.22 255.39 576.8 239.88 634.72 253.69 638.43 264.75 597.14 285.54 646.96 297.95 650.29 313.47 592.37 299.57 588.65"/><polygon class="cls-1" points="347.28 595.96 331.54 595.14 328.4 655 344.14 655.83 347.28 595.96"/><polygon class="cls-1" points="361.41 595.44 362.51 603.34 379.31 600.97 386.55 652.46 402.15 650.26 394.92 598.79 411.45 596.46 410.35 588.57 361.41 595.44"/><path class="cls-1" d="M572.09,614.72c7.62,13.36,6.08,23.07-5.67,29.87l-5.58,3.22-22.05-38.17,6-3.49c14.07-8.12,22-.89,27.27,8.57Zm-30.67-15.83L521.1,610.61l30.08,52.1,20.17-11.65c21-12.11,22.93-30.39,14.7-45-9.94-17.38-26.25-17.79-44.63-7.17Z" transform="translate(-48.26 -43.67)"/><polygon class="cls-1" points="455.1 628.97 449.12 610.57 466.89 604.79 464.39 597.13 446.63 602.91 441.52 587.18 459.78 581.25 457.31 573.68 423.99 584.51 442.52 641.52 479.26 629.59 476.77 621.93 455.1 628.97"/><path class="cls-1" d="M275.27,606.59l-17.76,32c-5.35,9.66-10.88,15.77-19.91,10.56-9-5-6.89-12.39-1.4-22.28L254,594.8l-14.33-7.95-18.79,33.9c-10.37,18.7,2.7,30.23,12.83,35.83,10.91,6.06,26.75,10.56,37-8l18.88-34.05-14.34-7.95Z" transform="translate(-48.26 -43.67)"/><path class="cls-1" d="M265.11,254.43V535.15l134.24,86.29,134.24-86.29.17-280.28c-4.25-3.8-13.2-12.14-20.24-16.45h-229c-5.85,4.09-17.47,13.85-19.45,16Z" transform="translate(-48.26 -43.67)"/><polygon points="219.4 210.76 219.4 490.1 351.09 574.75 482.79 490.1 482.96 211.2 488.04 211.2 487.88 491.47 487.88 492.86 486.7 493.61 352.46 579.9 351.09 580.78 349.72 579.9 215.48 493.61 214.31 492.86 214.31 210.76 219.4 210.76"/><path d="M532.06,256.77c-1.21-1.09-.3-.28-1.58-1.44h0c-4.58-4.14-12.26-11.07-18.27-14.75l2.64-4.33c6.51,4,14.36,11.08,19,15.31h0c.13.11-.57-.52,1.59,1.42l-3.4,3.79Z" transform="translate(-48.26 -43.67)"/><polygon points="465.26 197.28 236.3 197.28 236.3 192.2 465.26 192.2 465.26 197.28"/><path d="M286,240.5c-2.74,1.92-6.61,5-10.15,7.88-4.14,3.41-7.88,6.67-8.89,7.77l-3.74-3.44c1.12-1.22,5.08-4.67,9.41-8.24,3.77-3.1,7.78-6.27,10.45-8.14L286,240.5Z" transform="translate(-48.26 -43.67)"/><path class="cls-5" d="M408.84,374.5c-.94-.41-4.28,2.29-5.81,4.7s-2,5.53.2,6.67,4.88-.34,5.52-4.13c.39-2.22,1.11-6.79.09-7.24Zm-25.7,7.24c.56,3.81,3.37,5.28,5.53,4.13s1.72-4.25.19-6.67-4.67-5.11-5.61-4.7-.43,5.08-.11,7.24Zm13.47,37.35A59.62,59.62,0,0,0,403,404H390.1a63.43,63.43,0,0,0,6.51,15.1Zm2.23-55.61,10.43-18.14,8.12,18.14h13.48c-8.13,7.63-11.44,19.15-11.44,26.79v8.38c0,3.56-1.78,9.41-1.78,9.41s11.67,8.92,13.48,10.42c.76.64,1.56,1,1,2.55-.93,2.63-8.82,6.13-9.67,6.86-1.78,1.52-2.25,2.52-1.73,4.06s2,1.79,5,.77,9.41-4.32,14.75-6.61S453,424.33,453,424.33V414.15H432.91V381.62l-3.56-5.68,8.9-15.77L447.14,376l-3.55,5.59v17h10.29v-17L450.33,376l8.89-15.77L468.11,376l-3.55,5.59v17h10.29v-17L471.3,376l8.9-15.77L489.09,376l-3.56,5.59.11,32.52H465.45v14.94c4.58,4.32,8.9,14.05,8.9,19.9a10.15,10.15,0,0,1-3.81,8.39c1.27,4.57,1,6.48.51,10.68S465.2,479,465.2,479v77.52c0,5.27-12.21,4.77-12.21.25v-76c-6.86-7.63-25.68-13.47-25.68-13.47-6.86,6.86-11.18,18.81-11.18,18.81,3,2,7.62,0,9.4-2a6.27,6.27,0,0,1,7.38-1.28c2,1.28,2.54,1.79,1.77,4.84s-2,8.11-2,11.65,4.07,2.81,7.12,3.07c6.1.5,7.12,7.37,6.61,11.18s-2.29,12-2.29,17a86,86,0,0,0,.77,13c.5,2.79,1.52,5.84,1.27,9.39-.35,4.83-3.31,5.6-6.36,2.55s-45.51-48.31-45.51-48.31c-2.8,9.15,8.9,24.91,12.72,29.75s3.55,8.39.25,11.7-9.66,5.08-10.94,8.13,3.06,12.21,12,23.64-10.17,19.07-21.62,21.36-11.44-5.6-10.67-9.91a38.85,38.85,0,0,0,.51-10.68c-.26-3.81-3.82-9.15-8.65-15.52S363,553.46,365,538.71a140.24,140.24,0,0,0,1.52-24.15s-5.09.25-12.46,0-13.47-4.55-14-22.35S339.17,432,338,427.55s-5.93-5.25-8-5.76-2.18-3.56-.14-4.58c5.29-2.65,11.67-9.15,9.3-13.22s-11.7-3.22-18-.17-12.88,9.66-14.58,11.52-3.05,1.87-2.88-.16-1.18-11.7-2-15.09a64.19,64.19,0,0,0-4.91-11.52c-1-1.7,0-2.38,1.69-1.7a93.66,93.66,0,0,0,9,3.22,7.25,7.25,0,0,0,8.65-4.06c1.69-3.4,4.91-10.68,6.61-13.9s4.41-2.55,6.61-2,4.23,1.86,6.27,2.71,3.73.68,4.41-.34,1.52-1.36,2.71-3.9,2.71-1.36,2.88-.34c6.07,36.46,21.86,38.14,21.86,38.14-2.37,6.1-8,15.76-9.32,18.13s-1.86,5.59-2.2,8.13.85,26.61,2.54,35.43,7.12,5.43,8.81,2.71,6.95-13.9,6.95-13.9a16.53,16.53,0,0,0,1.36-5.59c0-2.54-4.41-8.14-5.43-9.83s-4.74-5.08-4.74-13.56,7.62-14.41,10.34-16.61a7.16,7.16,0,0,0,2.37-7.12c-1.19-6.55-8.14-20.34-11.52-25.59s-10-15.26-10-15.26h13.72l8.82-18.3,9.66,18.39,10,.08ZM453,455.86V445.43s-2.8-4.32-9.66-4.32-10.93,2-10.93,3.81c0,2.8,6.1,10.94,20.59,10.94Z" transform="translate(-48.26 -43.67)"/><polygon class="cls-5" points="227.37 280.78 475.02 280.78 475.02 297.67 227.37 297.67 227.37 280.78"/><polygon class="cls-5" points="227.37 272.1 227.37 204.81 475.02 204.81 475.02 272.1 227.37 272.1"/><polygon class="cls-1" points="426.28 274.1 426.28 262.61 408.29 262.61 408.29 255.21 422.97 255.21 422.97 222.66 409.49 222.66 404.92 213.77 400.34 222.66 386.87 222.66 386.87 255.21 401.55 255.21 401.55 262.61 366.31 262.61 366.31 255.21 380.98 255.21 380.98 222.66 367.51 222.66 362.93 213.77 358.36 222.66 344.88 222.66 344.88 255.21 359.56 255.21 359.56 262.61 323.63 262.61 323.63 255.21 338.31 255.21 338.31 222.66 324.83 222.66 320.26 213.77 315.68 222.66 302.2 222.66 302.2 255.21 316.88 255.21 316.88 262.61 288.48 262.69 260.18 256.08 265.88 274.1 426.28 274.1"/><polygon class="cls-1" points="269.95 254.62 288.93 259.28 299.11 230.7 299.11 223.5 269.95 254.62"/><path class="cls-1" d="M364,75.13C334.6,77.74,316.51,84,292.61,92c1.78-10.28,4.17-16.37,8.32-22.43-.33,5.32,4,11,12.65,11s13.44-5,13.44-8-1.81-7.31-6.46-7.31-5.65,3.32-5.32,4.65-.66,1.66-2,2-5-1.67-3.66-6.32c1.46-5.11,7.64-7.89,15-7.89,0,0,17.39-.7,39.47,17.42Z" transform="translate(-48.26 -43.67)"/><path class="cls-1" d="M506.37,92.21c-23.89-8-42.8-14.27-72.2-16.88,13.54-9.43,26.18-17.44,40.07-17.44,7.3,0,13.48,2.77,14.94,7.89,1.33,4.65-2.33,6.64-3.65,6.31s-2.33-.67-2-2-.66-4.65-5.31-4.65-6.47,4.31-6.47,7.31,4.81,8,13.44,8,13-5.67,12.65-11c4.15,6,6.76,12.18,8.53,22.46Z" transform="translate(-48.26 -43.67)"/><path class="cls-1" d="M382.12,69.66c-.79,1.26-1.48,2.2-2.33,3.61,4.86-.26,16.07-.51,20.56-.51s16.86.6,19.58.8c-4.39-10.14-12.65-24.14-18.43-24.14-1.13,0-3.66-.6-8.4,4.86,0,0-.74,2.41,2.28,1.95,3.82-.58,5.26,3.36,5,5.32-.67,4.57-6,9-11.3,9s-6.94-.86-6.94-.86Z" transform="translate(-48.26 -43.67)"/><path d="M126,235.08l19.4-26.36c1.12-4.83,2-18.13-4.15-27.54-6.82-10.37-15.77-6.28-18.36-5.13a16.94,16.94,0,0,0-6.55,5.93s-18.62,20.57-39.21,40.81c-2.86,2.81-6.09,8.13-6.36,13a16,16,0,0,0,4,11.43c5.6,6,15.41,5.66,20.42,1.87l.34,16.44c5.17-4.16,23.81-22,30.43-30.43Z" transform="translate(-48.26 -43.67)"/><path class="cls-1" d="M399.35,196.67c110.51,0,173.45,103.78,187.12,122,24.41,32.55,54.23,58.94,88.82,50.17,50.84-12.88,48.13-88.21,48.13-88.21-12.2-8.82-33.13-19.93-71.19-73.9C614.94,153.85,530.53,75.39,399.35,75.39s-215.6,78.46-252.88,131.34c-38.06,54-59,65.08-71.19,73.9,0,0-2.71,75.33,48.14,88.21,34.59,8.77,64.4-17.62,88.81-50.17,13.68-18.22,76.62-122,187.12-122Z" transform="translate(-48.26 -43.67)"/><path d="M399.35,194.13c102.75,0,164.69,88.26,184.83,117,1.83,2.6,3.31,4.72,4.32,6,12,16.06,25.39,30.58,39.93,40,14.27,9.21,29.71,13.46,46.24,9.27,45.15-11.44,46.31-74.77,46.23-84.44l-3.16-2.2c-12.79-8.82-33.35-23-67.58-71.55C628.75,177.83,591.69,139,539,111.63c-38.31-19.89-84.87-33.7-139.68-33.7S298,91.74,259.67,111.63C207,139,170,177.83,148.54,208.19,114.31,256.74,93.75,270.92,81,279.75l-3.16,2.19c-.08,9.67,1.08,73,46.23,84.44,16.53,4.19,32-.06,46.24-9.27,14.55-9.38,27.9-23.9,39.94-40,1-1.33,2.48-3.45,4.31-6,20.15-28.72,82.08-117,184.83-117Zm0,5.09c-100.12,0-160.91,86.62-180.68,114.8-1.75,2.49-3.17,4.52-4.41,6.18-12.37,16.49-26.14,31.43-41.25,41.19-15.39,9.93-32.15,14.49-50.21,9.92C70,357.92,72.73,280.78,72.74,280.56l0-1.24,1-.75c1.39-1,2.78-2,4.28-3,12.5-8.63,32.59-22.49,66.31-70.31,21.76-30.86,59.43-70.35,113-98.15,39-20.23,86.31-34.27,142-34.27s103,14,142,34.27c53.52,27.8,91.2,67.29,113,98.15,33.71,47.81,53.8,61.68,66.3,70.3,1.5,1,2.9,2,4.28,3l1,.75,0,1.24c0,.22,2.79,77.36-50.06,90.75-18.06,4.57-34.82,0-50.21-9.92-15.11-9.76-28.88-24.71-41.25-41.19-1.24-1.66-2.66-3.69-4.41-6.18-19.77-28.18-80.55-114.8-180.68-114.8Z" transform="translate(-48.26 -43.67)"/><path class="cls-5" d="M399.35,186.88c106.54,0,169.94,90.37,190.78,120.06,1.69,2.41,3.15,4.49,4.17,5.86,28.19,37.58,53.9,52.81,78.58,46.55,35.7-9,40.09-58.17,40.58-73l0-.56-.45-.31c-12.56-8.66-33.59-23.16-68.8-73.1-21-29.84-100.88-127.19-244.88-127.19S175.51,182.53,154.47,212.37c-35,49.59-56.91,64.74-68.7,72.88l-.46.31,0,.56c.51,14.9,4.94,64.23,40.49,73.24,24.69,6.25,50.39-9,78.57-46.56,1-1.37,2.49-3.45,4.18-5.85,20.84-29.7,84.24-120.07,190.78-120.07Z" transform="translate(-48.26 -43.67)"/><polygon class="cls-1" points="121.88 184.84 110.76 198.09 131.62 241.19 86.86 226.57 77.28 237.98 123.21 276.52 130.15 268.26 97.73 240.94 141.22 255.07 145.79 249.62 125.07 208.09 157.68 235.45 167.81 223.37 121.88 184.84"/><path class="cls-1" d="M228.2,219.48l-10.4,11.15L207.15,210l21,9.44ZM204,192.27l-10.22,11,28.72,57.12,7-7.52-7.8-15.12,13.9-14.91,15.69,6.66,11.56-12.4L204,192.27Z" transform="translate(-48.26 -43.67)"/><polygon class="cls-1" points="225.84 94.33 248.31 130.29 198.24 111.58 187.06 118.57 218.83 169.41 230.96 161.84 208.31 125.59 258.93 144.36 269.82 137.55 238.05 86.7 225.84 94.33"/><polygon class="cls-1" points="415.6 123.77 421.9 105.47 439.55 111.55 442.18 103.93 424.52 97.86 429.89 82.22 448.04 88.47 450.63 80.94 417.51 69.54 398 126.22 434.52 138.8 437.14 131.19 415.6 123.77"/><polygon class="cls-1" points="518.15 119.98 512.75 125.84 525.36 137.19 490.57 175.83 502.28 186.37 537.07 147.74 549.49 158.91 554.81 153 518.15 119.98"/><polygon class="cls-1" points="535.36 210.01 550.19 197.57 562.19 211.87 568.36 206.69 556.36 192.39 569.02 181.76 581.36 196.47 587.45 191.34 564.94 164.51 519.01 203.05 543.84 232.64 550.01 227.47 535.36 210.01"/><path class="cls-1" d="M653.09,269c4.18,4.64,4.2,10.16-.58,14.46s-10.79,3.38-15.37-1.72l-2.7-3,15.15-13.64,3.5,3.89Zm-8,29.54c.12.13,9.27,4.67,19.4-4.44,8.46-7.63,5.62-18.09-3.21-27.89L645,248l-44.55,40.11L611,299.85l17.7-15.93,5.22,5.79L622.59,315,636,325.73l9.13-27.24Z" transform="translate(-48.26 -43.67)"/><polygon class="cls-1" points="371.35 64.51 370.93 89 347.37 88.59 347.8 64.1 332.04 63.83 331 123.77 346.76 124.05 347.23 96.64 370.79 97.06 370.31 124.46 386.07 124.73 387.11 64.78 371.35 64.51"/><path class="cls-1" d="M505,197.29c11.19,6.71,23.4,5.63,29.08-3.83,4.18-6.62,4.22-12.08-.76-21.86-1.34-2.83-3-4.83-4.1-7.34-2.18-4.14-4.22-7.5-2.29-10.7,2.06-3.43,6.87-3.68,11.27-1,4.62,2.77,6.52,7.37,7.45,10.56l7.26-3.14a28.81,28.81,0,0,0-13-15.71c-12.82-7.7-23.28-5.67-27.62,1.56s-3.14,13.33.12,19.55c0,0,2.1,3.6,3.32,5.95,2.86,4.86,6.21,10.93,3.88,14.81-2.86,4.77-7.86,5.82-12.66,2.84-6.17-3.91-7.6-8.43-8.9-12.86l-7.95,3.44c1.75,6,5.86,12.35,14.87,17.77Z" transform="translate(-48.26 -43.67)"/><path class="cls-1" d="M341.52,111.32c-19.64,4.18-32.49,18.59-28.25,38.12,2.41,10.54,11.86,30,41.65,23.69,8.24-1.57,12.75-4.92,17.09-9l-5.48-6.26a20,20,0,0,1-11.95,7c-14.38,3.05-23-8.65-25.11-18.72-3.17-14.89,5.51-25.23,15.41-27.33a21.4,21.4,0,0,1,13.93,1.46l.09,0,1.82-7.64c-4.74-1.91-10.4-3.18-19.2-1.32Z" transform="translate(-48.26 -43.67)"/><path class="cls-1" d="M659.35,211c-.82-3.56-2-18.74,3.78-26.75,5.32-7.39,10.17-4.89,12.77-3.73a9.92,9.92,0,0,1,5.38,7.29,12.76,12.76,0,0,1-2.24,8.59c-3.65,4.75-11.95,7.89-11.95,7.89s10.64,20.84,33.17,41.53l-.07,14.06C669.32,230.15,659.35,211,659.35,211Z" transform="translate(-48.26 -43.67)"/><path class="cls-1" d="M674.82,206.73c3.06,5.26,10.81,18.13,30.2,36.3,3.22,3,11.24,5.53,15.77.44a11.06,11.06,0,0,0,2.68-8,16.09,16.09,0,0,0-4.71-10c-3.88-3.32-20.55-20.16-32.5-33.39-.26,2.41-2.37,6.44-2.37,6.44a21.33,21.33,0,0,1-9.07,8.18Z" transform="translate(-48.26 -43.67)"/><path class="cls-1" d="M100,259.07l-.08-13.29c22.54-20.69,33.19-41.46,33.19-41.46s-8.29-3.14-11.94-7.89a12.78,12.78,0,0,1-2.26-8.59,10,10,0,0,1,5.38-7.29c2.61-1.16,7.46-3.66,12.78,3.73,5.77,8,4.26,23.09,3.44,26.65,0,0-10.52,18.3-40.51,48.14Z" transform="translate(-48.26 -43.67)"/><path class="cls-1" d="M125,206.73c-3,5.26-10.79,18.13-30.19,36.3-3.21,3-11.24,5.53-15.76.44a11.06,11.06,0,0,1-2.68-8,16,16,0,0,1,4.71-10c3.87-3.32,20.55-20.16,32.5-33.39.26,2.41,2.37,6.44,2.37,6.44a21.37,21.37,0,0,0,9,8.18Z" transform="translate(-48.26 -43.67)"/><path class="cls-5" d="M62.35,431.26A49.95,49.95,0,1,1,112.3,481.2a49.95,49.95,0,0,1-49.95-49.94Z" transform="translate(-48.26 -43.67)"/><path class="cls-1" d="M139.17,395.09c.86.69,3,2.46,3,2.46,4.33,3.87,8.23,8.41,10.49,13.82,2.86,6.83-6,17.07-8.52,19.48-11.65,10.86-18.9,10.69-23.06,11.29s-6.78-2-6.69-5.1c.27-9.18,6.76-24.81,8.6-27.68a10.93,10.93,0,0,1,3.26-3.1c4.3-1.2,8.47-3.06,10.63-5.5a10,10,0,0,0,2.27-5.67Zm-41.8-6.59a46.66,46.66,0,0,1,14.7-2.44c7.8,0,15.24,1.46,21.56,5.47a4.27,4.27,0,0,1,2.08,4.1c0,5.88-9.27,7.87-15.43,7.87s-13.73-2.45-19.09-4.11-6.55-4.81-6.55-6.19,1-4.13,2.73-4.7Zm-19.75,72c-6.29-6.21-10.78-17.38-10.78-29.17a45.52,45.52,0,0,1,1.93-13.13s1.06-1.9,2.09-.28c.74,1.15,1.73,2.33,2.63,3.9s5.78,5.29,5.33,8.21c-1.72,11.05-.17,25.79.35,28.19s-.25,3.58-1.55,2.28Zm1.2-37.86c-2.23-1.23-4.88-6.9-5.75-8.59a8.82,8.82,0,0,1,.27-6.09c3.67-6.5,8.91-12.42,15.7-15.57.78-.35,2-.39,2,1.53,0,1.08.52,2.77.55,3.81s.48,3.24-.9,5S83.22,415,81.74,421.05c-.34,1.37-.7,2.78-2.92,1.55ZM113,476.51c-.32,0-.64,0-1,0-8.33,0-17.44-3.16-22.84-6.18-5.58-3.12-7.66-17.39-7.66-24.7,0-23.56,9.71-37.72,11.25-40.47s5-3.1,7.57-2.4,3.58,1.21,6.54,2.1c1.6.49,4.81,1.16,7.22,1.68s5,1,3.43,5.51-6.73,15.29-7.3,28.08c-.52,11.56,1,23.08,3.66,30.14,1.7,4.58,1.67,6.32-.91,6.23Zm11.86-1.84c-2.58.84-3.78-1-5-2.38-4.64-5.31-5.84-19.57-5.84-21.47s.68-3.95,2-4c11.29-.28,19.31-3.57,26.67-9.62A42.55,42.55,0,0,0,154,423c.67-1.34,2.11-1.11,2.46.83a40.26,40.26,0,0,1,.88,7.47c0,20.52-13.82,37.36-32.41,43.38Z" transform="translate(-48.26 -43.67)"/><path class="cls-5" d="M738.3,431.26a49.95,49.95,0,1,0-49.94,49.94,49.94,49.94,0,0,0,49.94-49.94Z" transform="translate(-48.26 -43.67)"/><path class="cls-1" d="M663.76,400.76c2.15,2.45,6.33,4.3,10.62,5.51a10.8,10.8,0,0,1,3.27,3.09c1.83,2.88,8.32,18.5,8.6,27.68.08,3.12-2.53,5.69-6.7,5.1s-11.4-.42-23-11.29c-2.59-2.4-11.39-12.65-8.53-19.48,2.25-5.41,6.16-9.95,10.49-13.81,0,0,2.16-1.78,3-2.47a9.9,9.9,0,0,0,2.27,5.67ZM706,393.2c0,1.38-1.19,4.51-6.55,6.18s-12.93,4.11-19.09,4.11-15.43-2-15.43-7.86a4.29,4.29,0,0,1,2.08-4.11c6.32-4,13.76-5.46,21.56-5.46a46.65,46.65,0,0,1,14.69,2.44c1.7.57,2.74,3.32,2.74,4.7Zm15.47,65c.51-2.4,2.07-17.14.35-28.19-.46-2.92,4.43-6.63,5.33-8.2s1.89-2.76,2.62-3.91c1-1.62,2.1.28,2.1.28a45.52,45.52,0,0,1,1.93,13.13c0,11.79-4.49,23-10.78,29.18-1.31,1.29-2.07.13-1.55-2.29Zm-2.58-37.13c-1.48-6-7.56-16.68-8.94-18.39s-.92-3.94-.89-5,.55-2.73.55-3.81c0-1.92,1.2-1.88,2-1.53,6.79,3.15,12,9.07,15.71,15.57a8.82,8.82,0,0,1,.26,6.09c-.85,1.69-3.51,7.36-5.74,8.59s-2.59-.18-2.93-1.55Zm-32.19,49.22c2.62-7,4.17-18.57,3.65-30.14-.57-12.79-5.75-23.61-7.29-28.08s1-5,3.43-5.5,5.61-1.19,7.23-1.68c3-.9,3.94-1.42,6.52-2.11s6-.34,7.57,2.41,11.26,16.91,11.26,40.47c0,7.3-2.09,21.58-7.67,24.7-5.4,3-14.5,6.18-22.83,6.18-.33,0-.64,0-1,0-2.58.09-2.61-1.65-.9-6.24Zm-43.36-39a40.41,40.41,0,0,1,.87-7.47c.35-1.94,1.8-2.17,2.47-.83a42.55,42.55,0,0,0,11.22,14.22c7.35,6.05,15.38,9.34,26.66,9.62,1.32,0,2,2.1,2,4s-1.2,16.16-5.85,21.47c-1.2,1.38-2.39,3.22-5,2.38-18.58-6-32.4-22.86-32.4-43.38Z" transform="translate(-48.26 -43.67)"/><path class="cls-6" d="M638.63,431a50.19,50.19,0,1,1,14.7,35.5,50,50,0,0,1-14.7-35.5Zm.51,0a49.69,49.69,0,1,0,14.55-35.13A49.55,49.55,0,0,0,639.14,431Z" transform="translate(-48.26 -43.67)"/></svg>