<svg id="Layer_1" data-name="Layer 1" xmlns="http://www.w3.org/2000/svg" width="91.99" height="195.7" viewBox="0 0 91.99 195.7"><defs><style>.cls-1{fill:#d00;}</style></defs><title>nottingham-forest-logo-freelogovectors.net_</title><path class="cls-1" d="M85,2.15a2.45,2.45,0,0,1,.28.63c.12.34.81,2.36,2.87,8.32l4.65,0c3,0,4.64,0,4.63.09s-1.7,1.28-7.48,5.5l1.48,4.7c.81,2.58,1.45,4.71,1.42,4.73S91.07,25,88.93,23.48,85,20.77,85,20.77,83.2,22,81.07,23.48s-3.9,2.7-3.92,2.67.61-2.13,1.41-4.7S80,16.78,80,16.75,78.34,15.46,76.28,14s-3.73-2.74-3.71-2.78,1.64-.06,9.27-.06l.09-.27c0-.13.73-2.1,1.52-4.37s1.45-4.17,1.47-4.23S85,2.15,85,2.15Zm29.51,0s.65,1.71,1.38,3.8,1.41,4.11,1.8,5.18h4.61c3,0,4.61,0,4.63.06s-1.66,1.29-3.71,2.8-3.74,2.75-3.74,2.77.65,2.14,1.46,4.69,1.45,4.68,1.42,4.7-1.8-1.17-4-2.67-3.91-2.71-3.94-2.7-1.8,1.21-3.93,2.71-3.88,2.68-3.91,2.66.61-2.15,1.42-4.73,1.44-4.72,1.42-4.74l-3.74-2.74c-2-1.48-3.68-2.71-3.67-2.75s1.62-.06,9.25-.06l1.53-4.45c.85-2.43,1.56-4.46,1.58-4.48A.09.09,0,0,1,114.52,2.15ZM99.36,35c.52,0,1.23,0,1.58.06s.9.11,1.22.16.89.17,1.28.26,1,.29,1.42.43a18.77,18.77,0,0,1,1.77.76,19,19,0,0,1,1.79,1c.42.28,1,.68,1.22.87s.8.71,1.23,1.13,1,1.06,1.31,1.41.69.92,1.32,1.86l.49-.1a10,10,0,0,1,1.07-.17c.34,0,.94-.06,1.37-.06s1.07,0,1.41.08.88.14,1.17.21.81.22,1.18.35.94.34,1.28.49.85.42,1.15.6.78.5,1.07.71a11.77,11.77,0,0,1,1.12,1,8.85,8.85,0,0,1,1,1.14,12,12,0,0,1,.71,1.09,10.88,10.88,0,0,1,.56,1.2c.14.33.32.85.41,1.15s.21.88.29,1.28a11.22,11.22,0,0,1,.13,2.3,13,13,0,0,1-.1,2.22c-.06.37-.18,1-.26,1.32a3.27,3.27,0,0,0-.1.67s.26.11.52.21a9.93,9.93,0,0,1,1.13.49c.35.18.88.49,1.19.68a11.59,11.59,0,0,1,1,.74,12.46,12.46,0,0,1,1.14,1.06c.36.38.84.93,1.06,1.21s.51.72.67,1,.4.69.54,1,.35.75.47,1,.27.83.36,1.17a6,6,0,0,1,.19,1.6,5.83,5.83,0,0,1-.06,1.4,3.47,3.47,0,0,0-.08.43,6,6,0,0,0,.59.31,9.49,9.49,0,0,1,.94.54,9.85,9.85,0,0,1,.82.62,10.57,10.57,0,0,1,.82.82c.2.24.51.67.7,1a10.14,10.14,0,0,1,.56,1.08,9.17,9.17,0,0,1,.41,1.22,13.16,13.16,0,0,1,.24,1.32,14.07,14.07,0,0,1,0,1.86c0,.67-.08,1.48-.13,1.8L140.4,82l.48.36c.26.2.72.57,1,.84a10.61,10.61,0,0,1,.88.82c.2.2.49.54.68.75s.51.66.72,1,.53.87.71,1.23.41.93.54,1.28.28,1,.37,1.37a9.8,9.8,0,0,1,.19,1.93,15.37,15.37,0,0,1,0,1.79c0,.34-.13.93-.21,1.32a14.68,14.68,0,0,1-.41,1.49,14.87,14.87,0,0,1-.64,1.55,12.64,12.64,0,0,1-.8,1.41,12.22,12.22,0,0,1-.88,1.19,13.49,13.49,0,0,1-1.06,1.13,13.06,13.06,0,0,1-1.27,1.09c-.36.27-1,.67-1.33.88s-1,.52-1.43.7a14.32,14.32,0,0,1-1.56.53c-.43.12-1.15.28-1.6.35a15.87,15.87,0,0,1-2,.11,18.59,18.59,0,0,1-1.88-.09c-.4-.05-1-.16-1.39-.24-.56-.13-.67-.14-.72-.07l-.46.66a15.33,15.33,0,0,1-1.13,1.32c-.4.42-1,.94-1.24,1.17s-.79.6-1.13.83-1,.61-1.55.87a15.89,15.89,0,0,1-1.55.69c-.33.13-.88.31-1.21.4a12.9,12.9,0,0,1-1.26.32l-1.12.2a18,18,0,0,1-2,.07,8.4,8.4,0,0,1-2.15-.13c-.33-.07-.93-.23-1.31-.36s-1-.35-1.4-.52-.87-.4-1.46-.72v17.71l.19-.12,1.18-.66c.54-.29,1.67-.88,2.52-1.31s1.91-.94,2.34-1.14l1.62-.72,1.66-.68c.47-.19,1.33-.5,1.92-.7s1.53-.5,2.11-.65,1.5-.41,2.09-.52,1.48-.29,2-.35,1.46-.13,2.52-.16a23.64,23.64,0,0,1,2.4,0c.43,0,1.17.14,1.62.22s1.17.25,1.6.37,1.13.35,1.53.49a14.26,14.26,0,0,1,1.36.61c.35.18.86.47,1.13.65a10.21,10.21,0,0,1,1.49,1.3V128c0,2.26,0,4.14-.05,4.16s-.23-.14-.47-.36a7.4,7.4,0,0,0-.88-.73c-.25-.17-.72-.46-1-.62s-.87-.43-1.22-.58-1-.38-1.43-.53-1.12-.33-1.52-.43-1.13-.25-1.61-.33-1.24-.18-1.67-.22a20.65,20.65,0,0,0-2.2,0,16.92,16.92,0,0,0-2,.13c-.35.06-1,.18-1.46.28s-1.28.32-1.85.48-1.45.45-1.95.63-1.27.49-1.7.67-1.17.51-1.62.74-1.45.74-2.22,1.17-2,1.07-2.7,1.43-1.8.86-2.4,1.12l-2,.8-1.73.62-1.83.56c-.54.14-1.35.35-2.67.61l0-19.66c0-10.82,0-19.7,0-19.74s.27.15.66.51a11.3,11.3,0,0,0,1.29,1,13.81,13.81,0,0,0,1.3.77c.35.18.93.44,1.28.58s1,.34,1.33.46,1,.29,1.46.37,1.14.2,1.59.25a17.7,17.7,0,0,0,1.89.1,16.92,16.92,0,0,0,1.85-.1c.43,0,1-.15,1.37-.21l1.12-.27c.31-.09.78-.25,1.07-.35s.77-.31,1.09-.46.81-.42,1.09-.58a12.73,12.73,0,0,0,1.07-.73,11.48,11.48,0,0,0,1.08-.95c.29-.29.69-.76.9-1a10.67,10.67,0,0,0,.66-1.1,8.54,8.54,0,0,0,.42-1c.07-.22.16-.52.19-.65s.09-.26.12-.25a4.42,4.42,0,0,1,.44.5A6,6,0,0,0,127,96a6.45,6.45,0,0,0,1.18.75,9.32,9.32,0,0,0,1.12.45,9.13,9.13,0,0,0,1,.18,4.74,4.74,0,0,0,1.19,0,9.51,9.51,0,0,0,1.07-.18,8.54,8.54,0,0,0,.94-.36,6.73,6.73,0,0,0,.88-.5,7.79,7.79,0,0,0,.84-.69,8.58,8.58,0,0,0,.76-.89,10,10,0,0,0,.54-1,9.35,9.35,0,0,0,.36-1,4.71,4.71,0,0,0,.14-1.58,4.11,4.11,0,0,0-.17-1.62,9.21,9.21,0,0,0-.38-1,10.11,10.11,0,0,0-.51-.89,7.3,7.3,0,0,0-.68-.81,7.4,7.4,0,0,0-.75-.67,7.56,7.56,0,0,0-.88-.53c-.28-.14-.69-.31-.91-.39s-.5-.13-.61-.16a2.71,2.71,0,0,1-.48-.15l.2-.29c.11-.16.31-.51.45-.78a7.55,7.55,0,0,0,.36-.89c.07-.21.17-.56.21-.76a6.6,6.6,0,0,0,.07-1.13,4.15,4.15,0,0,0-.17-1.37,5.9,5.9,0,0,0-.39-1.06c-.13-.26-.31-.59-.41-.74a5.21,5.21,0,0,0-.52-.63,6,6,0,0,0-.78-.71,7.56,7.56,0,0,0-.91-.57c-.25-.11-.62-.27-.83-.34a6.58,6.58,0,0,0-.83-.22,5.59,5.59,0,0,0-.88-.09,1.3,1.3,0,0,1-.46,0s0-.12.07-.2a3.8,3.8,0,0,0,.32-.58,6.84,6.84,0,0,0,.35-.81c.07-.2.16-.51.19-.65s.09-.52.12-.82a7.22,7.22,0,0,0,0-1.14,6.65,6.65,0,0,0-.21-1.13,8.14,8.14,0,0,0-.34-1,7.91,7.91,0,0,0-.53-.94,6.61,6.61,0,0,0-.92-1.1,9,9,0,0,0-1.16-1c-.32-.21-.8-.49-1.06-.62s-.71-.3-1-.39a9.44,9.44,0,0,0-1-.28,11.85,11.85,0,0,0-1.24-.18,5.46,5.46,0,0,0-1,0,1.55,1.55,0,0,1-.44,0c-.1,0-.06-.11.23-.48a8.75,8.75,0,0,0,.63-1,9.48,9.48,0,0,0,.51-1.22c.12-.35.26-.86.32-1.13s.11-.79.14-1.15,0-1,0-1.35-.09-.9-.14-1.19-.19-.77-.29-1.06a9.48,9.48,0,0,0-.44-1.11c-.15-.3-.44-.8-.64-1.12a10,10,0,0,0-1.06-1.26,9.64,9.64,0,0,0-1.2-1,9.82,9.82,0,0,0-.94-.55,6.81,6.81,0,0,0-.94-.39,10,10,0,0,0-1-.3,6.86,6.86,0,0,0-1.71-.12,8.18,8.18,0,0,0-1.7.11c-.28.06-.76.2-1.07.3a7.92,7.92,0,0,0-.88.36,1.77,1.77,0,0,1-.38.18,1.27,1.27,0,0,1-.11-.42,7.65,7.65,0,0,0-.26-1,8.63,8.63,0,0,0-.4-1,8,8,0,0,0-.54-.91,8.3,8.3,0,0,0-1-1.14,9.91,9.91,0,0,0-1-.9c-.22-.15-.62-.4-.89-.55a8.69,8.69,0,0,0-1.06-.5c-.32-.12-.88-.3-1.25-.39a6.56,6.56,0,0,0-1.91-.15,7.91,7.91,0,0,0-1.76.1c-.29.06-.76.19-1.07.29a8.11,8.11,0,0,0-1.12.47c-.33.16-.79.43-1,.59a13,13,0,0,0-1.16,1,7.93,7.93,0,0,0-1.06,1.25,9.37,9.37,0,0,0-.58,1,8.58,8.58,0,0,0-.39,1c-.09.3-.18.66-.2.78a.7.7,0,0,1-.08.23,5,5,0,0,1-.52-.19,8.78,8.78,0,0,0-1.09-.34,6.22,6.22,0,0,0-1.58-.19,7.07,7.07,0,0,0-1.61.07,10.22,10.22,0,0,0-1.24.31,8.49,8.49,0,0,0-1.07.43,10.21,10.21,0,0,0-.94.54,10.71,10.71,0,0,0-.88.68c-.22.19-.56.53-.76.75s-.51.66-.72,1a10.34,10.34,0,0,0-.59,1A10.16,10.16,0,0,0,80,56a10.92,10.92,0,0,0-.29,1.16,9.38,9.38,0,0,0-.1,1.45,9,9,0,0,0,.1,1.43c.05.3.16.8.25,1.11s.29.8.43,1.12.37.72.47.88.37.53.57.8a1.77,1.77,0,0,1,.34.53,2.31,2.31,0,0,1-.59,0,8.16,8.16,0,0,0-1.28,0,12.38,12.38,0,0,0-1.4.24,10,10,0,0,0-1.24.41c-.32.14-.77.36-1,.49s-.64.42-.91.61a9.81,9.81,0,0,0-.89.79,7.57,7.57,0,0,0-.73.88,7.9,7.9,0,0,0-.58,1,7.29,7.29,0,0,0-.4,1,7.68,7.68,0,0,0-.23,1.16,5.82,5.82,0,0,0,0,1.25,9.9,9.9,0,0,0,.2,1.1,7.65,7.65,0,0,0,.41,1.1,8.69,8.69,0,0,0,.61,1,3.51,3.51,0,0,1,.31.47s-.19,0-.44,0-.78,0-1.2,0A7.4,7.4,0,0,0,71,76.2a11.18,11.18,0,0,0-1.1.3,8.39,8.39,0,0,0-.85.41,4.91,4.91,0,0,0-1,.79,3.34,3.34,0,0,0-.77,1,5.07,5.07,0,0,0-.36.94,5.12,5.12,0,0,0-.11,1.08,7.26,7.26,0,0,0,.08,1,6.46,6.46,0,0,0,.19.71c.06.17.22.56.36.86a8.51,8.51,0,0,0,.62,1c.2.28.56.72.8,1s.41.5.36.52a5.8,5.8,0,0,1-.62.19,8,8,0,0,0-1.16.46,6.72,6.72,0,0,0-1.08.65,7.94,7.94,0,0,0-1,.88,8.65,8.65,0,0,0-.78,1,9.65,9.65,0,0,0-.46.9c-.09.24-.22.63-.29.86a5,5,0,0,0-.11,1.37,4.63,4.63,0,0,0,.11,1.34,7.44,7.44,0,0,0,.4,1,6,6,0,0,0,.63,1,7.85,7.85,0,0,0,.66.71,9.32,9.32,0,0,0,.85.59,5.67,5.67,0,0,0,1,.49,9.08,9.08,0,0,0,1,.29,7.09,7.09,0,0,0,1.25.1,8.12,8.12,0,0,0,1.21-.07,8.39,8.39,0,0,0,1-.26A7.79,7.79,0,0,0,73,97a8.64,8.64,0,0,0,.91-.56,8.28,8.28,0,0,0,.76-.65,3.78,3.78,0,0,1,.43-.38,2.25,2.25,0,0,1,.22.53A9.48,9.48,0,0,0,75.86,97c.19.31.5.76.69,1s.5.59.67.77.52.48.74.67.68.52,1,.75a14.83,14.83,0,0,0,1.43.8,16.5,16.5,0,0,0,1.71.7c.51.16,1.23.37,1.61.46s1,.19,1.43.24,1.16.12,1.67.14a17.71,17.71,0,0,0,1.8,0c.47,0,1.19-.13,1.61-.21s1.08-.2,1.46-.3,1-.29,1.37-.43,1-.39,1.33-.57.92-.48,1.22-.67.77-.52,1-.73a11.73,11.73,0,0,0,1.09-1,3.11,3.11,0,0,1,.62-.57s0,8.9,0,39.44l-.23,0-1-.22c-.45-.1-1.23-.3-1.73-.45s-1.41-.43-2-.64-1.58-.57-2.19-.82-1.45-.61-1.88-.79-1.34-.64-2-1-1.71-.89-2.29-1.22-1.56-.85-2.16-1.14-1.57-.71-2.16-.95-1.53-.58-2.1-.76-1.52-.47-2.12-.62-1.43-.33-1.83-.4-1-.16-1.4-.2a13.41,13.41,0,0,0-1.76,0c-.6,0-1.42.08-1.82.14s-1,.15-1.4.22-1,.2-1.4.31-1,.28-1.4.4-.94.32-1.28.45-.92.4-1.31.6a12.55,12.55,0,0,0-1.3.74,10.69,10.69,0,0,0-1,.75c-.19.19-.38.32-.41.3s0-1.91,0-8.32l.38-.34c.22-.19.68-.53,1-.77a15.84,15.84,0,0,1,1.43-.81c.44-.21,1.16-.52,1.59-.67s1.2-.4,1.7-.52,1.26-.3,1.7-.37a12.75,12.75,0,0,1,2.8-.15c1.29,0,2.23,0,2.65.08l1.34.19c.38.07,1.06.21,1.51.32s1.26.3,1.8.46,1.4.43,1.94.61,1.5.54,2.13.8,1.62.66,2.19.91,1.86.87,2.86,1.37,2.35,1.19,3,1.54,1.19.65,1.21.65,0-4,0-17.64l-.66.4c-.36.22-.9.52-1.2.67l-1.13.49c-.31.11-.87.29-1.24.39s-.91.22-1.22.28a16.05,16.05,0,0,1-1.61.13,12.47,12.47,0,0,1-1.7,0c-.36,0-.92-.13-1.28-.2a11.74,11.74,0,0,1-1.4-.37,12.68,12.68,0,0,1-1.37-.52,14.34,14.34,0,0,1-1.37-.72c-.41-.25-1-.7-1.43-1s-.94-.82-1.28-1.16a16.72,16.72,0,0,1-1.1-1.32,12.12,12.12,0,0,1-.79-1.18c-.16-.27-.3-.52-.32-.53a3.34,3.34,0,0,0-.61.19c-.32.1-.86.27-1.21.36s-1,.21-1.34.26a14.26,14.26,0,0,1-1.82.11c-.63,0-1.39,0-1.71-.08s-.9-.14-1.28-.23-1-.27-1.4-.39-1.07-.43-1.54-.67-1.07-.56-1.35-.73-.7-.49-1-.7A10.84,10.84,0,0,1,58,102c-.33-.32-.81-.84-1.07-1.16s-.61-.81-.8-1.1-.48-.78-.65-1.09-.43-.91-.58-1.29A12,12,0,0,1,54.46,96c-.09-.32-.22-.88-.29-1.25A11.34,11.34,0,0,1,54,92.93c0-.73,0-1.44,0-1.8s.13-.9.21-1.26.24-1,.39-1.46a14.88,14.88,0,0,1,.66-1.62,13,13,0,0,1,.81-1.44c.22-.35.59-.84.79-1.09A14.6,14.6,0,0,1,58,83.09a18.18,18.18,0,0,1,1.94-1.61L59.82,81c-.06-.26-.14-.74-.18-1.08a8.49,8.49,0,0,1,0-1.24,9.39,9.39,0,0,1,.14-1.17c0-.28.18-.76.27-1.07a11.81,11.81,0,0,1,.48-1.15,13.6,13.6,0,0,1,.72-1.2,10,10,0,0,1,1-1.16,12.55,12.55,0,0,1,1.18-1c.33-.25.85-.58,1.15-.76l.53-.3-.18-.52a10,10,0,0,1-.3-1.07c-.07-.3-.16-.85-.2-1.22a8.34,8.34,0,0,1,0-1.32,9.61,9.61,0,0,1,.13-1.09c.05-.26.16-.68.24-1a8.78,8.78,0,0,1,.38-.94,9,9,0,0,1,.61-1.07,8.82,8.82,0,0,1,1-1.19,7.34,7.34,0,0,1,1.17-1,11.67,11.67,0,0,1,1-.62c.26-.12.65-.3.88-.39s.75-.23,1.13-.33.89-.21,1.12-.24.4-.07.37-.13-.14-.41-.26-.8-.25-1-.32-1.44-.13-1-.15-1.43a10.26,10.26,0,0,1,0-1.46,12.94,12.94,0,0,1,.22-1.52,11.44,11.44,0,0,1,.37-1.4,13.14,13.14,0,0,1,.53-1.33c.17-.36.47-.9.64-1.19s.47-.72.67-1,.57-.7.85-1a12.18,12.18,0,0,1,1.07-1,12.44,12.44,0,0,1,1.09-.79,14.67,14.67,0,0,1,1.35-.74A15.55,15.55,0,0,1,80,43.14c.39-.11,1-.27,1.31-.34a9.64,9.64,0,0,1,1.88-.15,14.06,14.06,0,0,1,2.46.13l.4-.58c.22-.32.58-.82.81-1.1A17.08,17.08,0,0,1,88,39.79c.43-.44,1-1,1.31-1.22s.84-.63,1.24-.9,1.16-.7,1.68-1,1.21-.57,1.54-.69.94-.32,1.35-.43a12.67,12.67,0,0,1,1.45-.34c.41-.07,1-.16,1.29-.19S98.85,35,99.36,35ZM71.63,131.37c.48,0,1.26.06,1.71.11s1.1.15,1.46.22,1,.2,1.37.3,1,.29,1.39.4,1,.37,1.52.55,1.31.56,1.88.84,1.34.69,1.71.9l1.55.94c.48.31,1.25.76,1.7,1s1.38.74,2.07,1.07,1.69.79,2.25,1,1.4.53,1.88.67,1.31.39,1.83.53,1.24.29,1.61.35l1.31.22c.35.05,1,.13,1.49.17s1.5.05,2.58,0,2.06-.06,2.55-.13,1.2-.17,1.65-.25,1.26-.26,1.79-.39,1.41-.38,1.95-.56,1.45-.51,2-.74,1.59-.68,2.23-1,1.49-.75,1.91-1,1.37-.81,2.13-1.27,1.81-1.07,2.34-1.35,1.37-.68,1.86-.88,1.32-.52,1.85-.7,1.32-.41,1.73-.52,1.1-.23,1.5-.3,1-.16,1.27-.19,1-.07,1.49-.09,1.32,0,1.86,0,1.25.12,1.67.19,1,.19,1.36.28.84.22,1.13.31.8.27,1.15.41.9.39,1.23.55.8.43,1.08.61a10.36,10.36,0,0,1,1,.64,16.94,16.94,0,0,1,1.28,1.14v8.41l-.37-.37c-.21-.2-.61-.56-.9-.81s-.84-.67-1.24-.94-1.15-.68-1.65-.93a17.34,17.34,0,0,0-1.61-.68c-.38-.14-1.06-.33-1.49-.44s-1.09-.23-1.46-.28-1.16-.13-1.76-.16-1.43,0-1.83,0-1.09.07-1.52.13-1.14.16-1.58.24-1.15.24-1.58.36-1.14.33-1.58.48-1,.37-1.36.5-1,.41-1.43.63-1.42.74-2.11,1.14-1.76,1-2.4,1.31-1.53.77-2,1-1.29.55-1.83.76-1.39.52-1.91.69-1.31.4-1.77.52-1.22.3-1.7.4-1.27.23-1.74.3-1.21.16-1.66.2-1.48.08-2.28.08-1.8,0-2.23-.08-1.11-.12-1.55-.19-1.19-.19-1.67-.3-1.27-.29-1.73-.42l-1.77-.56c-.5-.18-1.37-.52-1.94-.76s-1.64-.75-2.38-1.12-1.93-1-2.64-1.38-1.73-.9-2.25-1.14-1.37-.61-1.88-.82-1.46-.55-2.08-.75S76.5,140,76,139.87s-1.35-.3-1.76-.37-1.12-.15-1.56-.19a16.93,16.93,0,0,0-2,0c-.69,0-1.54.11-1.88.16s-1,.17-1.34.26a13.35,13.35,0,0,0-1.43.4c-.4.13-1,.35-1.29.49a10.72,10.72,0,0,0-1,.5c-.28.14-.78.46-1.13.69s-.82.57-1,.73-.58.51-.82.75-.44.4-.47.38,0-1.92,0-8.35l.47-.4c.27-.23.63-.51.81-.65l.75-.5c.22-.13.73-.42,1.12-.61s1-.48,1.36-.62,1-.34,1.37-.46,1-.28,1.45-.36,1-.18,1.26-.22.85-.09,1.27-.11S71.14,131.35,71.63,131.37Zm57.74,11a16.43,16.43,0,0,1,2.26.15c.43.06,1,.17,1.33.23l1.22.32c.36.11,1,.32,1.36.47s1.05.45,1.48.67,1,.55,1.34.73.82.55,1.14.8A16.88,16.88,0,0,1,141,147v9.31l-1-1c-.56-.56-1.27-1.21-1.57-1.47s-.76-.62-1-.83-.76-.55-1.09-.76-.9-.56-1.26-.75-.94-.46-1.3-.6a12.55,12.55,0,0,0-1.24-.44c-.32-.08-.81-.2-1.1-.25a12.84,12.84,0,0,0-1.64-.14,16.94,16.94,0,0,0-2,.05c-.45,0-1.21.14-1.7.22s-1.23.23-1.65.33-1.06.28-1.46.4-1.09.37-1.57.56-1.26.52-1.73.74-1.43.75-2.14,1.15-1.72,1-2.28,1.26-1.37.7-1.82.9-1.17.52-1.61.7-1.11.43-1.49.56-1,.36-1.4.47-1.06.32-1.49.43l-1.7.4c-.5.09-1.32.23-1.82.3s-1.38.16-2,.2-1.57,0-2.41,0-1.73-.08-2.18-.13-1.21-.16-1.68-.25-1.15-.21-1.51-.3-1.09-.28-1.59-.43-1.36-.44-1.92-.65-1.36-.53-1.79-.72-1.27-.6-1.85-.89-1.56-.8-2.16-1.13-1.42-.76-1.82-1-1.09-.53-1.53-.71-1.22-.53-1.76-.74-1.33-.49-1.76-.64-1.26-.37-1.82-.52-1.46-.33-2-.43a15.86,15.86,0,0,0-3.9-.15,10.64,10.64,0,0,0-1.37.25,12.51,12.51,0,0,0-1.27.39c-.33.13-1,.4-1.37.61s-1.09.61-1.49.88-1,.69-1.34,1-.91.74-1.27,1.06-1,.89-1.31,1.25a4.68,4.68,0,0,1-.69.61s0-2.08,0-9.15l.53-.46c.29-.25.75-.62,1-.81s.74-.51,1-.7,1-.56,1.51-.82a21.1,21.1,0,0,1,2-.81,16.91,16.91,0,0,1,1.7-.49c.39-.09,1.06-.22,1.49-.29a19.62,19.62,0,0,1,2-.15,18.71,18.71,0,0,1,2.06,0c.45,0,1.21.13,1.68.21s1.14.22,1.48.31,1,.29,1.5.44,1.18.42,1.58.58,1.25.57,1.89.89,1.68.92,2.34,1.34,1.55.94,2,1.19,1.35.72,2,1.05,1.6.73,2.09.94,1.35.51,1.86.68,1.42.43,2,.58,1.47.33,2,.42,1.29.21,1.76.25,1.41.11,2.09.13,1.65,0,2.23,0,1.31-.11,1.73-.16,1.29-.2,2-.34,1.56-.34,2-.48,1.27-.38,1.76-.55,1.29-.46,1.74-.66,1.29-.56,1.86-.83,1.44-.74,2-1,1.39-.82,2-1.19,1.41-.87,1.79-1.07,1-.53,1.34-.69,1-.44,1.36-.59,1-.39,1.4-.51.93-.3,1.26-.37.83-.21,1.15-.28.92-.15,1.33-.21l1-.12C127.81,142.33,128.57,142.33,129.37,142.34ZM78,162.58a11,11,0,0,1,1.18.06,9.58,9.58,0,0,1,1.07.19,7.31,7.31,0,0,1,1,.3,7.23,7.23,0,0,1,.87.46,5,5,0,0,1,.68.53,4,4,0,0,1,.55.6,5.07,5.07,0,0,1,.5.82,6.85,6.85,0,0,1,.4,1c.08.28.19.77.25,1.09s.11,1,.15,1.5.06,3.66.06,7.2,0,6.69-.06,7.21-.1,1.17-.15,1.49-.17.81-.26,1.1a5.75,5.75,0,0,1-.35.94,6,6,0,0,1-.53.86,6.21,6.21,0,0,1-.75.79,6.28,6.28,0,0,1-1,.65,7.42,7.42,0,0,1-1.21.45,10.45,10.45,0,0,1-1.43.23,8.77,8.77,0,0,1-1.62,0,10.93,10.93,0,0,1-1.3-.2,10.17,10.17,0,0,1-1-.31,9.28,9.28,0,0,1-.88-.46,6.57,6.57,0,0,1-.75-.6,5.26,5.26,0,0,1-.58-.67,6.36,6.36,0,0,1-.45-.74,5.84,5.84,0,0,1-.33-.88,8.8,8.8,0,0,1-.26-1.07c0-.3-.12-.87-.14-1.25s-.07-3.49-.07-7.54,0-7.13.07-7.57a11.39,11.39,0,0,1,.17-1.37,10.34,10.34,0,0,1,.27-1.07,6.56,6.56,0,0,1,.41-.94,4.85,4.85,0,0,1,.69-1,7.87,7.87,0,0,1,.79-.71,5.45,5.45,0,0,1,.83-.47,6.11,6.11,0,0,1,1.05-.37,9.75,9.75,0,0,1,1.07-.22C77.12,162.61,77.6,162.59,78,162.58Zm-.3,4.91a1,1,0,0,0-.35.23,1,1,0,0,0-.3.5c-.08.26-.09,1.53-.07,8.24v7.94a1.68,1.68,0,0,0,.47.64,2.16,2.16,0,0,0,.45.15,1.66,1.66,0,0,0,.5,0,1.09,1.09,0,0,0,.45-.21,1.78,1.78,0,0,0,.32-.44c.12-.27.12-.42.14-7.87,0-5.22,0-7.76,0-8.09a1.94,1.94,0,0,0-.19-.68.81.81,0,0,0-.34-.32,1.6,1.6,0,0,0-.44-.14,1.26,1.26,0,0,0-.33,0Zm29.65-4.85c.44,0,1.08,0,1.4.06s.85.14,1.18.21a10.9,10.9,0,0,1,1.21.46,3.64,3.64,0,0,1,1.19.88,3.39,3.39,0,0,1,.84,1.13,6.35,6.35,0,0,1,.43,1.25,11.15,11.15,0,0,1,.21,1.78c0,.63.06,2.78,0,9.22l-7.39,0,0,3.39c0,3.27,0,3.42.14,3.64a1,1,0,0,0,.3.37.9.9,0,0,0,.59.13.86.86,0,0,0,.58-.13,1.8,1.8,0,0,0,.28-.27,2,2,0,0,0,.17-.48c0-.18.06-1.15.06-4h5.28l0,2.31c0,1.26-.06,2.49-.1,2.73s-.11.62-.17.88a6.48,6.48,0,0,1-.29.82,4.1,4.1,0,0,1-.39.71,7.26,7.26,0,0,1-.7.78,3.78,3.78,0,0,1-1.09.75,7.52,7.52,0,0,1-1.22.45,10.36,10.36,0,0,1-1.3.22,13.48,13.48,0,0,1-1.59,0,13.76,13.76,0,0,1-1.4-.13c-.28-.06-.71-.17-1-.25s-.62-.25-.82-.35a5.44,5.44,0,0,1-.61-.37c-.14-.11-.36-.3-.51-.44s-.35-.37-.46-.52a7.09,7.09,0,0,1-.43-.73,5.49,5.49,0,0,1-.36-1,9.75,9.75,0,0,1-.22-1.25c0-.51-.05-3,0-17.55l.14-.61a9.87,9.87,0,0,1,.32-1.07,4.61,4.61,0,0,1,.42-.83,7,7,0,0,1,.51-.63,5,5,0,0,1,1.43-1,7,7,0,0,1,1-.38c.31-.07.78-.17,1-.2S106.87,162.65,107.31,162.64Zm-.63,5.22a1.51,1.51,0,0,0-.2.46c0,.15-.06,1.18-.06,2.48V173h2.14c0-3.24,0-4.35-.06-4.56a1.77,1.77,0,0,0-.17-.51,2.42,2.42,0,0,0-.28-.27.86.86,0,0,0-.49-.15,1.65,1.65,0,0,0-.52.06A.94.94,0,0,0,106.68,167.86Zm15.2-5.15a8.68,8.68,0,0,1,1.12.06,8.12,8.12,0,0,1,1.18.21,7.78,7.78,0,0,1,1.18.44,6.91,6.91,0,0,1,1,.65,6,6,0,0,1,.78.81,4.55,4.55,0,0,1,.9,1.84c.07.3.15.77.19,1.08s.08,1.33.15,4H123l0-1.75c0-1.62,0-1.77-.13-2a1.17,1.17,0,0,0-.34-.39.79.79,0,0,0-.62-.12c-.4,0-.43,0-.63.25a1.19,1.19,0,0,0-.27.49,12.49,12.49,0,0,0-.05,1.75c0,1.4,0,1.52.15,1.77a3,3,0,0,0,.32.49,4.13,4.13,0,0,0,.62.56c.25.18,1,.68,1.64,1.09l1.64,1c.25.18.68.48.94.69a8,8,0,0,1,.91.84,6.52,6.52,0,0,1,.63.78,7.05,7.05,0,0,1,.35.73,6.26,6.26,0,0,1,.29,1,14.25,14.25,0,0,1,.13,3.22,16.82,16.82,0,0,1-.11,3.17,8.19,8.19,0,0,1-.29,1,6.35,6.35,0,0,1-.43.91,6.5,6.5,0,0,1-.69.89,6.23,6.23,0,0,1-.85.73,7.43,7.43,0,0,1-.88.47,7,7,0,0,1-1,.32c-.28.07-.77.16-1.09.2a10,10,0,0,1-1.39,0,11.51,11.51,0,0,1-1.31-.13c-.27-.06-.68-.17-.91-.24a8,8,0,0,1-.86-.37,5,5,0,0,1-.79-.49,5.34,5.34,0,0,1-.66-.59,5.58,5.58,0,0,1-.57-.76,5,5,0,0,1-.45-.9,6.45,6.45,0,0,1-.27-1,45.18,45.18,0,0,1-.14-5.23h5.28l0,2.06c0,2,0,2.07.15,2.3a.89.89,0,0,0,.33.36,1.1,1.1,0,0,0,.51.12.92.92,0,0,0,.51-.12,1.16,1.16,0,0,0,.37-.39c.15-.27.15-.29.17-1.89a13.9,13.9,0,0,0,0-2,2.48,2.48,0,0,0-.21-.65,3.46,3.46,0,0,0-.47-.55,12,12,0,0,0-1.25-.92l-1.73-1.12c-.44-.29-1-.68-1.29-.88a10,10,0,0,1-.94-.8,6.91,6.91,0,0,1-.71-.79,4.55,4.55,0,0,1-.75-1.69,9,9,0,0,1-.19-1.22c0-.38-.06-1.33-.06-2.1s0-1.67.06-2a8.86,8.86,0,0,1,.19-1.13,6.07,6.07,0,0,1,.42-1.13,5.75,5.75,0,0,1,.59-1,6.07,6.07,0,0,1,.72-.71,5.92,5.92,0,0,1,1-.67,7.42,7.42,0,0,1,1.21-.45,8.89,8.89,0,0,1,1.07-.2C121.14,162.74,121.58,162.71,121.88,162.71Zm-35.4.1,3.93,0a37,37,0,0,1,4.51.12,9.62,9.62,0,0,1,1,.2c.2.05.54.17.75.25s.56.27.77.38a6.52,6.52,0,0,1,.73.62,4,4,0,0,1,.59.85,7.24,7.24,0,0,1,.36.94c.13.47.14.59.14,3.15s0,2.68-.14,3.15a8.19,8.19,0,0,1-.35.94A3.73,3.73,0,0,1,97.19,175a7,7,0,0,1-.88.35c-.24.06-.63.13-.85.16a1.33,1.33,0,0,0-.41.08,4.76,4.76,0,0,0,.58.11,8.7,8.7,0,0,1,1,.17,5.44,5.44,0,0,1,.74.26,4.88,4.88,0,0,1,.66.41,3.61,3.61,0,0,1,.55.61,3.35,3.35,0,0,1,.37.76,6.28,6.28,0,0,1,.24,1,36.68,36.68,0,0,1,.09,4c0,2.08,0,3.58.07,3.88a7.76,7.76,0,0,0,.28,1.14,8.19,8.19,0,0,0,.53,1.19,6.56,6.56,0,0,0,.74,1,7.82,7.82,0,0,0,.88.78c.25.17.62.39.82.5s.56.25.77.33a6.26,6.26,0,0,0,1.07.3,14.08,14.08,0,0,0,1.47.24,19.8,19.8,0,0,0,2.49,0v5.5l-.26,0-1.62.06a11,11,0,0,1-2.13-.06c-.41-.06-1.08-.17-1.46-.25s-1.06-.29-1.49-.44-1.07-.4-1.4-.56-.87-.44-1.18-.64-.81-.53-1.07-.72-.8-.69-1.19-1.08a14.32,14.32,0,0,1-1-1.19,13.21,13.21,0,0,1-.68-1.14,11.74,11.74,0,0,1-.55-1.28c-.11-.35-.27-1-.35-1.4-.13-.74-.14-.92-.17-5.32,0-3.42-.06-4.6-.12-4.78a2.38,2.38,0,0,0-.22-.49,1.69,1.69,0,0,0-.31-.41,1.94,1.94,0,0,0-.45-.29,2.9,2.9,0,0,0-.85-.18v12.26H86.47ZM91.82,173c1.21,0,1.35,0,1.58-.14a1,1,0,0,0,.41-.38,2.51,2.51,0,0,0,.2-.68,12,12,0,0,0,0-1.83,5.36,5.36,0,0,0-.14-1.67,1.1,1.1,0,0,0-.23-.42,1.22,1.22,0,0,0-.34-.24,3,3,0,0,0-.86-.08h-.67ZM70.26,163l0,4.61h-4.8V173H69.8l0,4.61-4.28,0V189.8H60.13V176.41c0-7.36,0-13.41.05-13.43S62.48,162.94,70.26,163Zm58.78,0h12v4.64h-3.34V189.8h-5.3V167.58H129Z" transform="translate(-54.01 -2.15)"/></svg>