<?xml version="1.0" encoding="utf-8"?>
<!-- Generator: Adobe Illustrator 16.0.0, SVG Export Plug-In . SVG Version: 6.00 Build 0)  -->
<svg version="1.2" baseProfile="tiny" id="Layer_1" xmlns="http://www.w3.org/2000/svg" xmlns:xlink="http://www.w3.org/1999/xlink"
	 x="0px" y="0px"  viewBox="0 0 1000 1000" xml:space="preserve">
<g>
	<path fill="#070D3C" d="M407.054,623.998c-1.613-0.3-4.823-0.268-8.025,3.21c-5.083,5.52-7.48,12.984-7.1,22.171
		c0.095,2.341,0.427,3.652,1.099,5.552c1.178,3.336,4.025,5.549,6.096,5.928c2.466,0.444,5.257-1.011,7.859-4.079
		c5.7-6.753,8.151-19.134,5.369-27.039C411.19,626.451,409.308,624.411,407.054,623.998 M527.313,714.958
		c2.853,6.147,7.819,9.717,11.521,10.987c4.806,1.679,17.526,4.333,28.084,5.504c11.591,1.281,20.644-5.17,25.814-18.201
		c-3.875-0.223-8.032-0.664-12.326-1.271c-0.8,2.623-1.827,5.241-3.146,7.563c-1.006,1.75-3.235,2.358-4.981,1.36
		c-1.754-0.994-2.365-3.231-1.367-4.98c0.885-1.55,1.604-3.288,2.205-5.082c-2.271-0.404-4.547-0.815-6.809-1.268
		c-0.773,3.038-1.649,5.906-2.583,8.059c-0.816,1.852-2.966,2.696-4.809,1.882c-1.859-0.799-2.696-2.948-1.89-4.792
		c0.75-1.732,1.472-4.078,2.135-6.626c-1.179-0.253-2.358-0.514-3.513-0.772c-1.231-0.287-2.481-0.572-3.738-0.872
		c-0.648,2.111-1.431,4.316-2.372,6.538c-0.791,1.859-2.935,2.729-4.774,1.946c-1.868-0.783-2.744-2.934-1.955-4.783
		c0.776-1.836,1.433-3.67,1.993-5.44c-6.159-1.557-12.467-3.288-18.881-5.155C524.38,706.274,525.726,711.534,527.313,714.958
		 M594.945,706.021c1.512-7.398-0.11-12.554-1.904-15.717c-2.27-3.986-6.003-6.833-10.248-7.821l-4.616-0.979
		c-4.215-0.844-10.581-2.144-20.099-4.513c-12.754-3.188-23.698,2.654-29.738,15.669c6.216,1.803,12.329,3.479,18.296,4.981
		c0.959-4.634,1.17-7.843,1.17-7.908c0.121-2.009,1.843-3.539,3.859-3.429c2.008,0.126,3.55,1.849,3.424,3.856
		c-0.009,0.269-0.246,3.954-1.352,9.222c1.187,0.267,2.354,0.551,3.525,0.82c1.193,0.27,2.372,0.53,3.521,0.775
		c1.05-5.14,1.714-9.503,1.731-9.584c0.299-1.991,2.163-3.367,4.158-3.057c1.984,0.298,3.353,2.157,3.06,4.148
		c-0.057,0.364-0.729,4.727-1.795,9.962c2.45,0.477,4.768,0.886,6.964,1.265c0.807-4.427,1.007-7.943,1.016-8.009
		c0.093-2.016,1.802-3.564,3.816-3.472c2.017,0.097,3.567,1.811,3.471,3.819c-0.008,0.301-0.213,4.002-1.075,8.763
		C587.183,705.493,591.436,705.871,594.945,706.021 M616.285,659.816c-0.545-13.323-3.233-26.045-7.733-37.856
		c-5.526-14.484-23.997-24.748-48.34-30.253c-44.99-10.178-104.089,6.627-141.708,38.262c1.446,5.771,1.019,12.658-0.917,18.936
		c27.095,14.565,66.508,30.34,103.695,41.652c8.745-20.09,25.507-23.917,38.567-20.652c9.36,2.342,15.379,3.557,19.773,4.444
		l4.832,1.012c6.222,1.464,11.662,5.58,14.938,11.337c2.301,4.065,4.434,10.484,2.978,19.34c4.578-0.269,6.783-1.043,7.299-1.645
		C614.54,690.477,616.925,675.439,616.285,659.816 M566.119,738.706c-10.152-1.124-23.754-3.803-29.677-5.859
		c-6.622-2.282-12.505-7.825-15.756-14.815c-1.336-2.884-2.553-6.728-2.745-11.394c-0.106-2.774,0.161-5.852,0.968-9.18
		c-37.233-11.362-76.678-27.128-104.146-41.802c-0.973,1.771-2.079,3.416-3.312,4.889c-2.072,2.442-4.388,4.221-6.776,5.231
		c2.585,22.843,10.523,45.242,23.157,64.74c16.754,25.886,39.581,43.612,64.234,49.194c8.745,1.977,20.171,4.436,30.383,2.165
		c37.915-8.396,68.814-34.604,83.916-69.104c-1.764,0.319-3.759,0.5-5.884,0.588C591.821,738.66,573.638,739.538,566.119,738.706
		 M390.095,631.912c1.233-2.821,2.782-5.416,4.641-7.598c1.479-1.763,3.068-3.153,4.744-4.18
		c4.467-20.819,13.797-39.342,27.418-53.348c-20.343,14.455-35.935,35.097-44.141,59.029
		C383.848,627.305,386.743,629.558,390.095,631.912 M387.778,638.998c-2.957-2.098-5.488-4.08-7.283-5.794
		c-3.146,11.557-4.584,23.78-4.071,36.386c0.102,2.535,0.277,5.059,0.537,7.55c1.818-7.44,5.385-15.212,10.507-23.142
		C386.474,649.348,386.64,644.074,387.778,638.998 M397.392,666.455c-2.648-0.663-4.934-2.306-6.696-4.765
		c-8.951,13.795-12.714,26.131-9.433,37.2c13.764,46.451,54.745,80.765,103.83,85.327
		C438.184,769.97,403.463,721.09,397.392,666.455"/>
	<path fill="#FFFFFF" d="M444.341,24.108c-47.02,0-58.167,24.116-58.167,24.116s54.264-3.922,54.264,49.661
		c0,24.118-13.125,40.457-27.019,57.765c-16.137,20.09-34.417,42.854-34.417,81.061c0,63.234,40.618,92.909,76.457,119.074
		c31.232,22.808,60.723,44.343,60.723,84.898c0,40.772-17.894,72.38-26.046,80.542c-13.692,13.691-26.025,16.186-35.94,18.187
		c-10.168,2.056-19.784,4.028-21.8,18.643c-37.65,22.614-60.453,62.885-60.453,106.583c0,1.694,0.032,3.417,0.103,5.125
		c1.351,33.21,15.551,63.901,39.983,86.419c24.438,22.518,56.185,34.181,89.382,32.829c33.209-1.351,63.902-15.551,86.428-39.992
		c22.51-24.431,34.178-56.174,32.818-89.375c-2.053-50.698-34.233-94.633-81.952-111.927l0.185,0.072
		c-0.031-0.017-0.648-0.265-0.648-0.265l-1.124-0.392c-6.04-2.088-12.88-4.451-12.88-19.974c0-15.041,6.825-16.299,20.416-18.789
		c8.071-1.482,17.963-3.296,27.658-9.215c17.243-10.537,20.478-23.238,17.347-26.368c-4.286-4.285-8.99,4.709-26.354,9.944
		c-6.263,1.885-12.563,2.983-16.816,2.983c-3.55,0-6.185-0.295-8.121-0.647c9.119-17.091,19.33-31.074,19.45-31.222l2.222-3.033
		l-2.663-2.657c-3.521-3.528-5.552-10.862-5.552-20.7c0-12.145,3.085-28.089,10.254-45.395
		c8.467-20.45,42.118-87.188,119.288-87.188h4.38v-4.39c0-27.593-2.524-52.964-7.488-75.409l-0.964-4.364
		c0,0-7.488,2.131-13.736,3.517c-0.74,0.167-6.575,1.599-6.845,0.37c-0.236-1.096,4.271-3.36,5.827-4.131
		c5.857-2.914,13.174-5.989,13.174-5.989l-1.016-3.506c-5.503-19.214-11.045-28.393-11.272-28.776l-1.794-2.931l-3.258,1.036
		c-64.273,20.241-78.015,62.887-86.222,88.364c-3.993,12.377-6.459,19.383-10.934,19.383c-13.263,0-24.233-10.979-27.841-14.579
		c-40.08-40.072-37.002-68.958-32.346-112.686c1.646-15.434,3.513-32.923,3.513-52.895
		C504.544,47.558,485.415,24.108,444.341,24.108"/>
	<path fill="#070D3C" d="M407.054,623.998c-1.613-0.3-4.823-0.276-8.033,3.21c-5.076,5.52-7.464,12.976-7.092,22.171
		c0.095,2.341,0.427,3.652,1.09,5.552c1.179,3.336,4.034,5.541,6.104,5.92c2.466,0.452,5.265-0.994,7.859-4.08
		c5.7-6.744,8.151-19.125,5.369-27.03C411.19,626.451,409.308,624.411,407.054,623.998 M594.945,706.028
		c1.512-7.415-0.11-12.569-1.904-15.725c-2.27-3.986-6.003-6.84-10.248-7.827l-4.616-0.965c-4.215-0.861-10.581-2.152-20.099-4.521
		c-12.754-3.195-23.698,2.647-29.738,15.669c6.208,1.812,12.336,3.479,18.296,4.996c0.959-4.648,1.17-7.866,1.17-7.923
		c0.121-2.009,1.843-3.539,3.859-3.429c2.008,0.126,3.55,1.84,3.424,3.856c-0.009,0.26-0.237,3.954-1.352,9.222
		c1.18,0.274,2.354,0.551,3.525,0.82c1.193,0.27,2.372,0.522,3.521,0.775c1.05-5.14,1.714-9.495,1.731-9.584
		c0.299-1.991,2.163-3.367,4.158-3.065c1.992,0.315,3.36,2.166,3.06,4.166c-0.048,0.35-0.721,4.718-1.804,9.953
		c2.459,0.477,4.768,0.894,6.973,1.265c0.807-4.427,1.007-7.952,1.016-8.016c0.093-2.009,1.802-3.558,3.816-3.465
		c2.017,0.097,3.567,1.802,3.471,3.827c-0.008,0.285-0.213,3.986-1.075,8.746C587.183,705.502,591.436,705.863,594.945,706.028
		 M527.313,714.958c2.853,6.156,7.819,9.708,11.513,10.987c4.813,1.67,17.534,4.342,28.092,5.504
		c11.591,1.281,20.65-5.165,25.814-18.201c-3.884-0.223-8.032-0.664-12.326-1.265c-0.8,2.625-1.827,5.234-3.146,7.55
		c-1.006,1.748-3.235,2.365-4.981,1.367c-1.754-1.002-2.365-3.223-1.367-4.98c0.885-1.541,1.604-3.288,2.205-5.091
		c-2.271-0.387-4.547-0.807-6.801-1.251c-0.781,3.036-1.657,5.898-2.6,8.051c-0.808,1.852-2.957,2.688-4.8,1.89
		c-1.859-0.799-2.696-2.964-1.89-4.806c0.75-1.735,1.472-4.072,2.135-6.62c-1.179-0.253-2.358-0.521-3.513-0.772
		c-1.239-0.278-2.489-0.578-3.738-0.872c-0.648,2.104-1.431,4.31-2.372,6.529c-0.782,1.868-2.935,2.737-4.782,1.946
		c-1.86-0.783-2.729-2.916-1.947-4.774c0.776-1.842,1.433-3.67,1.993-5.44c-6.15-1.55-12.467-3.288-18.881-5.155
		C524.38,706.274,525.726,711.525,527.313,714.958 M608.552,621.966c-5.526-14.483-23.997-24.754-48.331-30.267
		c-44.999-10.173-104.098,6.635-141.717,38.278c1.446,5.771,1.019,12.649-0.917,18.936c27.095,14.565,66.508,30.337,103.688,41.644
		c8.752-20.081,25.514-23.926,38.567-20.652c9.367,2.334,15.386,3.557,19.78,4.444l4.832,1.02
		c6.213,1.447,11.662,5.572,14.938,11.329c2.301,4.065,4.434,10.492,2.978,19.331c4.57-0.26,6.783-1.026,7.299-1.645
		c4.877-13.898,7.257-28.944,6.617-44.567C615.74,646.502,613.052,633.778,608.552,621.966 M566.119,738.706
		c-10.152-1.124-23.745-3.812-29.677-5.866c-6.622-2.283-12.505-7.827-15.756-14.8c-1.336-2.893-2.553-6.736-2.745-11.395
		c-0.106-2.789,0.161-5.859,0.968-9.18c-37.233-11.37-76.678-27.136-104.155-41.801c-0.964,1.771-2.071,3.415-3.304,4.88
		c-2.072,2.45-4.38,4.205-6.776,5.231c2.585,22.851,10.523,45.233,23.157,64.74c16.754,25.886,39.581,43.621,64.234,49.194
		c8.745,1.977,20.171,4.427,30.393,2.174c37.905-8.405,68.813-34.608,83.906-69.104c-1.764,0.319-3.759,0.5-5.884,0.579
		C591.821,738.66,573.638,739.547,566.119,738.706 M390.095,631.903c1.233-2.804,2.782-5.407,4.641-7.596
		c1.479-1.762,3.068-3.139,4.744-4.182c4.467-20.804,13.797-39.335,27.418-53.344c-20.351,14.468-35.935,35.093-44.141,59.034
		C383.848,627.305,386.743,629.566,390.095,631.903 M387.778,639.005c-2.949-2.111-5.488-4.078-7.283-5.801
		c-3.146,11.557-4.593,23.78-4.071,36.386c0.102,2.527,0.285,5.059,0.537,7.559c1.811-7.449,5.385-15.23,10.5-23.15
		C386.481,649.348,386.64,644.067,387.778,639.005 M397.392,666.455c-2.648-0.663-4.934-2.306-6.696-4.771
		c-8.951,13.801-12.714,26.137-9.433,37.215c13.764,46.434,54.745,80.747,103.83,85.318
		C438.184,769.97,403.463,721.09,397.392,666.455 M455.157,97.885c0-6.69-0.718-12.73-2.024-18.177c0,0,10.795-0.565,10.795-13.708
		c0-10.835-7.221-18.217-9.166-18.217c-1.557,0-1.944,1.657-5.328,1.657c-8.248,0-8.856-10.54-8.856-10.54
		c1.216-0.04,2.476-0.063,3.763-0.063c23.618,0,45.471,7.154,45.471,59.046c0,19.197-1.817,36.27-3.415,51.329
		c-1.59,14.888-3.059,28.725-2.632,42.237c0,0-41.122-4.847-41.122-35.785C442.643,135.586,455.157,130.697,455.157,97.885
		 M520.562,440.683c0,40.61-17.322,73.637-27.333,83.642c-31.01,31.01-56.596,8.43-56.872,39.549
		c-14.066,12.747-24.194,32.118-29.16,54.258c0.309,0.017,0.609,0.064,0.917,0.129c2.909,0.521,5.417,2.196,7.32,4.821
		c39.392-32.107,100.042-48.981,146.391-38.495c14.738,3.327,27.237,8.766,36.703,17.1c-14.224-23.035-35.999-40.805-61.71-50.021
		c-6.113-2.195-16.96-4.694-16.96-24.506c0-36.973,40.457-8.227,67.095-48.506c1.312-1.984-0.571-3.714-2.136-2.162
		c-8.058,8.058-27.856,13.602-38.33,13.602c-10.479,0-14.43-2.386-14.43-2.386c9.898-19.691,22.224-36.451,22.224-36.451
		c-24.738-24.743,16.898-160.766,127.084-160.766c0-31.563-3.331-56.173-7.387-74.472c-2.623,0.641-23.378,5.531-24.328,1.166
		c-0.838-3.871,15.291-12.25,20.836-15.011c-5.408-18.858-10.81-27.697-10.81-27.697c-94.436,29.752-75.452,107.95-98.459,107.95
		c-14.977,0-26.734-11.658-30.939-15.861c-56.405-56.402-30.125-93.725-30.125-168.679c0-50.492-19.599-69.397-55.812-69.397
		c-36.204,0-49.146,15.674-49.146,15.674s49.613,1.613,49.613,53.723c0,54.552-61.434,69.617-61.434,138.825
		C383.374,351.923,520.562,349.76,520.562,440.683"/>
	<path fill="#070D3C" d="M312.65,769.717c9.21,6.071,18.96,11.537,18.96,11.537l-3.417,8.848c-1.272-5.345-6.585-8.27-13.449-12.512
		l-22.461,32.482c-2.744,3.905-8.088,12.477-8.516,15.828c0,0-3.686-2.338-7.053-4.854c-3.518-2.618-6.854-5.046-6.854-5.046
		c3.344-0.82,9.124-9.344,12.611-14.074l21.854-31.173c-8.184-6.316-11.386-7.567-17.165-7.87l7.78-5.834
		C294.939,757.05,302.404,762.964,312.65,769.717"/>
	<path fill="#070D3C" d="M352.91,796.378c-9.97-4.761-17.822,6.514-23.736,18.895c-5.913,12.398-9.78,25.667,0.191,30.427
		c9.985,4.753,17.861-6.594,23.782-18.975C359.054,814.344,362.888,801.153,352.91,796.378 M327.182,850.285
		c-15.599-7.449-17.679-24.639-9.993-40.733c7.716-16.162,22.43-25.241,37.95-17.822c15.529,7.408,17.712,24.542,9.987,40.717
		C357.456,848.529,342.782,857.731,327.182,850.285"/>
	<path fill="#070D3C" d="M396.998,808.332c10.546,2.981,19.125,4.973,19.125,4.973l-0.909,9.44
		c-2.83-4.071-4.126-5.074-13.125-7.368l-10.918,36.71c-0.879,3.359-5.235,16.065-3.835,18.472c0,0-3.037-0.65-7.938-2.008
		c-5.496-1.521-8.081-2.563-8.081-2.563c2.822-1.851,6.373-12.715,7.535-17.14l10.968-36.951
		c-9.323-3.105-11.498-3.336-15.948-1.255l5.4-8.048C379.271,802.594,385.366,805.044,396.998,808.332"/>
	<path fill="#070D3C" d="M440.514,818.091c10.405,1.565,20.195,2.456,20.195,2.456l0.387,9.482
		c-3.875-3.457-5.343-4.588-15.608-5.875l-5.944,37.706c-0.422,3.446-2.635,16.557-0.917,18.729c0,0-3.6-0.395-8.571-1.09
		c-4.981-0.704-8.035-1.4-8.035-1.4c2.427-1.902,4.451-14.324,4.872-17.772l6.088-38.173c-8.904-1.771-10.722-1.091-15,1.383
		l3.875-8.96C421.855,814.577,430.157,816.522,440.514,818.091"/>
	<path fill="#070D3C" d="M479.069,853.922l-0.785,25.341c13.283,0.166,22.377-0.655,26.425-6.421l-2.032,11.506
		c0,0-7.347,0.157-18.123,0c-11.858-0.175-21.141-0.948-21.141-0.948c1.976-1.946,2.458-14.297,2.482-17.76l1.09-24.876
		c0.041-6.616,0.64-17.314-1.573-19.56c9.614,0.663,8.396,0.648,17.229,0.997c11.574,0.459,18.137,0.109,18.137,0.109l1.448,9.504
		c-4.515-3.771-11.284-4.205-22.344-4.269l-0.608,21.254l16.973,0.104c1.536,0.013,1.629,0.877,1.622,2.566
		c-0.016,1.679-0.041,2.578-1.654,2.555L479.069,853.922z"/>
	<path fill="#070D3C" d="M553.247,861.559c0.981,9.221,1.951,15.844,4.047,17.049c-0.521,0.956-2.181,2.197-4.401,2.435
		c-2.658,0.284-4.683-1.026-6.518-3.155l-30.105-34.545l1.122,21.965c0.361,3.463,0.756,16.556,2.925,18.305l-10.042,0.468
		c1.748-2.169,1.281-14.644,0.908-18.107l-1.422-24.802c-0.364-3.457-1.012-17.165-3.171-18.907l9.203-0.33l30.867,36.655
		l-2.568-21.096c-0.372-3.464-2.257-16.034-4.325-17.773c0,0,1.107-0.11,4.853-0.619c3.743-0.503,5.11-0.772,5.11-0.772
		c-1.749,2.157,0.273,15.044,0.64,18.502L553.247,861.559z"/>
	<path fill="#070D3C" d="M609.825,848.489c1.068,4.277,3.186,15.301,6.341,17.466c0,0-4.769,1.36-7.668,2.263
		c-2.592,0.806-8.31,2.276-8.31,2.276c1.352-2.381-1.655-15.592-2.484-18.895l-2.86-11.508l-19.141,4.699l2.173,11.693
		c0.633,3.786,2.624,16.508,5.202,18.059c0,0-2.663,0.553-8.256,1.698c-4.664,0.956-7.914,1.48-7.914,1.48
		c1.425-2.389-0.487-14.185-1.083-17.948l-4.64-24.724c-0.846-4.611-2.975-16.28-5.528-17.641c0,0,2.474-0.474,7.946-1.541
		c5.465-1.061,8.136-1.779,8.136-1.779c-1.344,2.758,1.03,13.946,1.679,17.875l1.478,7.846l18.826-4.594l-2.033-8.018
		c-1.106-4.248-3.446-14.438-6.063-16.336c0,0,2.583-0.742,7.825-2.229c5.243-1.488,7.505-2.326,7.505-2.326
		c-1.047,2.824,1.865,12.763,3.074,17.878L609.825,848.489z"/>
	<path fill="#070D3C" d="M641.398,829.807L624.8,806.814l1.179,28.875L641.398,829.807z M644.79,833.823l-18.678,7.322l0.641,10.244
		c0.43,3.496,0.442,6.716,1.202,8.527c0.382,0.899,1.021,1.5,1.637,1.817c0,0-1.943,0.704-5.146,1.748
		c-3.212,1.034-4.974,1.539-4.974,1.539c1.114-1.92,1.384-4.578,1.288-7.889l-1.637-48.611c-0.166-1.771-0.371-3.425-0.964-4.814
		c-0.521-1.241-1.384-1.93-2.002-2.443c2.127-1.39,4.783-2.894,7.496-4.033c4.285-1.802,6.086-1.739,9.22,1.916l27.395,33.972
		c4.99,6.493,9.386,10.857,12.25,11.722c0,0-2.801,1.287-8.064,3.626c-5.26,2.358-8.755,3.669-8.755,3.669
		c0.316-1.1,0.35-2.254-0.332-4.016c-0.733-1.892-3.43-5.094-5.17-7.513L644.79,833.823z"/>
	<path fill="#070D3C" d="M723.017,816.207c-3.755,2.529-6.563,4.462-6.563,4.462c-0.277-3.7-7.41-12.828-9.521-15.593l-16.08-21
		l12.934,41.39c-0.491,0.832-1.413,1.97-2.271,2.617c-2.544,1.929-5.033,1.551-7.311-0.229l-30.637-25.405l10.727,19.752
		c2.624,5.006,7.685,15.411,11.077,16.438c0,0-2.112,1.13-4.792,2.426c-2.648,1.288-4.276,2.039-4.276,2.039
		c0.576-2.908-4.379-11.544-7.29-17.061l-11.939-22.456c-3.613-6.751-7.605-13.629-11.037-15.004
		c2.655-1.283,3.456-1.679,7.242-3.554c3.17-1.557,5.955-3.083,5.955-3.083l34.504,29.343l-13.568-41.558
		c0,0,1.827-1.224,5.268-3.524c3.438-2.294,6.546-4.587,6.546-4.587c0.262,3.718,7.44,13.188,10.057,16.573l14.854,19.116
		c3.155,3.932,9.045,12.691,13.245,13.694C730.141,811.005,726.773,813.663,723.017,816.207"/>
	<path fill="#070D3C" d="M369.956,891.763c3.194,1.172,7.33,2.607,7.33,2.607c-3.487,2.509-6.681,12.534-8.744,17.975l-8.009,22.232
		c-2.143,6.031-5.804,14.763-4.585,17.894c0,0-4.406-1.518-7.971-2.801c-3.044-1.074-4.776-1.658-8.018-3.035
		c3.93-1.046,7.639-14.106,8.832-17.395l3.676-10.374l-19.205-8.002l-5.549,11.867c-1.811,4.112-6.129,13.45-5.108,16.376
		c0,0-3.384-1.394-8.358-3.67c-5.843-2.688-7.124-3.415-7.124-3.415c4.126-2.024,6.555-8.663,9.701-15.388l10.034-22.238
		c3.4-7.615,6.46-14.209,6.239-18.558c0,0,1.794,1.074,6.728,3.29c3.931,1.771,5.938,2.657,8.152,3.541
		c-3.123,1.248-7.472,12.471-9.774,17.496l-2.939,6.288l18.761,7.729l2.879-7.129c1.336-3.639,5.994-14.501,4.99-18.231
		C361.893,888.823,365.749,890.23,369.956,891.763"/>
	<path fill="#070D3C" d="M406.517,907.387c-10.69-2.814-16.209,9.44-19.64,22.438c-3.416,12.984-4.649,26.456,6.033,29.271
		c10.691,2.815,16.247-9.526,19.663-22.518C415.989,923.587,417.206,910.201,406.517,907.387 M391.652,963.901
		c-16.729-4.395-22.051-20.589-17.616-37.461c4.469-16.952,17.127-28.322,33.761-23.941c16.643,4.383,22.075,20.493,17.625,37.462
		C420.978,956.833,408.374,968.299,391.652,963.901"/>
	<path fill="#070D3C" d="M436.948,969.881c0,0,1.059-1.162,1.78-3.497c1.021-3.303,1.685-9.628,2.473-14.562l4.684-36.214
		c-9.987-1.24-12.51-0.53-16.891,2.072l4.104-9.268c3.106,0.681,9.994,1.425,18.375,2.484c5.589,0.703,22.28,2.212,22.28,2.212
		l0.562,9.268c-3.684-4.271-7.496-4.64-15.807-5.297l-4.664,36.323c-0.427,3.383-2.278,15.118-0.443,18.586
		c-2-0.229-5.32-0.6-8.112-0.876C442.414,970.814,438.602,970.166,436.948,969.881"/>
	<path fill="#070D3C" d="M516.433,957.291c0.113,10.912-8.752,18.803-22.382,18.597c-10.61-0.157-16.153-4.515-18.272-6.292
		l2.205-10.342c3.291,6.595,8.746,11.384,14.888,11.473c6.421,0.096,11.471-3.678,11.566-10.049
		c0.082-4.619-2.473-7.41-13.177-12.984c-10.256-5.298-14.075-10.577-14.075-18.461c0-10.73,9.338-16.186,20.296-16.186
		c8.071-0.009,13.685,2.468,17.229,4.357l-2.284,9.471c-4.888-6.522-9.31-8.957-14.651-9.037c-5.267-0.072-9.001,2.8-8.96,8.209
		c0.039,5.89,6.515,9.075,15.261,13.961C514.132,945.637,516.37,951.267,516.433,957.291"/>
	<path fill="#070D3C" d="M566.087,923.91c0.387,1.282,0.624,2.833,0.743,4.064c0.109,1.123,0.157,2.61,0.024,4.016
		c-0.293,3.527-1.963,7.64-4.736,10.533c-4.229,4.41-9.758,6.61-17.063,6.949c-2.83,0.181-3.511-0.688-3.69-2.72l-0.018-0.45
		c0,0-0.063-0.773,0.544-0.821l0.713-0.064c2.164-0.277,5.368-0.95,7.946-4.087c2.467-3.205,3.319-7.506,2.886-12.098
		c-0.458-4.775-1.899-8.231-5.115-10.697c-2.792-2.158-6.071-2.846-9.447-2.577c0,0-1.354,0.109-2.857,0.347
		c0,0-0.884,0.072-0.797,0.934l3.614,37.557c0.313,3.305,1.216,14.941,3.936,17.347c0,0-3.092,0.322-8.901,0.805
		c-4.442,0.35-7.898,0.451-7.898,0.451c1.172-2.885,0.97-7.138,0.688-12.104l-2.808-29.603c-0.323-3.399-0.9-15.014-3.661-17.885
		c0,0,7.433-1.098,21.188-2.402c7.19-0.681,13.081,0.245,18.171,3.675C562.868,917.318,565.146,920.589,566.087,923.91"/>
	<path fill="#070D3C" d="M622.35,936.024c2.95,13.014-3.163,24.083-16.706,27.474c-9.52,2.38-23.214-1.113-27.047-17.813
		l-4.652-19.703c-1.223-5.517-3.231-15.289-6.441-17.837c0,0,3.58-0.507,9.186-1.551c5.599-1.041,8.2-1.658,8.2-1.658
		c-1.472,2.315,0.073,11.441,1.534,18.152l5.946,25.064c1.067,4.586,2.56,7.726,5.138,9.581c1.908,1.376,4.459,1.758,7.107,1.267
		c2.42-0.443,4.936-1.811,6.256-4.262c1.394-2.569,1.385-6.276,0.311-10.87l-6.676-25.048c-1.825-6.896-3.938-15.529-6.191-16.977
		c0,0,2.72-0.744,7.874-2.205c3.906-1.122,6.216-1.795,7.914-2.39c-1.549,3.78,2.13,15.338,2.904,18.646L622.35,936.024z"/>
	<path fill="#070D3C" d="M683.159,930.883c1.306,0.491,2.721,0.855,3.905,0.35c-0.135,0.806-0.91,2.451-2.183,3.764
		c-5.479,5.605-10.619,4.642-12.356,3.953c-9.447-3.589-25.24-17.59-25.889-19.12c0,0-0.165-0.402,0.255-0.568l0.57-0.252
		c2.467-1.026,5.26-3.81,6.374-6.466c1.763-3.859,1.461-7.331-0.333-11.577c-1.859-4.426-5.1-7.218-7.646-7.97
		c-3.771-1.107-6.58-0.222-8.276,0.458c0,0-2.263,0.894-2.935,1.565c0,0-0.459,0.372,0.07,1.914l11.921,34.063
		c1.82,5.013,4.967,14.783,7.813,16.445c0,0-3.218,1.264-8.111,3.029c-4.879,1.763-7.857,2.583-7.857,2.583
		c0.993-3.795-2.77-14.144-3.71-17.045l-7.725-23.016c-1.92-5.545-5.44-15.492-8.302-17.072c0,0,5.62-1.573,18.281-6.894
		c6.734-2.83,13.257-4.031,19.146-2.317c3.565,1.052,5.979,2.854,7.956,5.71c0.752,1.099,1.312,2.188,1.786,3.319
		c0.442,1.042,0.744,2.253,0.942,3.369c0.623,3.479,0.101,7.161-1.907,10.665c0,0-1.819,3.502-5.686,6.262
		C659.265,916.035,671.702,926.568,683.159,930.883"/>
</g>
</svg>
