<svg xmlns="http://www.w3.org/2000/svg" xmlns:xlink="http://www.w3.org/1999/xlink" viewBox="0 0 751 800"><defs><clipPath id="a" transform="translate(-164.5)"><rect x="201.50312" y="23.5" width="676.99376" height="753" style="fill:none"/></clipPath></defs><title>west-ham-united-football-club-logo-freelogovectors.net</title><g style="clip-path:url(#a)"><path d="M878.47242,47.93932A2270.70217,2270.70217,0,0,0,539.98777,23.5c-120.97466,0-235.644,8.72484-338.48465,24.43932V330.33573c0,238.72334,138.49765,372.99293,332.96137,444.38025l5.54774,1.78409,5.52328-1.78409c194.48815-71.38725,332.93691-205.65691,332.93691-444.38025Z" transform="translate(-164.5)" style="fill:#10b0e6"/><path d="M855.084,71.27888A2117.77024,2117.77024,0,0,0,539.98777,48.59919a2117.77047,2117.77047,0,0,0-315.0962,22.67969v267.635c0,222.25123,128.91744,347.25836,309.964,413.70889l5.1567,1.63746,5.1567-1.66185c181.16869-66.42607,309.89065-191.43324,309.964-413.68446V71.27891Z" transform="translate(-164.5)" style="fill:#7b2639"/><path d="M695.51963,631.64815c4.88786,4.88786,12.97728-.29326,21.16446-8.48045s13.46606-16.17882,8.48045-21.16446L412.68333,297.39149c-4.88786-4.88786-13.906-4.15467-19.918,1.8574s-6.843,14.93243-1.85739,19.918Z" transform="translate(-164.5)" style="fill:#d0a140"/><path d="M422.38573,292.72361l25.53909-30.06038s2.44393-3.20154-1.31973-7.7717c-9.77573-11.9997-29.64489-29.49827-29.64489-29.49827-2.835-2.15065-4.88787-1.63743-7.94278,1.41749-15.6656,15.00574-55.47727,53.47323-57.87232,55.96606a9.99567,9.99567,0,0,0-3.42151,10.50891c.95313,5.35222,3.81253,14.27258-1.09978,22.92408l-26.88325,42.35336c-3.37263,5.1567-4.3502,9.77573-1.80852,12.21966,1.34416,1.31971,4.88787,2.8594,11.70644-1.95515,3.34819-2.29731,39.90942-26.88326,51.59142-36.51236,6.81857-5.62105,12.02414-10.72886,12.02414-10.72886l21.99539-21.65325s4.66792-4.57016,7.08741-7.33179" transform="translate(-164.5)" style="fill:#f5d34c"/><path d="M329.80958,366.1149c-7.64952,5.18112-7.62507,5.93874-6.54974,5.79211a18.28088,18.28088,0,0,0,6.35422-3.07934c3.32375-2.29731,39.90942-26.88326,51.59141-36.51236,4.88787-3.95918,8.79816-7.67395,10.75331-9.5069a46.11721,46.11721,0,0,0-18.35394,8.08941c-6.232,5.20557-32.79757,27.812-43.79526,35.21708" transform="translate(-164.5)" style="fill:#d0a140"/><path d="M422.38573,292.72361l25.56353-30.06038a5.37667,5.37667,0,0,0,.26884-5.05894s-2.10179-2.44393-9.458,6.2076c-6.20759,7.33179-9.1403,10.04456-14.34589,16.27659a46.21467,46.21467,0,0,0-8.21161,18.96493c1.44191-1.44192,4.39908-4.39909,6.18314-6.32978" transform="translate(-164.5)" style="fill:#d0a140"/><path d="M385.16465,631.64815c-4.88787,4.88786-12.97728-.29326-21.16445-8.48045s-13.41718-16.17882-8.52932-21.16446L668.12317,297.22042c4.88786-4.88787,13.906-4.15468,19.918,1.85739s6.843,14.93243,1.85738,19.91806Z" transform="translate(-164.5)" style="fill:#d0a140"/><path d="M382.13418,628.64212,673.79307,329.13819c4.88787-4.88787,4.15468-13.93041-1.85737-19.9425a17.10756,17.10756,0,0,0-10.85107-5.08338L355.59307,602.00324c-4.76567,4.76566-.17107,12.21966,7.3318,20.04023,7.50287,7.08739,14.66359,11.19322,19.23375,6.59862" transform="translate(-164.5)" style="fill:#f5d34c"/><path d="M658.51849,292.62585l-25.63686-30.0848s-2.44393-3.20155,1.31971-7.77171c9.77573-11.99972,29.64491-29.49826,29.64491-29.49826,2.835-2.15066,4.88786-1.613,7.94278,1.41748,15.66562,15.00575,55.47726,53.47324,57.8723,55.96606a9.89793,9.89793,0,0,1,3.42149,10.50892c-.95313,5.37664-3.81253,14.27255,1.09976,22.92408L761.06584,358.441c3.37264,5.1567,4.37462,9.77573,1.83295,12.21967-1.36859,1.3197-4.88786,2.88382-11.73088-1.95516-3.34818-2.2973-39.90942-26.88325-51.567-36.51235-6.843-5.62106-12.04857-10.72887-12.04857-10.72887L665.557,299.811s-4.64346-4.57016-7.08739-7.18517" transform="translate(-164.5)" style="fill:#f5d34c"/><path d="M750.99689,365.9927c7.64952,5.18112,7.62506,5.93873,6.54972,5.7921a18.28071,18.28071,0,0,1-6.35424-3.07934c-3.32375-2.2973-39.90942-26.88325-51.567-36.51235-4.88786-3.95918-8.8226-7.67395-10.77775-9.5069a46.11711,46.11711,0,0,1,18.35392,8.08941c6.232,5.20557,32.87088,27.812,43.79527,35.21708" transform="translate(-164.5)" style="fill:#d0a140"/><path d="M658.51849,292.62585l-25.63686-30.0848a5.37656,5.37656,0,0,1-.29326-5.05894s2.10178-2.44393,9.458,6.20759c6.20757,7.3318,9.14032,10.04456,14.34587,16.301a46.26344,46.26344,0,0,1,8.21161,18.94048c-1.44191-1.44191-4.39908-4.39908-6.18314-6.30535" transform="translate(-164.5)" style="fill:#d0a140"/><path d="M707.666,301.32624a6.18315,6.18315,0,0,1-8.72486,0l-13.09948-13.09947a6.16077,6.16077,0,0,1,8.72486-8.7004l13.09948,13.075a6.18315,6.18315,0,0,1,0,8.72483" transform="translate(-164.5)" style="fill:#d0a140"/><path d="M687.60128,288.22677a6.18315,6.18315,0,0,1,3.4948-10.46,6.23208,6.23208,0,0,0-5.25444,1.75963,6.15869,6.15869,0,0,0,0,8.7004l13.09948,13.09947a6.10979,6.10979,0,0,0,5.23,1.73519,5.91427,5.91427,0,0,1-3.47038-1.73519Z" transform="translate(-164.5)" style="fill:#c5993d"/><path d="M693.369,293.04132a.68433.68433,0,0,1-.95265-.17037l-.00048-.00071a.65981.65981,0,0,1,0-.78206l6.01209-6.01207a.68427.68427,0,0,1,.9287,0,.65988.65988,0,0,1,0,.92869Z" transform="translate(-164.5)" style="fill:#d0a140"/><path d="M695.34857,295.02089a.65983.65983,0,0,1-.90424,0,.68429.68429,0,0,1,0-.92868.65986.65986,0,0,1,.92871.92868" transform="translate(-164.5)" style="fill:#d0a140"/><path d="M691.21832,290.91509a.65986.65986,0,1,1,0-.83093.65986.65986,0,0,1,0,.83093" transform="translate(-164.5)" style="fill:#d0a140"/><path d="M696.0573,282.77679l-2.0529-2.0529a.6481.6481,0,1,0-.90424.92869l.31772.31771a.31773.31773,0,0,1,0,.4399l-5.30333,5.32778a.65684.65684,0,0,0,.933.92442l.02018-.02016,5.32775-5.35222a.34214.34214,0,0,1,.41547,0l.34214.34215a.68428.68428,0,0,0,.92871,0,.65988.65988,0,0,0,0-.92869" transform="translate(-164.5)" style="fill:#d0a140"/><path d="M707.055,293.87224a.65988.65988,0,0,0-.92065-.1525l-.008.00587-3.49481,2.44394a.31154.31154,0,0,1-.46435-.41547l.70872-1.41748a.51322.51322,0,0,0-.70872-.70875l-1.41749.70875a.31154.31154,0,1,1-.41546-.46436l2.44393-3.49482a.6843.6843,0,0,0-1.09976-.78206l-4.88786,6.86745a.57132.57132,0,1,0,.75761.85537l2.44393-1.222a.41548.41548,0,0,1,.41546,0,.36662.36662,0,0,1,0,.43991L699.21,298.98005a.65987.65987,0,0,0,0,.73319.63544.63544,0,0,0,.8554,0l6.86744-4.88786a.6599.6599,0,0,0,.15248-.92066l-.00585-.008" transform="translate(-164.5)" style="fill:#d0a140"/><path d="M421.457,305.96972a15.37235,15.37235,0,0,0-11.09545,4.74124c-5.59661,5.5966-6.37867,13.88153-1.73519,18.525L533.4869,457.17585l21.2622-21.23778Z" transform="translate(-164.5)" style="fill:#f5d34c"/><path d="M725.16454,602.00327,567.6531,448.47545a22.28864,22.28864,0,0,0-6.81855,4.71678,22.753,22.753,0,0,0-1.93069,30.01148L699.77212,627.66456c4.64346,4.64346,12.073-.26883,19.67367-7.86946,1.29528-1.29528,2.44393-2.56614,3.59258-3.837,4.05694-5.47443,5.621-10.46,2.12621-13.95487" transform="translate(-164.5)" style="fill:#f5d34c"/><path d="M693.0757,292.748a.65987.65987,0,0,1-.92871,0,.70875.70875,0,0,1,0-.95314l6.01209-5.98762a.65987.65987,0,0,1,.92871,0,.68429.68429,0,0,1,0,.92868Z" transform="translate(-164.5)" style="fill:#f5d34c"/><path d="M695.17748,294.77651a.65986.65986,0,1,1,0-.83093.65986.65986,0,0,1,0,.83093" transform="translate(-164.5)" style="fill:#f5d34c"/><path d="M690.925,290.62183a.65986.65986,0,1,1,0-.83093.65985.65985,0,0,1,0,.83093" transform="translate(-164.5)" style="fill:#f5d34c"/><path d="M695.764,282.55684l-2.0529-2.05289a.68427.68427,0,0,0-.9287,0,.65988.65988,0,0,0,0,.92869l.31772.34215a.36663.36663,0,0,1,0,.4399l-5.25444,5.23a.65988.65988,0,0,0,0,.92869.70876.70876,0,0,0,.95313,0l5.32776-5.35222a.3421.3421,0,0,1,.41546,0l.34215.3177a.6481.6481,0,1,0,.90424-.92869" transform="translate(-164.5)" style="fill:#f5d34c"/><path d="M706.78616,293.579a.65988.65988,0,0,0-.92065-.1525l-.00806.00587-3.47038,2.44394a.32879.32879,0,0,1-.48877-.43991l.70872-1.41749a.50115.50115,0,0,0-.70872-.70874l-1.41749.70874a.31154.31154,0,1,1-.41546-.46435l2.44393-3.49483a.68428.68428,0,0,0-.14663-.92868.65988.65988,0,0,0-.92285.13855l-.00586.00808-4.88786,6.89189a.55407.55407,0,1,0,.73318.83092l2.44394-1.222a.41548.41548,0,0,1,.41546,0,.36665.36665,0,0,1,0,.43991l-1.19754,2.44393a.70878.70878,0,0,0,0,.75761.6354.6354,0,0,0,.85539,0l6.86745-4.88786a.6599.6599,0,0,0,.15248-.92065l-.00585-.008" transform="translate(-164.5)" style="fill:#f5d34c"/><path d="M394.96482,279.62413a6.18313,6.18313,0,0,1,0,8.72484l-13.09948,13.09948a6.16939,6.16939,0,0,1-8.72483-8.72484h0L386.24,279.62413a6.18312,6.18312,0,0,1,8.72483,0" transform="translate(-164.5)" style="fill:#d0a140"/><path d="M374.24027,293.82337,387.242,280.72389a6.1587,6.1587,0,0,1,8.1383-.51322l-.51323-.58654a6.18312,6.18312,0,0,0-8.72483,0l-13.09948,13.09948a6.20758,6.20758,0,0,0,0,8.72484l.58654.51322a6.1587,6.1587,0,0,1,.51322-8.1383" transform="translate(-164.5)" style="fill:#c5993d"/><path d="M386.38662,294.77651a.68473.68473,0,1,1-.78206,1.1242h0a.56211.56211,0,0,1-.17108-.17107l-6.01207-5.841a.68429.68429,0,0,1,.17037-.95263l.00071-.0005a.65982.65982,0,0,1,.78205,0Z" transform="translate(-164.5)" style="fill:#d0a140"/><path d="M388.3662,292.89469a.65691.65691,0,1,1-.02443-.02443" transform="translate(-164.5)" style="fill:#d0a140"/><path d="M384.18707,297.02492a.65985.65985,0,1,1-.93318.00449l.0045-.00449a.65988.65988,0,0,1,.90426,0" transform="translate(-164.5)" style="fill:#d0a140"/><path d="M376.12209,292.18594l-2.0529,2.0529a.6481.6481,0,0,0,.92869.90426l.31771-.31771a.31771.31771,0,0,1,.4399,0l5.32778,5.30333a.6843.6843,0,0,0,.95263-.17036l.0005-.00071a.65984.65984,0,0,0,0-.78206l-5.35222-5.32777a.34214.34214,0,0,1,0-.41547l.34215-.34215a.6481.6481,0,1,0-.92869-.90426" transform="translate(-164.5)" style="fill:#d0a140"/><path d="M387.242,281.18825a.63543.63543,0,0,0-.18857.87862l.01749.02564,2.44394,3.47038a.3666.3666,0,0,1,0,.48878.34214.34214,0,0,1-.41547,0l-1.41748-.70875a.51323.51323,0,0,0-.70875.70875l.70875,1.41748a.31155.31155,0,0,1-.46436.41547l-3.49482-2.44394a.65984.65984,0,0,0-.92283.1386l-.00586.008a.68431.68431,0,0,0,.14663.95314l6.86745,4.88786a.70871.70871,0,0,0,.85537,0,.65987.65987,0,0,0,0-.73319l-1.222-2.44393a.41548.41548,0,0,1,0-.41546.36659.36659,0,0,1,.43991,0l2.44393,1.19752a.7088.7088,0,0,0,.75762,0,.63544.63544,0,0,0,0-.85537l-4.88787-6.86745a.65987.65987,0,0,0-.92065-.15248l-.008.00585" transform="translate(-164.5)" style="fill:#d0a140"/><path d="M386.38662,294.21439a.68474.68474,0,0,1-.78206,1.12421.562.562,0,0,1-.17108-.17108l-6.01207-6.01207a.68473.68473,0,1,1,.78206-1.1242.56208.56208,0,0,1,.17107.17107Z" transform="translate(-164.5)" style="fill:#f5d34c"/><path d="M388.3662,292.33257a.65988.65988,0,0,1,0,.90426.72138.72138,0,1,1-1.12421-.90426h0a.65988.65988,0,0,1,.90426,0" transform="translate(-164.5)" style="fill:#f5d34c"/><path d="M384.18707,296.36506a.65986.65986,0,1,1-.93318.0045l.0045-.0045a.65988.65988,0,0,1,.90426,0" transform="translate(-164.5)" style="fill:#f5d34c"/><path d="M376.12209,291.52607l-2.0529,2.05289a.64811.64811,0,0,0,.92869.90427l.31771-.31771a.36657.36657,0,0,1,.4399,0l5.32778,5.32778a.65988.65988,0,0,0,.92869,0,.70877.70877,0,0,0,0-.95314l-5.35222-5.32777a.3421.3421,0,0,1,0-.41546l.34215-.34215a.64811.64811,0,0,0-.92869-.90427" transform="translate(-164.5)" style="fill:#f5d34c"/><path d="M387.242,280.52837a.63545.63545,0,0,0-.18857.87863l.01749.02564,2.44394,3.47038a.36658.36658,0,0,1,0,.48877.34211.34211,0,0,1-.41547,0l-1.41748-.70874a.51323.51323,0,0,0-.70875.70874l.70875,1.41749a.31154.31154,0,1,1-.46436.41546l-3.49482-2.44393a.68431.68431,0,0,0-.92869.14663.65984.65984,0,0,0,.1386.92283l.008.00586,6.86745,4.88786a.63542.63542,0,0,0,.85537,0,.65985.65985,0,0,0,0-.73318l-1.222-2.44394a.41548.41548,0,0,1,0-.41546.36659.36659,0,0,1,.43991,0l2.44393,1.19752a.70876.70876,0,0,0,.75762,0,.63544.63544,0,0,0,0-.85537l-4.88787-6.86744a.65988.65988,0,0,0-.92065-.15249l-.008.00586" transform="translate(-164.5)" style="fill:#f5d34c"/><path d="M417.13129,204.66871c-11.8042,1.1242-23.04628-6.79413-23.38843-19.20931q-.51322-17.10751-1.07534-34.21506l13.41719-1.002q.48878,17.10752.97757,34.21506c.17108,5.69437,3.95918,8.456,9.77573,8.08942l1.97958-.14663c5.69437-.3666,9.33582-3.617,9.21362-9.31138q-.43989-17.10753-.83093-34.21506c5.37664-.31771,8.04054-.46434,13.41718-.73317l.73319,34.215c.19552,12.464-10.11788,21.6288-22.142,22.19091H417.229" transform="translate(-164.5)" style="fill:#fff"/><path d="M450.78423,147.65177c6.232-.29327,9.33582-.43991,15.59229-.65986q10.53333,16.88759,20.87118,33.89735h.19552q-.14664-17.303-.34215-34.60609c5.37665-.14664,8.08941-.22,13.44163-.31771q.24439,27.12763.46435,54.25529c-6.13427,0-9.18919.19552-15.32345.391q-10.36227-16.96091-20.89563-33.824h-.14663l.51323,34.53277c-5.32778.22-7.99165.31771-13.295.58654Z" transform="translate(-164.5)" style="fill:#fff"/><path d="M510.39174,145.81882c5.37665,0,8.065,0,13.44163-.17108l.19552,54.25531c-5.32775,0-7.9672,0-13.295.17107q-.171-27.12765-.34215-54.2553" transform="translate(-164.5)" style="fill:#fff"/><path d="M550.98546,156.98759h-17.303v-11.291q24.04828,0,48.121.43991v11.38873c-6.91633-.17108-10.36228-.22-17.303-.31772l-.22,42.891-13.295-.14663V157.08534" transform="translate(-164.5)" style="fill:#fff"/><path d="M591.457,146.23429q18.18288.53768,36.39015,1.34416c0,4.54572,0,6.81858-.19552,11.36429-9.16474-.41546-13.73488-.611-22.92409-.90425l-.12221,9.77573c7.454.24439,11.19322.41546,18.64722.73318,0,4.54571,0,6.81857-.19552,11.38872-7.454-.34215-11.16879-.48879-18.59833-.73317,0,4.08137,0,6.13426-.14663,10.24007,9.53132.3177,14.297.51322,23.80392.97758,0,4.54571-.12221,6.81857-.21995,11.36429q-18.525-.8065-37.02556-1.3686l.58656-54.2553" transform="translate(-164.5)" style="fill:#fff"/><path d="M657.90751,192.13134c9.18917.58654,14.98132-4.4724,15.27458-14.85911s-5.45-16.05664-14.46808-16.61874l-7.52731-.46435q-.36656,15.76336-.75762,31.50229Zm-19.86918-43.99078c8.60265.4399,12.904.68429,21.48215,1.222a28.27629,28.27629,0,0,1,27.46981,28.814,26.00346,26.00346,0,0,1-26.59,25.39246,11.22181,11.22181,0,0,1-2.224-.14663c-8.48045-.53767-12.73291-.78206-21.23778-1.19753q.53766-27.12765,1.12422-54.2553" transform="translate(-164.5)" style="fill:#fff"/><path d="M280.19775,84.59831c6.98965-.90426,10.48447-1.31972,17.47412-2.12622q4.74123,23.09516,9.40914,46.117h.19551l10.77775-48.38986,15.07905-1.56412q5.23,23.07072,10.50891,46.28808h.19552L354.029,76.70441l17.10752-1.46636L354.029,144.89012c-8.11386.70874-12.21967,1.09977-20.23576,1.88183q-4.1058-19.55147-8.23605-39.10292h-.19552q-4.15468,20.3824-8.236,40.81368c-8.16274.87981-12.21966,1.34416-20.40683,2.29729q-8.236-33.16418-16.521-66.18169" transform="translate(-164.5)" style="fill:#fff"/><path d="M719.348,76.069c7.52732.63542,11.26653.97757,18.76939,1.68631q7.33179,21.9954,14.85911,43.99079h.24441q7.33179-20.40684,14.85911-40.86255l18.525,2.15066,12.21967,69.701c-6.86745-.87982-10.3134-1.29528-17.10753-2.10178q-3.03051-22.77746-6.06094-45.53047h-.1711l-14.66359,43.18429c-6.01209-.65987-9.04254-.95314-15.05463-1.56412q-7.47848-23.09517-14.93243-46.21476h-.19552q-2.63946,22.142-5.30333,44.33293c-7.01408-.63542-10.50892-.9287-17.523-1.4908q5.79212-33.6285,11.60868-67.20814" transform="translate(-164.5)" style="fill:#fff"/><path d="M377.93061,74.82258q23.02184-1.71075,46.04368-3.03047c-.3177,5.74324-.48878,8.60264-.83093,14.34588q-14.27256.90426-28.56957,1.75963v12.39074c9.31137-.63542,13.95485-.92869,23.29067-1.46636v14.297c-9.33582.53767-13.9793.85537-23.29067,1.4908v12.75733q14.93243-1.07532,29.86485-1.85738v14.297q-23.31511,1.34415-46.43471,3.07935Z" transform="translate(-164.5)" style="fill:#fff"/><path d="M502.47341,83.27859c-8.62708.14663-12.92841.24439-21.55549.48878v-14.297q29.91372-.75762,59.85192-.78206V83.00976h-21.5555v53.93758c-6.67194,0-10.02012,0-16.71649.22V83.40078" transform="translate(-164.5)" style="fill:#fff"/><path d="M568.53288,68.835c6.69639,0,10.04457.14663,16.71649.26883V96.37807q14.517.31772,28.985.80649V69.93472c6.69639.24439,10.02014.36659,16.71649.65986v68.18571c-6.69639-.29327-10.02014-.41546-16.71649-.65986V111.48157q-14.37037-.43991-29.03393-.78206v26.59c-6.67192-.1222-10.02014-.19552-16.71649-.26883Z" transform="translate(-164.5)" style="fill:#fff"/><path d="M669.44287,88.09314q-3.73923,12.21966-7.50289,24.43932l15.128.9287q-3.69035-12.70845-7.3318-25.44134h-.19551M681.076,127.12274c-9.18917-.611-13.75935-.90425-22.94852-1.41748l-4.10579,14.07705-17.10753-.85537q10.33781-33.57963,20.72454-67.13482c8.99365.51322,13.51494.782,22.50863,1.393l22.362,69.82314c-6.86745-.53767-10.3134-.8065-17.10753-1.27084-1.66186-5.841-2.44393-8.77372-4.17914-14.6636" transform="translate(-164.5)" style="fill:#fff"/><path d="M455.6721,69.07934c-12.464.43991-26.56555,8.11385-26.66331,21.99539-.14663,21.38442,31.94219,15.64117,33.92177,27.32317.53767,3.226-3.07936,5.93876-7.69839,5.93876a46.80155,46.80155,0,0,1-22.362-5.27889c-.34214,5.88987-.611,8.96923-.85537,14.32144,7.3318,4.88787,14.6636,5.88988,22.8019,6.10983,11.99971.31772,26.44335-8.01609,26.56555-21.99539.17107-21.21333-31.62449-16.39878-33.94622-27.42093-.58654-2.835,2.8594-5.621,8.01609-5.91431a38.80958,38.80958,0,0,1,17.81627,3.27487c.3666-6.7697.46436-7.74727.83093-14.34589a33.79962,33.79962,0,0,0-18.42725-4.05693" transform="translate(-164.5)" style="fill:#fff"/></g><path d="M441.30178,632.38134l8.11386,3.54369-11.462,26.22342,13.56383,5.91435L448.4625,675.028l-21.67768-9.458Z" transform="translate(-164.5)" style="fill:#fff"/><g style="clip-path:url(#a)"><path d="M473.61055,674.9791a10.21566,10.21566,0,0,0,12.20507-7.73015l.0146-.066a9.78282,9.78282,0,0,0-18.86717-5.18113h0a10.24009,10.24009,0,0,0,6.378,13.00152l.00065.00022h.17107m7.86947-28.30074A18.28058,18.28058,0,0,1,494.971,668.69616l-.00046.002-.22.83093a18.94173,18.94173,0,1,1-36.83006-8.87148,3.83248,3.83248,0,0,1,.31771-1.14866,18.28063,18.28063,0,0,1,22.31309-13.05059Z" transform="translate(-164.5)" style="fill:#fff"/><path d="M503.231,652.666l8.92036.90425,8.28493,17.86514a65.98554,65.98554,0,0,1,2.44393,6.452s0-3.9103.22-6.18314l1.71074-16.83873,8.8226.90424-3.6659,36.02354-8.87149-.90424-8.33382-17.79183a65.99067,65.99067,0,0,1-2.44393-6.452s0,3.93469-.21994,6.2076l-1.71075,16.76535-8.8226-.90425Z" transform="translate(-164.5)" style="fill:#fff"/><path d="M553.96707,683.77727c6.10983-.34219,9.65352-4.1791,9.28695-11.11986s-4.4724-10.19123-10.43561-9.77573l-3.64147.19548,1.14865,20.99337Zm-14.05262-27.90974,12.85507-.6843c11.38874-.63545,19.0138,5.621,19.55146,16.98536S566.01563,690.718,554.65136,691.329l-12.85507.70876Z" transform="translate(-164.5)" style="fill:#fff"/><path d="M597.6157,678.10733a10.21562,10.21562,0,0,0,7.3318-12.41515v-.26879a9.7842,9.7842,0,0,0-19.11157,4.20357h0a10.2157,10.2157,0,0,0,11.67793,8.50558l.00406-.00067h.19552M591.43252,649.489a18.28059,18.28059,0,0,1,22.254,13.15746l.01018.03976a4.83957,4.83957,0,0,0,.19552.80646,18.94048,18.94048,0,1,1-22.89963-13.906h.43989" transform="translate(-164.5)" style="fill:#fff"/><path d="M613.428,644.601l8.30935-3.34818L637.354,653.17919c1.78406,1.44191,3.4948,2.9816,5.13227,4.5946,0,0-1.83295-3.47041-2.68834-5.57216l-6.32977-15.71447,8.21161-3.32375,13.78378,33.57965-8.26051,3.34817-15.56783-11.87747c-1.78406-1.44191-3.49481-2.9816-5.13228-4.59461,0,0,1.83295,3.446,2.68834,5.57217l6.30535,15.64115-8.21161,3.29932Z" transform="translate(-164.5)" style="fill:#fff"/></g><rect width="751" height="800" style="fill:none"/></svg>