<?xml version="1.0" encoding="utf-8"?>
<!-- Generator: Adobe Illustrator 16.0.0, SVG Export Plug-In . SVG Version: 6.00 Build 0)  -->
<!DOCTYPE svg PUBLIC "-//W3C//DTD SVG 1.0//EN" "http://www.w3.org/TR/2001/REC-SVG-20010904/DTD/svg10.dtd">
<svg version="1.0" id="Layer_1" xmlns="http://www.w3.org/2000/svg" xmlns:xlink="http://www.w3.org/1999/xlink" x="0px" y="0px"
	 width="800px" height="800px" viewBox="0 0 800 800" enable-background="new 0 0 800 800" xml:space="preserve">
<g>
	<polygon fill="#231F20" points="212.66,724.625 25.32,399.999 212.66,75.375 587.34,75.375 774.68,399.999 587.34,724.625 	"/>
	<polygon fill="#FDB913" points="248.664,662.129 97.329,399.999 248.664,137.87 551.336,137.87 702.671,399.999 551.336,662.129 	
		"/>
	<path fill="#FFFFFF" d="M251.885,656.715h296.376l148.116-256.716L548.115,143.286h-296.23L103.623,399.999L251.885,656.715z
		 M554.408,667.69H245.592L91.036,399.999l1.61-2.779l152.946-264.911h308.964l1.61,2.781l152.945,264.91L554.408,667.69z"/>
	<polygon fill="#231F20" points="356.532,277.644 443.176,277.644 489.426,161.581 614.563,415.952 479.181,496.012 
		435.711,638.419 364.289,638.419 320.965,495.718 185.438,415.952 310.428,161.581 	"/>
	<path fill="#FFFFFF" d="M374.388,434.248l-63.814-68.496v68.496H374.388z M489.426,365.752v68.496h-63.959L489.426,365.752z"/>
</g>
</svg>
